<svg width="73" height="73" viewBox="0 0 73 73" fill="none" xmlns="http://www.w3.org/2000/svg">
<g clip-path="url(#clip0_103_473)">
<path d="M17.6104 15.8403C31.8958 16.7156 38.3468 15.5381 42.8477 15.5381C47.0336 15.5381 49.0032 29.3037 47.2829 33.3687C45.661 37.2014 18.0596 37.3553 16.7745 35.8374C15.2885 34.0815 16.1477 26.7495 16.1477 24.2342" stroke="#3F3F3F" stroke-opacity="0.9" stroke-width="2.88" stroke-linecap="round" stroke-linejoin="round"/>
<path d="M17.6998 40.3252C-1.91864 58.4676 21.8251 55.2299 26.6821 59.1152" stroke="#3F3F3F" stroke-opacity="0.9" stroke-width="2.88" stroke-linecap="round" stroke-linejoin="round"/>
<path d="M17.6995 40.3252C17.9626 44.4666 18.2096 53.8257 18.0474 55.1219" stroke="#3F3F3F" stroke-opacity="0.9" stroke-width="2.88" stroke-linecap="round" stroke-linejoin="round"/>
<path d="M37.4954 30.5227C37.4954 29.7523 37.4954 28.9817 37.4954 28.2109" stroke="#3F3F3F" stroke-opacity="0.9" stroke-width="2.88" stroke-linecap="round" stroke-linejoin="round"/>
<path d="M31.9139 30.7084C31.8664 30.0986 31.9141 28.7014 31.9141 28.2109" stroke="#3F3F3F" stroke-opacity="0.9" stroke-width="2.88" stroke-linecap="round" stroke-linejoin="round"/>
<path d="M36.6116 49.5093C63.3774 49.1855 67.4785 46.8111 56.2543 67.5329" stroke="#3F3F3F" stroke-opacity="0.9" stroke-width="2.88" stroke-linecap="round" stroke-linejoin="round"/>
<path d="M36.6116 49.5093C63.3774 49.1855 67.4785 46.8111 56.2543 67.5329" stroke="url(#paint0_linear_103_473)" stroke-width="2.88" stroke-linecap="round" stroke-linejoin="round"/>
<path d="M51.399 68.1803C35.4258 67.5326 24.6332 73.3609 32.0801 53.6104" stroke="#3F3F3F" stroke-opacity="0.9" stroke-width="2.88" stroke-linecap="round" stroke-linejoin="round"/>
<path d="M51.399 68.1803C35.4258 67.5326 24.6332 73.3609 32.0801 53.6104" stroke="url(#paint1_linear_103_473)" stroke-width="2.88" stroke-linecap="round" stroke-linejoin="round"/>
<path d="M32.4033 68.1809C28.9387 65.6496 25.0744 63.6386 21.7185 60.8418" stroke="#3F3F3F" stroke-opacity="0.9" stroke-width="2.88" stroke-linecap="round" stroke-linejoin="round"/>
<path d="M32.4033 68.1809C28.9387 65.6496 25.0744 63.6386 21.7185 60.8418" stroke="url(#paint2_linear_103_473)" stroke-width="2.88" stroke-linecap="round" stroke-linejoin="round"/>
<path d="M39.311 40.2285C39.4243 43.0016 39.5269 45.7621 39.5269 48.5388" stroke="#3F3F3F" stroke-opacity="0.9" stroke-width="2.88" stroke-linecap="round" stroke-linejoin="round"/>
<path d="M39.311 40.2285C40.6612 42.3671 41.9345 43.759 43.5198 47.4593" stroke="#3F3F3F" stroke-opacity="0.9" stroke-width="2.88" stroke-linecap="round" stroke-linejoin="round"/>
<path d="M14.4212 27.4277C13.6079 27.6403 12.7888 27.5986 11.9595 27.6742" stroke="#3F3F3F" stroke-opacity="0.9" stroke-width="2.88" stroke-linecap="round" stroke-linejoin="round"/>
<path d="M10.7268 25.7041C10.7376 27.1958 10.7264 28.6644 10.6038 30.1352" stroke="#3F3F3F" stroke-opacity="0.9" stroke-width="2.88" stroke-linecap="round" stroke-linejoin="round"/>
<path d="M49.9934 26.8115C50.6079 26.7478 51.2261 26.6677 51.8395 26.5654" stroke="#3F3F3F" stroke-opacity="0.9" stroke-width="2.88" stroke-linecap="round" stroke-linejoin="round"/>
<path d="M52.4541 24.8428C52.6287 25.8196 52.577 26.8102 52.577 27.7968" stroke="#3F3F3F" stroke-opacity="0.9" stroke-width="2.88" stroke-linecap="round" stroke-linejoin="round"/>
<path d="M40.6382 26.9637C36.6051 26.5185 32.6982 26.7313 28.8223 27.342" stroke="#3F3F3F" stroke-opacity="0.9" stroke-width="2.88" stroke-linecap="round" stroke-linejoin="round"/>
<g clip-path="url(#clip1_103_473)">
<path d="M57.6541 11.2212C55.7518 10.6228 53.7246 11.6798 53.1262 13.5821C52.8312 14.5199 52.9385 15.488 53.351 16.3004C53.5117 16.6169 53.6158 16.966 53.5778 17.3189L53.3693 19.2551C53.2955 19.9396 53.7152 20.5809 54.3719 20.7875L54.8686 20.9438C55.5253 21.1503 56.2366 20.8647 56.568 20.2613L57.5055 18.5544C57.6764 18.2433 57.9615 18.0167 58.2745 17.8492C59.0778 17.4193 59.72 16.687 60.015 15.7492C60.6135 13.8469 59.5564 11.8196 57.6541 11.2212Z" stroke="#3F3F3F" stroke-width="1.44434"/>
<path d="M57.6541 11.2212C55.7518 10.6228 53.7246 11.6798 53.1262 13.5821C52.8312 14.5199 52.9385 15.488 53.351 16.3004C53.5117 16.6169 53.6158 16.966 53.5778 17.3189L53.3693 19.2551C53.2955 19.9396 53.7152 20.5809 54.3719 20.7875L54.8686 20.9438C55.5253 21.1503 56.2366 20.8647 56.568 20.2613L57.5055 18.5544C57.6764 18.2433 57.9615 18.0167 58.2745 17.8492C59.0778 17.4193 59.72 16.687 60.015 15.7492C60.6135 13.8469 59.5564 11.8196 57.6541 11.2212Z" stroke="url(#paint3_linear_103_473)" stroke-width="1.44434"/>
<path d="M58.3043 9.15471L58.521 8.46582Z" fill="url(#paint4_linear_103_473)"/>
<path d="M58.3043 9.15471L58.521 8.46582" stroke="#3F3F3F" stroke-width="1.44434" stroke-linecap="round" stroke-linejoin="round"/>
<path d="M58.3043 9.15471L58.521 8.46582" stroke="url(#paint5_linear_103_473)" stroke-width="1.44434" stroke-linecap="round" stroke-linejoin="round"/>
<path d="M62.004 11.8334L62.9096 11.3612" stroke="#3F3F3F" stroke-width="1.44434" stroke-linecap="round" stroke-linejoin="round"/>
<path d="M62.004 11.8334L62.9096 11.3612" stroke="url(#paint6_linear_103_473)" stroke-width="1.44434" stroke-linecap="round" stroke-linejoin="round"/>
<path d="M62.0815 16.3994L62.7704 16.6161" stroke="#3F3F3F" stroke-width="1.44434" stroke-linecap="round" stroke-linejoin="round"/>
<path d="M62.0815 16.3994L62.7704 16.6161" stroke="url(#paint7_linear_103_473)" stroke-width="1.44434" stroke-linecap="round" stroke-linejoin="round"/>
<path d="M51.0592 12.9325L50.3704 12.7158" stroke="#3F3F3F" stroke-width="1.44434" stroke-linecap="round" stroke-linejoin="round"/>
<path d="M51.0592 12.9325L50.3704 12.7158" stroke="url(#paint8_linear_103_473)" stroke-width="1.44434" stroke-linecap="round" stroke-linejoin="round"/>
<path d="M53.2651 8.32715L53.7373 9.23274" stroke="#3F3F3F" stroke-width="1.44434" stroke-linecap="round" stroke-linejoin="round"/>
<path d="M53.2651 8.32715L53.7373 9.23274" stroke="url(#paint9_linear_103_473)" stroke-width="1.44434" stroke-linecap="round" stroke-linejoin="round"/>
<path d="M54.1091 17.6768L56.8647 18.5436" stroke="#3F3F3F" stroke-width="1.44434" stroke-linecap="round" stroke-linejoin="round"/>
<path d="M54.1091 17.6768L56.8647 18.5436" stroke="url(#paint10_linear_103_473)" stroke-width="1.44434" stroke-linecap="round" stroke-linejoin="round"/>
</g>
</g>
<defs>
<linearGradient id="paint0_linear_103_473" x1="36.7118" y1="58.3993" x2="61.999" y2="58.3993" gradientUnits="userSpaceOnUse">
<stop stop-color="#6C63FF"/>
<stop offset="1" stop-color="#9A6AFF"/>
</linearGradient>
<linearGradient id="paint1_linear_103_473" x1="29.7597" y1="61.0582" x2="51.3131" y2="61.0582" gradientUnits="userSpaceOnUse">
<stop stop-color="#6C63FF"/>
<stop offset="1" stop-color="#9A6AFF"/>
</linearGradient>
<linearGradient id="paint2_linear_103_473" x1="21.7605" y1="64.5114" x2="32.3611" y2="64.5114" gradientUnits="userSpaceOnUse">
<stop stop-color="#6C63FF"/>
<stop offset="1" stop-color="#9A6AFF"/>
</linearGradient>
<linearGradient id="paint3_linear_103_473" x1="52.7198" y1="14.9684" x2="59.5544" y2="17.1184" gradientUnits="userSpaceOnUse">
<stop stop-color="#6C63FF"/>
<stop offset="1" stop-color="#9A6AFF"/>
</linearGradient>
<linearGradient id="paint4_linear_103_473" x1="58.4164" y1="8.81144" x2="59.3628" y2="9.10916" gradientUnits="userSpaceOnUse">
<stop stop-color="#6C63FF"/>
<stop offset="1" stop-color="#9A6AFF"/>
</linearGradient>
<linearGradient id="paint5_linear_103_473" x1="58.4164" y1="8.81144" x2="59.3628" y2="9.10916" gradientUnits="userSpaceOnUse">
<stop stop-color="#6C63FF"/>
<stop offset="1" stop-color="#9A6AFF"/>
</linearGradient>
<linearGradient id="paint6_linear_103_473" x1="62.1151" y1="11.4898" x2="62.7985" y2="11.7048" gradientUnits="userSpaceOnUse">
<stop stop-color="#6C63FF"/>
<stop offset="1" stop-color="#9A6AFF"/>
</linearGradient>
<linearGradient id="paint7_linear_103_473" x1="61.9342" y1="16.8772" x2="62.6177" y2="17.0922" gradientUnits="userSpaceOnUse">
<stop stop-color="#6C63FF"/>
<stop offset="1" stop-color="#9A6AFF"/>
</linearGradient>
<linearGradient id="paint8_linear_103_473" x1="50.223" y1="13.1936" x2="50.9065" y2="13.4086" gradientUnits="userSpaceOnUse">
<stop stop-color="#6C63FF"/>
<stop offset="1" stop-color="#9A6AFF"/>
</linearGradient>
<linearGradient id="paint9_linear_103_473" x1="53.1595" y1="8.67244" x2="53.8429" y2="8.88744" gradientUnits="userSpaceOnUse">
<stop stop-color="#6C63FF"/>
<stop offset="1" stop-color="#9A6AFF"/>
</linearGradient>
<linearGradient id="paint10_linear_103_473" x1="53.9699" y1="18.1571" x2="56.7037" y2="19.0171" gradientUnits="userSpaceOnUse">
<stop stop-color="#6C63FF"/>
<stop offset="1" stop-color="#9A6AFF"/>
</linearGradient>
<clipPath id="clip0_103_473">
<rect width="73" height="73" fill="white"/>
</clipPath>
<clipPath id="clip1_103_473">
<rect width="17.332" height="17.332" fill="white" transform="translate(50.9043 3.79883) rotate(17.4623)"/>
</clipPath>
</defs>
</svg>
