<svg width="73" height="73" viewBox="0 0 73 73" fill="none" xmlns="http://www.w3.org/2000/svg">
<g clip-path="url(#clip0_103_435)">
<path d="M52.6381 45.5765H62.7244C64.3927 45.5765 65.7503 44.2188 65.7503 42.5506V38.3304C66.9213 37.9129 67.7676 36.8034 67.7676 35.4901C67.7676 33.8219 66.41 32.4642 64.7417 32.4642C63.0734 32.4642 61.7158 33.8219 61.7158 35.4901C61.7158 36.8034 62.562 37.9129 63.7331 38.3304V42.5506C63.7331 43.1073 63.2812 43.5592 62.7244 43.5592H52.6381C50.9698 43.5592 49.6122 44.9168 49.6122 46.5851V65.7491H47.5949V41.5419C47.5949 40.9852 48.0468 40.5333 48.6036 40.5333H55.664C57.3323 40.5333 58.6899 39.1757 58.6899 37.5074V34.2959C59.8609 33.8783 60.7072 32.7689 60.7072 31.4556C60.7072 29.7873 59.3495 28.4297 57.6813 28.4297C56.013 28.4297 54.6554 29.7873 54.6554 31.4556C54.6554 32.7689 55.5016 33.8783 56.6726 34.2959V37.5074C56.6726 38.0642 56.2208 38.516 55.664 38.516H48.6036C46.9353 38.516 45.5777 39.8737 45.5777 41.5419V65.7491H43.5604V57.68H41.5432V65.7491H39.5259V61.7146H37.5086V65.7491H35.4914V61.7146H33.4741V65.7491H31.4568V57.68H29.4396V65.7491H27.4223V39.5247C27.4223 37.8564 26.0647 36.4988 24.3964 36.4988H16.3274C15.7706 36.4988 15.3187 36.0469 15.3187 35.4901V28.2441C16.4898 27.8266 17.336 26.7171 17.336 25.4038C17.336 23.7355 15.9784 22.3779 14.3101 22.3779C12.6418 22.3779 11.2842 23.7355 11.2842 25.4038C11.2842 26.7171 12.1305 27.8266 13.3015 28.2441V35.4901C13.3015 37.1584 14.6591 38.516 16.3274 38.516H24.3964C24.9532 38.516 25.4051 38.9679 25.4051 39.5247V65.7491H23.3878V44.5678C23.3878 42.8995 22.0302 41.5419 20.3619 41.5419H10.2756C9.71882 41.5419 9.26695 41.0901 9.26695 40.5333V33.2873C10.438 32.8697 11.2842 31.7602 11.2842 30.447C11.2842 28.7787 9.92659 27.4211 8.25832 27.4211C6.59004 27.4211 5.23242 28.7787 5.23242 30.447C5.23242 31.7602 6.07866 32.8697 7.24969 33.2873V40.5333C7.24969 42.2016 8.6073 43.5592 10.2756 43.5592H20.3619C20.9187 43.5592 21.3705 44.0111 21.3705 44.5678V65.7491H9.26695V67.7664H63.7331V65.7491H51.6295V46.5851C51.6295 46.0283 52.0813 45.5765 52.6381 45.5765ZM64.7417 34.4815C65.2985 34.4815 65.7503 34.9334 65.7503 35.4901C65.7503 36.0469 65.2985 36.4988 64.7417 36.4988C64.1849 36.4988 63.7331 36.0469 63.7331 35.4901C63.7331 34.9334 64.1849 34.4815 64.7417 34.4815ZM57.6813 30.447C58.238 30.447 58.6899 30.8988 58.6899 31.4556C58.6899 32.0124 58.238 32.4642 57.6813 32.4642C57.1245 32.4642 56.6726 32.0124 56.6726 31.4556C56.6726 30.8988 57.1245 30.447 57.6813 30.447ZM14.3101 26.4125C13.7533 26.4125 13.3015 25.9606 13.3015 25.4038C13.3015 24.8471 13.7533 24.3952 14.3101 24.3952C14.8669 24.3952 15.3187 24.8471 15.3187 25.4038C15.3187 25.9606 14.8669 26.4125 14.3101 26.4125ZM8.25832 31.4556C7.70155 31.4556 7.24969 31.0037 7.24969 30.447C7.24969 29.8902 7.70155 29.4384 8.25832 29.4384C8.81508 29.4384 9.26695 29.8902 9.26695 30.447C9.26695 31.0037 8.81508 31.4556 8.25832 31.4556Z" fill="#3F3F3F"/>
<path d="M28.3141 19.2242L27.2288 20.3085L31.5074 24.5891L32.5937 23.5038C32.8802 23.641 33.1737 23.762 33.4742 23.8679V25.4041H39.526V23.8689C39.8266 23.763 40.1201 23.641 40.4066 23.5048L41.4929 24.5901L45.7715 20.3095L44.6862 19.2252C44.8234 18.9387 44.9444 18.6452 45.0503 18.3447H46.5865V12.2919H45.0513C44.9454 11.9913 44.8234 11.6978 44.6872 11.4113L45.7725 10.325L41.4929 6.04642L40.4066 7.13171C40.1201 6.99453 39.8266 6.8735 39.526 6.76658V5.23145H33.4742V6.76658C33.1737 6.87249 32.8802 6.99453 32.5937 7.1307L31.5074 6.04642L27.2288 10.325L28.3141 11.4113C28.1769 11.6978 28.0559 11.9913 27.949 12.2919H26.4138V18.3437H27.949C28.0559 18.6442 28.1769 18.9377 28.3141 19.2242ZM28.4311 14.3091H29.476L29.6707 13.5527C29.8361 12.9132 30.0893 12.303 30.4231 11.7381L30.8205 11.0644L30.0812 10.325L31.5074 8.89883L32.2467 9.63816L32.9205 9.24076C33.4853 8.9069 34.0956 8.65373 34.735 8.48832L35.4915 8.29365V7.24871H37.5088V8.29365L38.2652 8.48832C38.9047 8.65373 39.5149 8.9069 40.0798 9.24076L40.7535 9.63816L41.4929 8.89883L42.9191 10.325L42.1797 11.0644L42.5771 11.7381C42.911 12.303 43.1642 12.9132 43.3296 13.5527L43.5242 14.3091H44.5692V16.3264H43.5242L43.3296 17.0829C43.1642 17.7223 42.911 18.3326 42.5771 18.8974L42.1787 19.5712L42.9191 20.3105L41.4929 21.7367L40.7535 20.9974L40.0798 21.3948C39.5149 21.7286 38.9047 21.9818 38.2652 22.1472L37.5088 22.3419V23.3868H35.4915V22.3419L34.735 22.1472C34.0956 21.9818 33.4853 21.7286 32.9205 21.3948L32.2467 20.9974L31.5074 21.7367L30.0812 20.3105L30.8215 19.5712L30.4231 18.8974C30.0893 18.3326 29.8361 17.7223 29.6707 17.0829L29.476 16.3264H28.4311V14.3091Z" fill="#3F3F3F"/>
<path d="M28.3141 19.2242L27.2288 20.3085L31.5074 24.5891L32.5937 23.5038C32.8802 23.641 33.1737 23.762 33.4742 23.8679V25.4041H39.526V23.8689C39.8266 23.763 40.1201 23.641 40.4066 23.5048L41.4929 24.5901L45.7715 20.3095L44.6862 19.2252C44.8234 18.9387 44.9444 18.6452 45.0503 18.3447H46.5865V12.2919H45.0513C44.9454 11.9913 44.8234 11.6978 44.6872 11.4113L45.7725 10.325L41.4929 6.04642L40.4066 7.13171C40.1201 6.99453 39.8266 6.8735 39.526 6.76658V5.23145H33.4742V6.76658C33.1737 6.87249 32.8802 6.99453 32.5937 7.1307L31.5074 6.04642L27.2288 10.325L28.3141 11.4113C28.1769 11.6978 28.0559 11.9913 27.949 12.2919H26.4138V18.3437H27.949C28.0559 18.6442 28.1769 18.9377 28.3141 19.2242ZM28.4311 14.3091H29.476L29.6707 13.5527C29.8361 12.9132 30.0893 12.303 30.4231 11.7381L30.8205 11.0644L30.0812 10.325L31.5074 8.89883L32.2467 9.63816L32.9205 9.24076C33.4853 8.9069 34.0956 8.65373 34.735 8.48832L35.4915 8.29365V7.24871H37.5088V8.29365L38.2652 8.48832C38.9047 8.65373 39.5149 8.9069 40.0798 9.24076L40.7535 9.63816L41.4929 8.89883L42.9191 10.325L42.1797 11.0644L42.5771 11.7381C42.911 12.303 43.1642 12.9132 43.3296 13.5527L43.5242 14.3091H44.5692V16.3264H43.5242L43.3296 17.0829C43.1642 17.7223 42.911 18.3326 42.5771 18.8974L42.1787 19.5712L42.9191 20.3105L41.4929 21.7367L40.7535 20.9974L40.0798 21.3948C39.5149 21.7286 38.9047 21.9818 38.2652 22.1472L37.5088 22.3419V23.3868H35.4915V22.3419L34.735 22.1472C34.0956 21.9818 33.4853 21.7286 32.9205 21.3948L32.2467 20.9974L31.5074 21.7367L30.0812 20.3105L30.8215 19.5712L30.4231 18.8974C30.0893 18.3326 29.8361 17.7223 29.6707 17.0829L29.476 16.3264H28.4311V14.3091Z" fill="url(#paint0_linear_103_435)"/>
<path d="M36.4999 20.3607C39.2807 20.3607 41.5431 18.0984 41.5431 15.3176C41.5431 12.5368 39.2807 10.2744 36.4999 10.2744C33.7191 10.2744 31.4568 12.5368 31.4568 15.3176C31.4568 18.0984 33.7191 20.3607 36.4999 20.3607ZM36.4999 12.2917C38.1682 12.2917 39.5258 13.6493 39.5258 15.3176C39.5258 16.9858 38.1682 18.3435 36.4999 18.3435C34.8317 18.3435 33.4741 16.9858 33.4741 15.3176C33.4741 13.6493 34.8317 12.2917 36.4999 12.2917Z" fill="#3F3F3F"/>
<path d="M36.4999 20.3607C39.2807 20.3607 41.5431 18.0984 41.5431 15.3176C41.5431 12.5368 39.2807 10.2744 36.4999 10.2744C33.7191 10.2744 31.4568 12.5368 31.4568 15.3176C31.4568 18.0984 33.7191 20.3607 36.4999 20.3607ZM36.4999 12.2917C38.1682 12.2917 39.5258 13.6493 39.5258 15.3176C39.5258 16.9858 38.1682 18.3435 36.4999 18.3435C34.8317 18.3435 33.4741 16.9858 33.4741 15.3176C33.4741 13.6493 34.8317 12.2917 36.4999 12.2917Z" fill="url(#paint1_linear_103_435)"/>
<path d="M35.4914 27.4219H33.4741V41.5427H35.4914V27.4219Z" fill="#3F3F3F"/>
<path d="M39.5261 27.4219H37.5088V41.5427H39.5261V27.4219Z" fill="#3F3F3F"/>
<path d="M19.3532 19.166V30.4465C19.3532 32.1148 20.7108 33.4724 22.3791 33.4724H28.4309C28.9876 33.4724 29.4395 33.9243 29.4395 34.4811V45.576H31.4568V34.4811C31.4568 32.8128 30.0992 31.4552 28.4309 31.4552H22.3791C21.8223 31.4552 21.3705 31.0033 21.3705 30.4465V19.166C22.5415 18.7484 23.3877 17.6389 23.3877 16.3257C23.3877 14.6574 22.0301 13.2998 20.3618 13.2998C18.6936 13.2998 17.3359 14.6574 17.3359 16.3257C17.3359 17.6389 18.1822 18.7484 19.3532 19.166ZM20.3618 15.3171C20.9186 15.3171 21.3705 15.7689 21.3705 16.3257C21.3705 16.8825 20.9186 17.3343 20.3618 17.3343C19.8051 17.3343 19.3532 16.8825 19.3532 16.3257C19.3532 15.7689 19.8051 15.3171 20.3618 15.3171Z" fill="#3F3F3F"/>
<path d="M50.6209 24.21V32.4646C50.6209 33.0214 50.169 33.4732 49.6123 33.4732H44.5691C42.9008 33.4732 41.5432 34.8308 41.5432 36.4991V45.5768H43.5605V36.4991C43.5605 35.9424 44.0123 35.4905 44.5691 35.4905H49.6123C51.2805 35.4905 52.6382 34.1329 52.6382 32.4646V24.21C53.8092 23.7924 54.6554 22.6829 54.6554 21.3696C54.6554 19.7014 53.2978 18.3438 51.6295 18.3438C49.9613 18.3438 48.6036 19.7014 48.6036 21.3696C48.6036 22.6829 49.4499 23.7924 50.6209 24.21ZM51.6295 20.361C52.1863 20.361 52.6382 20.8129 52.6382 21.3696C52.6382 21.9264 52.1863 22.3783 51.6295 22.3783C51.0728 22.3783 50.6209 21.9264 50.6209 21.3696C50.6209 20.8129 51.0728 20.361 51.6295 20.361Z" fill="#3F3F3F"/>
<path d="M67.7678 65.75H65.7505V67.7673H67.7678V65.75Z" fill="#3F3F3F"/>
<path d="M7.24968 65.75H5.23242V67.7673H7.24968V65.75Z" fill="#3F3F3F"/>
<g clip-path="url(#clip1_103_435)">
<path d="M40.7671 47H32.2329C31.5523 47 31 47.5021 31 48.1208V55.8792C31 56.4979 31.5523 57 32.2329 57H40.7671C41.4477 57 42 56.4979 42 55.8792V48.1208C42 47.5021 41.4477 47 40.7671 47ZM41.5417 55.8792C41.5417 56.2688 41.1956 56.5833 40.7671 56.5833H32.2329C31.8044 56.5833 31.4583 56.2687 31.4583 55.8792V48.1208C31.4583 47.7313 31.8044 47.4167 32.2329 47.4167H40.7671C41.1956 47.4167 41.5417 47.7313 41.5417 48.1208V55.8792Z" fill="#3F3F3F"/>
<path d="M40.7671 47H32.2329C31.5523 47 31 47.5021 31 48.1208V55.8792C31 56.4979 31.5523 57 32.2329 57H40.7671C41.4477 57 42 56.4979 42 55.8792V48.1208C42 47.5021 41.4477 47 40.7671 47ZM41.5417 55.8792C41.5417 56.2688 41.1956 56.5833 40.7671 56.5833H32.2329C31.8044 56.5833 31.4583 56.2687 31.4583 55.8792V48.1208C31.4583 47.7313 31.8044 47.4167 32.2329 47.4167H40.7671C41.1956 47.4167 41.5417 47.7313 41.5417 48.1208V55.8792Z" fill="url(#paint2_linear_103_435)"/>
<path d="M35.6406 49.917L34.2083 54.0837H34.8018L35.2303 52.792H36.697L37.1393 54.0837H37.7466L36.3212 49.917H35.6406ZM35.3403 52.3962L35.7368 51.2295C35.8193 50.9691 35.8903 50.6837 35.9522 50.417H35.9728C36.0347 50.6774 36.1058 50.9566 36.1951 51.2358L36.5985 52.3962H35.3403Z" fill="#3F3F3F"/>
<path d="M35.6406 49.917L34.2083 54.0837H34.8018L35.2303 52.792H36.697L37.1393 54.0837H37.7466L36.3212 49.917H35.6406ZM35.3403 52.3962L35.7368 51.2295C35.8193 50.9691 35.8903 50.6837 35.9522 50.417H35.9728C36.0347 50.6774 36.1058 50.9566 36.1951 51.2358L36.5985 52.3962H35.3403Z" fill="url(#paint3_linear_103_435)"/>
<path d="M38.6611 49.9434C38.4548 49.9434 38.3013 50.085 38.3013 50.2767C38.3013 50.4621 38.4456 50.6038 38.6542 50.6038H38.6611C38.8811 50.6038 39.0209 50.4621 39.0209 50.2767C39.0208 50.085 38.8765 49.9434 38.6611 49.9434Z" fill="#3F3F3F"/>
<path d="M38.6611 49.9434C38.4548 49.9434 38.3013 50.085 38.3013 50.2767C38.3013 50.4621 38.4456 50.6038 38.6542 50.6038H38.6611C38.8811 50.6038 39.0209 50.4621 39.0209 50.2767C39.0208 50.085 38.8765 49.9434 38.6611 49.9434Z" fill="url(#paint4_linear_103_435)"/>
<path d="M38.9521 51.083H38.3792V54.083H38.9521V51.083Z" fill="#3F3F3F"/>
<path d="M38.9521 51.083H38.3792V54.083H38.9521V51.083Z" fill="url(#paint5_linear_103_435)"/>
</g>
</g>
<defs>
<linearGradient id="paint0_linear_103_435" x1="26.4931" y1="15.3178" x2="46.5067" y2="15.3178" gradientUnits="userSpaceOnUse">
<stop stop-color="#6C63FF"/>
<stop offset="1" stop-color="#9A6AFF"/>
</linearGradient>
<linearGradient id="paint1_linear_103_435" x1="31.4964" y1="15.3176" x2="41.5032" y2="15.3176" gradientUnits="userSpaceOnUse">
<stop stop-color="#6C63FF"/>
<stop offset="1" stop-color="#9A6AFF"/>
</linearGradient>
<linearGradient id="paint2_linear_103_435" x1="31.0432" y1="52" x2="41.9565" y2="52" gradientUnits="userSpaceOnUse">
<stop stop-color="#6C63FF"/>
<stop offset="1" stop-color="#9A6AFF"/>
</linearGradient>
<linearGradient id="paint3_linear_103_435" x1="34.2222" y1="52.0003" x2="37.7326" y2="52.0003" gradientUnits="userSpaceOnUse">
<stop stop-color="#6C63FF"/>
<stop offset="1" stop-color="#9A6AFF"/>
</linearGradient>
<linearGradient id="paint4_linear_103_435" x1="38.3041" y1="50.2736" x2="39.018" y2="50.2736" gradientUnits="userSpaceOnUse">
<stop stop-color="#6C63FF"/>
<stop offset="1" stop-color="#9A6AFF"/>
</linearGradient>
<linearGradient id="paint5_linear_103_435" x1="38.3814" y1="52.583" x2="38.9498" y2="52.583" gradientUnits="userSpaceOnUse">
<stop stop-color="#6C63FF"/>
<stop offset="1" stop-color="#9A6AFF"/>
</linearGradient>
<clipPath id="clip0_103_435">
<rect width="62.5352" height="62.5352" fill="white" transform="translate(5.23242 5.23145)"/>
</clipPath>
<clipPath id="clip1_103_435">
<rect width="11" height="10" fill="white" transform="translate(31 47)"/>
</clipPath>
</defs>
</svg>
