<svg width="61" height="61" viewBox="0 0 61 61" fill="none" xmlns="http://www.w3.org/2000/svg">
<g clip-path="url(#clip0_103_616)">
<path d="M48.909 27.0018L48.078 8.25098H39.3886L38.5346 27.5206L37.4463 28.1036L36.9165 14.0428H31.0027L30.523 26.7737L24.7825 29.8489V24.8101L13.0002 31.1219V48.251H53.0002V24.81L48.909 27.0018ZM41.6619 10.6273H45.8047L46.5854 28.2464L43.5941 29.8489V24.81L41.4364 25.966L40.971 26.2154L41.6619 10.6273ZM33.2913 16.419H34.6281L35.1156 29.3521L34.1884 29.8488V24.81L32.9501 25.4733L33.2913 16.419ZM15.3766 45.8746V32.5447L22.4061 28.7789V33.8178L30.4192 29.525L31.812 28.7789V33.8178L38.4123 30.2819V30.282L41.218 28.7789V33.8178L49.0258 29.6351L50.6239 28.779V45.8747H15.3766V45.8746Z" fill="#15161B"/>
<path d="M16.9609 37.8398V44.29H34.6251V37.8398H16.9609ZM22.0568 41.9137H19.3373V40.2162H22.0568V41.9137ZM27.1528 41.9137H24.4332V40.2162H27.1528V41.9137ZM32.2487 41.9137H29.5292V40.2162H32.2487V41.9137Z" fill="#15161B"/>
</g>
<g clip-path="url(#clip1_103_616)">
<path d="M8.51779 32.4716L11.4003 29.5891C12.4449 28.5445 14.1401 28.5445 15.1847 29.5891C16.4005 30.8049 15.8582 32.3574 15.6527 32.7399L23.6896 40.7767H27.2627C27.708 40.7767 28.0676 41.1363 28.0676 41.5815V48.608H31.7777C32.1431 48.608 32.457 48.8535 32.554 49.2017L34.3235 55.6802C34.392 55.9199 34.3863 56.6962 33.5472 56.6962H13.8262C13.1983 56.6962 13.0214 56.3366 13.0214 55.8914C13.0214 55.7772 14.8251 49.2017 14.8251 49.2017C14.9221 48.8535 15.2361 48.608 15.6014 48.608H19.3116V42.2722L12.7988 35.7594L12.3022 36.256C12.1424 38.0312 10.6469 39.4239 8.83173 39.4239C8.38651 39.4239 8.02691 39.0643 8.02691 38.6191C8.02691 38.1739 8.38651 37.8143 8.83173 37.8143C9.86487 37.8143 10.7039 36.9752 10.7039 35.942C10.7039 34.9089 9.86487 34.0698 8.83173 34.0698C7.79859 34.0698 6.95952 34.9089 6.95952 35.942C6.95952 36.3873 6.59992 36.7469 6.1547 36.7469C5.70947 36.7469 5.34987 36.3873 5.34987 35.942C5.34987 34.1269 6.74832 32.6314 8.51779 32.4716ZM26.4522 42.3863H20.9155V48.608H26.4522V42.3863ZM16.2121 50.2177L14.8822 55.0809H32.4912L31.1613 50.2177H16.2121ZM20.0878 40.7767C20.0935 40.7767 20.105 40.7767 20.1107 40.7767H21.4064L14.5968 33.9614L13.9347 34.6235L20.0878 40.7767ZM11.9312 34.3495L14.0488 32.2319C14.2943 31.9864 14.5797 31.2558 14.0488 30.725C13.6321 30.3083 12.9586 30.3083 12.5419 30.725L10.4243 32.8426C11.0693 33.1794 11.6001 33.7045 11.9312 34.3495Z" fill="black"/>
<path d="M8.51779 32.4716L11.4003 29.5891C12.4449 28.5445 14.1401 28.5445 15.1847 29.5891C16.4005 30.8049 15.8582 32.3574 15.6527 32.7399L23.6896 40.7767H27.2627C27.708 40.7767 28.0676 41.1363 28.0676 41.5815V48.608H31.7777C32.1431 48.608 32.457 48.8535 32.554 49.2017L34.3235 55.6802C34.392 55.9199 34.3863 56.6962 33.5472 56.6962H13.8262C13.1983 56.6962 13.0214 56.3366 13.0214 55.8914C13.0214 55.7772 14.8251 49.2017 14.8251 49.2017C14.9221 48.8535 15.2361 48.608 15.6014 48.608H19.3116V42.2722L12.7988 35.7594L12.3022 36.256C12.1424 38.0312 10.6469 39.4239 8.83173 39.4239C8.38651 39.4239 8.02691 39.0643 8.02691 38.6191C8.02691 38.1739 8.38651 37.8143 8.83173 37.8143C9.86487 37.8143 10.7039 36.9752 10.7039 35.942C10.7039 34.9089 9.86487 34.0698 8.83173 34.0698C7.79859 34.0698 6.95952 34.9089 6.95952 35.942C6.95952 36.3873 6.59992 36.7469 6.1547 36.7469C5.70947 36.7469 5.34987 36.3873 5.34987 35.942C5.34987 34.1269 6.74832 32.6314 8.51779 32.4716ZM26.4522 42.3863H20.9155V48.608H26.4522V42.3863ZM16.2121 50.2177L14.8822 55.0809H32.4912L31.1613 50.2177H16.2121ZM20.0878 40.7767C20.0935 40.7767 20.105 40.7767 20.1107 40.7767H21.4064L14.5968 33.9614L13.9347 34.6235L20.0878 40.7767ZM11.9312 34.3495L14.0488 32.2319C14.2943 31.9864 14.5797 31.2558 14.0488 30.725C13.6321 30.3083 12.9586 30.3083 12.5419 30.725L10.4243 32.8426C11.0693 33.1794 11.6001 33.7045 11.9312 34.3495Z" fill="url(#paint0_linear_103_616)"/>
</g>
<defs>
<linearGradient id="paint0_linear_103_616" x1="34.2359" y1="42.751" x2="5.46456" y2="42.751" gradientUnits="userSpaceOnUse">
<stop stop-color="#6C63FF"/>
<stop offset="1" stop-color="#9A6AFF"/>
</linearGradient>
<clipPath id="clip0_103_616">
<rect width="40" height="40" fill="white" transform="translate(13 8.25098)"/>
</clipPath>
<clipPath id="clip1_103_616">
<rect width="29" height="29" fill="white" transform="matrix(-1 0 0 1 34.3499 28.251)"/>
</clipPath>
</defs>
</svg>
