<svg width="72" height="72" viewBox="0 0 72 72" fill="none" xmlns="http://www.w3.org/2000/svg">
<g clip-path="url(#clip0_103_134)">
<path d="M38.5767 5.69678C38.9202 5.69232 39.2294 5.76039 39.4878 5.9458C39.7441 6.12979 39.9075 6.39834 40.021 6.70752H40.02C40.545 8.13022 41.1061 9.53127 41.6528 10.9556V10.9565C41.7877 11.3092 41.8377 11.6623 41.7495 11.9771C41.668 12.2677 41.4788 12.4897 41.2144 12.6245L41.0972 12.6763C40.7731 12.8015 40.4371 12.7961 40.1382 12.6177C39.8902 12.4696 39.7065 12.225 39.5728 11.9302L39.5181 11.8013C39.0636 10.6369 38.5977 9.46646 38.1704 8.28271C38.1104 8.11811 38.0631 8.06559 38.0347 8.04443C38.0178 8.03193 37.9827 8.01169 37.896 8.00439L37.7896 8.00146C36.6039 8.03368 35.4177 8.02984 34.2339 8.00537H34.2329C34.0591 8.00139 33.9943 8.02598 33.9653 8.04443C33.9474 8.05591 33.9154 8.08256 33.8765 8.1626L33.8354 8.26221C33.6238 8.858 33.3951 9.44723 33.1675 10.0308C32.9393 10.6157 32.7121 11.1945 32.5005 11.7778V11.7788C32.3994 12.0573 32.2531 12.2908 32.0415 12.4692C31.8308 12.6469 31.579 12.7497 31.3003 12.8071L31.2993 12.8081C28.5006 13.3784 25.9027 14.4419 23.521 16.0151L23.522 16.0161C23.2414 16.2017 22.9529 16.3173 22.6421 16.3374C22.3319 16.3574 22.0333 16.2798 21.7339 16.1362V16.1372C21.1915 15.8785 20.6409 15.6337 20.0845 15.3892C19.807 15.2673 19.5276 15.1459 19.2485 15.022L18.4126 14.6431C18.2618 14.5731 18.1982 14.5681 18.1685 14.5718C18.1543 14.5736 18.1207 14.5809 18.0591 14.6323L17.9878 14.6997C17.1443 15.5877 16.2725 16.4468 15.3979 17.2954V17.2964C15.2983 17.3929 15.2835 17.4367 15.2808 17.4497C15.2794 17.4562 15.2749 17.4815 15.2964 17.5444L15.3286 17.6216V17.6226C15.5993 18.2023 15.859 18.7864 16.1167 19.3677C16.3747 19.9497 16.6308 20.5286 16.896 21.103C17.0221 21.375 17.0878 21.6508 17.0669 21.9351C17.046 22.2195 16.9406 22.4835 16.7739 22.7358V22.7368C15.1761 25.1493 14.0903 27.7766 13.5171 30.6138C13.4621 30.885 13.3588 31.1292 13.1841 31.3325C13.0094 31.5357 12.7818 31.6751 12.5151 31.772L12.5161 31.7729C11.3954 32.1829 10.2065 32.6912 9.04834 33.0894C8.85194 33.1569 8.79345 33.2199 8.76904 33.2593C8.73978 33.3067 8.71271 33.3956 8.71826 33.605C8.74894 34.7525 8.74428 35.9007 8.71826 37.0454C8.71426 37.2201 8.73883 37.2855 8.75732 37.3149C8.77195 37.3382 8.81303 37.3872 8.97314 37.4438H8.97412C9.56993 37.6555 10.159 37.8845 10.7427 38.1118C11.0353 38.2258 11.3266 38.3392 11.6177 38.4507L12.4917 38.7769C12.7696 38.8777 13.0039 39.0238 13.1831 39.2349C13.3618 39.4453 13.4661 39.697 13.5229 39.9771L13.6353 40.4995C14.2268 43.0997 15.2562 45.5222 16.73 47.7554C16.914 48.0341 17.0311 48.3205 17.0532 48.6304C17.0754 48.9404 17 49.2402 16.8569 49.5415L16.856 49.5425C16.5975 50.0844 16.3561 50.6355 16.1118 51.1929C15.99 51.4708 15.8677 51.7504 15.7427 52.0298L15.3579 52.8657C15.2852 53.0185 15.2902 53.0824 15.2964 53.1099C15.304 53.1439 15.3329 53.2073 15.4585 53.3276V53.3286C16.0992 53.9429 16.7318 54.5673 17.353 55.2026L17.9702 55.8413C18.0822 55.9591 18.1404 55.9813 18.1665 55.9868C18.189 55.9915 18.2463 55.9968 18.3882 55.9302L19.2563 55.5317C20.1315 55.1376 21.0224 54.753 21.8735 54.3628L22.063 54.2876C22.2533 54.2227 22.4473 54.1909 22.647 54.2036C22.9144 54.2208 23.1639 54.3157 23.4009 54.4722C25.8493 56.0874 28.5073 57.1955 31.3843 57.77H31.3853C31.6571 57.8246 31.891 57.9359 32.0825 58.1128C32.2717 58.2877 32.4 58.5094 32.4907 58.7554C32.9117 59.8981 33.4111 61.1047 33.8276 62.2729L33.8716 62.3794C33.9136 62.466 33.9493 62.4974 33.9722 62.5122C34.0063 62.5343 34.0784 62.5614 34.2632 62.5562C35.4102 62.524 36.5605 62.524 37.7075 62.5562C37.9064 62.5616 37.9865 62.5347 38.0269 62.5093C38.0609 62.4878 38.1188 62.4345 38.1831 62.2505L38.5063 61.3618C38.8378 60.476 39.1908 59.599 39.5308 58.728V58.7271C39.6626 58.3899 39.855 58.1061 40.1313 57.9419C40.4215 57.7696 40.7476 57.762 41.064 57.8735H41.0649C41.3876 57.9877 41.6284 58.2198 41.7378 58.5356C41.8438 58.8419 41.8134 59.1879 41.6841 59.5269C41.1238 60.9976 40.5632 62.4748 39.9702 63.939L39.9712 63.9399C39.8935 64.1336 39.7649 64.2879 39.6558 64.4067C39.528 64.5457 39.4491 64.6171 39.3599 64.7251L39.2515 64.856H32.7349L32.6265 64.7134C32.5288 64.5854 32.44 64.4949 32.311 64.3394C32.1974 64.2023 32.0719 64.0352 31.9897 63.8354C31.737 63.2255 31.4995 62.6097 31.2642 61.9995C31.0284 61.3883 30.7946 60.782 30.5454 60.1831L30.4956 60.1011C30.4716 60.0695 30.44 60.0352 30.4019 60.0015C30.3634 59.9674 30.3267 59.9423 30.2954 59.9243L30.2202 59.8911C27.7047 59.284 25.3406 58.329 23.1157 57.0278L22.6724 56.7622C22.642 56.7436 22.5684 56.719 22.4644 56.7134C22.4135 56.7106 22.3667 56.7127 22.3267 56.7183L22.23 56.7427C21.0072 57.2479 19.7968 57.7863 18.5942 58.3442C18.2959 58.4826 17.9947 58.546 17.6909 58.4878C17.3886 58.4297 17.1335 58.2609 16.9077 58.0308C15.6973 56.7975 14.4744 55.5751 13.2397 54.3647C13.0111 54.1405 12.8409 53.8865 12.7817 53.5845C12.7223 53.2809 12.785 52.9794 12.9243 52.6792C13.4836 51.4771 14.0215 50.266 14.5269 49.0444C14.5462 48.9971 14.5614 48.9106 14.5562 48.8091C14.5508 48.7054 14.5266 48.633 14.5083 48.603C13.067 46.2518 12.0099 43.7411 11.3999 41.0474L11.3774 40.9653C11.3532 40.8949 11.3241 40.8543 11.2964 40.8257C11.2556 40.7837 11.1889 40.7392 11.0581 40.6909H11.0571C9.84536 40.2422 8.63363 39.781 7.43408 39.2847C7.23384 39.2024 7.06618 39.0773 6.9292 38.9634C6.77377 38.8341 6.68267 38.7443 6.55518 38.647L6.41357 38.5386V32.02L6.55518 31.9116C6.68286 31.8142 6.77404 31.7241 6.9292 31.5952C7.06629 31.4814 7.23367 31.3568 7.43311 31.2739V31.2729C8.04308 31.0202 8.65882 30.7837 9.26904 30.5483C9.88062 30.3124 10.4872 30.078 11.0864 29.8286L11.1675 29.7788C11.1988 29.7549 11.2335 29.7241 11.2671 29.686C11.301 29.6476 11.3259 29.6104 11.3442 29.5786L11.3784 29.5015C12.0261 26.8206 13.0675 24.3085 14.5093 21.9565C14.5279 21.926 14.5534 21.8532 14.5591 21.7495C14.5646 21.6478 14.5489 21.5618 14.5298 21.5151C14.0246 20.2924 13.4851 19.0823 12.9272 17.8813C12.7881 17.5824 12.7245 17.2815 12.7827 16.978C12.8408 16.6758 13.0109 16.4211 13.2397 16.1958L15.0815 14.3706C15.6928 13.7593 16.3017 13.1452 16.9077 12.5278L17.0815 12.3677C17.2615 12.2208 17.4608 12.1142 17.687 12.0698C17.9148 12.0252 18.1419 12.0489 18.3677 12.1226L18.5933 12.2124L19.4966 12.6274C20.4012 13.0381 21.311 13.4351 22.228 13.814C22.2758 13.8337 22.3633 13.8502 22.4653 13.8452C22.5694 13.8401 22.641 13.8153 22.6704 13.7974C25.0228 12.3578 27.5323 11.2975 30.228 10.689C30.3523 10.6608 30.4126 10.623 30.4507 10.5864C30.4925 10.5463 30.5365 10.4798 30.5854 10.3481C30.8138 9.73058 31.0524 9.11706 31.2896 8.50732C31.5271 7.89643 31.7635 7.2889 31.9878 6.67822C32.0981 6.37815 32.2583 6.11851 32.5083 5.93994C32.7601 5.76011 33.0602 5.6932 33.3911 5.69678C35.1193 5.71505 36.8483 5.71808 38.5767 5.69678Z" fill="#5988ED"/>
<path d="M38.5767 5.69678C38.9202 5.69232 39.2294 5.76039 39.4878 5.9458C39.7441 6.12979 39.9075 6.39834 40.021 6.70752H40.02C40.545 8.13022 41.1061 9.53127 41.6528 10.9556V10.9565C41.7877 11.3092 41.8377 11.6623 41.7495 11.9771C41.668 12.2677 41.4788 12.4897 41.2144 12.6245L41.0972 12.6763C40.7731 12.8015 40.4371 12.7961 40.1382 12.6177C39.8902 12.4696 39.7065 12.225 39.5728 11.9302L39.5181 11.8013C39.0636 10.6369 38.5977 9.46646 38.1704 8.28271C38.1104 8.11811 38.0631 8.06559 38.0347 8.04443C38.0178 8.03193 37.9827 8.01169 37.896 8.00439L37.7896 8.00146C36.6039 8.03368 35.4177 8.02984 34.2339 8.00537H34.2329C34.0591 8.00139 33.9943 8.02598 33.9653 8.04443C33.9474 8.05591 33.9154 8.08256 33.8765 8.1626L33.8354 8.26221C33.6238 8.858 33.3951 9.44723 33.1675 10.0308C32.9393 10.6157 32.7121 11.1945 32.5005 11.7778V11.7788C32.3994 12.0573 32.2531 12.2908 32.0415 12.4692C31.8308 12.6469 31.579 12.7497 31.3003 12.8071L31.2993 12.8081C28.5006 13.3784 25.9027 14.4419 23.521 16.0151L23.522 16.0161C23.2414 16.2017 22.9529 16.3173 22.6421 16.3374C22.3319 16.3574 22.0333 16.2798 21.7339 16.1362V16.1372C21.1915 15.8785 20.6409 15.6337 20.0845 15.3892C19.807 15.2673 19.5276 15.1459 19.2485 15.022L18.4126 14.6431C18.2618 14.5731 18.1982 14.5681 18.1685 14.5718C18.1543 14.5736 18.1207 14.5809 18.0591 14.6323L17.9878 14.6997C17.1443 15.5877 16.2725 16.4468 15.3979 17.2954V17.2964C15.2983 17.3929 15.2835 17.4367 15.2808 17.4497C15.2794 17.4562 15.2749 17.4815 15.2964 17.5444L15.3286 17.6216V17.6226C15.5993 18.2023 15.859 18.7864 16.1167 19.3677C16.3747 19.9497 16.6308 20.5286 16.896 21.103C17.0221 21.375 17.0878 21.6508 17.0669 21.9351C17.046 22.2195 16.9406 22.4835 16.7739 22.7358V22.7368C15.1761 25.1493 14.0903 27.7766 13.5171 30.6138C13.4621 30.885 13.3588 31.1292 13.1841 31.3325C13.0094 31.5357 12.7818 31.6751 12.5151 31.772L12.5161 31.7729C11.3954 32.1829 10.2065 32.6912 9.04834 33.0894C8.85194 33.1569 8.79345 33.2199 8.76904 33.2593C8.73978 33.3067 8.71271 33.3956 8.71826 33.605C8.74894 34.7525 8.74428 35.9007 8.71826 37.0454C8.71426 37.2201 8.73883 37.2855 8.75732 37.3149C8.77195 37.3382 8.81303 37.3872 8.97314 37.4438H8.97412C9.56993 37.6555 10.159 37.8845 10.7427 38.1118C11.0353 38.2258 11.3266 38.3392 11.6177 38.4507L12.4917 38.7769C12.7696 38.8777 13.0039 39.0238 13.1831 39.2349C13.3618 39.4453 13.4661 39.697 13.5229 39.9771L13.6353 40.4995C14.2268 43.0997 15.2562 45.5222 16.73 47.7554C16.914 48.0341 17.0311 48.3205 17.0532 48.6304C17.0754 48.9404 17 49.2402 16.8569 49.5415L16.856 49.5425C16.5975 50.0844 16.3561 50.6355 16.1118 51.1929C15.99 51.4708 15.8677 51.7504 15.7427 52.0298L15.3579 52.8657C15.2852 53.0185 15.2902 53.0824 15.2964 53.1099C15.304 53.1439 15.3329 53.2073 15.4585 53.3276V53.3286C16.0992 53.9429 16.7318 54.5673 17.353 55.2026L17.9702 55.8413C18.0822 55.9591 18.1404 55.9813 18.1665 55.9868C18.189 55.9915 18.2463 55.9968 18.3882 55.9302L19.2563 55.5317C20.1315 55.1376 21.0224 54.753 21.8735 54.3628L22.063 54.2876C22.2533 54.2227 22.4473 54.1909 22.647 54.2036C22.9144 54.2208 23.1639 54.3157 23.4009 54.4722C25.8493 56.0874 28.5073 57.1955 31.3843 57.77H31.3853C31.6571 57.8246 31.891 57.9359 32.0825 58.1128C32.2717 58.2877 32.4 58.5094 32.4907 58.7554C32.9117 59.8981 33.4111 61.1047 33.8276 62.2729L33.8716 62.3794C33.9136 62.466 33.9493 62.4974 33.9722 62.5122C34.0063 62.5343 34.0784 62.5614 34.2632 62.5562C35.4102 62.524 36.5605 62.524 37.7075 62.5562C37.9064 62.5616 37.9865 62.5347 38.0269 62.5093C38.0609 62.4878 38.1188 62.4345 38.1831 62.2505L38.5063 61.3618C38.8378 60.476 39.1908 59.599 39.5308 58.728V58.7271C39.6626 58.3899 39.855 58.1061 40.1313 57.9419C40.4215 57.7696 40.7476 57.762 41.064 57.8735H41.0649C41.3876 57.9877 41.6284 58.2198 41.7378 58.5356C41.8438 58.8419 41.8134 59.1879 41.6841 59.5269C41.1238 60.9976 40.5632 62.4748 39.9702 63.939L39.9712 63.9399C39.8935 64.1336 39.7649 64.2879 39.6558 64.4067C39.528 64.5457 39.4491 64.6171 39.3599 64.7251L39.2515 64.856H32.7349L32.6265 64.7134C32.5288 64.5854 32.44 64.4949 32.311 64.3394C32.1974 64.2023 32.0719 64.0352 31.9897 63.8354C31.737 63.2255 31.4995 62.6097 31.2642 61.9995C31.0284 61.3883 30.7946 60.782 30.5454 60.1831L30.4956 60.1011C30.4716 60.0695 30.44 60.0352 30.4019 60.0015C30.3634 59.9674 30.3267 59.9423 30.2954 59.9243L30.2202 59.8911C27.7047 59.284 25.3406 58.329 23.1157 57.0278L22.6724 56.7622C22.642 56.7436 22.5684 56.719 22.4644 56.7134C22.4135 56.7106 22.3667 56.7127 22.3267 56.7183L22.23 56.7427C21.0072 57.2479 19.7968 57.7863 18.5942 58.3442C18.2959 58.4826 17.9947 58.546 17.6909 58.4878C17.3886 58.4297 17.1335 58.2609 16.9077 58.0308C15.6973 56.7975 14.4744 55.5751 13.2397 54.3647C13.0111 54.1405 12.8409 53.8865 12.7817 53.5845C12.7223 53.2809 12.785 52.9794 12.9243 52.6792C13.4836 51.4771 14.0215 50.266 14.5269 49.0444C14.5462 48.9971 14.5614 48.9106 14.5562 48.8091C14.5508 48.7054 14.5266 48.633 14.5083 48.603C13.067 46.2518 12.0099 43.7411 11.3999 41.0474L11.3774 40.9653C11.3532 40.8949 11.3241 40.8543 11.2964 40.8257C11.2556 40.7837 11.1889 40.7392 11.0581 40.6909H11.0571C9.84536 40.2422 8.63363 39.781 7.43408 39.2847C7.23384 39.2024 7.06618 39.0773 6.9292 38.9634C6.77377 38.8341 6.68267 38.7443 6.55518 38.647L6.41357 38.5386V32.02L6.55518 31.9116C6.68286 31.8142 6.77404 31.7241 6.9292 31.5952C7.06629 31.4814 7.23367 31.3568 7.43311 31.2739V31.2729C8.04308 31.0202 8.65882 30.7837 9.26904 30.5483C9.88062 30.3124 10.4872 30.078 11.0864 29.8286L11.1675 29.7788C11.1988 29.7549 11.2335 29.7241 11.2671 29.686C11.301 29.6476 11.3259 29.6104 11.3442 29.5786L11.3784 29.5015C12.0261 26.8206 13.0675 24.3085 14.5093 21.9565C14.5279 21.926 14.5534 21.8532 14.5591 21.7495C14.5646 21.6478 14.5489 21.5618 14.5298 21.5151C14.0246 20.2924 13.4851 19.0823 12.9272 17.8813C12.7881 17.5824 12.7245 17.2815 12.7827 16.978C12.8408 16.6758 13.0109 16.4211 13.2397 16.1958L15.0815 14.3706C15.6928 13.7593 16.3017 13.1452 16.9077 12.5278L17.0815 12.3677C17.2615 12.2208 17.4608 12.1142 17.687 12.0698C17.9148 12.0252 18.1419 12.0489 18.3677 12.1226L18.5933 12.2124L19.4966 12.6274C20.4012 13.0381 21.311 13.4351 22.228 13.814C22.2758 13.8337 22.3633 13.8502 22.4653 13.8452C22.5694 13.8401 22.641 13.8153 22.6704 13.7974C25.0228 12.3578 27.5323 11.2975 30.228 10.689C30.3523 10.6608 30.4126 10.623 30.4507 10.5864C30.4925 10.5463 30.5365 10.4798 30.5854 10.3481C30.8138 9.73058 31.0524 9.11706 31.2896 8.50732C31.5271 7.89643 31.7635 7.2889 31.9878 6.67822C32.0981 6.37815 32.2583 6.11851 32.5083 5.93994C32.7601 5.76011 33.0602 5.6932 33.3911 5.69678C35.1193 5.71505 36.8483 5.71808 38.5767 5.69678Z" fill="url(#paint0_linear_103_134)"/>
<path d="M38.5767 5.69678C38.9202 5.69232 39.2294 5.76039 39.4878 5.9458C39.7441 6.12979 39.9075 6.39834 40.021 6.70752H40.02C40.545 8.13022 41.1061 9.53127 41.6528 10.9556V10.9565C41.7877 11.3092 41.8377 11.6623 41.7495 11.9771C41.668 12.2677 41.4788 12.4897 41.2144 12.6245L41.0972 12.6763C40.7731 12.8015 40.4371 12.7961 40.1382 12.6177C39.8902 12.4696 39.7065 12.225 39.5728 11.9302L39.5181 11.8013C39.0636 10.6369 38.5977 9.46646 38.1704 8.28271C38.1104 8.11811 38.0631 8.06559 38.0347 8.04443C38.0178 8.03193 37.9827 8.01169 37.896 8.00439L37.7896 8.00146C36.6039 8.03368 35.4177 8.02984 34.2339 8.00537H34.2329C34.0591 8.00139 33.9943 8.02598 33.9653 8.04443C33.9474 8.05591 33.9154 8.08256 33.8765 8.1626L33.8354 8.26221C33.6238 8.858 33.3951 9.44723 33.1675 10.0308C32.9393 10.6157 32.7121 11.1945 32.5005 11.7778V11.7788C32.3994 12.0573 32.2531 12.2908 32.0415 12.4692C31.8308 12.6469 31.579 12.7497 31.3003 12.8071L31.2993 12.8081C28.5006 13.3784 25.9027 14.4419 23.521 16.0151L23.522 16.0161C23.2414 16.2017 22.9529 16.3173 22.6421 16.3374C22.3319 16.3574 22.0333 16.2798 21.7339 16.1362V16.1372C21.1915 15.8785 20.6409 15.6337 20.0845 15.3892C19.807 15.2673 19.5276 15.1459 19.2485 15.022L18.4126 14.6431C18.2618 14.5731 18.1982 14.5681 18.1685 14.5718C18.1543 14.5736 18.1207 14.5809 18.0591 14.6323L17.9878 14.6997C17.1443 15.5877 16.2725 16.4468 15.3979 17.2954V17.2964C15.2983 17.3929 15.2835 17.4367 15.2808 17.4497C15.2794 17.4562 15.2749 17.4815 15.2964 17.5444L15.3286 17.6216V17.6226C15.5993 18.2023 15.859 18.7864 16.1167 19.3677C16.3747 19.9497 16.6308 20.5286 16.896 21.103C17.0221 21.375 17.0878 21.6508 17.0669 21.9351C17.046 22.2195 16.9406 22.4835 16.7739 22.7358V22.7368C15.1761 25.1493 14.0903 27.7766 13.5171 30.6138C13.4621 30.885 13.3588 31.1292 13.1841 31.3325C13.0094 31.5357 12.7818 31.6751 12.5151 31.772L12.5161 31.7729C11.3954 32.1829 10.2065 32.6912 9.04834 33.0894C8.85194 33.1569 8.79345 33.2199 8.76904 33.2593C8.73978 33.3067 8.71271 33.3956 8.71826 33.605C8.74894 34.7525 8.74428 35.9007 8.71826 37.0454C8.71426 37.2201 8.73883 37.2855 8.75732 37.3149C8.77195 37.3382 8.81303 37.3872 8.97314 37.4438H8.97412C9.56993 37.6555 10.159 37.8845 10.7427 38.1118C11.0353 38.2258 11.3266 38.3392 11.6177 38.4507L12.4917 38.7769C12.7696 38.8777 13.0039 39.0238 13.1831 39.2349C13.3618 39.4453 13.4661 39.697 13.5229 39.9771L13.6353 40.4995C14.2268 43.0997 15.2562 45.5222 16.73 47.7554C16.914 48.0341 17.0311 48.3205 17.0532 48.6304C17.0754 48.9404 17 49.2402 16.8569 49.5415L16.856 49.5425C16.5975 50.0844 16.3561 50.6355 16.1118 51.1929C15.99 51.4708 15.8677 51.7504 15.7427 52.0298L15.3579 52.8657C15.2852 53.0185 15.2902 53.0824 15.2964 53.1099C15.304 53.1439 15.3329 53.2073 15.4585 53.3276V53.3286C16.0992 53.9429 16.7318 54.5673 17.353 55.2026L17.9702 55.8413C18.0822 55.9591 18.1404 55.9813 18.1665 55.9868C18.189 55.9915 18.2463 55.9968 18.3882 55.9302L19.2563 55.5317C20.1315 55.1376 21.0224 54.753 21.8735 54.3628L22.063 54.2876C22.2533 54.2227 22.4473 54.1909 22.647 54.2036C22.9144 54.2208 23.1639 54.3157 23.4009 54.4722C25.8493 56.0874 28.5073 57.1955 31.3843 57.77H31.3853C31.6571 57.8246 31.891 57.9359 32.0825 58.1128C32.2717 58.2877 32.4 58.5094 32.4907 58.7554C32.9117 59.8981 33.4111 61.1047 33.8276 62.2729L33.8716 62.3794C33.9136 62.466 33.9493 62.4974 33.9722 62.5122C34.0063 62.5343 34.0784 62.5614 34.2632 62.5562C35.4102 62.524 36.5605 62.524 37.7075 62.5562C37.9064 62.5616 37.9865 62.5347 38.0269 62.5093C38.0609 62.4878 38.1188 62.4345 38.1831 62.2505L38.5063 61.3618C38.8378 60.476 39.1908 59.599 39.5308 58.728V58.7271C39.6626 58.3899 39.855 58.1061 40.1313 57.9419C40.4215 57.7696 40.7476 57.762 41.064 57.8735H41.0649C41.3876 57.9877 41.6284 58.2198 41.7378 58.5356C41.8438 58.8419 41.8134 59.1879 41.6841 59.5269C41.1238 60.9976 40.5632 62.4748 39.9702 63.939L39.9712 63.9399C39.8935 64.1336 39.7649 64.2879 39.6558 64.4067C39.528 64.5457 39.4491 64.6171 39.3599 64.7251L39.2515 64.856H32.7349L32.6265 64.7134C32.5288 64.5854 32.44 64.4949 32.311 64.3394C32.1974 64.2023 32.0719 64.0352 31.9897 63.8354C31.737 63.2255 31.4995 62.6097 31.2642 61.9995C31.0284 61.3883 30.7946 60.782 30.5454 60.1831L30.4956 60.1011C30.4716 60.0695 30.44 60.0352 30.4019 60.0015C30.3634 59.9674 30.3267 59.9423 30.2954 59.9243L30.2202 59.8911C27.7047 59.284 25.3406 58.329 23.1157 57.0278L22.6724 56.7622C22.642 56.7436 22.5684 56.719 22.4644 56.7134C22.4135 56.7106 22.3667 56.7127 22.3267 56.7183L22.23 56.7427C21.0072 57.2479 19.7968 57.7863 18.5942 58.3442C18.2959 58.4826 17.9947 58.546 17.6909 58.4878C17.3886 58.4297 17.1335 58.2609 16.9077 58.0308C15.6973 56.7975 14.4744 55.5751 13.2397 54.3647C13.0111 54.1405 12.8409 53.8865 12.7817 53.5845C12.7223 53.2809 12.785 52.9794 12.9243 52.6792C13.4836 51.4771 14.0215 50.266 14.5269 49.0444C14.5462 48.9971 14.5614 48.9106 14.5562 48.8091C14.5508 48.7054 14.5266 48.633 14.5083 48.603C13.067 46.2518 12.0099 43.7411 11.3999 41.0474L11.3774 40.9653C11.3532 40.8949 11.3241 40.8543 11.2964 40.8257C11.2556 40.7837 11.1889 40.7392 11.0581 40.6909H11.0571C9.84536 40.2422 8.63363 39.781 7.43408 39.2847C7.23384 39.2024 7.06618 39.0773 6.9292 38.9634C6.77377 38.8341 6.68267 38.7443 6.55518 38.647L6.41357 38.5386V32.02L6.55518 31.9116C6.68286 31.8142 6.77404 31.7241 6.9292 31.5952C7.06629 31.4814 7.23367 31.3568 7.43311 31.2739V31.2729C8.04308 31.0202 8.65882 30.7837 9.26904 30.5483C9.88062 30.3124 10.4872 30.078 11.0864 29.8286L11.1675 29.7788C11.1988 29.7549 11.2335 29.7241 11.2671 29.686C11.301 29.6476 11.3259 29.6104 11.3442 29.5786L11.3784 29.5015C12.0261 26.8206 13.0675 24.3085 14.5093 21.9565C14.5279 21.926 14.5534 21.8532 14.5591 21.7495C14.5646 21.6478 14.5489 21.5618 14.5298 21.5151C14.0246 20.2924 13.4851 19.0823 12.9272 17.8813C12.7881 17.5824 12.7245 17.2815 12.7827 16.978C12.8408 16.6758 13.0109 16.4211 13.2397 16.1958L15.0815 14.3706C15.6928 13.7593 16.3017 13.1452 16.9077 12.5278L17.0815 12.3677C17.2615 12.2208 17.4608 12.1142 17.687 12.0698C17.9148 12.0252 18.1419 12.0489 18.3677 12.1226L18.5933 12.2124L19.4966 12.6274C20.4012 13.0381 21.311 13.4351 22.228 13.814C22.2758 13.8337 22.3633 13.8502 22.4653 13.8452C22.5694 13.8401 22.641 13.8153 22.6704 13.7974C25.0228 12.3578 27.5323 11.2975 30.228 10.689C30.3523 10.6608 30.4126 10.623 30.4507 10.5864C30.4925 10.5463 30.5365 10.4798 30.5854 10.3481C30.8138 9.73058 31.0524 9.11706 31.2896 8.50732C31.5271 7.89643 31.7635 7.2889 31.9878 6.67822C32.0981 6.37815 32.2583 6.11851 32.5083 5.93994C32.7601 5.76011 33.0602 5.6932 33.3911 5.69678C35.1193 5.71505 36.8483 5.71808 38.5767 5.69678Z" stroke="url(#paint1_linear_103_134)" stroke-width="0.721471"/>
<mask id="path-2-outside-1_103_134" maskUnits="userSpaceOnUse" x="17.4314" y="8.25" width="49" height="54" fill="black">
<rect fill="white" x="17.4314" y="8.25" width="49" height="54"/>
<path d="M36.7884 24.1593C37.2213 24.1593 37.5979 24.1593 37.9744 24.1593C39.4776 24.1593 40.9792 24.173 42.4824 24.1456C42.7355 24.141 43.0495 24.0312 43.2264 23.859C44.7768 22.3436 46.3059 20.8069 47.8334 19.2671C47.9569 19.1421 48.0896 18.9592 48.0957 18.7976C48.1231 18.0414 48.1079 17.2822 48.1079 16.5444C45.9552 15.6876 44.9277 14.1021 45.2951 12.2635C45.6625 10.425 47.1764 9.2084 49.0424 9.25109C50.7514 9.29073 52.2576 10.6094 52.5305 12.3047C52.8384 14.2103 51.7819 15.8095 49.6934 16.5276C49.6934 17.3386 49.7345 18.1756 49.6735 19.0034C49.6476 19.3662 49.5028 19.8007 49.2589 20.0538C47.5377 21.8283 45.7876 23.5754 44.0145 25.2981C43.7737 25.5329 43.3575 25.6945 43.019 25.7021C41.1744 25.7402 39.3297 25.7204 37.4851 25.7204C37.2792 25.7204 37.0734 25.7204 36.828 25.7204V29.303C37.0277 29.3122 37.2122 29.3289 37.3982 29.3289C39.5096 29.3305 41.6211 29.3442 43.7325 29.3137C44.0313 29.3091 44.3957 29.1612 44.6137 28.9554C45.5558 28.0697 46.4705 27.155 47.3609 26.2174C47.745 25.8119 48.1521 25.5862 48.7116 25.6625C49.6293 25.789 50.2361 25.6305 50.695 24.5984C51.3886 23.0357 53.3049 22.4229 54.9423 22.9519C56.5933 23.4855 57.6086 25.0603 57.4547 26.847C57.3144 28.4828 55.9957 29.8183 54.2608 30.0805C52.6601 30.3229 50.9739 29.3533 50.4099 27.7755C50.2346 27.2861 49.9861 27.2403 49.5516 27.2068C48.864 27.1535 48.3777 27.3776 47.9142 27.8852C47.1078 28.7694 46.2205 29.5789 45.3897 30.4418C45.0588 30.7848 44.6945 30.9205 44.2249 30.9175C41.9808 30.9038 39.7368 30.9114 37.4912 30.9114C37.2838 30.9114 37.0765 30.9114 36.8295 30.9114V34.4559C36.9987 34.4635 37.1801 34.4803 37.3631 34.4803C44.0389 34.4803 50.7163 34.4803 57.3921 34.4879C57.7763 34.4879 57.976 34.4132 58.1254 33.9985C58.723 32.32 60.4457 31.3474 62.1639 31.6538C63.9201 31.9663 65.2114 33.4939 65.2159 35.2654C65.2205 37.0414 63.9506 38.5614 62.1867 38.8953C60.4823 39.2169 58.7535 38.2412 58.127 36.578C58.002 36.2472 57.8998 36.0581 57.4729 36.0597C50.7209 36.0779 43.9688 36.0719 37.2152 36.0719H36.8341V39.6163C37.0155 39.624 37.2152 39.6407 37.4134 39.6407C39.7535 39.6423 42.0921 39.6499 44.4323 39.6362C44.9033 39.6331 45.2662 39.7734 45.5939 40.1164C46.3028 40.8588 47.0636 41.554 47.7572 42.3102C48.1124 42.6974 48.4859 42.859 49.0012 42.8087C49.3945 42.769 49.7955 42.8011 50.1736 42.8011C51.0761 40.5814 52.6509 39.5843 54.5596 39.9868C56.3036 40.3542 57.5095 41.8955 57.4699 43.7051C57.4318 45.4735 56.1298 46.9355 54.3233 47.2221C52.9436 47.4417 50.9206 46.7846 50.2041 44.3865C49.5607 44.3865 48.893 44.4369 48.2374 44.3667C47.8731 44.3286 47.4584 44.1701 47.1916 43.9277C46.3486 43.1608 45.5695 42.3239 44.7509 41.5281C44.6122 41.3924 44.4079 41.2415 44.2325 41.24C41.7811 41.2217 39.3297 41.2278 36.8341 41.2278V44.8363C37.0368 44.8363 37.2396 44.8363 37.4424 44.8363C39.3068 44.8363 41.1713 44.8165 43.0343 44.8546C43.3712 44.8622 43.7843 45.0314 44.0267 45.2662C45.7997 46.9904 47.5484 48.7375 49.2726 50.5105C49.5074 50.7514 49.6537 51.163 49.6781 51.5076C49.736 52.3384 49.6964 53.1754 49.6964 54.0382C51.0502 54.4194 51.9984 55.2304 52.4177 56.5689C53.0122 58.4639 51.9771 60.4564 50.0913 61.1044C48.1917 61.7569 46.1443 60.7751 45.4598 58.8831C44.7859 57.0202 45.693 54.9484 47.556 54.2471C48.0301 54.0687 48.0713 53.8294 48.1307 53.3979C48.3137 52.0716 47.8502 51.1158 46.8379 50.2422C45.5741 49.1507 44.4582 47.8899 43.2599 46.7221C43.0892 46.5559 42.8117 46.4141 42.5815 46.4111C40.7932 46.3852 39.0065 46.3959 37.2183 46.3989C37.0887 46.3989 36.9606 46.4279 36.7899 46.4477C36.7899 48.1963 36.7899 49.9251 36.7899 51.6539C36.7899 52.6448 36.5688 52.8644 35.5901 52.8522C27.2495 52.747 19.8678 46.3135 18.639 38.0781C17.2441 28.7267 23.0007 20.2413 32.2194 18.1238C33.3765 17.8585 34.5885 17.8051 35.7791 17.7106C36.4972 17.6527 36.7853 17.9698 36.7884 18.6894C36.7944 20.287 36.7899 21.8847 36.7899 23.4824C36.7899 23.6867 36.7899 23.891 36.7899 24.1578L36.7884 24.1593ZM35.1815 19.261C29.2435 19.816 24.6776 22.5113 21.9167 27.748C18.8906 33.4878 19.2824 39.2154 22.9915 44.5497C25.9048 48.739 30.0683 50.8749 35.1815 51.2789V19.261ZM51.7271 26.4415C51.7271 27.6093 52.6616 28.5469 53.8202 28.5408C54.9773 28.5347 55.9042 27.5849 55.892 26.4186C55.8798 25.2783 54.9621 24.3575 53.8263 24.3453C52.6723 24.3331 51.7286 25.2752 51.7286 26.4415H51.7271ZM61.5144 33.1997C60.3482 33.2103 59.4258 34.1601 59.4502 35.3203C59.4762 36.4865 60.4183 37.3829 61.5937 37.3601C62.734 37.3372 63.6289 36.4164 63.6244 35.2684C63.6198 34.0991 62.6898 33.189 61.5129 33.1997H61.5144ZM48.8991 10.8381C47.7206 10.8412 46.8151 11.7589 46.8242 12.9389C46.8334 14.0868 47.7374 14.9909 48.8854 15.0016C50.0577 15.0122 50.9877 14.096 50.9922 12.9252C50.9968 11.7543 50.0745 10.8351 48.8991 10.8381ZM51.7271 43.5786C51.724 44.7524 52.6433 45.6763 53.8126 45.6732C54.9575 45.6702 55.8722 44.7692 55.889 43.6258C55.9057 42.455 54.9956 41.5128 53.8309 41.4976C52.6723 41.4823 51.7301 42.4138 51.7271 43.5801V43.5786ZM48.9174 59.7216C50.0867 59.7171 51.006 58.7856 50.9922 57.6163C50.9785 56.4485 50.044 55.546 48.8655 55.5612C47.7176 55.5765 46.8242 56.4851 46.8242 57.6376C46.8242 58.813 47.7389 59.7247 48.9174 59.7201V59.7216Z"/>
</mask>
<path d="M36.7884 24.1593C37.2213 24.1593 37.5979 24.1593 37.9744 24.1593C39.4776 24.1593 40.9792 24.173 42.4824 24.1456C42.7355 24.141 43.0495 24.0312 43.2264 23.859C44.7768 22.3436 46.3059 20.8069 47.8334 19.2671C47.9569 19.1421 48.0896 18.9592 48.0957 18.7976C48.1231 18.0414 48.1079 17.2822 48.1079 16.5444C45.9552 15.6876 44.9277 14.1021 45.2951 12.2635C45.6625 10.425 47.1764 9.2084 49.0424 9.25109C50.7514 9.29073 52.2576 10.6094 52.5305 12.3047C52.8384 14.2103 51.7819 15.8095 49.6934 16.5276C49.6934 17.3386 49.7345 18.1756 49.6735 19.0034C49.6476 19.3662 49.5028 19.8007 49.2589 20.0538C47.5377 21.8283 45.7876 23.5754 44.0145 25.2981C43.7737 25.5329 43.3575 25.6945 43.019 25.7021C41.1744 25.7402 39.3297 25.7204 37.4851 25.7204C37.2792 25.7204 37.0734 25.7204 36.828 25.7204V29.303C37.0277 29.3122 37.2122 29.3289 37.3982 29.3289C39.5096 29.3305 41.6211 29.3442 43.7325 29.3137C44.0313 29.3091 44.3957 29.1612 44.6137 28.9554C45.5558 28.0697 46.4705 27.155 47.3609 26.2174C47.745 25.8119 48.1521 25.5862 48.7116 25.6625C49.6293 25.789 50.2361 25.6305 50.695 24.5984C51.3886 23.0357 53.3049 22.4229 54.9423 22.9519C56.5933 23.4855 57.6086 25.0603 57.4547 26.847C57.3144 28.4828 55.9957 29.8183 54.2608 30.0805C52.6601 30.3229 50.9739 29.3533 50.4099 27.7755C50.2346 27.2861 49.9861 27.2403 49.5516 27.2068C48.864 27.1535 48.3777 27.3776 47.9142 27.8852C47.1078 28.7694 46.2205 29.5789 45.3897 30.4418C45.0588 30.7848 44.6945 30.9205 44.2249 30.9175C41.9808 30.9038 39.7368 30.9114 37.4912 30.9114C37.2838 30.9114 37.0765 30.9114 36.8295 30.9114V34.4559C36.9987 34.4635 37.1801 34.4803 37.3631 34.4803C44.0389 34.4803 50.7163 34.4803 57.3921 34.4879C57.7763 34.4879 57.976 34.4132 58.1254 33.9985C58.723 32.32 60.4457 31.3474 62.1639 31.6538C63.9201 31.9663 65.2114 33.4939 65.2159 35.2654C65.2205 37.0414 63.9506 38.5614 62.1867 38.8953C60.4823 39.2169 58.7535 38.2412 58.127 36.578C58.002 36.2472 57.8998 36.0581 57.4729 36.0597C50.7209 36.0779 43.9688 36.0719 37.2152 36.0719H36.8341V39.6163C37.0155 39.624 37.2152 39.6407 37.4134 39.6407C39.7535 39.6423 42.0921 39.6499 44.4323 39.6362C44.9033 39.6331 45.2662 39.7734 45.5939 40.1164C46.3028 40.8588 47.0636 41.554 47.7572 42.3102C48.1124 42.6974 48.4859 42.859 49.0012 42.8087C49.3945 42.769 49.7955 42.8011 50.1736 42.8011C51.0761 40.5814 52.6509 39.5843 54.5596 39.9868C56.3036 40.3542 57.5095 41.8955 57.4699 43.7051C57.4318 45.4735 56.1298 46.9355 54.3233 47.2221C52.9436 47.4417 50.9206 46.7846 50.2041 44.3865C49.5607 44.3865 48.893 44.4369 48.2374 44.3667C47.8731 44.3286 47.4584 44.1701 47.1916 43.9277C46.3486 43.1608 45.5695 42.3239 44.7509 41.5281C44.6122 41.3924 44.4079 41.2415 44.2325 41.24C41.7811 41.2217 39.3297 41.2278 36.8341 41.2278V44.8363C37.0368 44.8363 37.2396 44.8363 37.4424 44.8363C39.3068 44.8363 41.1713 44.8165 43.0343 44.8546C43.3712 44.8622 43.7843 45.0314 44.0267 45.2662C45.7997 46.9904 47.5484 48.7375 49.2726 50.5105C49.5074 50.7514 49.6537 51.163 49.6781 51.5076C49.736 52.3384 49.6964 53.1754 49.6964 54.0382C51.0502 54.4194 51.9984 55.2304 52.4177 56.5689C53.0122 58.4639 51.9771 60.4564 50.0913 61.1044C48.1917 61.7569 46.1443 60.7751 45.4598 58.8831C44.7859 57.0202 45.693 54.9484 47.556 54.2471C48.0301 54.0687 48.0713 53.8294 48.1307 53.3979C48.3137 52.0716 47.8502 51.1158 46.8379 50.2422C45.5741 49.1507 44.4582 47.8899 43.2599 46.7221C43.0892 46.5559 42.8117 46.4141 42.5815 46.4111C40.7932 46.3852 39.0065 46.3959 37.2183 46.3989C37.0887 46.3989 36.9606 46.4279 36.7899 46.4477C36.7899 48.1963 36.7899 49.9251 36.7899 51.6539C36.7899 52.6448 36.5688 52.8644 35.5901 52.8522C27.2495 52.747 19.8678 46.3135 18.639 38.0781C17.2441 28.7267 23.0007 20.2413 32.2194 18.1238C33.3765 17.8585 34.5885 17.8051 35.7791 17.7106C36.4972 17.6527 36.7853 17.9698 36.7884 18.6894C36.7944 20.287 36.7899 21.8847 36.7899 23.4824C36.7899 23.6867 36.7899 23.891 36.7899 24.1578L36.7884 24.1593ZM35.1815 19.261C29.2435 19.816 24.6776 22.5113 21.9167 27.748C18.8906 33.4878 19.2824 39.2154 22.9915 44.5497C25.9048 48.739 30.0683 50.8749 35.1815 51.2789V19.261ZM51.7271 26.4415C51.7271 27.6093 52.6616 28.5469 53.8202 28.5408C54.9773 28.5347 55.9042 27.5849 55.892 26.4186C55.8798 25.2783 54.9621 24.3575 53.8263 24.3453C52.6723 24.3331 51.7286 25.2752 51.7286 26.4415H51.7271ZM61.5144 33.1997C60.3482 33.2103 59.4258 34.1601 59.4502 35.3203C59.4762 36.4865 60.4183 37.3829 61.5937 37.3601C62.734 37.3372 63.6289 36.4164 63.6244 35.2684C63.6198 34.0991 62.6898 33.189 61.5129 33.1997H61.5144ZM48.8991 10.8381C47.7206 10.8412 46.8151 11.7589 46.8242 12.9389C46.8334 14.0868 47.7374 14.9909 48.8854 15.0016C50.0577 15.0122 50.9877 14.096 50.9922 12.9252C50.9968 11.7543 50.0745 10.8351 48.8991 10.8381ZM51.7271 43.5786C51.724 44.7524 52.6433 45.6763 53.8126 45.6732C54.9575 45.6702 55.8722 44.7692 55.889 43.6258C55.9057 42.455 54.9956 41.5128 53.8309 41.4976C52.6723 41.4823 51.7301 42.4138 51.7271 43.5801V43.5786ZM48.9174 59.7216C50.0867 59.7171 51.006 58.7856 50.9922 57.6163C50.9785 56.4485 50.044 55.546 48.8655 55.5612C47.7176 55.5765 46.8242 56.4851 46.8242 57.6376C46.8242 58.813 47.7389 59.7247 48.9174 59.7201V59.7216Z" fill="#3F3F3F"/>
<path d="M36.7884 24.1593C37.2213 24.1593 37.5979 24.1593 37.9744 24.1593C39.4776 24.1593 40.9792 24.173 42.4824 24.1456C42.7355 24.141 43.0495 24.0312 43.2264 23.859C44.7768 22.3436 46.3059 20.8069 47.8334 19.2671C47.9569 19.1421 48.0896 18.9592 48.0957 18.7976C48.1231 18.0414 48.1079 17.2822 48.1079 16.5444C45.9552 15.6876 44.9277 14.1021 45.2951 12.2635C45.6625 10.425 47.1764 9.2084 49.0424 9.25109C50.7514 9.29073 52.2576 10.6094 52.5305 12.3047C52.8384 14.2103 51.7819 15.8095 49.6934 16.5276C49.6934 17.3386 49.7345 18.1756 49.6735 19.0034C49.6476 19.3662 49.5028 19.8007 49.2589 20.0538C47.5377 21.8283 45.7876 23.5754 44.0145 25.2981C43.7737 25.5329 43.3575 25.6945 43.019 25.7021C41.1744 25.7402 39.3297 25.7204 37.4851 25.7204C37.2792 25.7204 37.0734 25.7204 36.828 25.7204V29.303C37.0277 29.3122 37.2122 29.3289 37.3982 29.3289C39.5096 29.3305 41.6211 29.3442 43.7325 29.3137C44.0313 29.3091 44.3957 29.1612 44.6137 28.9554C45.5558 28.0697 46.4705 27.155 47.3609 26.2174C47.745 25.8119 48.1521 25.5862 48.7116 25.6625C49.6293 25.789 50.2361 25.6305 50.695 24.5984C51.3886 23.0357 53.3049 22.4229 54.9423 22.9519C56.5933 23.4855 57.6086 25.0603 57.4547 26.847C57.3144 28.4828 55.9957 29.8183 54.2608 30.0805C52.6601 30.3229 50.9739 29.3533 50.4099 27.7755C50.2346 27.2861 49.9861 27.2403 49.5516 27.2068C48.864 27.1535 48.3777 27.3776 47.9142 27.8852C47.1078 28.7694 46.2205 29.5789 45.3897 30.4418C45.0588 30.7848 44.6945 30.9205 44.2249 30.9175C41.9808 30.9038 39.7368 30.9114 37.4912 30.9114C37.2838 30.9114 37.0765 30.9114 36.8295 30.9114V34.4559C36.9987 34.4635 37.1801 34.4803 37.3631 34.4803C44.0389 34.4803 50.7163 34.4803 57.3921 34.4879C57.7763 34.4879 57.976 34.4132 58.1254 33.9985C58.723 32.32 60.4457 31.3474 62.1639 31.6538C63.9201 31.9663 65.2114 33.4939 65.2159 35.2654C65.2205 37.0414 63.9506 38.5614 62.1867 38.8953C60.4823 39.2169 58.7535 38.2412 58.127 36.578C58.002 36.2472 57.8998 36.0581 57.4729 36.0597C50.7209 36.0779 43.9688 36.0719 37.2152 36.0719H36.8341V39.6163C37.0155 39.624 37.2152 39.6407 37.4134 39.6407C39.7535 39.6423 42.0921 39.6499 44.4323 39.6362C44.9033 39.6331 45.2662 39.7734 45.5939 40.1164C46.3028 40.8588 47.0636 41.554 47.7572 42.3102C48.1124 42.6974 48.4859 42.859 49.0012 42.8087C49.3945 42.769 49.7955 42.8011 50.1736 42.8011C51.0761 40.5814 52.6509 39.5843 54.5596 39.9868C56.3036 40.3542 57.5095 41.8955 57.4699 43.7051C57.4318 45.4735 56.1298 46.9355 54.3233 47.2221C52.9436 47.4417 50.9206 46.7846 50.2041 44.3865C49.5607 44.3865 48.893 44.4369 48.2374 44.3667C47.8731 44.3286 47.4584 44.1701 47.1916 43.9277C46.3486 43.1608 45.5695 42.3239 44.7509 41.5281C44.6122 41.3924 44.4079 41.2415 44.2325 41.24C41.7811 41.2217 39.3297 41.2278 36.8341 41.2278V44.8363C37.0368 44.8363 37.2396 44.8363 37.4424 44.8363C39.3068 44.8363 41.1713 44.8165 43.0343 44.8546C43.3712 44.8622 43.7843 45.0314 44.0267 45.2662C45.7997 46.9904 47.5484 48.7375 49.2726 50.5105C49.5074 50.7514 49.6537 51.163 49.6781 51.5076C49.736 52.3384 49.6964 53.1754 49.6964 54.0382C51.0502 54.4194 51.9984 55.2304 52.4177 56.5689C53.0122 58.4639 51.9771 60.4564 50.0913 61.1044C48.1917 61.7569 46.1443 60.7751 45.4598 58.8831C44.7859 57.0202 45.693 54.9484 47.556 54.2471C48.0301 54.0687 48.0713 53.8294 48.1307 53.3979C48.3137 52.0716 47.8502 51.1158 46.8379 50.2422C45.5741 49.1507 44.4582 47.8899 43.2599 46.7221C43.0892 46.5559 42.8117 46.4141 42.5815 46.4111C40.7932 46.3852 39.0065 46.3959 37.2183 46.3989C37.0887 46.3989 36.9606 46.4279 36.7899 46.4477C36.7899 48.1963 36.7899 49.9251 36.7899 51.6539C36.7899 52.6448 36.5688 52.8644 35.5901 52.8522C27.2495 52.747 19.8678 46.3135 18.639 38.0781C17.2441 28.7267 23.0007 20.2413 32.2194 18.1238C33.3765 17.8585 34.5885 17.8051 35.7791 17.7106C36.4972 17.6527 36.7853 17.9698 36.7884 18.6894C36.7944 20.287 36.7899 21.8847 36.7899 23.4824C36.7899 23.6867 36.7899 23.891 36.7899 24.1578L36.7884 24.1593ZM35.1815 19.261C29.2435 19.816 24.6776 22.5113 21.9167 27.748C18.8906 33.4878 19.2824 39.2154 22.9915 44.5497C25.9048 48.739 30.0683 50.8749 35.1815 51.2789V19.261ZM51.7271 26.4415C51.7271 27.6093 52.6616 28.5469 53.8202 28.5408C54.9773 28.5347 55.9042 27.5849 55.892 26.4186C55.8798 25.2783 54.9621 24.3575 53.8263 24.3453C52.6723 24.3331 51.7286 25.2752 51.7286 26.4415H51.7271ZM61.5144 33.1997C60.3482 33.2103 59.4258 34.1601 59.4502 35.3203C59.4762 36.4865 60.4183 37.3829 61.5937 37.3601C62.734 37.3372 63.6289 36.4164 63.6244 35.2684C63.6198 34.0991 62.6898 33.189 61.5129 33.1997H61.5144ZM48.8991 10.8381C47.7206 10.8412 46.8151 11.7589 46.8242 12.9389C46.8334 14.0868 47.7374 14.9909 48.8854 15.0016C50.0577 15.0122 50.9877 14.096 50.9922 12.9252C50.9968 11.7543 50.0745 10.8351 48.8991 10.8381ZM51.7271 43.5786C51.724 44.7524 52.6433 45.6763 53.8126 45.6732C54.9575 45.6702 55.8722 44.7692 55.889 43.6258C55.9057 42.455 54.9956 41.5128 53.8309 41.4976C52.6723 41.4823 51.7301 42.4138 51.7271 43.5801V43.5786ZM48.9174 59.7216C50.0867 59.7171 51.006 58.7856 50.9922 57.6163C50.9785 56.4485 50.044 55.546 48.8655 55.5612C47.7176 55.5765 46.8242 56.4851 46.8242 57.6376C46.8242 58.813 47.7389 59.7247 48.9174 59.7201V59.7216Z" stroke="#3F3F3F" stroke-width="0.5" mask="url(#path-2-outside-1_103_134)"/>
<path d="M30.0137 25.1558C30.1304 25.1081 30.2256 25.0929 30.2881 25.1128C30.5413 25.1962 30.8204 25.4099 30.9346 25.6353C31.0158 25.7957 30.9995 25.9342 30.9297 26.0649C30.857 26.2009 30.7267 26.329 30.5771 26.4565C29.6909 27.2084 28.6795 27.8978 27.9404 28.8013C24.0557 33.5462 25.1904 40.5683 30.3193 43.939V43.9399C30.3836 43.9813 30.4469 44.0209 30.5078 44.064V44.0649C30.7572 44.2368 30.9054 44.4213 30.9609 44.603C31.0153 44.7814 30.9841 44.9682 30.8545 45.1567C30.7293 45.3388 30.5727 45.4375 30.3936 45.4585C30.2118 45.4797 29.9952 45.4224 29.752 45.271C28.4522 44.4651 27.3454 43.4439 26.4473 42.2065C24.9494 40.1395 24.2327 37.8146 24.1973 34.9458C24.3368 31.1443 26.0006 27.8882 29.3564 25.5581L29.6865 25.3354C29.7831 25.2718 29.9005 25.202 30.0137 25.1558Z" fill="#5988ED"/>
<path d="M30.0137 25.1558C30.1304 25.1081 30.2256 25.0929 30.2881 25.1128C30.5413 25.1962 30.8204 25.4099 30.9346 25.6353C31.0158 25.7957 30.9995 25.9342 30.9297 26.0649C30.857 26.2009 30.7267 26.329 30.5771 26.4565C29.6909 27.2084 28.6795 27.8978 27.9404 28.8013C24.0557 33.5462 25.1904 40.5683 30.3193 43.939V43.9399C30.3836 43.9813 30.4469 44.0209 30.5078 44.064V44.0649C30.7572 44.2368 30.9054 44.4213 30.9609 44.603C31.0153 44.7814 30.9841 44.9682 30.8545 45.1567C30.7293 45.3388 30.5727 45.4375 30.3936 45.4585C30.2118 45.4797 29.9952 45.4224 29.752 45.271C28.4522 44.4651 27.3454 43.4439 26.4473 42.2065C24.9494 40.1395 24.2327 37.8146 24.1973 34.9458C24.3368 31.1443 26.0006 27.8882 29.3564 25.5581L29.6865 25.3354C29.7831 25.2718 29.9005 25.202 30.0137 25.1558Z" fill="url(#paint2_linear_103_134)"/>
<path d="M30.0137 25.1558C30.1304 25.1081 30.2256 25.0929 30.2881 25.1128C30.5413 25.1962 30.8204 25.4099 30.9346 25.6353C31.0158 25.7957 30.9995 25.9342 30.9297 26.0649C30.857 26.2009 30.7267 26.329 30.5771 26.4565C29.6909 27.2084 28.6795 27.8978 27.9404 28.8013C24.0557 33.5462 25.1904 40.5683 30.3193 43.939V43.9399C30.3836 43.9813 30.4469 44.0209 30.5078 44.064V44.0649C30.7572 44.2368 30.9054 44.4213 30.9609 44.603C31.0153 44.7814 30.9841 44.9682 30.8545 45.1567C30.7293 45.3388 30.5727 45.4375 30.3936 45.4585C30.2118 45.4797 29.9952 45.4224 29.752 45.271C28.4522 44.4651 27.3454 43.4439 26.4473 42.2065C24.9494 40.1395 24.2327 37.8146 24.1973 34.9458C24.3368 31.1443 26.0006 27.8882 29.3564 25.5581L29.6865 25.3354C29.7831 25.2718 29.9005 25.202 30.0137 25.1558Z" stroke="url(#paint3_linear_103_134)" stroke-width="0.152451"/>
</g>
<defs>
<linearGradient id="paint0_linear_103_134" x1="6.9102" y1="35.2761" x2="41.3039" y2="35.2761" gradientUnits="userSpaceOnUse">
<stop stop-color="#6C63FF"/>
<stop offset="1" stop-color="#9A6AFF"/>
</linearGradient>
<linearGradient id="paint1_linear_103_134" x1="6.9102" y1="35.2761" x2="41.3039" y2="35.2761" gradientUnits="userSpaceOnUse">
<stop stop-color="#6C63FF"/>
<stop offset="1" stop-color="#9A6AFF"/>
</linearGradient>
<linearGradient id="paint2_linear_103_134" x1="24.1484" y1="35.2833" x2="31.0381" y2="35.2833" gradientUnits="userSpaceOnUse">
<stop stop-color="#6C63FF"/>
<stop offset="1" stop-color="#9A6AFF"/>
</linearGradient>
<linearGradient id="paint3_linear_103_134" x1="24.1484" y1="35.2833" x2="31.0381" y2="35.2833" gradientUnits="userSpaceOnUse">
<stop stop-color="#6C63FF"/>
<stop offset="1" stop-color="#9A6AFF"/>
</linearGradient>
<clipPath id="clip0_103_134">
<rect width="60.344" height="64.2109" fill="white" transform="translate(6.77393 3.89111)"/>
</clipPath>
</defs>
</svg>
