<svg width="73" height="73" viewBox="0 0 73 73" fill="none" xmlns="http://www.w3.org/2000/svg">
<g clip-path="url(#clip0_103_257)">
<mask id="path-1-outside-1_103_257" maskUnits="userSpaceOnUse" x="5.80566" y="5.81543" width="61" height="61" fill="black">
<rect fill="white" x="5.80566" y="5.81543" width="61" height="61"/>
<path d="M28.4423 7.00656L36.4929 12.4233L44.5506 7.14856L45.1311 6.95476H45.3428L58.9316 13.1316L58.945 13.1369C59.0285 13.1734 59.0998 13.2335 59.1504 13.3093C59.1992 13.3825 59.2266 13.468 59.2299 13.5558V24.2741L65.9605 29.8338L66.0194 29.882L66.0855 29.9204C66.1158 29.9379 66.1414 29.9633 66.1587 29.9937C66.1761 30.024 66.1849 30.0588 66.1846 30.0937V42.9064C66.185 42.9414 66.176 42.976 66.1587 43.0064C66.1414 43.0368 66.1159 43.0621 66.0855 43.0797L66.0194 43.1181L65.9605 43.1672L59.2299 48.7268V59.5827C59.2268 59.6709 59.1994 59.7566 59.1504 59.8301C59.0999 59.906 59.0286 59.9659 58.945 60.0025L58.9316 60.0078L45.341 66.1855H45.1338L44.556 65.9926L36.5072 60.5777L28.4495 65.8515L27.8654 66.0462H27.6573L14.0676 59.8694L14.055 59.8632L13.9943 59.8319C13.9366 59.7961 13.8867 59.7477 13.8487 59.6908C13.8108 59.6338 13.7863 59.5694 13.7755 59.5023L13.7692 59.4345V48.7268L7.03959 43.1672L6.97708 43.1154L6.90652 43.0752L6.86008 43.0395C6.84674 43.0254 6.83492 43.0096 6.82614 42.9921C6.80853 42.9569 6.80236 42.9168 6.80738 42.8778L6.81453 42.8189V30.1821L6.80738 30.1232C6.80229 30.084 6.8085 30.0441 6.82614 30.0088C6.84379 29.9736 6.87216 29.9443 6.90652 29.9249L6.97708 29.8856L7.03959 29.8338L13.7692 24.2741V13.5656C13.7708 13.4744 13.7981 13.3852 13.8487 13.3093C13.8994 13.2333 13.9713 13.1734 14.055 13.1369L14.0747 13.128L27.6626 6.81543H27.868L28.4423 7.00656ZM14.6838 13.8532V24.7046L7.72908 30.4492V42.5509L14.6838 48.2964V59.1442L27.7966 65.1049L28.0449 65.0218L36.5143 59.48L44.9641 65.1647L45.2008 65.2442L58.3154 59.2826V48.2964L65.2701 42.5509V30.4492L58.3154 24.7046V13.8559L45.2008 7.89432L44.9543 7.97738L36.4857 13.521L28.0342 7.83448L27.8037 7.75767L14.6838 13.8532ZM34.4548 14.3935L34.461 14.398L34.4682 14.4025L34.4798 14.4105L34.4905 14.4177L35.8597 15.3947L36.2428 15.6689V36.2428H32.3274C32.2769 36.2428 32.2269 36.2582 32.1845 36.2866L32.1452 36.3187C32.0971 36.3669 32.0702 36.432 32.0702 36.5C32.0702 36.5689 32.0974 36.6345 32.1452 36.6822C32.1929 36.7299 32.2585 36.7573 32.3274 36.7573H36.2428V57.3312L34.4905 58.5824L34.4852 58.5869L34.4798 58.5905L34.4682 58.5985L34.461 58.603L34.4548 58.6074L27.7537 63.0748L26.8213 62.6354L16.5888 57.8295V47.9516L18.5331 47.1174C18.5756 47.084 18.6062 47.0407 18.6207 46.9924C18.6395 46.929 18.6336 46.8598 18.6028 46.8004L18.6001 46.7959L18.5787 46.7539L18.5608 46.7191L18.5465 46.6834L18.5287 46.6396L18.5242 46.6298C18.5179 46.6138 18.5085 46.5994 18.4965 46.5878C18.4836 46.5754 18.4693 46.5662 18.4546 46.561C18.4385 46.5554 18.4205 46.5541 18.4036 46.5557C18.3881 46.5572 18.3719 46.5619 18.3563 46.5709L18.3349 46.5834L18.3054 46.6003L18.2741 46.6155L18.25 46.6271L16.6951 47.4041L16.2432 47.0648L15.217 46.2958L15.1965 46.2806L15.1759 46.2636L15.1652 46.2547L10.2968 42.2214L10.295 42.2196L9.635 41.6703V36.7573H13.5504C13.6184 36.7572 13.6835 36.7304 13.7317 36.6822C13.7807 36.6332 13.8077 36.5671 13.8077 36.5C13.8076 36.4335 13.781 36.368 13.7317 36.3187C13.6947 36.2817 13.6483 36.258 13.5996 36.2482L13.5504 36.2428H9.635V31.3092L9.97796 31.0342L15.1893 26.8651L15.217 26.8418L15.2509 26.8186L16.6942 25.7353L18.108 26.4417L18.5028 26.5543C18.5089 26.5459 18.5143 26.5371 18.518 26.5275L18.5331 26.4882L18.5537 26.4319L18.5823 26.3783L18.6028 26.3381C18.633 26.2791 18.6398 26.2106 18.6207 26.147C18.6058 26.0974 18.5748 26.054 18.5331 26.0211L16.5888 25.1887V15.1715L27.7537 9.92706L34.4548 14.3935ZM17.5034 15.752V24.5858L18.9761 25.2164C19.2264 25.3663 19.4127 25.6041 19.4968 25.8844C19.5842 26.176 19.5548 26.4904 19.4147 26.7606L19.3905 26.8061L19.3727 26.8544C19.2984 27.0486 19.1667 27.2164 18.9958 27.3348C18.8536 27.4333 18.6888 27.4915 18.518 27.5099L17.7785 27.2991L16.7916 26.8061L15.7832 27.5626L15.7716 27.5706L15.7609 27.5796L10.5496 31.7486V35.3283H13.5504C13.8611 35.3284 14.1587 35.4525 14.3784 35.6721C14.598 35.8918 14.7221 36.1894 14.7222 36.5C14.7222 36.8108 14.5981 37.1091 14.3784 37.3289C14.1587 37.5484 13.861 37.6717 13.5504 37.6718H10.5496V41.2416L10.88 41.5167L15.7484 45.55L15.7654 45.5643L16.7916 46.3333L17.8535 45.8028L17.8776 45.7912L17.9008 45.7778C18.0293 45.704 18.1721 45.6584 18.3197 45.6447C18.4673 45.631 18.6165 45.6493 18.7564 45.6983C18.8963 45.7473 19.0238 45.826 19.1306 45.9287C19.2375 46.0315 19.3209 46.1561 19.3754 46.294L19.3932 46.3378L19.4147 46.3797C19.5546 46.6499 19.5843 46.9644 19.4968 47.2559C19.4123 47.5372 19.2244 47.7751 18.9726 47.9248L17.5034 48.5545V57.249L27.2098 61.8075L27.676 62.0272L33.9475 57.8465L33.9591 57.8385L35.3283 56.8605V37.6718H32.3274C32.0166 37.6718 31.7183 37.5486 31.4986 37.3289C31.2788 37.1091 31.1556 36.8108 31.1556 36.5C31.1557 36.1895 31.279 35.8918 31.4986 35.6721C31.7183 35.4524 32.0166 35.3283 32.3274 35.3283H35.3283V16.1396L33.9591 15.1625L33.9475 15.1545L27.676 10.9738L17.5034 15.752ZM45.7903 11.1926L55.4958 15.752V24.4465L54.0257 25.0753C53.7741 25.2251 53.5877 25.4639 53.5032 25.7451C53.4158 26.0366 53.4445 26.351 53.5845 26.6212L53.6086 26.6677L53.6274 26.7159C53.7017 26.9102 53.8332 27.078 54.0043 27.1964C54.1463 27.2946 54.3106 27.3521 54.4812 27.3706L55.2216 27.1598L56.2076 26.6668L57.2338 27.4367L57.2508 27.451L62.4505 31.7585V35.3283H59.4496C59.1389 35.3283 58.8406 35.4524 58.6208 35.6721C58.4012 35.8918 58.2779 36.1894 58.2779 36.5C58.2779 36.8108 58.4011 37.1091 58.6208 37.3289C58.8406 37.5486 59.1389 37.6718 59.4496 37.6718H62.4505V41.2514L57.2392 45.4205L57.2159 45.4384L56.2076 46.1949L55.1225 45.6518L55.0992 45.6384C54.9707 45.5645 54.8271 45.5191 54.6795 45.5054C54.5321 45.4917 54.3834 45.5101 54.2436 45.559C54.1037 45.6079 53.9754 45.6866 53.8685 45.7894C53.7617 45.8921 53.6782 46.0168 53.6238 46.1547L53.6068 46.1984L53.5845 46.2404C53.4445 46.5106 53.4158 46.825 53.5032 47.1166C53.5876 47.3976 53.7743 47.6357 54.0257 47.7855L55.4958 48.4151V57.1097L45.7903 61.669L45.3232 61.8879L39.0526 57.7072L39.0401 57.6991L39.0285 57.6902L38.0541 56.9953L37.6718 56.7212V37.6718H40.6727C40.9833 37.6717 41.2809 37.5484 41.5006 37.3289C41.7204 37.1091 41.8445 36.8108 41.8445 36.5C41.8444 36.1894 41.7203 35.8918 41.5006 35.6721C41.2809 35.4524 40.9833 35.3284 40.6727 35.3283H37.6718V16.1396L38.0541 15.8663L39.0285 15.1715L39.0401 15.1625L39.0526 15.1545L45.3232 10.9738L45.7903 11.1926ZM39.5599 15.9154L38.5864 16.6103V34.4137H40.6727C41.2259 34.4138 41.756 34.6343 42.1472 35.0255C42.5384 35.4167 42.7589 35.9468 42.759 36.5C42.759 37.0534 42.5385 37.5842 42.1472 37.9755C41.7561 38.3666 41.2258 38.5863 40.6727 38.5864H38.5864V56.2505L39.5599 56.9462L45.4018 60.8411L54.5812 56.5291V49.018L53.6077 48.6009C53.1345 48.3365 52.7829 47.8984 52.6271 47.3791C52.4713 46.8599 52.5231 46.3001 52.7727 45.8189C52.8753 45.5589 53.033 45.324 53.2344 45.1303C53.4359 44.9365 53.6771 44.7886 53.9409 44.6962C54.2048 44.6038 54.4859 44.5694 54.7643 44.5953C55.0427 44.6211 55.3124 44.7061 55.5547 44.8454L56.1112 45.124L56.6676 44.7069L61.536 40.812V38.5864H59.4496C58.8963 38.5864 58.3655 38.3667 57.9742 37.9755C57.5829 37.5842 57.3633 37.0534 57.3633 36.5C57.3634 35.9469 57.5831 35.4167 57.9742 35.0255C58.3655 34.6342 58.8963 34.4137 59.4496 34.4137H61.536V32.189L56.6676 28.1547L56.1112 27.7376L55.5547 28.0163L54.5812 28.2941C54.1888 28.2919 53.8063 28.1709 53.4836 27.9475C53.161 27.7242 52.9128 27.4084 52.7727 27.0419C52.5234 26.5608 52.4714 26.0016 52.6271 25.4825C52.7829 24.9633 53.1345 24.5251 53.6077 24.2607L54.5812 23.8436V16.3325L45.4018 12.0205L39.5599 15.9154ZM14.4266 13.972L14.4203 13.9756C14.423 13.9744 14.4257 13.9723 14.4284 13.9711L14.4266 13.972Z"/>
</mask>
<path d="M28.4423 7.00656L36.4929 12.4233L44.5506 7.14856L45.1311 6.95476H45.3428L58.9316 13.1316L58.945 13.1369C59.0285 13.1734 59.0998 13.2335 59.1504 13.3093C59.1992 13.3825 59.2266 13.468 59.2299 13.5558V24.2741L65.9605 29.8338L66.0194 29.882L66.0855 29.9204C66.1158 29.9379 66.1414 29.9633 66.1587 29.9937C66.1761 30.024 66.1849 30.0588 66.1846 30.0937V42.9064C66.185 42.9414 66.176 42.976 66.1587 43.0064C66.1414 43.0368 66.1159 43.0621 66.0855 43.0797L66.0194 43.1181L65.9605 43.1672L59.2299 48.7268V59.5827C59.2268 59.6709 59.1994 59.7566 59.1504 59.8301C59.0999 59.906 59.0286 59.9659 58.945 60.0025L58.9316 60.0078L45.341 66.1855H45.1338L44.556 65.9926L36.5072 60.5777L28.4495 65.8515L27.8654 66.0462H27.6573L14.0676 59.8694L14.055 59.8632L13.9943 59.8319C13.9366 59.7961 13.8867 59.7477 13.8487 59.6908C13.8108 59.6338 13.7863 59.5694 13.7755 59.5023L13.7692 59.4345V48.7268L7.03959 43.1672L6.97708 43.1154L6.90652 43.0752L6.86008 43.0395C6.84674 43.0254 6.83492 43.0096 6.82614 42.9921C6.80853 42.9569 6.80236 42.9168 6.80738 42.8778L6.81453 42.8189V30.1821L6.80738 30.1232C6.80229 30.084 6.8085 30.0441 6.82614 30.0088C6.84379 29.9736 6.87216 29.9443 6.90652 29.9249L6.97708 29.8856L7.03959 29.8338L13.7692 24.2741V13.5656C13.7708 13.4744 13.7981 13.3852 13.8487 13.3093C13.8994 13.2333 13.9713 13.1734 14.055 13.1369L14.0747 13.128L27.6626 6.81543H27.868L28.4423 7.00656ZM14.6838 13.8532V24.7046L7.72908 30.4492V42.5509L14.6838 48.2964V59.1442L27.7966 65.1049L28.0449 65.0218L36.5143 59.48L44.9641 65.1647L45.2008 65.2442L58.3154 59.2826V48.2964L65.2701 42.5509V30.4492L58.3154 24.7046V13.8559L45.2008 7.89432L44.9543 7.97738L36.4857 13.521L28.0342 7.83448L27.8037 7.75767L14.6838 13.8532ZM34.4548 14.3935L34.461 14.398L34.4682 14.4025L34.4798 14.4105L34.4905 14.4177L35.8597 15.3947L36.2428 15.6689V36.2428H32.3274C32.2769 36.2428 32.2269 36.2582 32.1845 36.2866L32.1452 36.3187C32.0971 36.3669 32.0702 36.432 32.0702 36.5C32.0702 36.5689 32.0974 36.6345 32.1452 36.6822C32.1929 36.7299 32.2585 36.7573 32.3274 36.7573H36.2428V57.3312L34.4905 58.5824L34.4852 58.5869L34.4798 58.5905L34.4682 58.5985L34.461 58.603L34.4548 58.6074L27.7537 63.0748L26.8213 62.6354L16.5888 57.8295V47.9516L18.5331 47.1174C18.5756 47.084 18.6062 47.0407 18.6207 46.9924C18.6395 46.929 18.6336 46.8598 18.6028 46.8004L18.6001 46.7959L18.5787 46.7539L18.5608 46.7191L18.5465 46.6834L18.5287 46.6396L18.5242 46.6298C18.5179 46.6138 18.5085 46.5994 18.4965 46.5878C18.4836 46.5754 18.4693 46.5662 18.4546 46.561C18.4385 46.5554 18.4205 46.5541 18.4036 46.5557C18.3881 46.5572 18.3719 46.5619 18.3563 46.5709L18.3349 46.5834L18.3054 46.6003L18.2741 46.6155L18.25 46.6271L16.6951 47.4041L16.2432 47.0648L15.217 46.2958L15.1965 46.2806L15.1759 46.2636L15.1652 46.2547L10.2968 42.2214L10.295 42.2196L9.635 41.6703V36.7573H13.5504C13.6184 36.7572 13.6835 36.7304 13.7317 36.6822C13.7807 36.6332 13.8077 36.5671 13.8077 36.5C13.8076 36.4335 13.781 36.368 13.7317 36.3187C13.6947 36.2817 13.6483 36.258 13.5996 36.2482L13.5504 36.2428H9.635V31.3092L9.97796 31.0342L15.1893 26.8651L15.217 26.8418L15.2509 26.8186L16.6942 25.7353L18.108 26.4417L18.5028 26.5543C18.5089 26.5459 18.5143 26.5371 18.518 26.5275L18.5331 26.4882L18.5537 26.4319L18.5823 26.3783L18.6028 26.3381C18.633 26.2791 18.6398 26.2106 18.6207 26.147C18.6058 26.0974 18.5748 26.054 18.5331 26.0211L16.5888 25.1887V15.1715L27.7537 9.92706L34.4548 14.3935ZM17.5034 15.752V24.5858L18.9761 25.2164C19.2264 25.3663 19.4127 25.6041 19.4968 25.8844C19.5842 26.176 19.5548 26.4904 19.4147 26.7606L19.3905 26.8061L19.3727 26.8544C19.2984 27.0486 19.1667 27.2164 18.9958 27.3348C18.8536 27.4333 18.6888 27.4915 18.518 27.5099L17.7785 27.2991L16.7916 26.8061L15.7832 27.5626L15.7716 27.5706L15.7609 27.5796L10.5496 31.7486V35.3283H13.5504C13.8611 35.3284 14.1587 35.4525 14.3784 35.6721C14.598 35.8918 14.7221 36.1894 14.7222 36.5C14.7222 36.8108 14.5981 37.1091 14.3784 37.3289C14.1587 37.5484 13.861 37.6717 13.5504 37.6718H10.5496V41.2416L10.88 41.5167L15.7484 45.55L15.7654 45.5643L16.7916 46.3333L17.8535 45.8028L17.8776 45.7912L17.9008 45.7778C18.0293 45.704 18.1721 45.6584 18.3197 45.6447C18.4673 45.631 18.6165 45.6493 18.7564 45.6983C18.8963 45.7473 19.0238 45.826 19.1306 45.9287C19.2375 46.0315 19.3209 46.1561 19.3754 46.294L19.3932 46.3378L19.4147 46.3797C19.5546 46.6499 19.5843 46.9644 19.4968 47.2559C19.4123 47.5372 19.2244 47.7751 18.9726 47.9248L17.5034 48.5545V57.249L27.2098 61.8075L27.676 62.0272L33.9475 57.8465L33.9591 57.8385L35.3283 56.8605V37.6718H32.3274C32.0166 37.6718 31.7183 37.5486 31.4986 37.3289C31.2788 37.1091 31.1556 36.8108 31.1556 36.5C31.1557 36.1895 31.279 35.8918 31.4986 35.6721C31.7183 35.4524 32.0166 35.3283 32.3274 35.3283H35.3283V16.1396L33.9591 15.1625L33.9475 15.1545L27.676 10.9738L17.5034 15.752ZM45.7903 11.1926L55.4958 15.752V24.4465L54.0257 25.0753C53.7741 25.2251 53.5877 25.4639 53.5032 25.7451C53.4158 26.0366 53.4445 26.351 53.5845 26.6212L53.6086 26.6677L53.6274 26.7159C53.7017 26.9102 53.8332 27.078 54.0043 27.1964C54.1463 27.2946 54.3106 27.3521 54.4812 27.3706L55.2216 27.1598L56.2076 26.6668L57.2338 27.4367L57.2508 27.451L62.4505 31.7585V35.3283H59.4496C59.1389 35.3283 58.8406 35.4524 58.6208 35.6721C58.4012 35.8918 58.2779 36.1894 58.2779 36.5C58.2779 36.8108 58.4011 37.1091 58.6208 37.3289C58.8406 37.5486 59.1389 37.6718 59.4496 37.6718H62.4505V41.2514L57.2392 45.4205L57.2159 45.4384L56.2076 46.1949L55.1225 45.6518L55.0992 45.6384C54.9707 45.5645 54.8271 45.5191 54.6795 45.5054C54.5321 45.4917 54.3834 45.5101 54.2436 45.559C54.1037 45.6079 53.9754 45.6866 53.8685 45.7894C53.7617 45.8921 53.6782 46.0168 53.6238 46.1547L53.6068 46.1984L53.5845 46.2404C53.4445 46.5106 53.4158 46.825 53.5032 47.1166C53.5876 47.3976 53.7743 47.6357 54.0257 47.7855L55.4958 48.4151V57.1097L45.7903 61.669L45.3232 61.8879L39.0526 57.7072L39.0401 57.6991L39.0285 57.6902L38.0541 56.9953L37.6718 56.7212V37.6718H40.6727C40.9833 37.6717 41.2809 37.5484 41.5006 37.3289C41.7204 37.1091 41.8445 36.8108 41.8445 36.5C41.8444 36.1894 41.7203 35.8918 41.5006 35.6721C41.2809 35.4524 40.9833 35.3284 40.6727 35.3283H37.6718V16.1396L38.0541 15.8663L39.0285 15.1715L39.0401 15.1625L39.0526 15.1545L45.3232 10.9738L45.7903 11.1926ZM39.5599 15.9154L38.5864 16.6103V34.4137H40.6727C41.2259 34.4138 41.756 34.6343 42.1472 35.0255C42.5384 35.4167 42.7589 35.9468 42.759 36.5C42.759 37.0534 42.5385 37.5842 42.1472 37.9755C41.7561 38.3666 41.2258 38.5863 40.6727 38.5864H38.5864V56.2505L39.5599 56.9462L45.4018 60.8411L54.5812 56.5291V49.018L53.6077 48.6009C53.1345 48.3365 52.7829 47.8984 52.6271 47.3791C52.4713 46.8599 52.5231 46.3001 52.7727 45.8189C52.8753 45.5589 53.033 45.324 53.2344 45.1303C53.4359 44.9365 53.6771 44.7886 53.9409 44.6962C54.2048 44.6038 54.4859 44.5694 54.7643 44.5953C55.0427 44.6211 55.3124 44.7061 55.5547 44.8454L56.1112 45.124L56.6676 44.7069L61.536 40.812V38.5864H59.4496C58.8963 38.5864 58.3655 38.3667 57.9742 37.9755C57.5829 37.5842 57.3633 37.0534 57.3633 36.5C57.3634 35.9469 57.5831 35.4167 57.9742 35.0255C58.3655 34.6342 58.8963 34.4137 59.4496 34.4137H61.536V32.189L56.6676 28.1547L56.1112 27.7376L55.5547 28.0163L54.5812 28.2941C54.1888 28.2919 53.8063 28.1709 53.4836 27.9475C53.161 27.7242 52.9128 27.4084 52.7727 27.0419C52.5234 26.5608 52.4714 26.0016 52.6271 25.4825C52.7829 24.9633 53.1345 24.5251 53.6077 24.2607L54.5812 23.8436V16.3325L45.4018 12.0205L39.5599 15.9154ZM14.4266 13.972L14.4203 13.9756C14.423 13.9744 14.4257 13.9723 14.4284 13.9711L14.4266 13.972Z" fill="#3F3F3F"/>
<path d="M28.4423 7.00656L36.4929 12.4233L44.5506 7.14856L45.1311 6.95476H45.3428L58.9316 13.1316L58.945 13.1369C59.0285 13.1734 59.0998 13.2335 59.1504 13.3093C59.1992 13.3825 59.2266 13.468 59.2299 13.5558V24.2741L65.9605 29.8338L66.0194 29.882L66.0855 29.9204C66.1158 29.9379 66.1414 29.9633 66.1587 29.9937C66.1761 30.024 66.1849 30.0588 66.1846 30.0937V42.9064C66.185 42.9414 66.176 42.976 66.1587 43.0064C66.1414 43.0368 66.1159 43.0621 66.0855 43.0797L66.0194 43.1181L65.9605 43.1672L59.2299 48.7268V59.5827C59.2268 59.6709 59.1994 59.7566 59.1504 59.8301C59.0999 59.906 59.0286 59.9659 58.945 60.0025L58.9316 60.0078L45.341 66.1855H45.1338L44.556 65.9926L36.5072 60.5777L28.4495 65.8515L27.8654 66.0462H27.6573L14.0676 59.8694L14.055 59.8632L13.9943 59.8319C13.9366 59.7961 13.8867 59.7477 13.8487 59.6908C13.8108 59.6338 13.7863 59.5694 13.7755 59.5023L13.7692 59.4345V48.7268L7.03959 43.1672L6.97708 43.1154L6.90652 43.0752L6.86008 43.0395C6.84674 43.0254 6.83492 43.0096 6.82614 42.9921C6.80853 42.9569 6.80236 42.9168 6.80738 42.8778L6.81453 42.8189V30.1821L6.80738 30.1232C6.80229 30.084 6.8085 30.0441 6.82614 30.0088C6.84379 29.9736 6.87216 29.9443 6.90652 29.9249L6.97708 29.8856L7.03959 29.8338L13.7692 24.2741V13.5656C13.7708 13.4744 13.7981 13.3852 13.8487 13.3093C13.8994 13.2333 13.9713 13.1734 14.055 13.1369L14.0747 13.128L27.6626 6.81543H27.868L28.4423 7.00656ZM14.6838 13.8532V24.7046L7.72908 30.4492V42.5509L14.6838 48.2964V59.1442L27.7966 65.1049L28.0449 65.0218L36.5143 59.48L44.9641 65.1647L45.2008 65.2442L58.3154 59.2826V48.2964L65.2701 42.5509V30.4492L58.3154 24.7046V13.8559L45.2008 7.89432L44.9543 7.97738L36.4857 13.521L28.0342 7.83448L27.8037 7.75767L14.6838 13.8532ZM34.4548 14.3935L34.461 14.398L34.4682 14.4025L34.4798 14.4105L34.4905 14.4177L35.8597 15.3947L36.2428 15.6689V36.2428H32.3274C32.2769 36.2428 32.2269 36.2582 32.1845 36.2866L32.1452 36.3187C32.0971 36.3669 32.0702 36.432 32.0702 36.5C32.0702 36.5689 32.0974 36.6345 32.1452 36.6822C32.1929 36.7299 32.2585 36.7573 32.3274 36.7573H36.2428V57.3312L34.4905 58.5824L34.4852 58.5869L34.4798 58.5905L34.4682 58.5985L34.461 58.603L34.4548 58.6074L27.7537 63.0748L26.8213 62.6354L16.5888 57.8295V47.9516L18.5331 47.1174C18.5756 47.084 18.6062 47.0407 18.6207 46.9924C18.6395 46.929 18.6336 46.8598 18.6028 46.8004L18.6001 46.7959L18.5787 46.7539L18.5608 46.7191L18.5465 46.6834L18.5287 46.6396L18.5242 46.6298C18.5179 46.6138 18.5085 46.5994 18.4965 46.5878C18.4836 46.5754 18.4693 46.5662 18.4546 46.561C18.4385 46.5554 18.4205 46.5541 18.4036 46.5557C18.3881 46.5572 18.3719 46.5619 18.3563 46.5709L18.3349 46.5834L18.3054 46.6003L18.2741 46.6155L18.25 46.6271L16.6951 47.4041L16.2432 47.0648L15.217 46.2958L15.1965 46.2806L15.1759 46.2636L15.1652 46.2547L10.2968 42.2214L10.295 42.2196L9.635 41.6703V36.7573H13.5504C13.6184 36.7572 13.6835 36.7304 13.7317 36.6822C13.7807 36.6332 13.8077 36.5671 13.8077 36.5C13.8076 36.4335 13.781 36.368 13.7317 36.3187C13.6947 36.2817 13.6483 36.258 13.5996 36.2482L13.5504 36.2428H9.635V31.3092L9.97796 31.0342L15.1893 26.8651L15.217 26.8418L15.2509 26.8186L16.6942 25.7353L18.108 26.4417L18.5028 26.5543C18.5089 26.5459 18.5143 26.5371 18.518 26.5275L18.5331 26.4882L18.5537 26.4319L18.5823 26.3783L18.6028 26.3381C18.633 26.2791 18.6398 26.2106 18.6207 26.147C18.6058 26.0974 18.5748 26.054 18.5331 26.0211L16.5888 25.1887V15.1715L27.7537 9.92706L34.4548 14.3935ZM17.5034 15.752V24.5858L18.9761 25.2164C19.2264 25.3663 19.4127 25.6041 19.4968 25.8844C19.5842 26.176 19.5548 26.4904 19.4147 26.7606L19.3905 26.8061L19.3727 26.8544C19.2984 27.0486 19.1667 27.2164 18.9958 27.3348C18.8536 27.4333 18.6888 27.4915 18.518 27.5099L17.7785 27.2991L16.7916 26.8061L15.7832 27.5626L15.7716 27.5706L15.7609 27.5796L10.5496 31.7486V35.3283H13.5504C13.8611 35.3284 14.1587 35.4525 14.3784 35.6721C14.598 35.8918 14.7221 36.1894 14.7222 36.5C14.7222 36.8108 14.5981 37.1091 14.3784 37.3289C14.1587 37.5484 13.861 37.6717 13.5504 37.6718H10.5496V41.2416L10.88 41.5167L15.7484 45.55L15.7654 45.5643L16.7916 46.3333L17.8535 45.8028L17.8776 45.7912L17.9008 45.7778C18.0293 45.704 18.1721 45.6584 18.3197 45.6447C18.4673 45.631 18.6165 45.6493 18.7564 45.6983C18.8963 45.7473 19.0238 45.826 19.1306 45.9287C19.2375 46.0315 19.3209 46.1561 19.3754 46.294L19.3932 46.3378L19.4147 46.3797C19.5546 46.6499 19.5843 46.9644 19.4968 47.2559C19.4123 47.5372 19.2244 47.7751 18.9726 47.9248L17.5034 48.5545V57.249L27.2098 61.8075L27.676 62.0272L33.9475 57.8465L33.9591 57.8385L35.3283 56.8605V37.6718H32.3274C32.0166 37.6718 31.7183 37.5486 31.4986 37.3289C31.2788 37.1091 31.1556 36.8108 31.1556 36.5C31.1557 36.1895 31.279 35.8918 31.4986 35.6721C31.7183 35.4524 32.0166 35.3283 32.3274 35.3283H35.3283V16.1396L33.9591 15.1625L33.9475 15.1545L27.676 10.9738L17.5034 15.752ZM45.7903 11.1926L55.4958 15.752V24.4465L54.0257 25.0753C53.7741 25.2251 53.5877 25.4639 53.5032 25.7451C53.4158 26.0366 53.4445 26.351 53.5845 26.6212L53.6086 26.6677L53.6274 26.7159C53.7017 26.9102 53.8332 27.078 54.0043 27.1964C54.1463 27.2946 54.3106 27.3521 54.4812 27.3706L55.2216 27.1598L56.2076 26.6668L57.2338 27.4367L57.2508 27.451L62.4505 31.7585V35.3283H59.4496C59.1389 35.3283 58.8406 35.4524 58.6208 35.6721C58.4012 35.8918 58.2779 36.1894 58.2779 36.5C58.2779 36.8108 58.4011 37.1091 58.6208 37.3289C58.8406 37.5486 59.1389 37.6718 59.4496 37.6718H62.4505V41.2514L57.2392 45.4205L57.2159 45.4384L56.2076 46.1949L55.1225 45.6518L55.0992 45.6384C54.9707 45.5645 54.8271 45.5191 54.6795 45.5054C54.5321 45.4917 54.3834 45.5101 54.2436 45.559C54.1037 45.6079 53.9754 45.6866 53.8685 45.7894C53.7617 45.8921 53.6782 46.0168 53.6238 46.1547L53.6068 46.1984L53.5845 46.2404C53.4445 46.5106 53.4158 46.825 53.5032 47.1166C53.5876 47.3976 53.7743 47.6357 54.0257 47.7855L55.4958 48.4151V57.1097L45.7903 61.669L45.3232 61.8879L39.0526 57.7072L39.0401 57.6991L39.0285 57.6902L38.0541 56.9953L37.6718 56.7212V37.6718H40.6727C40.9833 37.6717 41.2809 37.5484 41.5006 37.3289C41.7204 37.1091 41.8445 36.8108 41.8445 36.5C41.8444 36.1894 41.7203 35.8918 41.5006 35.6721C41.2809 35.4524 40.9833 35.3284 40.6727 35.3283H37.6718V16.1396L38.0541 15.8663L39.0285 15.1715L39.0401 15.1625L39.0526 15.1545L45.3232 10.9738L45.7903 11.1926ZM39.5599 15.9154L38.5864 16.6103V34.4137H40.6727C41.2259 34.4138 41.756 34.6343 42.1472 35.0255C42.5384 35.4167 42.7589 35.9468 42.759 36.5C42.759 37.0534 42.5385 37.5842 42.1472 37.9755C41.7561 38.3666 41.2258 38.5863 40.6727 38.5864H38.5864V56.2505L39.5599 56.9462L45.4018 60.8411L54.5812 56.5291V49.018L53.6077 48.6009C53.1345 48.3365 52.7829 47.8984 52.6271 47.3791C52.4713 46.8599 52.5231 46.3001 52.7727 45.8189C52.8753 45.5589 53.033 45.324 53.2344 45.1303C53.4359 44.9365 53.6771 44.7886 53.9409 44.6962C54.2048 44.6038 54.4859 44.5694 54.7643 44.5953C55.0427 44.6211 55.3124 44.7061 55.5547 44.8454L56.1112 45.124L56.6676 44.7069L61.536 40.812V38.5864H59.4496C58.8963 38.5864 58.3655 38.3667 57.9742 37.9755C57.5829 37.5842 57.3633 37.0534 57.3633 36.5C57.3634 35.9469 57.5831 35.4167 57.9742 35.0255C58.3655 34.6342 58.8963 34.4137 59.4496 34.4137H61.536V32.189L56.6676 28.1547L56.1112 27.7376L55.5547 28.0163L54.5812 28.2941C54.1888 28.2919 53.8063 28.1709 53.4836 27.9475C53.161 27.7242 52.9128 27.4084 52.7727 27.0419C52.5234 26.5608 52.4714 26.0016 52.6271 25.4825C52.7829 24.9633 53.1345 24.5251 53.6077 24.2607L54.5812 23.8436V16.3325L45.4018 12.0205L39.5599 15.9154ZM14.4266 13.972L14.4203 13.9756C14.423 13.9744 14.4257 13.9723 14.4284 13.9711L14.4266 13.972Z" stroke="#3F3F3F" stroke-width="0.914554" mask="url(#path-1-outside-1_103_257)"/>
<path d="M27.4395 22.8418L27.2988 22.707L23.498 19.0518C23.3712 18.8644 23.3018 18.6441 23.3018 18.418C23.3019 18.2284 23.3516 18.0439 23.4414 17.8789C23.6067 17.7888 23.7915 17.7383 23.9814 17.7383C24.2091 17.7383 24.4306 17.8094 24.6191 17.9385L28.8682 22.3125V28.4209L23.4395 33.8506L23.3057 33.9844V39.0156L28.8682 44.5781V50.6865L24.5654 55.1152C24.4966 55.1769 24.4184 55.2252 24.334 55.2559C24.2444 55.2884 24.1485 55.3028 24.0527 55.2979L24.0469 55.2969L23.998 55.2949H23.9814L23.9639 55.2959L23.917 55.2969L23.9102 55.2979C23.8142 55.3028 23.7183 55.2883 23.6289 55.2559C23.5743 55.236 23.5227 55.2064 23.4727 55.1719C23.363 54.9937 23.3018 54.7902 23.3018 54.5811C23.3019 54.3534 23.3718 54.1321 23.5 53.9443L27.2988 50.2939L27.4395 50.1592V45.1113L21.876 39.5479V33.4512L27.4395 27.8877V22.8418Z" fill="#7364FF"/>
<path d="M27.4395 22.8418L27.2988 22.707L23.498 19.0518C23.3712 18.8644 23.3018 18.6441 23.3018 18.418C23.3019 18.2284 23.3516 18.0439 23.4414 17.8789C23.6067 17.7888 23.7915 17.7383 23.9814 17.7383C24.2091 17.7383 24.4306 17.8094 24.6191 17.9385L28.8682 22.3125V28.4209L23.4395 33.8506L23.3057 33.9844V39.0156L28.8682 44.5781V50.6865L24.5654 55.1152C24.4966 55.1769 24.4184 55.2252 24.334 55.2559C24.2444 55.2884 24.1485 55.3028 24.0527 55.2979L24.0469 55.2969L23.998 55.2949H23.9814L23.9639 55.2959L23.917 55.2969L23.9102 55.2979C23.8142 55.3028 23.7183 55.2883 23.6289 55.2559C23.5743 55.236 23.5227 55.2064 23.4727 55.1719C23.363 54.9937 23.3018 54.7902 23.3018 54.5811C23.3019 54.3534 23.3718 54.1321 23.5 53.9443L27.2988 50.2939L27.4395 50.1592V45.1113L21.876 39.5479V33.4512L27.4395 27.8877V22.8418Z" fill="url(#paint0_linear_103_257)"/>
<path d="M27.4395 22.8418L27.2988 22.707L23.498 19.0518C23.3712 18.8644 23.3018 18.6441 23.3018 18.418C23.3019 18.2284 23.3516 18.0439 23.4414 17.8789C23.6067 17.7888 23.7915 17.7383 23.9814 17.7383C24.2091 17.7383 24.4306 17.8094 24.6191 17.9385L28.8682 22.3125V28.4209L23.4395 33.8506L23.3057 33.9844V39.0156L28.8682 44.5781V50.6865L24.5654 55.1152C24.4966 55.1769 24.4184 55.2252 24.334 55.2559C24.2444 55.2884 24.1485 55.3028 24.0527 55.2979L24.0469 55.2969L23.998 55.2949H23.9814L23.9639 55.2959L23.917 55.2969L23.9102 55.2979C23.8142 55.3028 23.7183 55.2883 23.6289 55.2559C23.5743 55.236 23.5227 55.2064 23.4727 55.1719C23.363 54.9937 23.3018 54.7902 23.3018 54.5811C23.3019 54.3534 23.3718 54.1321 23.5 53.9443L27.2988 50.2939L27.4395 50.1592V45.1113L21.876 39.5479V33.4512L27.4395 27.8877V22.8418Z" stroke="url(#paint1_linear_103_257)" stroke-width="0.914554"/>
<path fill-rule="evenodd" clip-rule="evenodd" d="M21.9373 18.6123L21.9378 18.6252C21.9701 19.015 22.0936 19.3915 22.2974 19.7246C22.0914 19.3878 21.9679 19.0066 21.9373 18.6123ZM21.9373 54.7756L21.9378 54.7885C21.9695 55.1707 22.0889 55.5403 22.2858 55.8686C22.0868 55.5366 21.9673 55.1625 21.9373 54.7756ZM23.3538 56.6051C23.5089 56.6445 23.6739 56.6673 23.834 56.6701C23.6718 56.6672 23.5108 56.6454 23.3538 56.6051Z" fill="#3F3F3F"/>
<path d="M49.6936 33.9834L44.1301 28.4199V22.3125L48.3782 17.9385C48.5669 17.8088 48.7894 17.7383 49.0178 17.7383C49.2064 17.7383 49.3899 17.7883 49.5549 17.8779C49.6457 18.0438 49.6975 18.2281 49.6975 18.418C49.6975 18.6443 49.6268 18.8641 49.4993 19.0518L45.6995 22.7061L45.5598 22.8418V27.8877L51.1223 33.4502V39.5479L45.6936 44.9775L45.5598 45.1113V50.1582L45.6995 50.293L49.4963 53.9443C49.6256 54.1331 49.6975 54.3537 49.6975 54.5811C49.6975 54.7796 49.6404 54.9722 49.5403 55.1445C49.3823 55.2439 49.2031 55.3007 49.0178 55.3008C48.7937 55.3008 48.5765 55.2225 48.3997 55.0811L44.1301 50.6855V44.5781L49.6936 39.0146V33.9834Z" fill="#7364FF"/>
<path d="M49.6936 33.9834L44.1301 28.4199V22.3125L48.3782 17.9385C48.5669 17.8088 48.7894 17.7383 49.0178 17.7383C49.2064 17.7383 49.3899 17.7883 49.5549 17.8779C49.6457 18.0438 49.6975 18.2281 49.6975 18.418C49.6975 18.6443 49.6268 18.8641 49.4993 19.0518L45.6995 22.7061L45.5598 22.8418V27.8877L51.1223 33.4502V39.5479L45.6936 44.9775L45.5598 45.1113V50.1582L45.6995 50.293L49.4963 53.9443C49.6256 54.1331 49.6975 54.3537 49.6975 54.5811C49.6975 54.7796 49.6404 54.9722 49.5403 55.1445C49.3823 55.2439 49.2031 55.3007 49.0178 55.3008C48.7937 55.3008 48.5765 55.2225 48.3997 55.0811L44.1301 50.6855V44.5781L49.6936 39.0146V33.9834Z" fill="url(#paint2_linear_103_257)"/>
<path d="M49.6936 33.9834L44.1301 28.4199V22.3125L48.3782 17.9385C48.5669 17.8088 48.7894 17.7383 49.0178 17.7383C49.2064 17.7383 49.3899 17.7883 49.5549 17.8779C49.6457 18.0438 49.6975 18.2281 49.6975 18.418C49.6975 18.6443 49.6268 18.8641 49.4993 19.0518L45.6995 22.7061L45.5598 22.8418V27.8877L51.1223 33.4502V39.5479L45.6936 44.9775L45.5598 45.1113V50.1582L45.6995 50.293L49.4963 53.9443C49.6256 54.1331 49.6975 54.3537 49.6975 54.5811C49.6975 54.7796 49.6404 54.9722 49.5403 55.1445C49.3823 55.2439 49.2031 55.3007 49.0178 55.3008C48.7937 55.3008 48.5765 55.2225 48.3997 55.0811L44.1301 50.6855V44.5781L49.6936 39.0146V33.9834Z" stroke="url(#paint3_linear_103_257)" stroke-width="0.914554"/>
<path fill-rule="evenodd" clip-rule="evenodd" d="M47.6528 56.2396C47.9938 56.4805 48.3927 56.6269 48.8085 56.6638C48.3886 56.6276 47.9964 56.4837 47.6528 56.2396Z" fill="#3F3F3F"/>
</g>
<defs>
<linearGradient id="paint0_linear_103_257" x1="21.45" y1="36.5186" x2="29.2945" y2="36.5186" gradientUnits="userSpaceOnUse">
<stop stop-color="#6C63FF"/>
<stop offset="1" stop-color="#9A6AFF"/>
</linearGradient>
<linearGradient id="paint1_linear_103_257" x1="21.45" y1="36.5186" x2="29.2945" y2="36.5186" gradientUnits="userSpaceOnUse">
<stop stop-color="#6C63FF"/>
<stop offset="1" stop-color="#9A6AFF"/>
</linearGradient>
<linearGradient id="paint2_linear_103_257" x1="43.7042" y1="36.5195" x2="51.5486" y2="36.5195" gradientUnits="userSpaceOnUse">
<stop stop-color="#6C63FF"/>
<stop offset="1" stop-color="#9A6AFF"/>
</linearGradient>
<linearGradient id="paint3_linear_103_257" x1="43.7042" y1="36.5195" x2="51.5486" y2="36.5195" gradientUnits="userSpaceOnUse">
<stop stop-color="#6C63FF"/>
<stop offset="1" stop-color="#9A6AFF"/>
</linearGradient>
<clipPath id="clip0_103_257">
<rect width="73" height="73" fill="white"/>
</clipPath>
</defs>
</svg>
