<svg width="61" height="61" viewBox="0 0 61 61" fill="none" xmlns="http://www.w3.org/2000/svg">
<path d="M12.425 7.875C12.6597 7.60059 12.9511 7.38028 13.2791 7.22923C13.6071 7.07818 13.9639 6.99998 14.325 7H35.675C36.0361 6.99998 36.3929 7.07818 36.7209 7.22923C37.0489 7.38028 37.3403 7.60059 37.575 7.875L44.0975 15.485C44.6799 16.1646 45 17.03 45 17.925V18.5625C45.0001 19.7999 44.6136 21.0065 43.8945 22.0136C43.1754 23.0206 42.1597 23.7778 40.9892 24.1794C39.8187 24.5809 38.552 24.6067 37.3662 24.2532C36.1803 23.8996 35.1345 23.1844 34.375 22.2075C33.8204 22.9219 33.1096 23.4999 32.2971 23.8973C31.4846 24.2947 30.592 24.5008 29.6875 24.5C28.783 24.501 27.8903 24.2949 27.0778 23.8976C26.2653 23.5002 25.5545 22.9221 25 22.2075C24.4455 22.9221 23.7347 23.5002 22.9222 23.8976C22.1097 24.2949 21.217 24.501 20.3125 24.5C19.408 24.501 18.5153 24.2949 17.7028 23.8976C16.8903 23.5002 16.1795 22.9221 15.625 22.2075C14.8655 23.1844 13.8197 23.8996 12.6338 24.2532C11.448 24.6067 10.1813 24.5809 9.01081 24.1794C7.84033 23.7778 6.82456 23.0206 6.10546 22.0136C5.38635 21.0065 4.99986 19.7999 5 18.5625V17.925C5.00003 17.03 5.32014 16.1646 5.9025 15.485L12.4275 7.8725L12.425 7.875ZM16.875 18.5625C16.875 19.4742 17.2372 20.3485 17.8818 20.9932C18.5265 21.6378 19.4008 22 20.3125 22C21.2242 22 22.0985 21.6378 22.7432 20.9932C23.3878 20.3485 23.75 19.4742 23.75 18.5625C23.75 18.231 23.8817 17.913 24.1161 17.6786C24.3505 17.4442 24.6685 17.3125 25 17.3125C25.3315 17.3125 25.6495 17.4442 25.8839 17.6786C26.1183 17.913 26.25 18.231 26.25 18.5625C26.25 19.4742 26.6122 20.3485 27.2568 20.9932C27.9015 21.6378 28.7758 22 29.6875 22C30.5992 22 31.4735 21.6378 32.1182 20.9932C32.7628 20.3485 33.125 19.4742 33.125 18.5625C33.125 18.231 33.2567 17.913 33.4911 17.6786C33.7255 17.4442 34.0435 17.3125 34.375 17.3125C34.7065 17.3125 35.0245 17.4442 35.2589 17.6786C35.4933 17.913 35.625 18.231 35.625 18.5625C35.625 19.4742 35.9872 20.3485 36.6318 20.9932C37.2765 21.6378 38.1508 22 39.0625 22C39.9742 22 40.8485 21.6378 41.4932 20.9932C42.1378 20.3485 42.5 19.4742 42.5 18.5625V17.925C42.5 17.6271 42.3936 17.3389 42.2 17.1125L35.675 9.5H14.325L7.8 17.1125C7.60637 17.3389 7.49998 17.6271 7.5 17.925V18.5625C7.5 19.4742 7.86216 20.3485 8.50682 20.9932C9.15148 21.6378 10.0258 22 10.9375 22C11.8492 22 12.7235 21.6378 13.3682 20.9932C14.0128 20.3485 14.375 19.4742 14.375 18.5625C14.375 18.231 14.5067 17.913 14.7411 17.6786C14.9755 17.4442 15.2935 17.3125 15.625 17.3125C15.9565 17.3125 16.2745 17.4442 16.5089 17.6786C16.7433 17.913 16.875 18.231 16.875 18.5625ZM8.75 25.75C9.08152 25.75 9.39946 25.8817 9.63388 26.1161C9.8683 26.3505 10 26.6685 10 27V42H12.5V29.5C12.5 28.837 12.7634 28.2011 13.2322 27.7322C13.7011 27.2634 14.337 27 15 27H22.5C23.163 27 23.7989 27.2634 24.2678 27.7322C24.7366 28.2011 25 28.837 25 29.5V42H40V27C40 26.6685 40.1317 26.3505 40.3661 26.1161C40.6005 25.8817 40.9185 25.75 41.25 25.75C41.5815 25.75 41.8995 25.8817 42.1339 26.1161C42.3683 26.3505 42.5 26.6685 42.5 27V42H43.75C44.0815 42 44.3995 42.1317 44.6339 42.3661C44.8683 42.6005 45 42.9185 45 43.25C45 43.5815 44.8683 43.8995 44.6339 44.1339C44.3995 44.3683 44.0815 44.5 43.75 44.5H6.25C5.91848 44.5 5.60054 44.3683 5.36612 44.1339C5.1317 43.8995 5 43.5815 5 43.25C5 42.9185 5.1317 42.6005 5.36612 42.3661C5.60054 42.1317 5.91848 42 6.25 42H7.5V27C7.5 26.6685 7.6317 26.3505 7.86612 26.1161C8.10054 25.8817 8.41848 25.75 8.75 25.75ZM15 42H22.5V29.5H15V42ZM27.5 29.5C27.5 28.837 27.7634 28.2011 28.2322 27.7322C28.7011 27.2634 29.337 27 30 27H35C35.663 27 36.2989 27.2634 36.7678 27.7322C37.2366 28.2011 37.5 28.837 37.5 29.5V37C37.5 37.663 37.2366 38.2989 36.7678 38.7678C36.2989 39.2366 35.663 39.5 35 39.5H30C29.337 39.5 28.7011 39.2366 28.2322 38.7678C27.7634 38.2989 27.5 37.663 27.5 37V29.5ZM35 29.5H30V37H35V29.5Z" fill="#15161B"/>
<path d="M39.1249 40.3125V39.7454C39.1249 36.9276 41.2959 34.625 43.9999 34.625C46.7039 34.625 48.8749 36.9276 48.8749 39.7454V40.3141H52.2029C52.4042 40.3143 52.5982 40.3892 52.7474 40.5243C52.8966 40.6594 52.9904 40.8451 53.0105 41.0454L54.473 55.6704C54.4844 55.7833 54.4719 55.8973 54.4365 56.0051C54.4011 56.113 54.3435 56.2122 54.2674 56.2964C54.1914 56.3806 54.0985 56.4479 53.9948 56.494C53.8911 56.5401 53.7789 56.564 53.6654 56.5641H34.3344C34.2209 56.564 34.1087 56.5401 34.005 56.494C33.9013 56.4479 33.8085 56.3806 33.7324 56.2964C33.6563 56.2122 33.5987 56.113 33.5633 56.0051C33.5279 55.8973 33.5154 55.7833 33.5268 55.6704L34.9893 41.0454C35.0094 40.8451 35.1032 40.6594 35.2524 40.5243C35.4016 40.3892 35.5956 40.3143 35.7969 40.3141H39.1249V40.3125ZM40.7499 40.3125H47.2499V39.7454C47.2499 37.8051 45.7842 36.25 43.9999 36.25C42.2157 36.25 40.7499 37.8051 40.7499 39.7454V40.3141V40.3125ZM39.1249 41.9375H36.533L35.233 54.9375H52.7668L51.4652 41.9375H48.8749V44.375C48.8749 44.5905 48.7893 44.7972 48.6369 44.9495C48.4846 45.1019 48.2779 45.1875 48.0624 45.1875C47.8469 45.1875 47.6403 45.1019 47.4879 44.9495C47.3355 44.7972 47.2499 44.5905 47.2499 44.375V41.9375H40.7499V44.375C40.7499 44.5905 40.6643 44.7972 40.5119 44.9495C40.3596 45.1019 40.1529 45.1875 39.9374 45.1875C39.7219 45.1875 39.5153 45.1019 39.3629 44.9495C39.2105 44.7972 39.1249 44.5905 39.1249 44.375V41.9375Z" fill="black"/>
<path d="M39.1249 40.3125V39.7454C39.1249 36.9276 41.2959 34.625 43.9999 34.625C46.7039 34.625 48.8749 36.9276 48.8749 39.7454V40.3141H52.2029C52.4042 40.3143 52.5982 40.3892 52.7474 40.5243C52.8966 40.6594 52.9904 40.8451 53.0105 41.0454L54.473 55.6704C54.4844 55.7833 54.4719 55.8973 54.4365 56.0051C54.4011 56.113 54.3435 56.2122 54.2674 56.2964C54.1914 56.3806 54.0985 56.4479 53.9948 56.494C53.8911 56.5401 53.7789 56.564 53.6654 56.5641H34.3344C34.2209 56.564 34.1087 56.5401 34.005 56.494C33.9013 56.4479 33.8085 56.3806 33.7324 56.2964C33.6563 56.2122 33.5987 56.113 33.5633 56.0051C33.5279 55.8973 33.5154 55.7833 33.5268 55.6704L34.9893 41.0454C35.0094 40.8451 35.1032 40.6594 35.2524 40.5243C35.4016 40.3892 35.5956 40.3143 35.7969 40.3141H39.1249V40.3125ZM40.7499 40.3125H47.2499V39.7454C47.2499 37.8051 45.7842 36.25 43.9999 36.25C42.2157 36.25 40.7499 37.8051 40.7499 39.7454V40.3141V40.3125ZM39.1249 41.9375H36.533L35.233 54.9375H52.7668L51.4652 41.9375H48.8749V44.375C48.8749 44.5905 48.7893 44.7972 48.6369 44.9495C48.4846 45.1019 48.2779 45.1875 48.0624 45.1875C47.8469 45.1875 47.6403 45.1019 47.4879 44.9495C47.3355 44.7972 47.2499 44.5905 47.2499 44.375V41.9375H40.7499V44.375C40.7499 44.5905 40.6643 44.7972 40.5119 44.9495C40.3596 45.1019 40.1529 45.1875 39.9374 45.1875C39.7219 45.1875 39.5153 45.1019 39.3629 44.9495C39.2105 44.7972 39.1249 44.5905 39.1249 44.375V41.9375Z" fill="url(#paint0_linear_103_591)"/>
<defs>
<linearGradient id="paint0_linear_103_591" x1="33.6051" y1="45.5946" x2="54.3942" y2="45.5946" gradientUnits="userSpaceOnUse">
<stop stop-color="#6C63FF"/>
<stop offset="1" stop-color="#9A6AFF"/>
</linearGradient>
</defs>
</svg>
