<svg width="73" height="73" viewBox="0 0 73 73" fill="none" xmlns="http://www.w3.org/2000/svg">
<g clip-path="url(#clip0_103_435)">
<path d="M52.6381 45.5765H62.7244C64.3927 45.5765 65.7503 44.2188 65.7503 42.5506V38.3304C66.9213 37.9129 67.7676 36.8034 67.7676 35.4901C67.7676 33.8219 66.41 32.4642 64.7417 32.4642C63.0734 32.4642 61.7158 33.8219 61.7158 35.4901C61.7158 36.8034 62.562 37.9129 63.7331 38.3304V42.5506C63.7331 43.1073 63.2812 43.5592 62.7244 43.5592H52.6381C50.9698 43.5592 49.6122 44.9168 49.6122 46.5851V65.7491H47.5949V41.5419C47.5949 40.9852 48.0468 40.5333 48.6036 40.5333H55.664C57.3323 40.5333 58.6899 39.1757 58.6899 37.5074V34.2959C59.8609 33.8783 60.7072 32.7689 60.7072 31.4556C60.7072 29.7873 59.3495 28.4297 57.6813 28.4297C56.013 28.4297 54.6554 29.7873 54.6554 31.4556C54.6554 32.7689 55.5016 33.8783 56.6726 34.2959V37.5074C56.6726 38.0642 56.2208 38.516 55.664 38.516H48.6036C46.9353 38.516 45.5777 39.8737 45.5777 41.5419V65.7491H43.5604V57.68H41.5432V65.7491H39.5259V61.7146H37.5086V65.7491H35.4914V61.7146H33.4741V65.7491H31.4568V57.68H29.4396V65.7491H27.4223V39.5247C27.4223 37.8564 26.0647 36.4988 24.3964 36.4988H16.3274C15.7706 36.4988 15.3187 36.0469 15.3187 35.4901V28.2441C16.4898 27.8266 17.336 26.7171 17.336 25.4038C17.336 23.7355 15.9784 22.3779 14.3101 22.3779C12.6418 22.3779 11.2842 23.7355 11.2842 25.4038C11.2842 26.7171 12.1305 27.8266 13.3015 28.2441V35.4901C13.3015 37.1584 14.6591 38.516 16.3274 38.516H24.3964C24.9532 38.516 25.4051 38.9679 25.4051 39.5247V65.7491H23.3878V44.5678C23.3878 42.8995 22.0302 41.5419 20.3619 41.5419H10.2756C9.71882 41.5419 9.26695 41.0901 9.26695 40.5333V33.2873C10.438 32.8697 11.2842 31.7602 11.2842 30.447C11.2842 28.7787 9.92659 27.4211 8.25832 27.4211C6.59004 27.4211 5.23242 28.7787 5.23242 30.447C5.23242 31.7602 6.07866 32.8697 7.24969 33.2873V40.5333C7.24969 42.2016 8.6073 43.5592 10.2756 43.5592H20.3619C20.9187 43.5592 21.3705 44.0111 21.3705 44.5678V65.7491H9.26695V67.7663H63.7331V65.7491H51.6295V46.5851C51.6295 46.0283 52.0813 45.5765 52.6381 45.5765ZM64.7417 34.4815C65.2985 34.4815 65.7503 34.9334 65.7503 35.4901C65.7503 36.0469 65.2985 36.4988 64.7417 36.4988C64.1849 36.4988 63.7331 36.0469 63.7331 35.4901C63.7331 34.9334 64.1849 34.4815 64.7417 34.4815ZM57.6813 30.447C58.238 30.447 58.6899 30.8988 58.6899 31.4556C58.6899 32.0124 58.238 32.4642 57.6813 32.4642C57.1245 32.4642 56.6726 32.0124 56.6726 31.4556C56.6726 30.8988 57.1245 30.447 57.6813 30.447ZM14.3101 26.4125C13.7533 26.4125 13.3015 25.9606 13.3015 25.4038C13.3015 24.8471 13.7533 24.3952 14.3101 24.3952C14.8669 24.3952 15.3187 24.8471 15.3187 25.4038C15.3187 25.9606 14.8669 26.4125 14.3101 26.4125ZM8.25832 31.4556C7.70155 31.4556 7.24969 31.0037 7.24969 30.447C7.24969 29.8902 7.70155 29.4384 8.25832 29.4384C8.81508 29.4384 9.26695 29.8902 9.26695 30.447C9.26695 31.0037 8.81508 31.4556 8.25832 31.4556Z" fill="#3F3F3F"/>
<path d="M35.4285 8.24414L34.7195 8.42773C34.1549 8.57378 33.6128 8.78754 33.1042 9.06445L32.8884 9.18652L32.2566 9.55859L31.5515 8.85449L31.5076 8.80957L29.9919 10.3252L30.0369 10.3691L30.741 11.0742L30.3689 11.7061C30.032 12.276 29.777 12.8919 29.6101 13.5371L29.4265 14.2461H28.3679V16.3896H29.4275L29.6101 17.0986C29.777 17.7438 30.032 18.3598 30.3689 18.9297L30.7419 19.5605L29.9919 20.3105L31.5076 21.8262L31.5515 21.7812L32.2566 21.0762L32.8884 21.4492C33.4583 21.7861 34.0743 22.0411 34.7195 22.208L35.4285 22.3906V23.4502H37.572V22.3906L38.281 22.208C38.9262 22.0411 39.5421 21.7861 40.1121 21.4492L40.7429 21.0762L41.4929 21.8262L43.0085 20.3105L42.9636 20.2656L42.2576 19.5605L42.6316 18.9297C42.9264 18.4309 43.1587 17.8968 43.324 17.3389L43.3904 17.0986L43.573 16.3896H44.6326V14.2461H43.574L43.3904 13.5371C43.2443 12.9725 43.0305 12.4304 42.7537 11.9219L42.6316 11.7061L42.2585 11.0742L42.9636 10.3691L43.0085 10.3252L41.4929 8.80957L41.448 8.85449L40.7429 9.55859L40.1121 9.18652C39.6133 8.89171 39.0792 8.65944 38.5212 8.49414L38.281 8.42773L37.572 8.24414V7.18555H35.4285V8.24414ZM33.5369 23.8232L33.4949 23.8086C33.1965 23.7034 32.9051 23.5834 32.6208 23.4473L32.5808 23.4277L32.5496 23.459L31.5066 24.5L27.3171 20.3086L28.3582 19.2686L28.3904 19.2373L28.3708 19.1973C28.2347 18.9129 28.1148 18.6209 28.0085 18.3223L27.9939 18.2803H26.4773V12.3545H27.9939L28.0085 12.3135C28.1148 12.0149 28.2347 11.7228 28.3708 11.4385L28.3904 11.3984L28.3591 11.3672L27.3171 10.3242L31.5066 6.13477L32.5496 7.17578L32.5808 7.20703L32.6208 7.1875C32.9053 7.0523 33.1966 6.93127 33.4949 6.82617L33.5369 6.81152V5.29492H39.4626V6.81152L39.5046 6.82617C39.8033 6.93239 40.0953 7.05231 40.3796 7.18848L40.4197 7.20801L40.4509 7.17676L41.4919 6.13477L45.6833 10.3242L44.6423 11.3672L44.6111 11.3984L44.6306 11.4385C44.7658 11.7229 44.8869 12.0143 44.9919 12.3125L45.0066 12.3545H46.5232V18.2812H45.0056L44.991 18.3232C44.8858 18.6217 44.7658 18.9139 44.6296 19.1982L44.6101 19.2383L45.6814 20.3096L41.4919 24.501L40.4197 23.4287L40.3796 23.4482C40.0951 23.5835 39.803 23.7044 39.5046 23.8096L39.4626 23.8242V25.3408H33.5369V23.8232Z" fill="#3F3F3F"/>
<path d="M35.4285 8.24414L34.7195 8.42773C34.1549 8.57378 33.6128 8.78754 33.1042 9.06445L32.8884 9.18652L32.2566 9.55859L31.5515 8.85449L31.5076 8.80957L29.9919 10.3252L30.0369 10.3691L30.741 11.0742L30.3689 11.7061C30.032 12.276 29.777 12.8919 29.6101 13.5371L29.4265 14.2461H28.3679V16.3896H29.4275L29.6101 17.0986C29.777 17.7438 30.032 18.3598 30.3689 18.9297L30.7419 19.5605L29.9919 20.3105L31.5076 21.8262L31.5515 21.7812L32.2566 21.0762L32.8884 21.4492C33.4583 21.7861 34.0743 22.0411 34.7195 22.208L35.4285 22.3906V23.4502H37.572V22.3906L38.281 22.208C38.9262 22.0411 39.5421 21.7861 40.1121 21.4492L40.7429 21.0762L41.4929 21.8262L43.0085 20.3105L42.9636 20.2656L42.2576 19.5605L42.6316 18.9297C42.9264 18.4309 43.1587 17.8968 43.324 17.3389L43.3904 17.0986L43.573 16.3896H44.6326V14.2461H43.574L43.3904 13.5371C43.2443 12.9725 43.0305 12.4304 42.7537 11.9219L42.6316 11.7061L42.2585 11.0742L42.9636 10.3691L43.0085 10.3252L41.4929 8.80957L41.448 8.85449L40.7429 9.55859L40.1121 9.18652C39.6133 8.89171 39.0792 8.65944 38.5212 8.49414L38.281 8.42773L37.572 8.24414V7.18555H35.4285V8.24414ZM33.5369 23.8232L33.4949 23.8086C33.1965 23.7034 32.9051 23.5834 32.6208 23.4473L32.5808 23.4277L32.5496 23.459L31.5066 24.5L27.3171 20.3086L28.3582 19.2686L28.3904 19.2373L28.3708 19.1973C28.2347 18.9129 28.1148 18.6209 28.0085 18.3223L27.9939 18.2803H26.4773V12.3545H27.9939L28.0085 12.3135C28.1148 12.0149 28.2347 11.7228 28.3708 11.4385L28.3904 11.3984L28.3591 11.3672L27.3171 10.3242L31.5066 6.13477L32.5496 7.17578L32.5808 7.20703L32.6208 7.1875C32.9053 7.0523 33.1966 6.93127 33.4949 6.82617L33.5369 6.81152V5.29492H39.4626V6.81152L39.5046 6.82617C39.8033 6.93239 40.0953 7.05231 40.3796 7.18848L40.4197 7.20801L40.4509 7.17676L41.4919 6.13477L45.6833 10.3242L44.6423 11.3672L44.6111 11.3984L44.6306 11.4385C44.7658 11.7229 44.8869 12.0143 44.9919 12.3125L45.0066 12.3545H46.5232V18.2812H45.0056L44.991 18.3232C44.8858 18.6217 44.7658 18.9139 44.6296 19.1982L44.6101 19.2383L45.6814 20.3096L41.4919 24.501L40.4197 23.4287L40.3796 23.4482C40.0951 23.5835 39.803 23.7044 39.5046 23.8096L39.4626 23.8242V25.3408H33.5369V23.8232Z" fill="url(#paint0_linear_103_435)"/>
<path d="M35.4285 8.24414L34.7195 8.42773C34.1549 8.57378 33.6128 8.78754 33.1042 9.06445L32.8884 9.18652L32.2566 9.55859L31.5515 8.85449L31.5076 8.80957L29.9919 10.3252L30.0369 10.3691L30.741 11.0742L30.3689 11.7061C30.032 12.276 29.777 12.8919 29.6101 13.5371L29.4265 14.2461H28.3679V16.3896H29.4275L29.6101 17.0986C29.777 17.7438 30.032 18.3598 30.3689 18.9297L30.7419 19.5605L29.9919 20.3105L31.5076 21.8262L31.5515 21.7812L32.2566 21.0762L32.8884 21.4492C33.4583 21.7861 34.0743 22.0411 34.7195 22.208L35.4285 22.3906V23.4502H37.572V22.3906L38.281 22.208C38.9262 22.0411 39.5421 21.7861 40.1121 21.4492L40.7429 21.0762L41.4929 21.8262L43.0085 20.3105L42.9636 20.2656L42.2576 19.5605L42.6316 18.9297C42.9264 18.4309 43.1587 17.8968 43.324 17.3389L43.3904 17.0986L43.573 16.3896H44.6326V14.2461H43.574L43.3904 13.5371C43.2443 12.9725 43.0305 12.4304 42.7537 11.9219L42.6316 11.7061L42.2585 11.0742L42.9636 10.3691L43.0085 10.3252L41.4929 8.80957L41.448 8.85449L40.7429 9.55859L40.1121 9.18652C39.6133 8.89171 39.0792 8.65944 38.5212 8.49414L38.281 8.42773L37.572 8.24414V7.18555H35.4285V8.24414ZM33.5369 23.8232L33.4949 23.8086C33.1965 23.7034 32.9051 23.5834 32.6208 23.4473L32.5808 23.4277L32.5496 23.459L31.5066 24.5L27.3171 20.3086L28.3582 19.2686L28.3904 19.2373L28.3708 19.1973C28.2347 18.9129 28.1148 18.6209 28.0085 18.3223L27.9939 18.2803H26.4773V12.3545H27.9939L28.0085 12.3135C28.1148 12.0149 28.2347 11.7228 28.3708 11.4385L28.3904 11.3984L28.3591 11.3672L27.3171 10.3242L31.5066 6.13477L32.5496 7.17578L32.5808 7.20703L32.6208 7.1875C32.9053 7.0523 33.1966 6.93127 33.4949 6.82617L33.5369 6.81152V5.29492H39.4626V6.81152L39.5046 6.82617C39.8033 6.93239 40.0953 7.05231 40.3796 7.18848L40.4197 7.20801L40.4509 7.17676L41.4919 6.13477L45.6833 10.3242L44.6423 11.3672L44.6111 11.3984L44.6306 11.4385C44.7658 11.7229 44.8869 12.0143 44.9919 12.3125L45.0066 12.3545H46.5232V18.2812H45.0056L44.991 18.3232C44.8858 18.6217 44.7658 18.9139 44.6296 19.1982L44.6101 19.2383L45.6814 20.3096L41.4919 24.501L40.4197 23.4287L40.3796 23.4482C40.0951 23.5835 39.803 23.7044 39.5046 23.8096L39.4626 23.8242V25.3408H33.5369V23.8232Z" fill="url(#paint1_linear_103_435)"/>
<path d="M35.4285 8.24414L34.7195 8.42773C34.1549 8.57378 33.6128 8.78754 33.1042 9.06445L32.8884 9.18652L32.2566 9.55859L31.5515 8.85449L31.5076 8.80957L29.9919 10.3252L30.0369 10.3691L30.741 11.0742L30.3689 11.7061C30.032 12.276 29.777 12.8919 29.6101 13.5371L29.4265 14.2461H28.3679V16.3896H29.4275L29.6101 17.0986C29.777 17.7438 30.032 18.3598 30.3689 18.9297L30.7419 19.5605L29.9919 20.3105L31.5076 21.8262L31.5515 21.7812L32.2566 21.0762L32.8884 21.4492C33.4583 21.7861 34.0743 22.0411 34.7195 22.208L35.4285 22.3906V23.4502H37.572V22.3906L38.281 22.208C38.9262 22.0411 39.5421 21.7861 40.1121 21.4492L40.7429 21.0762L41.4929 21.8262L43.0085 20.3105L42.9636 20.2656L42.2576 19.5605L42.6316 18.9297C42.9264 18.4309 43.1587 17.8968 43.324 17.3389L43.3904 17.0986L43.573 16.3896H44.6326V14.2461H43.574L43.3904 13.5371C43.2443 12.9725 43.0305 12.4304 42.7537 11.9219L42.6316 11.7061L42.2585 11.0742L42.9636 10.3691L43.0085 10.3252L41.4929 8.80957L41.448 8.85449L40.7429 9.55859L40.1121 9.18652C39.6133 8.89171 39.0792 8.65944 38.5212 8.49414L38.281 8.42773L37.572 8.24414V7.18555H35.4285V8.24414ZM33.5369 23.8232L33.4949 23.8086C33.1965 23.7034 32.9051 23.5834 32.6208 23.4473L32.5808 23.4277L32.5496 23.459L31.5066 24.5L27.3171 20.3086L28.3582 19.2686L28.3904 19.2373L28.3708 19.1973C28.2347 18.9129 28.1148 18.6209 28.0085 18.3223L27.9939 18.2803H26.4773V12.3545H27.9939L28.0085 12.3135C28.1148 12.0149 28.2347 11.7228 28.3708 11.4385L28.3904 11.3984L28.3591 11.3672L27.3171 10.3242L31.5066 6.13477L32.5496 7.17578L32.5808 7.20703L32.6208 7.1875C32.9053 7.0523 33.1966 6.93127 33.4949 6.82617L33.5369 6.81152V5.29492H39.4626V6.81152L39.5046 6.82617C39.8033 6.93239 40.0953 7.05231 40.3796 7.18848L40.4197 7.20801L40.4509 7.17676L41.4919 6.13477L45.6833 10.3242L44.6423 11.3672L44.6111 11.3984L44.6306 11.4385C44.7658 11.7229 44.8869 12.0143 44.9919 12.3125L45.0066 12.3545H46.5232V18.2812H45.0056L44.991 18.3232C44.8858 18.6217 44.7658 18.9139 44.6296 19.1982L44.6101 19.2383L45.6814 20.3096L41.4919 24.501L40.4197 23.4287L40.3796 23.4482C40.0951 23.5835 39.803 23.7044 39.5046 23.8096L39.4626 23.8242V25.3408H33.5369V23.8232Z" stroke="url(#paint2_linear_103_435)" stroke-width="0.126079"/>
<path d="M36.4999 20.3607C39.2807 20.3607 41.5431 18.0984 41.5431 15.3176C41.5431 12.5368 39.2807 10.2744 36.4999 10.2744C33.7191 10.2744 31.4568 12.5368 31.4568 15.3176C31.4568 18.0984 33.7191 20.3607 36.4999 20.3607ZM36.4999 12.2917C38.1682 12.2917 39.5258 13.6493 39.5258 15.3176C39.5258 16.9858 38.1682 18.3435 36.4999 18.3435C34.8317 18.3435 33.4741 16.9858 33.4741 15.3176C33.4741 13.6493 34.8317 12.2917 36.4999 12.2917Z" fill="#3F3F3F"/>
<path d="M36.4999 20.3607C39.2807 20.3607 41.5431 18.0984 41.5431 15.3176C41.5431 12.5368 39.2807 10.2744 36.4999 10.2744C33.7191 10.2744 31.4568 12.5368 31.4568 15.3176C31.4568 18.0984 33.7191 20.3607 36.4999 20.3607ZM36.4999 12.2917C38.1682 12.2917 39.5258 13.6493 39.5258 15.3176C39.5258 16.9858 38.1682 18.3435 36.4999 18.3435C34.8317 18.3435 33.4741 16.9858 33.4741 15.3176C33.4741 13.6493 34.8317 12.2917 36.4999 12.2917Z" fill="url(#paint3_linear_103_435)"/>
<path d="M35.4914 27.4219H33.4741V41.5427H35.4914V27.4219Z" fill="#3F3F3F"/>
<path d="M39.5261 27.4219H37.5088V41.5427H39.5261V27.4219Z" fill="#3F3F3F"/>
<path d="M19.3532 19.166V30.4465C19.3532 32.1148 20.7108 33.4724 22.3791 33.4724H28.4309C28.9876 33.4724 29.4395 33.9243 29.4395 34.4811V45.576H31.4568V34.4811C31.4568 32.8128 30.0992 31.4552 28.4309 31.4552H22.3791C21.8223 31.4552 21.3705 31.0033 21.3705 30.4465V19.166C22.5415 18.7484 23.3877 17.6389 23.3877 16.3257C23.3877 14.6574 22.0301 13.2998 20.3618 13.2998C18.6936 13.2998 17.3359 14.6574 17.3359 16.3257C17.3359 17.6389 18.1822 18.7484 19.3532 19.166ZM20.3618 15.3171C20.9186 15.3171 21.3705 15.7689 21.3705 16.3257C21.3705 16.8825 20.9186 17.3343 20.3618 17.3343C19.8051 17.3343 19.3532 16.8825 19.3532 16.3257C19.3532 15.7689 19.8051 15.3171 20.3618 15.3171Z" fill="#3F3F3F"/>
<path d="M50.6209 24.21V32.4646C50.6209 33.0214 50.169 33.4732 49.6123 33.4732H44.5691C42.9008 33.4732 41.5432 34.8308 41.5432 36.4991V45.5768H43.5605V36.4991C43.5605 35.9424 44.0123 35.4905 44.5691 35.4905H49.6123C51.2805 35.4905 52.6382 34.1329 52.6382 32.4646V24.21C53.8092 23.7924 54.6554 22.6829 54.6554 21.3696C54.6554 19.7014 53.2978 18.3438 51.6295 18.3438C49.9613 18.3438 48.6036 19.7014 48.6036 21.3696C48.6036 22.6829 49.4499 23.7924 50.6209 24.21ZM51.6295 20.361C52.1863 20.361 52.6382 20.8129 52.6382 21.3696C52.6382 21.9264 52.1863 22.3783 51.6295 22.3783C51.0728 22.3783 50.6209 21.9264 50.6209 21.3696C50.6209 20.8129 51.0728 20.361 51.6295 20.361Z" fill="#3F3F3F"/>
<path d="M67.7678 65.75H65.7505V67.7673H67.7678V65.75Z" fill="#3F3F3F"/>
<path d="M7.24968 65.75H5.23242V67.7673H7.24968V65.75Z" fill="#3F3F3F"/>
<g clip-path="url(#clip1_103_435)">
<path d="M40.7671 47H32.2329C31.5523 47 31 47.5021 31 48.1208V55.8792C31 56.4979 31.5523 57 32.2329 57H40.7671C41.4477 57 42 56.4979 42 55.8792V48.1208C42 47.5021 41.4477 47 40.7671 47ZM41.5417 55.8792C41.5417 56.2688 41.1956 56.5833 40.7671 56.5833H32.2329C31.8044 56.5833 31.4583 56.2687 31.4583 55.8792V48.1208C31.4583 47.7313 31.8044 47.4167 32.2329 47.4167H40.7671C41.1956 47.4167 41.5417 47.7313 41.5417 48.1208V55.8792Z" fill="#3F3F3F"/>
<path d="M40.7671 47H32.2329C31.5523 47 31 47.5021 31 48.1208V55.8792C31 56.4979 31.5523 57 32.2329 57H40.7671C41.4477 57 42 56.4979 42 55.8792V48.1208C42 47.5021 41.4477 47 40.7671 47ZM41.5417 55.8792C41.5417 56.2688 41.1956 56.5833 40.7671 56.5833H32.2329C31.8044 56.5833 31.4583 56.2687 31.4583 55.8792V48.1208C31.4583 47.7313 31.8044 47.4167 32.2329 47.4167H40.7671C41.1956 47.4167 41.5417 47.7313 41.5417 48.1208V55.8792Z" fill="url(#paint4_linear_103_435)"/>
<path d="M40.7671 47H32.2329C31.5523 47 31 47.5021 31 48.1208V55.8792C31 56.4979 31.5523 57 32.2329 57H40.7671C41.4477 57 42 56.4979 42 55.8792V48.1208C42 47.5021 41.4477 47 40.7671 47ZM41.5417 55.8792C41.5417 56.2688 41.1956 56.5833 40.7671 56.5833H32.2329C31.8044 56.5833 31.4583 56.2687 31.4583 55.8792V48.1208C31.4583 47.7313 31.8044 47.4167 32.2329 47.4167H40.7671C41.1956 47.4167 41.5417 47.7313 41.5417 48.1208V55.8792Z" fill="url(#paint5_linear_103_435)"/>
<mask id="path-11-inside-1_103_435" fill="white">
<path d="M35.6406 49.917L34.2083 54.0837H34.8018L35.2303 52.792H36.697L37.1393 54.0837H37.7466L36.3212 49.917H35.6406ZM35.3403 52.3962L35.7368 51.2295C35.8193 50.9691 35.8903 50.6837 35.9522 50.417H35.9728C36.0347 50.6774 36.1058 50.9566 36.1951 51.2358L36.5985 52.3962H35.3403Z"/>
</mask>
<path d="M35.6406 49.917L34.2083 54.0837H34.8018L35.2303 52.792H36.697L37.1393 54.0837H37.7466L36.3212 49.917H35.6406ZM35.3403 52.3962L35.7368 51.2295C35.8193 50.9691 35.8903 50.6837 35.9522 50.417H35.9728C36.0347 50.6774 36.1058 50.9566 36.1951 51.2358L36.5985 52.3962H35.3403Z" fill="#3F3F3F"/>
<path d="M35.6406 49.917L34.2083 54.0837H34.8018L35.2303 52.792H36.697L37.1393 54.0837H37.7466L36.3212 49.917H35.6406ZM35.3403 52.3962L35.7368 51.2295C35.8193 50.9691 35.8903 50.6837 35.9522 50.417H35.9728C36.0347 50.6774 36.1058 50.9566 36.1951 51.2358L36.5985 52.3962H35.3403Z" fill="url(#paint6_linear_103_435)"/>
<path d="M35.6406 49.917V48.917H34.9269L34.6949 49.5919L35.6406 49.917ZM34.2083 54.0837L33.2626 53.7586L32.8071 55.0837H34.2083V54.0837ZM34.8018 54.0837V55.0837H35.5236L35.7509 54.3986L34.8018 54.0837ZM35.2303 52.792V51.792H34.5085L34.2812 52.4771L35.2303 52.792ZM36.697 52.792L37.6431 52.468L37.4116 51.792H36.697V52.792ZM37.1393 54.0837L36.1933 54.4076L36.4247 55.0837H37.1393V54.0837ZM37.7466 54.0837V55.0837H39.1456L38.6928 53.76L37.7466 54.0837ZM36.3212 49.917L37.2673 49.5933L37.036 48.917H36.3212V49.917ZM35.3403 52.3962L34.3935 52.0744L33.9444 53.3962H35.3403V52.3962ZM35.7368 51.2295L36.6836 51.5513L36.687 51.5414L36.6901 51.5315L35.7368 51.2295ZM35.9522 50.417V49.417H35.1577L34.9781 50.191L35.9522 50.417ZM35.9728 50.417L36.9458 50.1858L36.7631 49.417H35.9728V50.417ZM36.1951 51.2358L35.2428 51.5407L35.2465 51.5524L35.2506 51.5641L36.1951 51.2358ZM36.5985 52.3962V53.3962H38.0047L37.543 52.0679L36.5985 52.3962ZM35.6406 49.917L34.6949 49.5919L33.2626 53.7586L34.2083 54.0837L35.1539 54.4087L36.5862 50.2421L35.6406 49.917ZM34.2083 54.0837V55.0837H34.8018V54.0837V53.0837H34.2083V54.0837ZM34.8018 54.0837L35.7509 54.3986L36.1795 53.1069L35.2303 52.792L34.2812 52.4771L33.8527 53.7688L34.8018 54.0837ZM35.2303 52.792V53.792H36.697V52.792V51.792H35.2303V52.792ZM36.697 52.792L35.751 53.116L36.1933 54.4076L37.1393 54.0837L38.0854 53.7597L37.6431 52.468L36.697 52.792ZM37.1393 54.0837V55.0837H37.7466V54.0837V53.0837H37.1393V54.0837ZM37.7466 54.0837L38.6928 53.76L37.2673 49.5933L36.3212 49.917L35.375 50.2407L36.8005 54.4073L37.7466 54.0837ZM36.3212 49.917V48.917H35.6406V49.917V50.917H36.3212V49.917ZM35.3403 52.3962L36.2872 52.7179L36.6836 51.5513L35.7368 51.2295L34.79 50.9078L34.3935 52.0744L35.3403 52.3962ZM35.7368 51.2295L36.6901 51.5315C36.7847 51.233 36.8628 50.917 36.9263 50.643L35.9522 50.417L34.9781 50.191C34.9179 50.4503 34.8539 50.7052 34.7835 50.9275L35.7368 51.2295ZM35.9522 50.417V51.417H35.9728V50.417V49.417H35.9522V50.417ZM35.9728 50.417L34.9999 50.6482C35.064 50.918 35.1419 51.2257 35.2428 51.5407L36.1951 51.2358L37.1475 50.9309C37.0696 50.6875 37.0054 50.4369 36.9458 50.1858L35.9728 50.417ZM36.1951 51.2358L35.2506 51.5641L35.6539 52.7245L36.5985 52.3962L37.543 52.0679L37.1397 50.9075L36.1951 51.2358ZM36.5985 52.3962V51.3962H35.3403V52.3962V53.3962H36.5985V52.3962Z" fill="url(#paint7_linear_103_435)" mask="url(#path-11-inside-1_103_435)"/>
<path d="M38.6606 50.4434C38.6728 50.4434 38.7079 50.4383 38.7437 50.4053C38.7814 50.3703 38.8013 50.3203 38.8013 50.2764C38.8012 50.2344 38.7828 50.1833 38.7427 50.1455C38.7092 50.114 38.6762 50.1063 38.6606 50.1045M38.6606 50.4434V50.1045M38.6606 50.4434C38.6553 50.4432 38.6183 50.4398 38.5786 50.4023C38.5575 50.3825 38.5429 50.3598 38.5337 50.3379L38.521 50.2764C38.5211 50.2389 38.5378 50.1865 38.5815 50.1455C38.6153 50.1139 38.6458 50.1053 38.6567 50.1035C38.6579 50.1036 38.6592 50.1043 38.6606 50.1045M38.6606 50.4434V50.1045" fill="#3F3F3F"/>
<path d="M38.6606 50.4434C38.6728 50.4434 38.7079 50.4383 38.7437 50.4053C38.7814 50.3703 38.8013 50.3203 38.8013 50.2764C38.8012 50.2344 38.7828 50.1833 38.7427 50.1455C38.7092 50.114 38.6762 50.1063 38.6606 50.1045M38.6606 50.4434V50.1045M38.6606 50.4434C38.6553 50.4432 38.6183 50.4398 38.5786 50.4023C38.5575 50.3825 38.5429 50.3598 38.5337 50.3379L38.521 50.2764C38.5211 50.2389 38.5378 50.1865 38.5815 50.1455C38.6153 50.1139 38.6458 50.1053 38.6567 50.1035C38.6579 50.1036 38.6592 50.1043 38.6606 50.1045M38.6606 50.4434V50.1045" fill="url(#paint8_linear_103_435)"/>
<path d="M38.6606 50.4434C38.6728 50.4434 38.7079 50.4383 38.7437 50.4053C38.7814 50.3703 38.8013 50.3203 38.8013 50.2764C38.8012 50.2344 38.7828 50.1833 38.7427 50.1455C38.7092 50.114 38.6762 50.1063 38.6606 50.1045M38.6606 50.4434V50.1045M38.6606 50.4434C38.6553 50.4432 38.6183 50.4398 38.5786 50.4023C38.5575 50.3825 38.5429 50.3598 38.5337 50.3379L38.521 50.2764C38.5211 50.2389 38.5378 50.1865 38.5815 50.1455C38.6153 50.1139 38.6458 50.1053 38.6567 50.1035C38.6579 50.1036 38.6592 50.1043 38.6606 50.1045M38.6606 50.4434V50.1045" stroke="url(#paint9_linear_103_435)"/>
<mask id="path-14-inside-2_103_435" fill="white">
<path d="M38.9521 51.083H38.3792V54.083H38.9521V51.083Z"/>
</mask>
<path d="M38.9521 51.083H38.3792V54.083H38.9521V51.083Z" fill="#3F3F3F"/>
<path d="M38.9521 51.083H38.3792V54.083H38.9521V51.083Z" fill="url(#paint10_linear_103_435)"/>
<path d="M38.3792 51.083V50.083H37.3792V51.083H38.3792ZM38.9521 51.083H39.9521V50.083H38.9521V51.083ZM38.9521 54.083V55.083H39.9521V54.083H38.9521ZM38.3792 54.083H37.3792V55.083H38.3792V54.083ZM38.3792 51.083V52.083H38.9521V51.083V50.083H38.3792V51.083ZM38.9521 51.083H37.9521V54.083H38.9521H39.9521V51.083H38.9521ZM38.9521 54.083V53.083H38.3792V54.083V55.083H38.9521V54.083ZM38.3792 54.083H39.3792V51.083H38.3792H37.3792V54.083H38.3792Z" fill="url(#paint11_linear_103_435)" mask="url(#path-14-inside-2_103_435)"/>
</g>
</g>
<defs>
<linearGradient id="paint0_linear_103_435" x1="26.4931" y1="15.3178" x2="46.5067" y2="15.3178" gradientUnits="userSpaceOnUse">
<stop stop-color="#6C63FF"/>
<stop offset="1" stop-color="#9A6AFF"/>
</linearGradient>
<linearGradient id="paint1_linear_103_435" x1="28.9633" y1="3.38438" x2="50.3936" y2="9.17899" gradientUnits="userSpaceOnUse">
<stop stop-color="#0C93FF"/>
<stop offset="1" stop-color="#B153F0"/>
</linearGradient>
<linearGradient id="paint2_linear_103_435" x1="28.9633" y1="3.38438" x2="50.3936" y2="9.17899" gradientUnits="userSpaceOnUse">
<stop stop-color="#0C93FF"/>
<stop offset="1" stop-color="#B153F0"/>
</linearGradient>
<linearGradient id="paint3_linear_103_435" x1="31.4964" y1="15.3176" x2="41.5032" y2="15.3176" gradientUnits="userSpaceOnUse">
<stop stop-color="#6C63FF"/>
<stop offset="1" stop-color="#9A6AFF"/>
</linearGradient>
<linearGradient id="paint4_linear_103_435" x1="31.0432" y1="52" x2="41.9565" y2="52" gradientUnits="userSpaceOnUse">
<stop stop-color="#6C63FF"/>
<stop offset="1" stop-color="#9A6AFF"/>
</linearGradient>
<linearGradient id="paint5_linear_103_435" x1="32.3902" y1="46.0844" x2="43.9112" y2="49.5111" gradientUnits="userSpaceOnUse">
<stop stop-color="#0C93FF"/>
<stop offset="1" stop-color="#B153F0"/>
</linearGradient>
<linearGradient id="paint6_linear_103_435" x1="34.2222" y1="52.0003" x2="37.7326" y2="52.0003" gradientUnits="userSpaceOnUse">
<stop stop-color="#6C63FF"/>
<stop offset="1" stop-color="#9A6AFF"/>
</linearGradient>
<linearGradient id="paint7_linear_103_435" x1="34.6554" y1="49.5355" x2="38.4872" y2="50.4153" gradientUnits="userSpaceOnUse">
<stop stop-color="#0C93FF"/>
<stop offset="1" stop-color="#B153F0"/>
</linearGradient>
<linearGradient id="paint8_linear_103_435" x1="38.3041" y1="50.2736" x2="39.018" y2="50.2736" gradientUnits="userSpaceOnUse">
<stop stop-color="#6C63FF"/>
<stop offset="1" stop-color="#9A6AFF"/>
</linearGradient>
<linearGradient id="paint9_linear_103_435" x1="38.3922" y1="49.8829" x2="39.147" y2="50.1053" gradientUnits="userSpaceOnUse">
<stop stop-color="#0C93FF"/>
<stop offset="1" stop-color="#B153F0"/>
</linearGradient>
<linearGradient id="paint10_linear_103_435" x1="38.3814" y1="52.583" x2="38.9498" y2="52.583" gradientUnits="userSpaceOnUse">
<stop stop-color="#6C63FF"/>
<stop offset="1" stop-color="#9A6AFF"/>
</linearGradient>
<linearGradient id="paint11_linear_103_435" x1="38.4516" y1="50.8083" x2="39.103" y2="50.842" gradientUnits="userSpaceOnUse">
<stop stop-color="#0C93FF"/>
<stop offset="1" stop-color="#B153F0"/>
</linearGradient>
<clipPath id="clip0_103_435">
<rect width="62.5352" height="62.5352" fill="white" transform="translate(5.23242 5.23145)"/>
</clipPath>
<clipPath id="clip1_103_435">
<rect width="11" height="10" fill="white" transform="translate(31 47)"/>
</clipPath>
</defs>
</svg>
