<svg width="73" height="73" viewBox="0 0 73 73" fill="none" xmlns="http://www.w3.org/2000/svg">
<path d="M59.2495 53.9556H52.5971V48.4338C53.6768 47.6336 54.8744 47.0002 55.965 46.2145C56.3624 45.9278 56.6654 45.5631 56.9866 45.3072C58.7577 43.9027 60.2129 42.609 61.641 40.847C62.258 40.0831 64.0418 37.6315 64.2486 36.7931C64.4319 36.0455 63.0329 34.1076 62.5502 33.4235C60.9987 31.2169 59.0952 29.2209 56.9739 27.5587C55.5821 26.4682 54.0669 25.5863 52.5971 24.6173V19.0954H59.2495C59.293 19.0954 59.4254 19.6616 59.5906 19.8848C62.4576 23.7771 67.7072 19.5817 65.0997 16.105C63.3849 13.8168 60.1313 14.5625 59.1605 17.1048L51.7407 17.1084C51.3614 17.103 50.7335 17.6165 50.7335 17.9649V23.7517C47.812 22.4724 44.7254 21.5397 41.5535 21.0915V10.5795H51.0656C51.1582 10.5795 51.786 11.8244 52.0763 12.0966C55.769 15.5588 60.3709 8.90645 55.9305 6.64728C53.9109 5.62022 51.8895 6.77431 51.0493 8.6996L40.5482 8.7105C40.2651 8.61251 39.6899 9.28751 39.6899 9.44901V20.8247H33.3025V9.44901C33.3025 9.28751 32.7273 8.61251 32.4442 8.7105L22.0593 8.71776C21.6655 8.64336 21.406 7.69248 21.0613 7.32049C20.1848 6.37508 18.6351 6.06659 17.4321 6.48939C17.2742 6.54564 17.2271 6.71082 17.2035 6.72171C13.0753 8.63611 16.1963 14.4737 20.0288 12.6718C20.9215 12.2526 21.1393 11.7064 21.5947 10.9787C21.6637 10.8662 21.7762 10.7573 21.8615 10.6521L31.4408 10.5795C31.3718 13.7224 31.5315 16.8852 31.4408 20.0263C31.4317 20.3166 31.5006 20.763 31.4208 21.0062C31.3064 21.3636 30.6605 21.1804 30.3248 21.2402C27.543 21.7338 24.8447 22.6448 22.2589 23.7517V17.9649C22.2589 17.6165 21.6329 17.103 21.2518 17.1084L13.8373 17.1011C12.8175 14.5752 9.63297 13.8113 7.89277 16.105C5.74792 18.9303 8.93794 22.6629 12.1625 21.0352C12.6252 20.8011 13.2277 20.1624 13.5035 19.7196C13.6178 19.54 13.7103 19.0954 13.743 19.0954H20.3971V24.6173C16.6445 26.8365 13.2893 29.4839 10.7072 33.0242C10.3061 33.5759 8.68027 35.9621 8.68027 36.4593C8.68027 37.5626 12.05 41.7779 12.9409 42.716C15.1148 45.0042 17.7587 46.7408 20.3971 48.4338V53.9556H13.743C12.8647 50.6421 7.88912 50.9252 7.28486 54.2169C6.49914 58.4866 12.4909 59.8857 13.8247 55.8102L21.3916 55.8156C21.5857 55.8101 22.2589 55.1442 22.2589 55.0879V49.2993C25.1931 50.555 28.2689 51.5023 31.4408 51.9595V62.4715H21.9268C21.8397 62.4715 21.2445 61.2648 20.9941 61.0107C18.5208 58.4957 14.2021 61.2049 15.5032 64.6381C16.3252 66.8048 19.4154 67.4889 21.0159 65.7523C21.3788 65.3586 21.5312 64.4403 22.0629 64.3369H32.3081C32.6347 64.4167 33.3025 63.856 33.3025 63.6038V52.2263H39.6899V63.6038C39.6899 63.856 40.3577 64.4167 40.6843 64.3369L51.0457 64.3569C51.6155 65.159 51.8622 65.8521 52.7912 66.3348C55.4387 67.7085 58.3912 65.3131 57.5891 62.4697C56.6564 59.1725 52.1562 59.3359 51.0656 62.4715H41.5535V51.9595C44.7272 51.5095 47.7939 50.5441 50.7335 49.2993V55.0879C50.7335 55.2132 51.238 55.8391 51.4685 55.8156L59.1678 55.8102C59.4817 56.8191 60.1985 57.6701 61.2092 58.0512C64.2015 59.1799 66.9107 55.9499 65.2939 53.1681C63.8821 50.7365 59.9771 51.1938 59.2495 53.9556ZM62.1419 16.5949C64.2105 16.1938 64.5426 19.4003 62.63 19.6235C60.7265 19.8467 60.291 16.956 62.1419 16.5949ZM53.8909 8.21512C56.5293 7.678 56.4677 11.4269 54.1378 11.1057C52.5409 10.8861 52.4773 8.50364 53.8909 8.21512ZM19.0761 11.0532C16.7897 11.5994 16.3778 8.3113 18.401 8.18428C19.4481 8.11896 20.3046 8.81028 20.1304 9.91355C20.0578 10.3763 19.5497 10.9407 19.0761 11.0532ZM11.473 19.2859C9.44243 20.7957 7.91813 17.0485 10.2499 16.5949C11.805 16.2936 12.7268 18.355 11.473 19.2859ZM10.6055 56.4761C8.81272 56.5432 8.4807 53.7397 10.2517 53.4529C12.4528 53.0955 12.6651 56.3999 10.6055 56.4761ZM18.0999 64.8341C16.7897 64.4966 16.855 62.2918 17.9619 61.967C20.7401 61.1523 20.8054 65.5327 18.0999 64.8341ZM53.8873 61.9689C56.337 61.41 56.6128 64.9466 54.2593 64.8795C52.5391 64.8287 52.4828 62.2901 53.8873 61.9689ZM30.5063 49.9018C22.444 48.4284 14.8191 43.7667 10.709 36.5718C12.2297 33.6068 14.7066 30.9193 17.3505 28.8887C22.1301 25.216 27.9585 23.1419 33.9685 22.6883C45.032 21.8536 56.7852 26.6315 62.2816 36.5718C61.3634 38.1523 60.2837 39.6983 59.0516 41.052C58.1806 42.0065 56.8033 43.3257 55.789 44.1096C48.7973 49.5298 39.1474 51.4805 30.5063 49.9018ZM63.0092 56.3182C60.5686 56.9424 60.3255 53.7524 62.1437 53.4529C64.1688 53.1209 64.4537 55.948 63.0092 56.3182Z" fill="#3F3F3F"/>
<path d="M34.2554 24.0781C34.6013 24.0349 34.9183 24.0405 35.1587 24.125C35.3922 24.2071 35.5536 24.3628 35.605 24.6357C35.6287 24.7618 35.6473 25.0777 35.6587 25.498C35.67 25.9151 35.6738 26.4272 35.6714 26.9385C35.669 27.4497 35.6597 27.9604 35.644 28.375C35.6283 28.793 35.606 29.1038 35.5796 29.2246C35.5441 29.3843 35.4467 29.5162 35.3013 29.6299C35.1549 29.7442 34.9643 29.8368 34.7524 29.9189C34.5406 30.0011 34.3139 30.0702 34.0952 30.1396C33.879 30.2083 33.6692 30.2781 33.5005 30.3604C29.9876 32.0717 28.7029 36.6066 30.7222 39.9375C33.4172 44.3808 39.9849 44.3585 42.4985 39.7637C42.6326 39.5189 42.8223 38.9877 42.9937 38.5117C43.0803 38.2711 43.1628 38.0423 43.2329 37.8652C43.268 37.7766 43.2999 37.7023 43.3267 37.6465C43.34 37.6186 43.352 37.5965 43.3618 37.5801C43.3666 37.572 43.3704 37.5659 43.3735 37.5615V37.5605L43.3774 37.5576C43.4526 37.4868 43.5713 37.4504 43.7173 37.4326C43.7886 37.4239 43.8626 37.4198 43.936 37.417C44.0079 37.4142 44.082 37.4129 44.147 37.4082C45.2415 37.3322 47.057 37.3162 48.1362 37.4082C48.4229 37.433 48.6136 37.4938 48.7388 37.5771C48.8604 37.6582 48.9268 37.7646 48.9585 37.8975C48.9911 38.0344 48.9871 38.2009 48.9624 38.3965C48.9376 38.5921 48.8934 38.8062 48.8511 39.042C47.4432 46.8689 38.5671 51.1141 31.3872 47.9082C21.0795 43.3056 21.7709 28.2456 32.4067 24.5742C32.804 24.4372 33.5653 24.1645 34.2554 24.0781ZM33.8755 25.9443C25.3891 28.0146 22.7365 38.9049 29.4487 44.7158C35.5897 50.0312 45.2603 46.8865 47.0962 39.0752L47.1226 38.9639H44.7534L44.729 39.0176C43.8029 41.1153 42.5139 42.9009 40.4487 43.9658C31.5647 48.5448 23.5594 36.4863 31.0073 30.0586L31.3735 29.7568C31.4813 29.672 31.6971 29.5473 31.9683 29.4033C32.237 29.2606 32.5524 29.1025 32.855 28.9502C33.1569 28.7982 33.4475 28.6513 33.6616 28.5332C33.7682 28.4744 33.858 28.421 33.9224 28.377C33.9542 28.3552 33.9829 28.334 34.0044 28.3135C34.0151 28.3032 34.0264 28.2904 34.0356 28.2764C34.044 28.2637 34.0571 28.2403 34.0571 28.21V26.0146H33.979L33.9683 25.9238H33.8755V25.9443Z" fill="#3F3F3F"/>
<path d="M34.2554 24.0781C34.6013 24.0349 34.9183 24.0405 35.1587 24.125C35.3922 24.2071 35.5536 24.3628 35.605 24.6357C35.6287 24.7618 35.6473 25.0777 35.6587 25.498C35.67 25.9151 35.6738 26.4272 35.6714 26.9385C35.669 27.4497 35.6597 27.9604 35.644 28.375C35.6283 28.793 35.606 29.1038 35.5796 29.2246C35.5441 29.3843 35.4467 29.5162 35.3013 29.6299C35.1549 29.7442 34.9643 29.8368 34.7524 29.9189C34.5406 30.0011 34.3139 30.0702 34.0952 30.1396C33.879 30.2083 33.6692 30.2781 33.5005 30.3604C29.9876 32.0717 28.7029 36.6066 30.7222 39.9375C33.4172 44.3808 39.9849 44.3585 42.4985 39.7637C42.6326 39.5189 42.8223 38.9877 42.9937 38.5117C43.0803 38.2711 43.1628 38.0423 43.2329 37.8652C43.268 37.7766 43.2999 37.7023 43.3267 37.6465C43.34 37.6186 43.352 37.5965 43.3618 37.5801C43.3666 37.572 43.3704 37.5659 43.3735 37.5615V37.5605L43.3774 37.5576C43.4526 37.4868 43.5713 37.4504 43.7173 37.4326C43.7886 37.4239 43.8626 37.4198 43.936 37.417C44.0079 37.4142 44.082 37.4129 44.147 37.4082C45.2415 37.3322 47.057 37.3162 48.1362 37.4082C48.4229 37.433 48.6136 37.4938 48.7388 37.5771C48.8604 37.6582 48.9268 37.7646 48.9585 37.8975C48.9911 38.0344 48.9871 38.2009 48.9624 38.3965C48.9376 38.5921 48.8934 38.8062 48.8511 39.042C47.4432 46.8689 38.5671 51.1141 31.3872 47.9082C21.0795 43.3056 21.7709 28.2456 32.4067 24.5742C32.804 24.4372 33.5653 24.1645 34.2554 24.0781ZM33.8755 25.9443C25.3891 28.0146 22.7365 38.9049 29.4487 44.7158C35.5897 50.0312 45.2603 46.8865 47.0962 39.0752L47.1226 38.9639H44.7534L44.729 39.0176C43.8029 41.1153 42.5139 42.9009 40.4487 43.9658C31.5647 48.5448 23.5594 36.4863 31.0073 30.0586L31.3735 29.7568C31.4813 29.672 31.6971 29.5473 31.9683 29.4033C32.237 29.2606 32.5524 29.1025 32.855 28.9502C33.1569 28.7982 33.4475 28.6513 33.6616 28.5332C33.7682 28.4744 33.858 28.421 33.9224 28.377C33.9542 28.3552 33.9829 28.334 34.0044 28.3135C34.0151 28.3032 34.0264 28.2904 34.0356 28.2764C34.044 28.2637 34.0571 28.2403 34.0571 28.21V26.0146H33.979L33.9683 25.9238H33.8755V25.9443Z" fill="url(#paint0_linear_103_391)"/>
<path d="M34.2554 24.0781C34.6013 24.0349 34.9183 24.0405 35.1587 24.125C35.3922 24.2071 35.5536 24.3628 35.605 24.6357C35.6287 24.7618 35.6473 25.0777 35.6587 25.498C35.67 25.9151 35.6738 26.4272 35.6714 26.9385C35.669 27.4497 35.6597 27.9604 35.644 28.375C35.6283 28.793 35.606 29.1038 35.5796 29.2246C35.5441 29.3843 35.4467 29.5162 35.3013 29.6299C35.1549 29.7442 34.9643 29.8368 34.7524 29.9189C34.5406 30.0011 34.3139 30.0702 34.0952 30.1396C33.879 30.2083 33.6692 30.2781 33.5005 30.3604C29.9876 32.0717 28.7029 36.6066 30.7222 39.9375C33.4172 44.3808 39.9849 44.3585 42.4985 39.7637C42.6326 39.5189 42.8223 38.9877 42.9937 38.5117C43.0803 38.2711 43.1628 38.0423 43.2329 37.8652C43.268 37.7766 43.2999 37.7023 43.3267 37.6465C43.34 37.6186 43.352 37.5965 43.3618 37.5801C43.3666 37.572 43.3704 37.5659 43.3735 37.5615V37.5605L43.3774 37.5576C43.4526 37.4868 43.5713 37.4504 43.7173 37.4326C43.7886 37.4239 43.8626 37.4198 43.936 37.417C44.0079 37.4142 44.082 37.4129 44.147 37.4082C45.2415 37.3322 47.057 37.3162 48.1362 37.4082C48.4229 37.433 48.6136 37.4938 48.7388 37.5771C48.8604 37.6582 48.9268 37.7646 48.9585 37.8975C48.9911 38.0344 48.9871 38.2009 48.9624 38.3965C48.9376 38.5921 48.8934 38.8062 48.8511 39.042C47.4432 46.8689 38.5671 51.1141 31.3872 47.9082C21.0795 43.3056 21.7709 28.2456 32.4067 24.5742C32.804 24.4372 33.5653 24.1645 34.2554 24.0781ZM33.8755 25.9443C25.3891 28.0146 22.7365 38.9049 29.4487 44.7158C35.5897 50.0312 45.2603 46.8865 47.0962 39.0752L47.1226 38.9639H44.7534L44.729 39.0176C43.8029 41.1153 42.5139 42.9009 40.4487 43.9658C31.5647 48.5448 23.5594 36.4863 31.0073 30.0586L31.3735 29.7568C31.4813 29.672 31.6971 29.5473 31.9683 29.4033C32.237 29.2606 32.5524 29.1025 32.855 28.9502C33.1569 28.7982 33.4475 28.6513 33.6616 28.5332C33.7682 28.4744 33.858 28.421 33.9224 28.377C33.9542 28.3552 33.9829 28.334 34.0044 28.3135C34.0151 28.3032 34.0264 28.2904 34.0356 28.2764C34.044 28.2637 34.0571 28.2403 34.0571 28.21V26.0146H33.979L33.9683 25.9238H33.8755V25.9443Z" fill="url(#paint1_linear_103_391)"/>
<path d="M34.2554 24.0781C34.6013 24.0349 34.9183 24.0405 35.1587 24.125C35.3922 24.2071 35.5536 24.3628 35.605 24.6357C35.6287 24.7618 35.6473 25.0777 35.6587 25.498C35.67 25.9151 35.6738 26.4272 35.6714 26.9385C35.669 27.4497 35.6597 27.9604 35.644 28.375C35.6283 28.793 35.606 29.1038 35.5796 29.2246C35.5441 29.3843 35.4467 29.5162 35.3013 29.6299C35.1549 29.7442 34.9643 29.8368 34.7524 29.9189C34.5406 30.0011 34.3139 30.0702 34.0952 30.1396C33.879 30.2083 33.6692 30.2781 33.5005 30.3604C29.9876 32.0717 28.7029 36.6066 30.7222 39.9375C33.4172 44.3808 39.9849 44.3585 42.4985 39.7637C42.6326 39.5189 42.8223 38.9877 42.9937 38.5117C43.0803 38.2711 43.1628 38.0423 43.2329 37.8652C43.268 37.7766 43.2999 37.7023 43.3267 37.6465C43.34 37.6186 43.352 37.5965 43.3618 37.5801C43.3666 37.572 43.3704 37.5659 43.3735 37.5615V37.5605L43.3774 37.5576C43.4526 37.4868 43.5713 37.4504 43.7173 37.4326C43.7886 37.4239 43.8626 37.4198 43.936 37.417C44.0079 37.4142 44.082 37.4129 44.147 37.4082C45.2415 37.3322 47.057 37.3162 48.1362 37.4082C48.4229 37.433 48.6136 37.4938 48.7388 37.5771C48.8604 37.6582 48.9268 37.7646 48.9585 37.8975C48.9911 38.0344 48.9871 38.2009 48.9624 38.3965C48.9376 38.5921 48.8934 38.8062 48.8511 39.042C47.4432 46.8689 38.5671 51.1141 31.3872 47.9082C21.0795 43.3056 21.7709 28.2456 32.4067 24.5742C32.804 24.4372 33.5653 24.1645 34.2554 24.0781ZM33.8755 25.9443C25.3891 28.0146 22.7365 38.9049 29.4487 44.7158C35.5897 50.0312 45.2603 46.8865 47.0962 39.0752L47.1226 38.9639H44.7534L44.729 39.0176C43.8029 41.1153 42.5139 42.9009 40.4487 43.9658C31.5647 48.5448 23.5594 36.4863 31.0073 30.0586L31.3735 29.7568C31.4813 29.672 31.6971 29.5473 31.9683 29.4033C32.237 29.2606 32.5524 29.1025 32.855 28.9502C33.1569 28.7982 33.4475 28.6513 33.6616 28.5332C33.7682 28.4744 33.858 28.421 33.9224 28.377C33.9542 28.3552 33.9829 28.334 34.0044 28.3135C34.0151 28.3032 34.0264 28.2904 34.0356 28.2764C34.044 28.2637 34.0571 28.2403 34.0571 28.21V26.0146H33.979L33.9683 25.9238H33.8755V25.9443Z" stroke="url(#paint2_linear_103_391)" stroke-width="0.18146"/>
<path d="M36.2021 32.0378C38.2544 31.8491 40.3067 33.3208 40.8293 35.3204C41.8836 39.3688 37.0732 42.5316 33.7724 39.8497C30.7076 37.3582 32.3098 32.3971 36.2021 32.0378ZM34.6688 34.5655C34.6307 34.6037 34.2024 35.3694 34.168 35.4619C32.9649 38.7718 37.7191 40.4412 38.9167 37.4163C39.775 35.2515 37.7373 33.2753 35.5652 34.0647C35.4727 34.0992 34.7069 34.5274 34.6688 34.5655Z" fill="#3F3F3F"/>
<path d="M36.2021 32.0378C38.2544 31.8491 40.3067 33.3208 40.8293 35.3204C41.8836 39.3688 37.0732 42.5316 33.7724 39.8497C30.7076 37.3582 32.3098 32.3971 36.2021 32.0378ZM34.6688 34.5655C34.6307 34.6037 34.2024 35.3694 34.168 35.4619C32.9649 38.7718 37.7191 40.4412 38.9167 37.4163C39.775 35.2515 37.7373 33.2753 35.5652 34.0647C35.4727 34.0992 34.7069 34.5274 34.6688 34.5655Z" fill="url(#paint3_linear_103_391)"/>
<path d="M48.7754 33.0945C48.0351 30.2909 46.01 27.4983 43.5893 25.9069C42.3445 25.0867 39.628 23.8038 38.2253 24.0179C37.7191 24.0959 37.5232 24.0433 37.4397 24.6239C37.3181 25.4913 37.309 28.2767 37.4215 29.1477C37.525 29.9571 39.1653 30.2256 39.9111 30.6484C41.3827 31.4813 42.1685 32.5828 42.8526 34.0925C43.0449 34.5153 43.0413 35.2956 43.5512 35.526C43.798 35.6367 47.977 35.6694 48.4016 35.5896C48.8752 35.5006 48.9279 35.174 49.0041 34.7948C49.1039 34.303 48.9133 33.6153 48.7754 33.0945ZM47.008 33.8639C46.5145 33.7786 44.9702 34.0381 44.6744 33.7351C44.5383 33.5954 44.2843 32.7588 44.1028 32.4449C43.3843 31.2019 42.4607 30.1059 41.2503 29.3093C40.8856 29.0697 39.2797 28.3765 39.2216 28.2785C38.9966 27.9066 39.2524 26.5238 39.1581 26.0139C39.325 26.0339 39.5355 25.9831 39.6898 26.0139C41.39 26.3605 44.0484 28.4636 45.1227 29.8282C45.6162 30.4561 46.8701 32.6155 47.008 33.3322C47.0371 33.4883 46.9899 33.6952 47.008 33.8639Z" fill="#3F3F3F"/>
<path d="M48.7754 33.0945C48.0351 30.2909 46.01 27.4983 43.5893 25.9069C42.3445 25.0867 39.628 23.8038 38.2253 24.0179C37.7191 24.0959 37.5232 24.0433 37.4397 24.6239C37.3181 25.4913 37.309 28.2767 37.4215 29.1477C37.525 29.9571 39.1653 30.2256 39.9111 30.6484C41.3827 31.4813 42.1685 32.5828 42.8526 34.0925C43.0449 34.5153 43.0413 35.2956 43.5512 35.526C43.798 35.6367 47.977 35.6694 48.4016 35.5896C48.8752 35.5006 48.9279 35.174 49.0041 34.7948C49.1039 34.303 48.9133 33.6153 48.7754 33.0945ZM47.008 33.8639C46.5145 33.7786 44.9702 34.0381 44.6744 33.7351C44.5383 33.5954 44.2843 32.7588 44.1028 32.4449C43.3843 31.2019 42.4607 30.1059 41.2503 29.3093C40.8856 29.0697 39.2797 28.3765 39.2216 28.2785C38.9966 27.9066 39.2524 26.5238 39.1581 26.0139C39.325 26.0339 39.5355 25.9831 39.6898 26.0139C41.39 26.3605 44.0484 28.4636 45.1227 29.8282C45.6162 30.4561 46.8701 32.6155 47.008 33.3322C47.0371 33.4883 46.9899 33.6952 47.008 33.8639Z" fill="url(#paint4_linear_103_391)"/>
<path d="M48.7754 33.0945C48.0351 30.2909 46.01 27.4983 43.5893 25.9069C42.3445 25.0867 39.628 23.8038 38.2253 24.0179C37.7191 24.0959 37.5232 24.0433 37.4397 24.6239C37.3181 25.4913 37.309 28.2767 37.4215 29.1477C37.525 29.9571 39.1653 30.2256 39.9111 30.6484C41.3827 31.4813 42.1685 32.5828 42.8526 34.0925C43.0449 34.5153 43.0413 35.2956 43.5512 35.526C43.798 35.6367 47.977 35.6694 48.4016 35.5896C48.8752 35.5006 48.9279 35.174 49.0041 34.7948C49.1039 34.303 48.9133 33.6153 48.7754 33.0945ZM47.008 33.8639C46.5145 33.7786 44.9702 34.0381 44.6744 33.7351C44.5383 33.5954 44.2843 32.7588 44.1028 32.4449C43.3843 31.2019 42.4607 30.1059 41.2503 29.3093C40.8856 29.0697 39.2797 28.3765 39.2216 28.2785C38.9966 27.9066 39.2524 26.5238 39.1581 26.0139C39.325 26.0339 39.5355 25.9831 39.6898 26.0139C41.39 26.3605 44.0484 28.4636 45.1227 29.8282C45.6162 30.4561 46.8701 32.6155 47.008 33.3322C47.0371 33.4883 46.9899 33.6952 47.008 33.8639Z" fill="url(#paint5_linear_103_391)"/>
<defs>
<linearGradient id="paint0_linear_103_391" x1="24.0378" y1="36.5183" x2="48.973" y2="36.5183" gradientUnits="userSpaceOnUse">
<stop stop-color="#6C63FF"/>
<stop offset="1" stop-color="#9A6AFF"/>
</linearGradient>
<linearGradient id="paint1_linear_103_391" x1="27.1154" y1="21.6614" x2="53.813" y2="28.8856" gradientUnits="userSpaceOnUse">
<stop stop-color="#0C93FF"/>
<stop offset="1" stop-color="#B153F0"/>
</linearGradient>
<linearGradient id="paint2_linear_103_391" x1="27.1154" y1="21.6614" x2="53.813" y2="28.8856" gradientUnits="userSpaceOnUse">
<stop stop-color="#0C93FF"/>
<stop offset="1" stop-color="#B153F0"/>
</linearGradient>
<linearGradient id="paint3_linear_103_391" x1="32.2007" y1="36.4325" x2="40.9425" y2="36.4325" gradientUnits="userSpaceOnUse">
<stop stop-color="#6C63FF"/>
<stop offset="1" stop-color="#9A6AFF"/>
</linearGradient>
<linearGradient id="paint4_linear_103_391" x1="37.3885" y1="29.814" x2="48.9857" y2="29.814" gradientUnits="userSpaceOnUse">
<stop stop-color="#6C63FF"/>
<stop offset="1" stop-color="#9A6AFF"/>
</linearGradient>
<linearGradient id="paint5_linear_103_391" x1="38.8199" y1="22.9284" x2="51.2308" y2="26.2986" gradientUnits="userSpaceOnUse">
<stop stop-color="#0C93FF"/>
<stop offset="1" stop-color="#B153F0"/>
</linearGradient>
</defs>
</svg>
