<svg width="72" height="72" viewBox="0 0 72 72" fill="none" xmlns="http://www.w3.org/2000/svg">
<g clip-path="url(#clip0_103_90)">
<path d="M38.8285 63.4353C42.4446 63.4353 45.376 60.5039 45.376 56.8878C45.376 53.2717 42.4446 50.3403 38.8285 50.3403C35.2124 50.3403 32.281 53.2717 32.281 56.8878C32.281 60.5039 35.2124 63.4353 38.8285 63.4353Z" stroke="#3F3F3F" stroke-width="3.375"/>
<path d="M17.0485 53.8279C20.6646 53.8279 23.596 50.8965 23.596 47.2804C23.596 43.6643 20.6646 40.7329 17.0485 40.7329C13.4324 40.7329 10.501 43.6643 10.501 47.2804C10.501 50.8965 13.4324 53.8279 17.0485 53.8279Z" stroke="#3F3F3F" stroke-width="3.375"/>
<path d="M17.0485 28.2229C20.6646 28.2229 23.596 25.2915 23.596 21.6754C23.596 18.0593 20.6646 15.1279 17.0485 15.1279C13.4324 15.1279 10.501 18.0593 10.501 21.6754C10.501 25.2915 13.4324 28.2229 17.0485 28.2229Z" stroke="#3F3F3F" stroke-width="3.375"/>
<path d="M38.817 38.2127C41.7372 38.2127 44.1045 35.8454 44.1045 32.9252C44.1045 30.005 41.7372 27.6377 38.817 27.6377C35.8968 27.6377 33.5295 30.005 33.5295 32.9252C33.5295 35.8454 35.8968 38.2127 38.817 38.2127Z" stroke="#3F3F3F" stroke-width="2"/>
<path d="M22.6846 18.3342L32.5058 14.543" stroke="#3F3F3F" stroke-width="2"/>
<path d="M43.4185 17.5352L55.6585 30.9564" stroke="#3F3F3F" stroke-width="2"/>
<path d="M56.3221 40.7217L43.4971 52.2979" stroke="#3F3F3F" stroke-width="2"/>
<path d="M20.6484 27.1431L34.7672 51.7581" stroke="#3F3F3F" stroke-width="2"/>
<path d="M22.842 50.3291L32.2808 54.7054" stroke="#3F3F3F" stroke-width="2"/>
<path d="M19.501 41.2052L35.2847 18.3564" stroke="#3F3F3F" stroke-width="2"/>
<path d="M23.0784 24.2402L34.1259 30.484" stroke="#3F3F3F" stroke-width="2"/>
<path d="M44.116 33.5215L53.7797 34.2527" stroke="#3F3F3F" stroke-width="2"/>
<path d="M38.8171 38.2241L38.8284 50.3291" stroke="#3F3F3F" stroke-width="2"/>
<path d="M60.327 42.094C63.9431 42.094 66.8745 39.1626 66.8745 35.5465C66.8745 31.9304 63.9431 28.999 60.327 28.999C56.711 28.999 53.7795 31.9304 53.7795 35.5465C53.7795 39.1626 56.711 42.094 60.327 42.094Z" stroke="#3F3F3F" stroke-width="3.375"/>
<path d="M60.327 42.094C63.9431 42.094 66.8745 39.1626 66.8745 35.5465C66.8745 31.9304 63.9431 28.999 60.327 28.999C56.711 28.999 53.7795 31.9304 53.7795 35.5465C53.7795 39.1626 56.711 42.094 60.327 42.094Z" stroke="url(#paint0_linear_103_90)" stroke-width="3.375"/>
<path d="M60.327 42.094C63.9431 42.094 66.8745 39.1626 66.8745 35.5465C66.8745 31.9304 63.9431 28.999 60.327 28.999C56.711 28.999 53.7795 31.9304 53.7795 35.5465C53.7795 39.1626 56.711 42.094 60.327 42.094Z" stroke="url(#paint1_linear_103_90)" stroke-width="3.375"/>
<path d="M38.8285 20.2688C42.4446 20.2688 45.376 17.3374 45.376 13.7213C45.376 10.1052 42.4446 7.17383 38.8285 7.17383C35.2124 7.17383 32.281 10.1052 32.281 13.7213C32.281 17.3374 35.2124 20.2688 38.8285 20.2688Z" stroke="#3F3F3F" stroke-width="3.375"/>
<path d="M38.8285 20.2688C42.4446 20.2688 45.376 17.3374 45.376 13.7213C45.376 10.1052 42.4446 7.17383 38.8285 7.17383C35.2124 7.17383 32.281 10.1052 32.281 13.7213C32.281 17.3374 35.2124 20.2688 38.8285 20.2688Z" stroke="url(#paint2_linear_103_90)" stroke-width="3.375"/>
<path d="M38.8285 20.2688C42.4446 20.2688 45.376 17.3374 45.376 13.7213C45.376 10.1052 42.4446 7.17383 38.8285 7.17383C35.2124 7.17383 32.281 10.1052 32.281 13.7213C32.281 17.3374 35.2124 20.2688 38.8285 20.2688Z" stroke="url(#paint3_linear_103_90)" stroke-width="3.375"/>
</g>
<defs>
<linearGradient id="paint0_linear_103_90" x1="53.831" y1="35.5465" x2="66.8228" y2="35.5465" gradientUnits="userSpaceOnUse">
<stop stop-color="#6C63FF"/>
<stop offset="1" stop-color="#9A6AFF"/>
</linearGradient>
<linearGradient id="paint1_linear_103_90" x1="55.4345" y1="27.8" x2="69.3459" y2="31.5616" gradientUnits="userSpaceOnUse">
<stop stop-color="#0C93FF"/>
<stop offset="1" stop-color="#B153F0"/>
</linearGradient>
<linearGradient id="paint2_linear_103_90" x1="32.3325" y1="13.7213" x2="45.3242" y2="13.7213" gradientUnits="userSpaceOnUse">
<stop stop-color="#6C63FF"/>
<stop offset="1" stop-color="#9A6AFF"/>
</linearGradient>
<linearGradient id="paint3_linear_103_90" x1="33.936" y1="5.97481" x2="47.8474" y2="9.73636" gradientUnits="userSpaceOnUse">
<stop stop-color="#0C93FF"/>
<stop offset="1" stop-color="#B153F0"/>
</linearGradient>
<clipPath id="clip0_103_90">
<rect width="72" height="72" fill="white"/>
</clipPath>
</defs>
</svg>
