<svg width="72" height="73" viewBox="0 0 72 73" fill="none" xmlns="http://www.w3.org/2000/svg">
<path d="M44.0938 10.2402L44.2305 10.25C44.9079 10.3175 45.5526 10.667 45.9463 11.2412H45.9473C45.9944 11.3102 46.0895 11.4941 46.166 11.6514C46.2061 11.7338 46.245 11.8173 46.2744 11.8857C46.289 11.9197 46.3031 11.9534 46.3135 11.9824C46.3186 11.9967 46.3237 12.0136 46.3281 12.0303C46.3313 12.042 46.3398 12.0743 46.3398 12.1123V16.0293H50.1592C50.2733 16.0293 50.4036 16.0779 50.5059 16.1221C50.6198 16.1714 50.7455 16.2375 50.8662 16.3076C51.0999 16.4433 51.3517 16.6162 51.4707 16.7402C51.5799 16.8539 51.7396 17.0977 51.8652 17.3223C51.9303 17.4386 51.992 17.56 52.0381 17.668C52.061 17.7216 52.0815 17.7755 52.0967 17.8262C52.1108 17.8734 52.125 17.9347 52.125 17.9961V27.502H55.0615C55.1976 27.502 55.3059 27.5745 55.376 27.6348C55.451 27.6994 55.5205 27.784 55.583 27.8721C55.7089 28.0495 55.8356 28.2827 55.9512 28.5156C56.0676 28.7503 56.179 28.9958 56.2725 29.2021C56.3692 29.4157 56.4414 29.5749 56.4873 29.6543C57.5731 31.5341 59.4219 33.2856 61.6309 33.2959C61.7323 33.2963 61.8398 33.2828 61.96 33.2637C62.0726 33.2457 62.2112 33.2195 62.3389 33.2031C62.6031 33.1692 62.9121 33.1623 63.2129 33.3311C63.4568 33.4677 63.5896 33.7534 63.6709 34.0234C63.7566 34.3085 63.8061 34.6513 63.8359 34.9912C63.8951 35.6646 63.8811 36.4004 63.8916 36.7148C64.1854 45.2384 60.9231 52.7802 53.9121 57.7471C53.752 57.8606 53.3094 58.1225 52.916 58.3594C52.7149 58.4805 52.5228 58.5976 52.376 58.6914C52.3024 58.7384 52.2429 58.7781 52.2002 58.8086C52.1844 58.8199 52.1719 58.829 52.1631 58.8359C52.1614 58.8403 52.1595 58.8464 52.1572 58.8535C52.1486 58.8808 52.14 58.9182 52.1309 58.9668C52.1123 59.0654 52.0964 59.1877 52.0791 59.3271C52.0468 59.5878 52.007 59.9275 51.9121 60.1602C51.5433 61.0654 50.6552 61.4811 49.7861 61.541H16.209C15.4595 61.4883 14.6693 61.1628 14.2227 60.4766V60.4756C14.1821 60.413 14.097 60.2383 14.0303 60.0947C13.9944 60.0175 13.9588 59.9398 13.9326 59.8779C13.9198 59.8476 13.9084 59.8184 13.8994 59.7939C13.895 59.782 13.8898 59.7678 13.8857 59.7539C13.8846 59.7499 13.873 59.7123 13.873 59.6689V55.752H9.95508C9.735 55.7519 9.50764 55.6502 9.30957 55.5225C9.10489 55.3904 8.90015 55.2108 8.7207 55.0127C8.54125 54.8145 8.38048 54.5904 8.26562 54.3662C8.15579 54.1518 8.07747 53.9138 8.08789 53.6875L8.0918 20.2549V20.166L8.14844 20.0977L15.8379 10.627L15.8584 10.6016L15.8848 10.582L16.2266 10.335L16.292 10.2871H16.373L44.083 10.2402H44.0938ZM44.9277 55.5713C44.8387 55.6143 44.744 55.6575 44.6562 55.6904C44.5763 55.7204 44.4725 55.7538 44.375 55.7539H15.9414V59.2207C15.9525 59.2398 15.9662 59.2642 15.9824 59.2891C15.9898 59.3003 15.9978 59.311 16.0049 59.3213L49.9443 59.2832C49.9462 59.2785 49.9503 59.274 49.9521 59.2686C49.9681 59.221 49.9777 59.1591 49.9775 59.0918C49.9772 58.9512 49.9358 58.8626 49.9102 58.833C48.2276 57.8864 46.6909 56.7089 45.292 55.3945C45.1999 55.4376 45.0757 55.4998 44.9277 55.5713ZM48.0322 29.5859C46.9044 32.1522 44.6109 34.8091 41.6543 35.3115L41.3604 35.3545C41.2697 35.3652 41.1503 35.3622 41.04 35.3584C40.9209 35.3543 40.8009 35.3484 40.6816 35.3467C40.5621 35.345 40.4605 35.347 40.3867 35.3584C39.6692 43.2502 42.5289 51.0397 49.0068 55.7139C49.184 55.8415 49.6692 56.1849 50.1475 56.4912C50.3868 56.6445 50.6203 56.7855 50.8105 56.8857C50.9061 56.936 50.9858 56.9739 51.0469 56.9971C51.0755 57.0079 51.0953 57.0117 51.1064 57.0146C51.1191 57.0093 51.1362 57.0027 51.1572 56.9922C51.2127 56.9645 51.2858 56.9237 51.373 56.8721C51.5468 56.7693 51.7645 56.6307 51.9873 56.4844C52.4329 56.1916 52.8884 55.875 53.0322 55.7715L53.4854 55.4375C58.1037 51.9313 60.8347 46.8814 61.6123 41.0898C61.6637 40.7066 61.7765 39.2997 61.8223 37.9473C61.8451 37.2719 61.8512 36.6175 61.8252 36.1152C61.8121 35.8631 61.7911 35.6568 61.7627 35.5088C61.7541 35.464 61.7418 35.4285 61.7334 35.3994C58.9092 35.4367 56.6641 33.6937 55.1582 31.5107C54.9231 31.1703 54.7281 30.8135 54.541 30.4707C54.3734 30.1636 54.2105 29.8681 54.0254 29.5859H48.0322ZM17.707 20.7402C17.707 20.8177 17.6759 20.8821 17.6602 20.9121C17.6402 20.9503 17.6148 20.9878 17.5898 21.0215C17.5391 21.0898 17.4733 21.1633 17.4072 21.2295C17.3411 21.2957 17.2677 21.3612 17.1992 21.4121C17.1655 21.4372 17.1281 21.4624 17.0898 21.4824C17.0596 21.4982 16.9946 21.5293 16.917 21.5293H10.2539V53.4971C10.2552 53.4985 10.2564 53.5005 10.2578 53.502C10.2701 53.5147 10.2833 53.5284 10.2969 53.542L10.3398 53.585H43.5869C40.3956 49.7484 38.6029 44.8466 38.1934 39.8818C38.0637 38.3066 38.001 35.9123 38.3193 34.3467C38.3964 33.9683 38.5089 33.6873 38.6768 33.4951C38.8552 33.2909 39.0739 33.2124 39.2988 33.1943C39.5074 33.1776 39.7381 33.2129 39.9482 33.2412C40.1694 33.271 40.3942 33.2977 40.6338 33.2861C41.8906 33.2263 43.3172 32.474 44.1514 31.5107L44.1221 12.4463C44.1138 12.4375 44.105 12.4282 44.0957 12.4189C44.0925 12.4158 44.089 12.4131 44.0859 12.4102H17.707V20.7402ZM10.21 53.4512L10.2119 53.4531V53.4521L10.21 53.4502V53.4512ZM46.3398 28.0488C46.3657 27.9977 46.3951 27.9472 46.4297 27.9004L46.4834 27.8389C46.5027 27.8192 46.5226 27.8008 46.54 27.7852C46.58 27.7493 46.6268 27.7104 46.6729 27.6748C46.7184 27.6396 46.7674 27.6039 46.8115 27.5762C46.8332 27.5626 46.8583 27.5482 46.8838 27.5361C46.898 27.5294 46.9535 27.502 47.0215 27.502H49.958V18.2822L49.915 18.2393C49.9015 18.2257 49.8878 18.2125 49.875 18.2002C49.8737 18.199 49.8723 18.1975 49.8711 18.1963H46.3398V28.0488ZM11.5186 19.3633H15.6377V14.4199L11.5186 19.3633ZM49.8242 18.1523L49.8252 18.1543L49.8271 18.1553L49.8242 18.1523Z" fill="#3F3F3F" stroke="#3F3F3F" stroke-width="0.5"/>
<path d="M14.0769 28.0029L35.6516 28.0447C36.3266 28.5071 35.9346 29.3143 35.1714 29.3042H14.4442C13.6099 29.3228 13.2697 28.3493 14.0769 28.0037V28.0029Z" fill="#3F3F3F"/>
<path d="M14.0745 33.2607L31.9981 33.2422C32.7397 33.2723 32.8348 34.412 32.0755 34.4824L14.1318 34.4847C13.4761 34.3981 13.4459 33.4463 14.0753 33.26L14.0745 33.2607Z" fill="#3F3F3F"/>
<path d="M14.0775 38.5178L31.2271 38.5C31.9794 38.5789 31.9725 39.666 31.2271 39.7402L14.1339 39.7425C13.4984 39.6606 13.4543 38.6747 14.0767 38.5178H14.0775Z" fill="#3F3F3F"/>
<path d="M13.9996 43.7744L27.2423 43.7992C27.775 44.1208 27.6227 44.9497 26.9748 44.9976H14.2138C13.528 44.9319 13.4306 44.0984 13.9996 43.7744Z" fill="#3F3F3F"/>
<path d="M50.6794 35.9216C57.2238 35.6215 60.9922 43.3181 56.6835 48.2985C53.0102 52.5444 45.9893 51.2864 44.0565 46.0157C42.3219 41.2864 45.6206 36.153 50.6794 35.9216ZM50.3852 37.5876C48.1328 37.8122 46.1246 39.5537 45.4774 41.7012C43.8673 47.0444 50.0067 51.4011 54.5164 48.0926C59.285 44.5939 56.357 36.9934 50.3862 37.5886L50.3852 37.5876Z" fill="#3F3F3F"/>
<path d="M50.6794 35.9216C57.2238 35.6215 60.9922 43.3181 56.6835 48.2985C53.0102 52.5444 45.9893 51.2864 44.0565 46.0157C42.3219 41.2864 45.6206 36.153 50.6794 35.9216ZM50.3852 37.5876C48.1328 37.8122 46.1246 39.5537 45.4774 41.7012C43.8673 47.0444 50.0067 51.4011 54.5164 48.0926C59.285 44.5939 56.357 36.9934 50.3862 37.5886L50.3852 37.5876Z" fill="url(#paint0_linear_104_825)"/>
<path d="M53.6119 40.4229C54.4474 40.2287 54.9534 40.8436 54.6082 41.6153L49.9122 46.3319C49.6121 46.4388 49.2748 46.4172 48.9944 46.273C48.86 46.2044 47.5441 44.8875 47.4745 44.7531C47.2097 44.2413 47.3862 43.5235 48.0099 43.4441C48.6933 43.3568 49.0159 44.0501 49.4719 44.4207C49.7602 44.4207 52.9392 40.5788 53.6109 40.4229H53.6119Z" fill="#3F3F3F"/>
<path d="M53.6119 40.4229C54.4474 40.2287 54.9534 40.8436 54.6082 41.6153L49.9122 46.3319C49.6121 46.4388 49.2748 46.4172 48.9944 46.273C48.86 46.2044 47.5441 44.8875 47.4745 44.7531C47.2097 44.2413 47.3862 43.5235 48.0099 43.4441C48.6933 43.3568 49.0159 44.0501 49.4719 44.4207C49.7602 44.4207 52.9392 40.5788 53.6109 40.4229H53.6119Z" fill="url(#paint1_linear_104_825)"/>
<defs>
<linearGradient id="paint0_linear_104_825" x1="43.6485" y1="43.3806" x2="58.465" y2="43.3806" gradientUnits="userSpaceOnUse">
<stop stop-color="#6C63FF"/>
<stop offset="1" stop-color="#9A6AFF"/>
</linearGradient>
<linearGradient id="paint1_linear_104_825" x1="47.3844" y1="43.3929" x2="54.6889" y2="43.3929" gradientUnits="userSpaceOnUse">
<stop stop-color="#6C63FF"/>
<stop offset="1" stop-color="#9A6AFF"/>
</linearGradient>
</defs>
</svg>
