<svg width="72" height="73" viewBox="0 0 72 73" fill="none" xmlns="http://www.w3.org/2000/svg">
<g clip-path="url(#clip0_104_736)">
<path d="M26.596 67.7807C23.0112 67.7807 20.0736 65.4904 19.4761 62.2043L15.3934 62.7021C15.1444 62.7519 14.8457 62.7519 14.547 62.7519C11.0617 62.7519 8.47266 60.2625 8.47266 57.0262V16.0992C8.47266 12.8131 11.1115 10.3237 14.5968 10.3237C14.8457 10.3237 15.1444 10.3237 15.3934 10.3734L19.4761 10.8215C20.1234 7.58524 23.061 5.29492 26.6458 5.29492C26.9943 5.29492 27.2931 5.29492 27.5918 5.34471L57.2663 8.58102C60.7018 8.97934 63.49 12.2157 63.4402 15.8005V56.9764C63.4402 60.611 60.652 63.8473 57.2165 64.2456L27.542 67.7309C27.2433 67.7309 26.8947 67.7807 26.596 67.7807ZM25.8492 8.03334C24.5546 8.03334 23.1108 8.73039 23.1108 10.2739V62.7519C23.1108 64.2456 24.5049 64.9427 25.7496 64.9427C25.899 64.9427 26.0981 64.9427 26.2475 64.8929L58.1625 61.1587C59.3077 61.0093 60.3035 59.7646 60.3035 58.47V14.1574C60.3035 12.9127 59.3077 11.668 58.2123 11.5186L26.2973 8.03334C26.1479 8.08313 25.9985 8.03334 25.8492 8.03334ZM13.0533 13.4106C12.3562 13.4106 11.2111 13.6595 11.2111 14.4562V58.5696C11.2111 59.5654 12.8043 59.5654 13.0035 59.5654H13.4018L19.5259 59.0177V13.9583L13.4516 13.4106H13.0533Z" fill="#3F3F3F"/>
<path d="M28.7351 40.4458C28.3368 40.4458 27.9883 40.0973 27.9883 39.699V33.3259C27.9883 32.9276 28.3368 32.5791 28.7351 32.5791H29.233C29.6313 32.5791 29.9799 32.9276 29.9799 33.3259V39.699C29.9799 40.0973 29.6313 40.4458 29.233 40.4458H28.7351Z" fill="#3F3F3F"/>
<path d="M29.2301 40.397H28.7322C28.3339 40.397 28.0352 40.0983 28.0352 39.7V33.3269C28.0352 32.9286 28.3339 32.6299 28.7322 32.6299H29.2301C29.6284 32.6299 29.9272 32.9286 29.9272 33.3269V39.7C29.9769 40.0983 29.6284 40.397 29.2301 40.397Z" fill="#3F3F3F"/>
<g clip-path="url(#clip1_104_736)">
<path d="M53.8827 25.5537H36.2402C34.8332 25.5537 33.6914 26.5917 33.6914 27.8708V43.9095C33.6914 45.1885 34.8332 46.2265 36.2402 46.2265H53.8827C55.2898 46.2265 56.4315 45.1885 56.4315 43.9094V27.8708C56.4315 26.5917 55.2897 25.5537 53.8827 25.5537ZM55.484 43.9094C55.484 44.7148 54.7686 45.3651 53.8827 45.3651H36.2402C35.3543 45.3651 34.6389 44.7148 34.6389 43.9094V27.8708C34.6389 27.0654 35.3543 26.4151 36.2402 26.4151H53.8827C54.7687 26.4151 55.484 27.0654 55.484 27.8708V43.9094Z" fill="#3F3F3F"/>
<path d="M53.8827 25.5537H36.2402C34.8332 25.5537 33.6914 26.5917 33.6914 27.8708V43.9095C33.6914 45.1885 34.8332 46.2265 36.2402 46.2265H53.8827C55.2898 46.2265 56.4315 45.1885 56.4315 43.9094V27.8708C56.4315 26.5917 55.2897 25.5537 53.8827 25.5537ZM55.484 43.9094C55.484 44.7148 54.7686 45.3651 53.8827 45.3651H36.2402C35.3543 45.3651 34.6389 44.7148 34.6389 43.9094V27.8708C34.6389 27.0654 35.3543 26.4151 36.2402 26.4151H53.8827C54.7687 26.4151 55.484 27.0654 55.484 27.8708V43.9094Z" fill="url(#paint0_linear_104_736)"/>
<path d="M43.2774 31.584L40.3164 40.1977H41.5434L42.4294 37.5274H45.4614L46.3758 40.1977H47.6312L44.6844 31.584H43.2774ZM42.6568 36.7092L43.4764 34.2973C43.6469 33.759 43.7938 33.1689 43.9217 32.6177H43.9643C44.0922 33.156 44.2391 33.7332 44.4239 34.3103L45.2577 36.7092H42.6568Z" fill="#3F3F3F"/>
<path d="M43.2774 31.584L40.3164 40.1977H41.5434L42.4294 37.5274H45.4614L46.3758 40.1977H47.6312L44.6844 31.584H43.2774ZM42.6568 36.7092L43.4764 34.2973C43.6469 33.759 43.7938 33.1689 43.9217 32.6177H43.9643C44.0922 33.156 44.2391 33.7332 44.4239 34.3103L45.2577 36.7092H42.6568Z" fill="url(#paint1_linear_104_736)"/>
<path d="M49.529 31.6387C49.1026 31.6387 48.7852 31.9315 48.7852 32.3278C48.7852 32.7111 49.0836 33.004 49.5147 33.004H49.529C49.9838 33.004 50.2728 32.7111 50.2728 32.3278C50.2727 31.9315 49.9743 31.6387 49.529 31.6387Z" fill="#3F3F3F"/>
<path d="M49.529 31.6387C49.1026 31.6387 48.7852 31.9315 48.7852 32.3278C48.7852 32.7111 49.0836 33.004 49.5147 33.004H49.529C49.9838 33.004 50.2728 32.7111 50.2728 32.3278C50.2727 31.9315 49.9743 31.6387 49.529 31.6387Z" fill="url(#paint2_linear_104_736)"/>
<path d="M50.1258 33.9951H48.9414V40.197H50.1258V33.9951Z" fill="#3F3F3F"/>
<path d="M50.1258 33.9951H48.9414V40.197H50.1258V33.9951Z" fill="url(#paint3_linear_104_736)"/>
</g>
</g>
<defs>
<linearGradient id="paint0_linear_104_736" x1="33.7808" y1="35.8901" x2="56.3416" y2="35.8901" gradientUnits="userSpaceOnUse">
<stop stop-color="#6C63FF"/>
<stop offset="1" stop-color="#9A6AFF"/>
</linearGradient>
<linearGradient id="paint1_linear_104_736" x1="40.3452" y1="35.8908" x2="47.6023" y2="35.8908" gradientUnits="userSpaceOnUse">
<stop stop-color="#6C63FF"/>
<stop offset="1" stop-color="#9A6AFF"/>
</linearGradient>
<linearGradient id="paint2_linear_104_736" x1="48.791" y1="32.3213" x2="50.2669" y2="32.3213" gradientUnits="userSpaceOnUse">
<stop stop-color="#6C63FF"/>
<stop offset="1" stop-color="#9A6AFF"/>
</linearGradient>
<linearGradient id="paint3_linear_104_736" x1="48.9461" y1="37.0961" x2="50.1211" y2="37.0961" gradientUnits="userSpaceOnUse">
<stop stop-color="#6C63FF"/>
<stop offset="1" stop-color="#9A6AFF"/>
</linearGradient>
<clipPath id="clip0_104_736">
<rect width="63.7803" height="63.7803" fill="white" transform="translate(4.10938 4)"/>
</clipPath>
<clipPath id="clip1_104_736">
<rect width="22.7401" height="20.6728" fill="white" transform="translate(33.6914 25.5537)"/>
</clipPath>
</defs>
</svg>
