<svg width="72" height="73" viewBox="0 0 72 73" fill="none" xmlns="http://www.w3.org/2000/svg">
<g clip-path="url(#clip0_104_833)">
<path d="M25.2681 54.7646C24.6221 54.1186 23.5775 54.1186 22.9314 54.7646C22.2854 55.4106 22.2854 56.4552 22.9314 57.1012L24.8008 58.9705H17.2135C12.2791 58.9705 8.27927 54.957 8.27927 50.0363V44.4971C8.27927 43.5899 7.53704 42.8477 6.62987 42.8477C5.7227 42.8477 4.98047 43.5899 4.98047 44.4971V50.0363C4.98047 56.7851 10.4647 62.2693 17.2135 62.2693H24.8008L22.9314 64.1387C22.2854 64.7847 22.2854 65.8293 22.9314 66.4753C23.2476 66.7915 23.6737 66.9564 24.0998 66.9564C24.5259 66.9564 24.9382 66.7915 25.2681 66.4753L29.9551 61.7883C30.6012 61.1423 30.6012 60.0976 29.9551 59.4516L25.2681 54.7646Z" fill="#3F3F3F"/>
<path d="M33.8424 4.8291H6.75096C5.84379 4.8291 5.10156 5.57133 5.10156 6.4785V33.5699C5.10156 34.4771 5.84379 35.2193 6.75096 35.2193H33.8424C34.7495 35.2193 35.4918 34.4771 35.4918 33.5699V6.4785C35.4918 5.57133 34.7633 4.8291 33.8424 4.8291ZM32.193 31.9205H8.40036V8.1279H32.193V31.9205Z" fill="#3F3F3F"/>
<path d="M54.7749 9.51568H47.1876L49.057 7.64636C49.703 7.00034 49.703 5.95572 49.057 5.30971C48.4109 4.66369 47.3663 4.66369 46.7203 5.30971L42.047 9.99675C41.401 10.6428 41.401 11.6874 42.047 12.3334L46.7341 17.0205C47.0502 17.3366 47.4763 17.5015 47.9024 17.5015C48.3285 17.5015 48.7408 17.3366 49.0707 17.0205C49.7167 16.3744 49.7167 15.3298 49.0707 14.6838L47.2014 12.8145H54.7886C59.7231 12.8145 63.7229 16.828 63.7229 21.7487V27.288C63.7229 28.1951 64.4651 28.9374 65.3723 28.9374C66.2795 28.9374 67.0217 28.1951 67.0217 27.288V21.7487C67.0217 14.9999 61.5237 9.51568 54.7749 9.51568Z" fill="#3F3F3F"/>
<path d="M65.2471 63.6572C64.8072 63.6572 64.3811 63.8359 64.0787 64.1383C63.7763 64.4407 63.5977 64.8668 63.5977 65.3066C63.5977 65.7327 63.7763 66.1726 64.0787 66.475C64.3811 66.7773 64.8072 66.956 65.2471 66.956C65.6869 66.956 66.113 66.7773 66.4154 66.475C66.7178 66.1726 66.8965 65.7465 66.8965 65.3066C66.8965 64.8668 66.7178 64.4407 66.4154 64.1383C66.0992 63.8359 65.6732 63.6572 65.2471 63.6572Z" fill="black"/>
<path d="M65.2471 63.6572C64.8072 63.6572 64.3811 63.8359 64.0787 64.1383C63.7763 64.4407 63.5977 64.8668 63.5977 65.3066C63.5977 65.7327 63.7763 66.1726 64.0787 66.475C64.3811 66.7773 64.8072 66.956 65.2471 66.956C65.6869 66.956 66.113 66.7773 66.4154 66.475C66.7178 66.1726 66.8965 65.7465 66.8965 65.3066C66.8965 64.8668 66.7178 64.4407 66.4154 64.1383C66.0992 63.8359 65.6732 63.6572 65.2471 63.6572Z" fill="url(#paint0_linear_104_833)"/>
<path d="M58.4736 63.6572C57.5664 63.6572 56.8242 64.3995 56.8242 65.3066C56.8242 66.2138 57.5664 66.956 58.4736 66.956C59.3808 66.956 60.123 66.2138 60.123 65.3066C60.123 64.3995 59.3808 63.6572 58.4736 63.6572Z" fill="black"/>
<path d="M58.4736 63.6572C57.5664 63.6572 56.8242 64.3995 56.8242 65.3066C56.8242 66.2138 57.5664 66.956 58.4736 66.956C59.3808 66.956 60.123 66.2138 60.123 65.3066C60.123 64.3995 59.3808 63.6572 58.4736 63.6572Z" fill="url(#paint1_linear_104_833)"/>
<path d="M44.9189 63.6572C44.0118 63.6572 43.2695 64.3995 43.2695 65.3066C43.2695 66.2138 44.0118 66.956 44.9189 66.956C45.8261 66.956 46.5683 66.2138 46.5683 65.3066C46.5683 64.3995 45.8398 63.6572 44.9189 63.6572Z" fill="black"/>
<path d="M44.9189 63.6572C44.0118 63.6572 43.2695 64.3995 43.2695 65.3066C43.2695 66.2138 44.0118 66.956 44.9189 66.956C45.8261 66.956 46.5683 66.2138 46.5683 65.3066C46.5683 64.3995 45.8398 63.6572 44.9189 63.6572Z" fill="url(#paint2_linear_104_833)"/>
<path d="M51.6963 63.6572C50.7891 63.6572 50.0469 64.3995 50.0469 65.3066C50.0469 66.2138 50.7891 66.956 51.6963 66.956C52.6034 66.956 53.3457 66.2138 53.3457 65.3066C53.3457 64.3995 52.6034 63.6572 51.6963 63.6572Z" fill="black"/>
<path d="M51.6963 63.6572C50.7891 63.6572 50.0469 64.3995 50.0469 65.3066C50.0469 66.2138 50.7891 66.956 51.6963 66.956C52.6034 66.956 53.3457 66.2138 53.3457 65.3066C53.3457 64.3995 52.6034 63.6572 51.6963 63.6572Z" fill="url(#paint3_linear_104_833)"/>
<path d="M38.1572 63.6572C37.7174 63.6572 37.2913 63.8359 36.9889 64.1383C36.6865 64.4407 36.5078 64.8668 36.5078 65.3066C36.5078 65.7327 36.6865 66.1726 36.9889 66.475C37.2913 66.7773 37.7174 66.956 38.1572 66.956C38.5833 66.956 39.0231 66.7773 39.3255 66.475C39.6279 66.1726 39.8066 65.7465 39.8066 65.3066C39.8066 64.8668 39.6279 64.4407 39.3255 64.1383C39.0231 63.8359 38.5832 63.6572 38.1572 63.6572Z" fill="black"/>
<path d="M38.1572 63.6572C37.7174 63.6572 37.2913 63.8359 36.9889 64.1383C36.6865 64.4407 36.5078 64.8668 36.5078 65.3066C36.5078 65.7327 36.6865 66.1726 36.9889 66.475C37.2913 66.7773 37.7174 66.956 38.1572 66.956C38.5833 66.956 39.0231 66.7773 39.3255 66.475C39.6279 66.1726 39.8066 65.7465 39.8066 65.3066C39.8066 64.8668 39.6279 64.4407 39.3255 64.1383C39.0231 63.8359 38.5832 63.6572 38.1572 63.6572Z" fill="url(#paint4_linear_104_833)"/>
<path d="M38.1572 56.8809C37.25 56.8809 36.5078 57.6231 36.5078 58.5303C36.5078 59.4374 37.25 60.1797 38.1572 60.1797C39.0644 60.1797 39.8066 59.4374 39.8066 58.5303C39.8066 57.6231 39.0642 56.8809 38.1572 56.8809Z" fill="black"/>
<path d="M38.1572 56.8809C37.25 56.8809 36.5078 57.6231 36.5078 58.5303C36.5078 59.4374 37.25 60.1797 38.1572 60.1797C39.0644 60.1797 39.8066 59.4374 39.8066 58.5303C39.8066 57.6231 39.0642 56.8809 38.1572 56.8809Z" fill="url(#paint5_linear_104_833)"/>
<path d="M38.1572 50.1045C37.25 50.1045 36.5078 50.8467 36.5078 51.7539C36.5078 52.6611 37.25 53.4033 38.1572 53.4033C39.0644 53.4033 39.8066 52.6611 39.8066 51.7539C39.8066 50.8467 39.0642 50.1045 38.1572 50.1045Z" fill="black"/>
<path d="M38.1572 50.1045C37.25 50.1045 36.5078 50.8467 36.5078 51.7539C36.5078 52.6611 37.25 53.4033 38.1572 53.4033C39.0644 53.4033 39.8066 52.6611 39.8066 51.7539C39.8066 50.8467 39.0642 50.1045 38.1572 50.1045Z" fill="url(#paint6_linear_104_833)"/>
<path d="M38.1572 43.3291C37.25 43.3291 36.5078 44.0713 36.5078 44.9785C36.5078 45.8857 37.25 46.6279 38.1572 46.6279C39.0644 46.6279 39.8066 45.8857 39.8066 44.9785C39.8066 44.0713 39.0642 43.3291 38.1572 43.3291Z" fill="black"/>
<path d="M38.1572 43.3291C37.25 43.3291 36.5078 44.0713 36.5078 44.9785C36.5078 45.8857 37.25 46.6279 38.1572 46.6279C39.0644 46.6279 39.8066 45.8857 39.8066 44.9785C39.8066 44.0713 39.0642 43.3291 38.1572 43.3291Z" fill="url(#paint7_linear_104_833)"/>
<path d="M38.1572 36.5654C37.7174 36.5654 37.2913 36.7441 36.9889 37.0465C36.6865 37.3489 36.5078 37.775 36.5078 38.2148C36.5078 38.6547 36.6865 39.0808 36.9889 39.3832C37.2913 39.6855 37.7174 39.8642 38.1572 39.8642C38.5833 39.8642 39.0231 39.6855 39.3255 39.3832C39.6279 39.0808 39.8066 38.6547 39.8066 38.2148C39.8066 37.7887 39.6279 37.3489 39.3255 37.0465C39.0093 36.7304 38.5832 36.5654 38.1572 36.5654Z" fill="black"/>
<path d="M38.1572 36.5654C37.7174 36.5654 37.2913 36.7441 36.9889 37.0465C36.6865 37.3489 36.5078 37.775 36.5078 38.2148C36.5078 38.6547 36.6865 39.0808 36.9889 39.3832C37.2913 39.6855 37.7174 39.8642 38.1572 39.8642C38.5833 39.8642 39.0231 39.6855 39.3255 39.3832C39.6279 39.0808 39.8066 38.6547 39.8066 38.2148C39.8066 37.7887 39.6279 37.3489 39.3255 37.0465C39.0093 36.7304 38.5832 36.5654 38.1572 36.5654Z" fill="url(#paint8_linear_104_833)"/>
<path d="M58.4736 36.5654C57.5664 36.5654 56.8242 37.3077 56.8242 38.2148C56.8242 39.122 57.5664 39.8642 58.4736 39.8642C59.3808 39.8642 60.123 39.122 60.123 38.2148C60.123 37.3077 59.3808 36.5654 58.4736 36.5654Z" fill="black"/>
<path d="M58.4736 36.5654C57.5664 36.5654 56.8242 37.3077 56.8242 38.2148C56.8242 39.122 57.5664 39.8642 58.4736 39.8642C59.3808 39.8642 60.123 39.122 60.123 38.2148C60.123 37.3077 59.3808 36.5654 58.4736 36.5654Z" fill="url(#paint9_linear_104_833)"/>
<path d="M51.6963 36.5654C50.7891 36.5654 50.0469 37.3077 50.0469 38.2148C50.0469 39.122 50.7891 39.8642 51.6963 39.8642C52.6034 39.8642 53.3457 39.122 53.3457 38.2148C53.3457 37.3077 52.6034 36.5654 51.6963 36.5654Z" fill="black"/>
<path d="M51.6963 36.5654C50.7891 36.5654 50.0469 37.3077 50.0469 38.2148C50.0469 39.122 50.7891 39.8642 51.6963 39.8642C52.6034 39.8642 53.3457 39.122 53.3457 38.2148C53.3457 37.3077 52.6034 36.5654 51.6963 36.5654Z" fill="url(#paint10_linear_104_833)"/>
<path d="M44.9189 36.5654C44.0118 36.5654 43.2695 37.3077 43.2695 38.2148C43.2695 39.122 44.0118 39.8642 44.9189 39.8642C45.8261 39.8642 46.5683 39.122 46.5683 38.2148C46.5683 37.3077 45.8398 36.5654 44.9189 36.5654Z" fill="black"/>
<path d="M44.9189 36.5654C44.0118 36.5654 43.2695 37.3077 43.2695 38.2148C43.2695 39.122 44.0118 39.8642 44.9189 39.8642C45.8261 39.8642 46.5683 39.122 46.5683 38.2148C46.5683 37.3077 45.8398 36.5654 44.9189 36.5654Z" fill="url(#paint11_linear_104_833)"/>
<path d="M65.2471 36.5654C64.8072 36.5654 64.3811 36.7441 64.0787 37.0465C63.7763 37.3489 63.5977 37.775 63.5977 38.2148C63.5977 38.6547 63.7763 39.0808 64.0787 39.3832C64.3811 39.6855 64.8072 39.8642 65.2471 39.8642C65.6869 39.8642 66.113 39.6855 66.4154 39.3832C66.7178 39.0808 66.8965 38.6547 66.8965 38.2148C66.8965 37.7887 66.7178 37.3489 66.4154 37.0465C66.0992 36.7441 65.6732 36.5654 65.2471 36.5654Z" fill="black"/>
<path d="M65.2471 36.5654C64.8072 36.5654 64.3811 36.7441 64.0787 37.0465C63.7763 37.3489 63.5977 37.775 63.5977 38.2148C63.5977 38.6547 63.7763 39.0808 64.0787 39.3832C64.3811 39.6855 64.8072 39.8642 65.2471 39.8642C65.6869 39.8642 66.113 39.6855 66.4154 39.3832C66.7178 39.0808 66.8965 38.6547 66.8965 38.2148C66.8965 37.7887 66.7178 37.3489 66.4154 37.0465C66.0992 36.7441 65.6732 36.5654 65.2471 36.5654Z" fill="url(#paint12_linear_104_833)"/>
<path d="M65.2471 43.3291C64.3399 43.3291 63.5977 44.0713 63.5977 44.9785C63.5977 45.8857 64.3399 46.6279 65.2471 46.6279C66.1542 46.6279 66.8965 45.8857 66.8965 44.9785C66.8965 44.0713 66.1542 43.3291 65.2471 43.3291Z" fill="black"/>
<path d="M65.2471 43.3291C64.3399 43.3291 63.5977 44.0713 63.5977 44.9785C63.5977 45.8857 64.3399 46.6279 65.2471 46.6279C66.1542 46.6279 66.8965 45.8857 66.8965 44.9785C66.8965 44.0713 66.1542 43.3291 65.2471 43.3291Z" fill="url(#paint13_linear_104_833)"/>
<path d="M65.2471 56.8809C64.3399 56.8809 63.5977 57.6231 63.5977 58.5303C63.5977 59.4374 64.3399 60.1797 65.2471 60.1797C66.1542 60.1797 66.8965 59.4374 66.8965 58.5303C66.8965 57.6231 66.1542 56.8809 65.2471 56.8809Z" fill="black"/>
<path d="M65.2471 56.8809C64.3399 56.8809 63.5977 57.6231 63.5977 58.5303C63.5977 59.4374 64.3399 60.1797 65.2471 60.1797C66.1542 60.1797 66.8965 59.4374 66.8965 58.5303C66.8965 57.6231 66.1542 56.8809 65.2471 56.8809Z" fill="url(#paint14_linear_104_833)"/>
<path d="M49.5274 47.4473L46.5664 56.0609H47.7934L48.6794 53.3907H51.7114L52.6258 56.0609H53.8812L50.9344 47.4473H49.5274ZM48.9068 52.5724L49.7264 50.1606C49.8969 49.6223 50.0438 49.0322 50.1717 48.4809H50.2143C50.3422 49.0193 50.4891 49.5964 50.6739 50.1735L51.5077 52.5724H48.9068Z" fill="#3F3F3F"/>
<path d="M49.5274 47.4473L46.5664 56.0609H47.7934L48.6794 53.3907H51.7114L52.6258 56.0609H53.8812L50.9344 47.4473H49.5274ZM48.9068 52.5724L49.7264 50.1606C49.8969 49.6223 50.0438 49.0322 50.1717 48.4809H50.2143C50.3422 49.0193 50.4891 49.5964 50.6739 50.1735L51.5077 52.5724H48.9068Z" fill="url(#paint15_linear_104_833)"/>
<path d="M55.779 47.502C55.3526 47.502 55.0352 47.7948 55.0352 48.1911C55.0352 48.5744 55.3336 48.8672 55.7647 48.8672H55.779C56.2338 48.8672 56.5228 48.5744 56.5228 48.1911C56.5227 47.7948 56.2243 47.502 55.779 47.502Z" fill="#3F3F3F"/>
<path d="M55.779 47.502C55.3526 47.502 55.0352 47.7948 55.0352 48.1911C55.0352 48.5744 55.3336 48.8672 55.7647 48.8672H55.779C56.2338 48.8672 56.5228 48.5744 56.5228 48.1911C56.5227 47.7948 56.2243 47.502 55.779 47.502Z" fill="url(#paint16_linear_104_833)"/>
<path d="M56.3758 49.8584H55.1914V56.0602H56.3758V49.8584Z" fill="#3F3F3F"/>
<path d="M56.3758 49.8584H55.1914V56.0602H56.3758V49.8584Z" fill="url(#paint17_linear_104_833)"/>
<path d="M65.2471 50.1045C64.3399 50.1045 63.5977 50.8467 63.5977 51.7539C63.5977 52.6611 64.3399 53.4033 65.2471 53.4033C66.1542 53.4033 66.8965 52.6611 66.8965 51.7539C66.8965 50.8467 66.1542 50.1045 65.2471 50.1045Z" fill="black"/>
<path d="M65.2471 50.1045C64.3399 50.1045 63.5977 50.8467 63.5977 51.7539C63.5977 52.6611 64.3399 53.4033 65.2471 53.4033C66.1542 53.4033 66.8965 52.6611 66.8965 51.7539C66.8965 50.8467 66.1542 50.1045 65.2471 50.1045Z" fill="url(#paint18_linear_104_833)"/>
</g>
<defs>
<linearGradient id="paint0_linear_104_833" x1="63.6106" y1="65.3066" x2="66.8834" y2="65.3066" gradientUnits="userSpaceOnUse">
<stop stop-color="#6C63FF"/>
<stop offset="1" stop-color="#9A6AFF"/>
</linearGradient>
<linearGradient id="paint1_linear_104_833" x1="56.8372" y1="65.3066" x2="60.11" y2="65.3066" gradientUnits="userSpaceOnUse">
<stop stop-color="#6C63FF"/>
<stop offset="1" stop-color="#9A6AFF"/>
</linearGradient>
<linearGradient id="paint2_linear_104_833" x1="43.2825" y1="65.3066" x2="46.5553" y2="65.3066" gradientUnits="userSpaceOnUse">
<stop stop-color="#6C63FF"/>
<stop offset="1" stop-color="#9A6AFF"/>
</linearGradient>
<linearGradient id="paint3_linear_104_833" x1="50.0598" y1="65.3066" x2="53.3326" y2="65.3066" gradientUnits="userSpaceOnUse">
<stop stop-color="#6C63FF"/>
<stop offset="1" stop-color="#9A6AFF"/>
</linearGradient>
<linearGradient id="paint4_linear_104_833" x1="36.5208" y1="65.3066" x2="39.7936" y2="65.3066" gradientUnits="userSpaceOnUse">
<stop stop-color="#6C63FF"/>
<stop offset="1" stop-color="#9A6AFF"/>
</linearGradient>
<linearGradient id="paint5_linear_104_833" x1="36.5208" y1="58.5303" x2="39.7936" y2="58.5303" gradientUnits="userSpaceOnUse">
<stop stop-color="#6C63FF"/>
<stop offset="1" stop-color="#9A6AFF"/>
</linearGradient>
<linearGradient id="paint6_linear_104_833" x1="36.5208" y1="51.7539" x2="39.7936" y2="51.7539" gradientUnits="userSpaceOnUse">
<stop stop-color="#6C63FF"/>
<stop offset="1" stop-color="#9A6AFF"/>
</linearGradient>
<linearGradient id="paint7_linear_104_833" x1="36.5208" y1="44.9785" x2="39.7936" y2="44.9785" gradientUnits="userSpaceOnUse">
<stop stop-color="#6C63FF"/>
<stop offset="1" stop-color="#9A6AFF"/>
</linearGradient>
<linearGradient id="paint8_linear_104_833" x1="36.5208" y1="38.2148" x2="39.7936" y2="38.2148" gradientUnits="userSpaceOnUse">
<stop stop-color="#6C63FF"/>
<stop offset="1" stop-color="#9A6AFF"/>
</linearGradient>
<linearGradient id="paint9_linear_104_833" x1="56.8372" y1="38.2148" x2="60.11" y2="38.2148" gradientUnits="userSpaceOnUse">
<stop stop-color="#6C63FF"/>
<stop offset="1" stop-color="#9A6AFF"/>
</linearGradient>
<linearGradient id="paint10_linear_104_833" x1="50.0598" y1="38.2148" x2="53.3326" y2="38.2148" gradientUnits="userSpaceOnUse">
<stop stop-color="#6C63FF"/>
<stop offset="1" stop-color="#9A6AFF"/>
</linearGradient>
<linearGradient id="paint11_linear_104_833" x1="43.2825" y1="38.2148" x2="46.5553" y2="38.2148" gradientUnits="userSpaceOnUse">
<stop stop-color="#6C63FF"/>
<stop offset="1" stop-color="#9A6AFF"/>
</linearGradient>
<linearGradient id="paint12_linear_104_833" x1="63.6106" y1="38.2148" x2="66.8834" y2="38.2148" gradientUnits="userSpaceOnUse">
<stop stop-color="#6C63FF"/>
<stop offset="1" stop-color="#9A6AFF"/>
</linearGradient>
<linearGradient id="paint13_linear_104_833" x1="63.6106" y1="44.9785" x2="66.8834" y2="44.9785" gradientUnits="userSpaceOnUse">
<stop stop-color="#6C63FF"/>
<stop offset="1" stop-color="#9A6AFF"/>
</linearGradient>
<linearGradient id="paint14_linear_104_833" x1="63.6106" y1="58.5303" x2="66.8834" y2="58.5303" gradientUnits="userSpaceOnUse">
<stop stop-color="#6C63FF"/>
<stop offset="1" stop-color="#9A6AFF"/>
</linearGradient>
<linearGradient id="paint15_linear_104_833" x1="46.5952" y1="51.7541" x2="53.8523" y2="51.7541" gradientUnits="userSpaceOnUse">
<stop stop-color="#6C63FF"/>
<stop offset="1" stop-color="#9A6AFF"/>
</linearGradient>
<linearGradient id="paint16_linear_104_833" x1="55.041" y1="48.1846" x2="56.5169" y2="48.1846" gradientUnits="userSpaceOnUse">
<stop stop-color="#6C63FF"/>
<stop offset="1" stop-color="#9A6AFF"/>
</linearGradient>
<linearGradient id="paint17_linear_104_833" x1="55.1961" y1="52.9593" x2="56.3711" y2="52.9593" gradientUnits="userSpaceOnUse">
<stop stop-color="#6C63FF"/>
<stop offset="1" stop-color="#9A6AFF"/>
</linearGradient>
<linearGradient id="paint18_linear_104_833" x1="63.6106" y1="51.7539" x2="66.8834" y2="51.7539" gradientUnits="userSpaceOnUse">
<stop stop-color="#6C63FF"/>
<stop offset="1" stop-color="#9A6AFF"/>
</linearGradient>
<clipPath id="clip0_104_833">
<rect width="62.1309" height="62.1309" fill="white" transform="translate(4.93359 4.8252)"/>
</clipPath>
</defs>
</svg>
