<svg width="72" height="73" viewBox="0 0 72 73" fill="none" xmlns="http://www.w3.org/2000/svg">
<path d="M48.6953 8.26562H9.375V20.099H48.6953V8.26562Z" stroke="#3F3F3F" stroke-width="2.8" stroke-linecap="round" stroke-linejoin="round"/>
<path d="M62.2578 48.6826H9.375V60.516H62.2578V48.6826Z" stroke="#3F3F3F" stroke-width="2.8" stroke-linecap="round" stroke-linejoin="round"/>
<path d="M68.2344 29.9736H42.0898V41.807H68.2344V29.9736Z" stroke="#3F3F3F" stroke-width="3" stroke-linecap="round" stroke-linejoin="round"/>
<path d="M68.2344 29.9736H42.0898V41.807H68.2344V29.9736Z" stroke="url(#paint0_linear_104_767)" stroke-width="3" stroke-linecap="round" stroke-linejoin="round"/>
<path d="M17.2753 38.233L16.19 39.3173L20.4686 43.5979L21.5549 42.5126C21.8413 42.6498 22.1348 42.7708 22.4354 42.8767V44.4129H28.4872V42.8777C28.7878 42.7718 29.0813 42.6498 29.3677 42.5136L30.454 43.5989L34.7327 39.3183L33.6474 38.234C33.7845 37.9475 33.9056 37.654 34.0115 37.3535H35.5476V31.3007H34.0125C33.9066 31.0001 33.7845 30.7066 33.6484 30.4201L34.7337 29.3338L30.454 25.0552L29.3677 26.1405C29.0813 26.0033 28.7878 25.8823 28.4872 25.7754V24.2402H22.4354V25.7754C22.1348 25.8813 21.8413 26.0033 21.5549 26.1395L20.4686 25.0552L16.19 29.3338L17.2753 30.4201C17.1381 30.7066 17.0171 31.0001 16.9101 31.3007H15.375V37.3524H16.9101C17.0171 37.653 17.1381 37.9465 17.2753 38.233ZM17.3923 33.3179H18.4372L18.6319 32.5614C18.7973 31.922 19.0505 31.3118 19.3843 30.7469L19.7817 30.0732L19.0424 29.3338L20.4686 27.9076L21.2079 28.6469L21.8817 28.2495C22.4465 27.9157 23.0567 27.6625 23.6962 27.4971L24.4527 27.3024V26.2575H26.4699V27.3024L27.2264 27.4971C27.8659 27.6625 28.4761 27.9157 29.0409 28.2495L29.7147 28.6469L30.454 27.9076L31.8802 29.3338L31.1409 30.0732L31.5383 30.7469C31.8722 31.3118 32.1253 31.922 32.2908 32.5614L32.4854 33.3179H33.5304V35.3352H32.4854L32.2908 36.0917C32.1253 36.7311 31.8722 37.3413 31.5383 37.9062L31.1399 38.5799L31.8802 39.3193L30.454 40.7455L29.7147 40.0062L29.0409 40.4036C28.4761 40.7374 27.8659 40.9906 27.2264 41.156L26.4699 41.3507V42.3956H24.4527V41.3507L23.6962 41.156C23.0567 40.9906 22.4465 40.7374 21.8817 40.4036L21.2079 40.0062L20.4686 40.7455L19.0424 39.3193L19.7827 38.5799L19.3843 37.9062C19.0505 37.3413 18.7973 36.7311 18.6319 36.0917L18.4372 35.3352H17.3923V33.3179Z" fill="#3F3F3F"/>
<path d="M17.2753 38.233L16.19 39.3173L20.4686 43.5979L21.5549 42.5126C21.8413 42.6498 22.1348 42.7708 22.4354 42.8767V44.4129H28.4872V42.8777C28.7878 42.7718 29.0813 42.6498 29.3677 42.5136L30.454 43.5989L34.7327 39.3183L33.6474 38.234C33.7845 37.9475 33.9056 37.654 34.0115 37.3535H35.5476V31.3007H34.0125C33.9066 31.0001 33.7845 30.7066 33.6484 30.4201L34.7337 29.3338L30.454 25.0552L29.3677 26.1405C29.0813 26.0033 28.7878 25.8823 28.4872 25.7754V24.2402H22.4354V25.7754C22.1348 25.8813 21.8413 26.0033 21.5549 26.1395L20.4686 25.0552L16.19 29.3338L17.2753 30.4201C17.1381 30.7066 17.0171 31.0001 16.9101 31.3007H15.375V37.3524H16.9101C17.0171 37.653 17.1381 37.9465 17.2753 38.233ZM17.3923 33.3179H18.4372L18.6319 32.5614C18.7973 31.922 19.0505 31.3118 19.3843 30.7469L19.7817 30.0732L19.0424 29.3338L20.4686 27.9076L21.2079 28.6469L21.8817 28.2495C22.4465 27.9157 23.0567 27.6625 23.6962 27.4971L24.4527 27.3024V26.2575H26.4699V27.3024L27.2264 27.4971C27.8659 27.6625 28.4761 27.9157 29.0409 28.2495L29.7147 28.6469L30.454 27.9076L31.8802 29.3338L31.1409 30.0732L31.5383 30.7469C31.8722 31.3118 32.1253 31.922 32.2908 32.5614L32.4854 33.3179H33.5304V35.3352H32.4854L32.2908 36.0917C32.1253 36.7311 31.8722 37.3413 31.5383 37.9062L31.1399 38.5799L31.8802 39.3193L30.454 40.7455L29.7147 40.0062L29.0409 40.4036C28.4761 40.7374 27.8659 40.9906 27.2264 41.156L26.4699 41.3507V42.3956H24.4527V41.3507L23.6962 41.156C23.0567 40.9906 22.4465 40.7374 21.8817 40.4036L21.2079 40.0062L20.4686 40.7455L19.0424 39.3193L19.7827 38.5799L19.3843 37.9062C19.0505 37.3413 18.7973 36.7311 18.6319 36.0917L18.4372 35.3352H17.3923V33.3179Z" fill="url(#paint1_linear_104_767)"/>
<path d="M25.4611 39.3695C28.2419 39.3695 30.5043 37.1072 30.5043 34.3264C30.5043 31.5456 28.2419 29.2832 25.4611 29.2832C22.6803 29.2832 20.418 31.5456 20.418 34.3264C20.418 37.1072 22.6803 39.3695 25.4611 39.3695ZM25.4611 31.3005C27.1294 31.3005 28.487 32.6581 28.487 34.3264C28.487 35.9946 27.1294 37.3523 25.4611 37.3523C23.7928 37.3523 22.4352 35.9946 22.4352 34.3264C22.4352 32.6581 23.7928 31.3005 25.4611 31.3005Z" fill="#3F3F3F"/>
<path d="M25.4611 39.3695C28.2419 39.3695 30.5043 37.1072 30.5043 34.3264C30.5043 31.5456 28.2419 29.2832 25.4611 29.2832C22.6803 29.2832 20.418 31.5456 20.418 34.3264C20.418 37.1072 22.6803 39.3695 25.4611 39.3695ZM25.4611 31.3005C27.1294 31.3005 28.487 32.6581 28.487 34.3264C28.487 35.9946 27.1294 37.3523 25.4611 37.3523C23.7928 37.3523 22.4352 35.9946 22.4352 34.3264C22.4352 32.6581 23.7928 31.3005 25.4611 31.3005Z" fill="url(#paint2_linear_104_767)"/>
<defs>
<linearGradient id="paint0_linear_104_767" x1="42.1926" y1="35.8903" x2="68.131" y2="35.8903" gradientUnits="userSpaceOnUse">
<stop stop-color="#6C63FF"/>
<stop offset="1" stop-color="#9A6AFF"/>
</linearGradient>
<linearGradient id="paint1_linear_104_767" x1="15.4543" y1="34.3266" x2="35.4679" y2="34.3266" gradientUnits="userSpaceOnUse">
<stop stop-color="#6C63FF"/>
<stop offset="1" stop-color="#9A6AFF"/>
</linearGradient>
<linearGradient id="paint2_linear_104_767" x1="20.4576" y1="34.3264" x2="30.4644" y2="34.3264" gradientUnits="userSpaceOnUse">
<stop stop-color="#6C63FF"/>
<stop offset="1" stop-color="#9A6AFF"/>
</linearGradient>
</defs>
</svg>
