<svg width="72" height="73" viewBox="0 0 72 73" fill="none" xmlns="http://www.w3.org/2000/svg">
<g clip-path="url(#clip0_104_812)">
<path d="M39.4953 45.6384V44.4605C42.3482 43.7998 44.4838 41.2107 44.4838 38.124C44.4838 35.0374 42.3482 32.4485 39.4953 31.7876V24.8617C40.9719 25.3847 42.32 26.5256 42.8197 27.0438C43.3889 27.6383 44.3326 27.66 44.9284 27.0914C45.5248 26.5222 45.5467 25.5775 44.9777 24.9811C44.8639 24.8615 42.4975 22.4171 39.4953 21.7643V20.5912C39.4953 19.7667 38.8272 19.0986 38.0027 19.0986C37.1782 19.0986 36.5101 19.7667 36.5101 20.5912V21.7976C33.7178 22.5029 31.6424 25.0629 31.6424 28.1056C31.6424 31.1484 33.7178 33.7086 36.5101 34.4141V41.2242C35.0914 40.54 33.7312 39.1955 33.2486 38.6253C32.7182 37.9941 31.7765 37.9125 31.1459 38.4426C30.5146 38.9728 30.4328 39.9143 30.9632 40.5454C31.2619 40.901 33.6136 43.6089 36.5101 44.4047V45.6382C36.5101 46.4627 37.1782 47.1308 38.0027 47.1308C38.827 47.131 39.4953 46.4627 39.4953 45.6384ZM41.4987 38.124C41.4987 39.5394 40.6756 40.7591 39.4953 41.3161V34.9319C40.6756 35.489 41.4987 36.7087 41.4987 38.124ZM34.6275 28.1058C34.6275 26.7394 35.3947 25.5553 36.5101 24.9736V31.2385C35.3947 30.6568 34.6275 29.4725 34.6275 28.1058Z" fill="#3F3F3F"/>
<path d="M39.4953 45.6384V44.4605C42.3482 43.7998 44.4838 41.2107 44.4838 38.124C44.4838 35.0374 42.3482 32.4485 39.4953 31.7876V24.8617C40.9719 25.3847 42.32 26.5256 42.8197 27.0438C43.3889 27.6383 44.3326 27.66 44.9284 27.0914C45.5248 26.5222 45.5467 25.5775 44.9777 24.9811C44.8639 24.8615 42.4975 22.4171 39.4953 21.7643V20.5912C39.4953 19.7667 38.8272 19.0986 38.0027 19.0986C37.1782 19.0986 36.5101 19.7667 36.5101 20.5912V21.7976C33.7178 22.5029 31.6424 25.0629 31.6424 28.1056C31.6424 31.1484 33.7178 33.7086 36.5101 34.4141V41.2242C35.0914 40.54 33.7312 39.1955 33.2486 38.6253C32.7182 37.9941 31.7765 37.9125 31.1459 38.4426C30.5146 38.9728 30.4328 39.9143 30.9632 40.5454C31.2619 40.901 33.6136 43.6089 36.5101 44.4047V45.6382C36.5101 46.4627 37.1782 47.1308 38.0027 47.1308C38.827 47.131 39.4953 46.4627 39.4953 45.6384ZM41.4987 38.124C41.4987 39.5394 40.6756 40.7591 39.4953 41.3161V34.9319C40.6756 35.489 41.4987 36.7087 41.4987 38.124ZM34.6275 28.1058C34.6275 26.7394 35.3947 25.5553 36.5101 24.9736V31.2385C35.3947 30.6568 34.6275 29.4725 34.6275 28.1058Z" fill="url(#paint0_linear_104_812)"/>
<path d="M35.1639 60.062C35.216 60.0674 35.2675 60.0702 35.3193 60.0702C35.6865 60.0702 36.0429 59.9346 36.3183 59.6865C36.6325 59.4035 36.8118 59.0005 36.8118 58.5776V49.9651C36.8118 49.231 36.2779 48.6059 35.5527 48.4911C28.8983 47.4369 23.5812 42.0336 22.6224 35.3507C22.5171 34.616 21.8874 34.0703 21.1449 34.0703H12.5669C12.1466 34.0703 11.7458 34.2476 11.4628 34.5585C11.18 34.8695 11.0413 35.2851 11.0809 35.7036C12.2914 48.4839 22.4198 58.728 35.1639 60.062ZM19.8967 37.0552C20.6349 40.4905 22.3197 43.612 24.8152 46.1455C27.3122 48.6803 30.4068 50.4107 33.8269 51.1956V56.8627C23.8116 55.1033 15.9168 47.1109 14.2642 37.0554L19.8967 37.0552Z" fill="#3F3F3F"/>
<path d="M13.3483 50.0349C12.9256 49.3272 12.0092 49.0965 11.3017 49.5188C10.5938 49.9413 10.363 50.858 10.7857 51.5654C10.8223 51.6269 10.8591 51.688 10.8965 51.7491C11.1781 52.2094 11.6687 52.4632 12.1712 52.4632C12.4366 52.4632 12.7057 52.3925 12.9485 52.2437C13.6518 51.8134 13.8731 50.8948 13.443 50.1915L13.3483 50.0349Z" fill="#3F3F3F"/>
<path d="M13.3483 50.0349C12.9256 49.3272 12.0092 49.0965 11.3017 49.5188C10.5938 49.9413 10.363 50.858 10.7857 51.5654C10.8223 51.6269 10.8591 51.688 10.8965 51.7491C11.1781 52.2094 11.6687 52.4632 12.1712 52.4632C12.4366 52.4632 12.7057 52.3925 12.9485 52.2437C13.6518 51.8134 13.8731 50.8948 13.443 50.1915L13.3483 50.0349Z" fill="url(#paint1_linear_104_812)"/>
<path d="M8.61091 41.6253C9.43083 41.5407 10.0269 40.8074 9.94228 39.9874L9.92397 39.8028C9.84675 38.9821 9.12017 38.3807 8.29807 38.4567C7.47736 38.5339 6.87476 39.2619 6.95198 40.0826L6.97287 40.2941C7.05208 41.0619 7.70005 41.6334 8.45568 41.6334C8.50683 41.6334 8.55877 41.6307 8.61091 41.6253Z" fill="#3F3F3F"/>
<path d="M8.61091 41.6253C9.43083 41.5407 10.0269 40.8074 9.94228 39.9874L9.92397 39.8028C9.84675 38.9821 9.12017 38.3807 8.29807 38.4567C7.47736 38.5339 6.87476 39.2619 6.95198 40.0826L6.97287 40.2941C7.05208 41.0619 7.70005 41.6334 8.45568 41.6334C8.50683 41.6334 8.55877 41.6307 8.61091 41.6253Z" fill="url(#paint2_linear_104_812)"/>
<path d="M11.1238 45.2705L11.0635 45.0938C10.8 44.313 9.95303 43.8933 9.17192 44.1568C8.39081 44.4203 7.9715 45.2673 8.23499 46.0484L8.30345 46.2484C8.51738 46.8655 9.0953 47.2524 9.71362 47.2524C9.87561 47.2524 10.0408 47.2257 10.2026 47.1696C10.9815 46.8998 11.3938 46.0492 11.1238 45.2705Z" fill="#3F3F3F"/>
<path d="M11.1238 45.2705L11.0635 45.0938C10.8 44.313 9.95303 43.8933 9.17192 44.1568C8.39081 44.4203 7.9715 45.2673 8.23499 46.0484L8.30345 46.2484C8.51738 46.8655 9.0953 47.2524 9.71362 47.2524C9.87561 47.2524 10.0408 47.2257 10.2026 47.1696C10.9815 46.8998 11.3938 46.0492 11.1238 45.2705Z" fill="url(#paint3_linear_104_812)"/>
<path d="M36.208 62.7785L36.1215 62.7783C35.297 62.7783 34.6289 63.4464 34.6289 64.2709C34.6289 65.0954 35.297 65.7634 36.1215 65.7634L36.1846 65.7636C36.1885 65.7636 36.1925 65.7636 36.1965 65.7636C37.0154 65.7636 37.6825 65.1031 37.6889 64.2828C37.6954 63.4583 37.0323 62.7849 36.208 62.7785Z" fill="#3F3F3F"/>
<path d="M36.208 62.7785L36.1215 62.7783C35.297 62.7783 34.6289 63.4464 34.6289 64.2709C34.6289 65.0954 35.297 65.7634 36.1215 65.7634L36.1846 65.7636C36.1885 65.7636 36.1925 65.7636 36.1965 65.7636C37.0154 65.7636 37.6825 65.1031 37.6889 64.2828C37.6954 63.4583 37.0323 62.7849 36.208 62.7785Z" fill="url(#paint4_linear_104_812)"/>
<path d="M30.8663 62.2819L30.6769 62.2449C29.8681 62.0835 29.083 62.611 28.9232 63.4196C28.7632 64.2282 29.2894 65.0135 30.0979 65.1731L30.2991 65.2123C30.3949 65.231 30.4902 65.2397 30.5843 65.2397C31.285 65.2397 31.9101 64.744 32.048 64.0306C32.2046 63.2212 31.6755 62.4383 30.8663 62.2819Z" fill="#3F3F3F"/>
<path d="M30.8663 62.2819L30.6769 62.2449C29.8681 62.0835 29.083 62.611 28.9232 63.4196C28.7632 64.2282 29.2894 65.0135 30.0979 65.1731L30.2991 65.2123C30.3949 65.231 30.4902 65.2397 30.5843 65.2397C31.285 65.2397 31.9101 64.744 32.048 64.0306C32.2046 63.2212 31.6755 62.4383 30.8663 62.2819Z" fill="url(#paint5_linear_104_812)"/>
<path d="M25.6438 60.7141L25.4694 60.6403C24.7114 60.3175 23.8344 60.6694 23.5108 61.4274C23.1872 62.1856 23.5396 63.0624 24.2979 63.386L24.4901 63.4672C24.6786 63.5462 24.874 63.5836 25.0664 63.5836C25.6499 63.5836 26.204 63.2394 26.4436 62.6676C26.7624 61.9072 26.4042 61.0325 25.6438 60.7141Z" fill="#3F3F3F"/>
<path d="M25.6438 60.7141L25.4694 60.6403C24.7114 60.3175 23.8344 60.6694 23.5108 61.4274C23.1872 62.1856 23.5396 63.0624 24.2979 63.386L24.4901 63.4672C24.6786 63.5462 24.874 63.5836 25.0664 63.5836C25.6499 63.5836 26.204 63.2394 26.4436 62.6676C26.7624 61.9072 26.4042 61.0325 25.6438 60.7141Z" fill="url(#paint6_linear_104_812)"/>
<path d="M16.6218 54.3952C16.0612 53.791 15.1167 53.7558 14.5125 54.3164C13.9083 54.877 13.8729 55.8215 14.4337 56.4257L14.5734 56.5758C14.8673 56.8898 15.2649 57.0486 15.6637 57.0486C16.0291 57.0486 16.3953 56.9153 16.6831 56.646C17.2851 56.0828 17.3165 55.1383 16.7533 54.5363L16.6218 54.3952Z" fill="#3F3F3F"/>
<path d="M16.6218 54.3952C16.0612 53.791 15.1167 53.7558 14.5125 54.3164C13.9083 54.877 13.8729 55.8215 14.4337 56.4257L14.5734 56.5758C14.8673 56.8898 15.2649 57.0486 15.6637 57.0486C16.0291 57.0486 16.3953 56.9153 16.6831 56.646C17.2851 56.0828 17.3165 55.1383 16.7533 54.5363L16.6218 54.3952Z" fill="url(#paint7_linear_104_812)"/>
<path d="M20.8653 58.0938L20.713 57.9874C20.0394 57.5117 19.1082 57.6723 18.6328 58.3458C18.1574 59.0192 18.3178 59.9506 18.9912 60.426L19.1651 60.5476C19.4244 60.7271 19.7206 60.8135 20.0139 60.8135C20.4869 60.8135 20.9524 60.589 21.2422 60.1707C21.7112 59.4931 21.5427 58.5633 20.8653 58.0938Z" fill="#3F3F3F"/>
<path d="M20.8653 58.0938L20.713 57.9874C20.0394 57.5117 19.1082 57.6723 18.6328 58.3458C18.1574 59.0192 18.3178 59.9506 18.9912 60.426L19.1651 60.5476C19.4244 60.7271 19.7206 60.8135 20.0139 60.8135C20.4869 60.8135 20.9524 60.589 21.2422 60.1707C21.7112 59.4931 21.5427 58.5633 20.8653 58.0938Z" fill="url(#paint8_linear_104_812)"/>
<path d="M38.0076 6.01758C31.138 6.01758 24.5892 8.60091 19.5675 13.2919C14.5724 17.9579 11.5425 24.2724 11.0354 31.0725C11.0045 31.4865 11.1474 31.8946 11.43 32.1989C11.7124 32.503 12.1088 32.6761 12.524 32.6761H21.0827C21.8423 32.6761 22.4809 32.1054 22.5659 31.3505C23.4517 23.4766 30.0904 17.539 38.0078 17.539C46.5787 17.539 53.5515 24.5263 53.5515 33.1152C53.5515 40.9199 47.7335 47.558 40.0182 48.5558C39.2741 48.6521 38.717 49.2858 38.717 50.0362V58.6236C38.717 59.0418 38.8924 59.4404 39.2002 59.723C39.4769 59.9767 39.8373 60.1162 40.2096 60.1162C40.2518 60.1162 40.2944 60.1144 40.337 60.1108C47.0623 59.5353 53.2962 56.4718 57.8905 51.4848C62.5117 46.4686 65.0566 39.9449 65.0566 33.1152C65.0564 18.1734 52.9223 6.01758 38.0076 6.01758ZM41.702 56.941V51.3003C50.246 49.5678 56.5365 41.9714 56.5365 33.1148C56.5365 22.88 48.2243 14.5534 38.0076 14.5534C29.019 14.5534 21.4131 20.9725 19.7963 29.6906H14.1861C15.8576 17.9664 26.0245 9.0027 38.0076 9.0027C51.2765 9.0027 62.0713 19.8194 62.0713 33.1148C62.0713 44.9798 53.2476 55.1434 41.702 56.941Z" fill="#3F3F3F"/>
</g>
<defs>
<linearGradient id="paint0_linear_104_812" x1="30.6714" y1="33.1147" x2="45.3321" y2="33.1147" gradientUnits="userSpaceOnUse">
<stop stop-color="#6C63FF"/>
<stop offset="1" stop-color="#9A6AFF"/>
</linearGradient>
<linearGradient id="paint1_linear_104_812" x1="10.5864" y1="50.8854" x2="13.6503" y2="50.8854" gradientUnits="userSpaceOnUse">
<stop stop-color="#6C63FF"/>
<stop offset="1" stop-color="#9A6AFF"/>
</linearGradient>
<linearGradient id="paint2_linear_104_812" x1="6.95712" y1="40.0418" x2="9.93839" y2="40.0418" gradientUnits="userSpaceOnUse">
<stop stop-color="#6C63FF"/>
<stop offset="1" stop-color="#9A6AFF"/>
</linearGradient>
<linearGradient id="paint3_linear_104_812" x1="8.16824" y1="45.6653" x2="11.1945" y2="45.6653" gradientUnits="userSpaceOnUse">
<stop stop-color="#6C63FF"/>
<stop offset="1" stop-color="#9A6AFF"/>
</linearGradient>
<linearGradient id="paint4_linear_104_812" x1="34.6409" y1="64.271" x2="37.6768" y2="64.271" gradientUnits="userSpaceOnUse">
<stop stop-color="#6C63FF"/>
<stop offset="1" stop-color="#9A6AFF"/>
</linearGradient>
<linearGradient id="paint5_linear_104_812" x1="28.907" y1="63.7278" x2="32.0629" y2="63.7278" gradientUnits="userSpaceOnUse">
<stop stop-color="#6C63FF"/>
<stop offset="1" stop-color="#9A6AFF"/>
</linearGradient>
<linearGradient id="paint6_linear_104_812" x1="23.4031" y1="62.0521" x2="26.5475" y2="62.0521" gradientUnits="userSpaceOnUse">
<stop stop-color="#6C63FF"/>
<stop offset="1" stop-color="#9A6AFF"/>
</linearGradient>
<linearGradient id="paint7_linear_104_812" x1="14.0474" y1="55.4833" x2="17.1436" y2="55.4833" gradientUnits="userSpaceOnUse">
<stop stop-color="#6C63FF"/>
<stop offset="1" stop-color="#9A6AFF"/>
</linearGradient>
<linearGradient id="paint8_linear_104_812" x1="18.3718" y1="59.2637" x2="21.4953" y2="59.2637" gradientUnits="userSpaceOnUse">
<stop stop-color="#6C63FF"/>
<stop offset="1" stop-color="#9A6AFF"/>
</linearGradient>
<clipPath id="clip0_104_812">
<rect width="59.7461" height="59.7461" fill="white" transform="translate(6.125 6.01758)"/>
</clipPath>
</defs>
</svg>
