<svg width="72" height="73" viewBox="0 0 72 73" fill="none" xmlns="http://www.w3.org/2000/svg">
<mask id="path-1-inside-1_104_796" fill="white">
<path fill-rule="evenodd" clip-rule="evenodd" d="M34.9908 24.524V28.2262H26.9229C26.3662 28.2262 25.9144 28.678 25.9144 29.2347V33.7729H22.7165C22.301 32.598 21.1795 31.7559 19.8635 31.7559C18.1934 31.7559 16.838 33.1113 16.838 34.7814C16.838 36.4514 18.1934 37.8069 19.8635 37.8069C21.1795 37.8069 22.301 36.9648 22.7165 35.7899H25.9144V40.8323H14.821C14.2643 40.8323 13.8125 41.2841 13.8125 41.8408C13.8125 42.3975 14.2643 42.8493 14.821 42.8493H15.6792C15.7256 43.3677 15.7992 43.88 15.8698 44.4155C15.9283 44.8592 16.2722 45.2112 16.7139 45.2808L19.0173 45.6408C19.1131 46.0593 19.2241 46.4738 19.3501 46.8843L17.5359 48.3476C17.1879 48.629 17.0659 49.105 17.2373 49.5185C17.914 51.1522 18.8015 52.6902 19.8786 54.093C20.1509 54.448 20.6249 54.5811 21.0414 54.4208L23.2167 53.5807C23.5081 53.8953 23.8117 54.1989 24.1263 54.4903L23.2873 56.6657C23.1259 57.0832 23.259 57.5562 23.614 57.8284C25.0168 58.9055 26.5548 59.794 28.1886 60.4707C28.602 60.6411 29.0791 60.5201 29.3594 60.1722L30.8237 58.3569C31.2332 58.484 31.6477 58.5949 32.0662 58.6907L32.4272 60.9941C32.4958 61.4358 32.8478 61.7787 33.2915 61.8372C35.0453 62.0681 36.8212 62.0681 38.574 61.8372C39.0177 61.7787 39.3697 61.4358 39.4393 60.9941L39.7993 58.6897C40.2178 58.5949 40.6323 58.484 41.0428 58.3569L42.5061 60.1722C42.7875 60.5201 43.2635 60.6411 43.677 60.4707C45.3107 59.794 46.8487 58.9055 48.2515 57.8284C48.6065 57.5562 48.7396 57.0832 48.5792 56.6657L47.7392 54.4903C48.0538 54.1989 48.3574 53.8953 48.6488 53.5807L50.8242 54.4208C51.2417 54.5811 51.7147 54.448 51.9869 54.093C53.064 52.6902 53.9525 51.1522 54.6292 49.5185C54.7996 49.105 54.6786 48.629 54.3307 48.3476L52.5154 46.8833C52.6425 46.4738 52.7534 46.0593 52.8492 45.6408L55.1526 45.2808C55.5943 45.2112 55.9372 44.8592 55.9957 44.4155C56.0663 43.88 56.1157 43.3677 56.1429 42.8493H57.1777C57.7343 42.8493 58.1861 42.3975 58.1861 41.8408C58.1861 41.2841 57.7343 40.8323 57.1777 40.8323H46.0842V35.7899H49.2822C49.6977 36.9648 50.8191 37.8069 52.1352 37.8069C53.8053 37.8069 55.1607 36.4514 55.1607 34.7814C55.1607 33.1113 53.8053 31.7559 52.1352 31.7559C50.8191 31.7559 49.6977 32.598 49.2822 33.7729H46.0842V29.2347C46.0842 28.678 45.6324 28.2262 45.0758 28.2262H37.0078V24.524C38.1827 24.1085 39.0248 22.9871 39.0248 21.671C39.0248 20.0009 37.6694 18.6455 35.9993 18.6455C34.3293 18.6455 32.9738 20.0009 32.9738 21.671C32.9738 22.9871 33.8159 24.1085 34.9908 24.524ZM24.327 42.8493C24.8454 48.7651 29.8798 53.3578 35.9328 53.3578C41.9857 53.3578 46.9576 48.7702 47.4729 42.8564C49.1117 42.8544 52.4327 42.8513 54.1229 42.8503L54.0806 43.407L51.8468 43.757C51.4242 43.8225 51.0894 44.1483 51.0117 44.5688C50.8645 45.3595 50.6567 46.136 50.3885 46.8934C50.2453 47.2968 50.3724 47.7466 50.7062 48.0148L52.464 49.4338C52.0051 50.4231 51.4595 51.3691 50.8312 52.2616L48.7235 51.4477C48.3251 51.2934 47.8713 51.4084 47.594 51.7341C47.0726 52.3443 46.5028 52.9141 45.8926 53.4355C45.5669 53.7128 45.4519 54.1666 45.6062 54.565L46.4201 56.6727C45.5276 57.301 44.5816 57.8466 43.5923 58.3055L42.1733 56.5477C41.9051 56.2139 41.4553 56.0868 41.0519 56.23C40.2945 56.4982 39.518 56.706 38.7273 56.8532C38.3068 56.9309 37.981 57.2657 37.9155 57.6883L37.5655 59.9201C36.4794 60.0179 35.3862 60.0179 34.301 59.9201L33.9511 57.6883C33.8845 57.2657 33.5588 56.9309 33.1382 56.8532C32.3486 56.706 31.571 56.4982 30.8137 56.23C30.4103 56.0868 29.9615 56.2139 29.6922 56.5477L28.2743 58.3055C27.2839 57.8466 26.338 57.301 25.4465 56.6727L26.2593 54.565C26.4136 54.1666 26.2986 53.7128 25.9739 53.4355C25.3628 52.9141 24.794 52.3443 24.2726 51.7341C23.9942 51.4084 23.5414 51.2934 23.1421 51.4477L21.0343 52.2616C20.407 51.3691 19.8604 50.4231 19.4016 49.4338L21.1604 48.0148C21.4932 47.7466 21.6202 47.2968 21.477 46.8934C21.2098 46.136 21.001 45.3595 20.8548 44.5688C20.7771 44.1483 20.4413 43.8225 20.0188 43.757L17.7688 43.404C17.7446 43.2184 17.7224 43.0339 17.7033 42.8493H24.327ZM45.4469 42.8493H26.3531C26.8664 47.6487 30.9942 51.3408 35.9328 51.3408C40.8703 51.3408 44.9416 47.6467 45.4469 42.8493ZM44.0673 34.7834V30.2432H27.9314V40.8323H29.9484V33.2686C29.9484 32.712 30.4002 32.2601 30.9569 32.2601H41.0418C41.5985 32.2601 42.0503 32.712 42.0503 33.2686V40.8323H44.0673V34.7834ZM40.0333 34.2771V40.8323H31.9654V34.2771H40.0333ZM19.8635 33.7729C20.4201 33.7729 20.8719 34.2247 20.8719 34.7814C20.8719 35.3381 20.4201 35.7899 19.8635 35.7899C19.3068 35.7899 18.855 35.3381 18.855 34.7814C18.855 34.2247 19.3068 33.7729 19.8635 33.7729ZM52.1352 33.7729C52.6919 33.7729 53.1437 34.2247 53.1437 34.7814C53.1437 35.3381 52.6919 35.7899 52.1352 35.7899C51.5785 35.7899 51.1267 35.3381 51.1267 34.7814C51.1267 34.2247 51.5785 33.7729 52.1352 33.7729ZM34.9908 21.671C34.9908 21.1143 35.4426 20.6625 35.9993 20.6625C36.556 20.6625 37.0078 21.1143 37.0078 21.671C37.0078 22.2277 36.556 22.6795 35.9993 22.6795C35.4426 22.6795 34.9908 22.2277 34.9908 21.671Z"/>
</mask>
<path fill-rule="evenodd" clip-rule="evenodd" d="M34.9908 24.524V28.2262H26.9229C26.3662 28.2262 25.9144 28.678 25.9144 29.2347V33.7729H22.7165C22.301 32.598 21.1795 31.7559 19.8635 31.7559C18.1934 31.7559 16.838 33.1113 16.838 34.7814C16.838 36.4514 18.1934 37.8069 19.8635 37.8069C21.1795 37.8069 22.301 36.9648 22.7165 35.7899H25.9144V40.8323H14.821C14.2643 40.8323 13.8125 41.2841 13.8125 41.8408C13.8125 42.3975 14.2643 42.8493 14.821 42.8493H15.6792C15.7256 43.3677 15.7992 43.88 15.8698 44.4155C15.9283 44.8592 16.2722 45.2112 16.7139 45.2808L19.0173 45.6408C19.1131 46.0593 19.2241 46.4738 19.3501 46.8843L17.5359 48.3476C17.1879 48.629 17.0659 49.105 17.2373 49.5185C17.914 51.1522 18.8015 52.6902 19.8786 54.093C20.1509 54.448 20.6249 54.5811 21.0414 54.4208L23.2167 53.5807C23.5081 53.8953 23.8117 54.1989 24.1263 54.4903L23.2873 56.6657C23.1259 57.0832 23.259 57.5562 23.614 57.8284C25.0168 58.9055 26.5548 59.794 28.1886 60.4707C28.602 60.6411 29.0791 60.5201 29.3594 60.1722L30.8237 58.3569C31.2332 58.484 31.6477 58.5949 32.0662 58.6907L32.4272 60.9941C32.4958 61.4358 32.8478 61.7787 33.2915 61.8372C35.0453 62.0681 36.8212 62.0681 38.574 61.8372C39.0177 61.7787 39.3697 61.4358 39.4393 60.9941L39.7993 58.6897C40.2178 58.5949 40.6323 58.484 41.0428 58.3569L42.5061 60.1722C42.7875 60.5201 43.2635 60.6411 43.677 60.4707C45.3107 59.794 46.8487 58.9055 48.2515 57.8284C48.6065 57.5562 48.7396 57.0832 48.5792 56.6657L47.7392 54.4903C48.0538 54.1989 48.3574 53.8953 48.6488 53.5807L50.8242 54.4208C51.2417 54.5811 51.7147 54.448 51.9869 54.093C53.064 52.6902 53.9525 51.1522 54.6292 49.5185C54.7996 49.105 54.6786 48.629 54.3307 48.3476L52.5154 46.8833C52.6425 46.4738 52.7534 46.0593 52.8492 45.6408L55.1526 45.2808C55.5943 45.2112 55.9372 44.8592 55.9957 44.4155C56.0663 43.88 56.1157 43.3677 56.1429 42.8493H57.1777C57.7343 42.8493 58.1861 42.3975 58.1861 41.8408C58.1861 41.2841 57.7343 40.8323 57.1777 40.8323H46.0842V35.7899H49.2822C49.6977 36.9648 50.8191 37.8069 52.1352 37.8069C53.8053 37.8069 55.1607 36.4514 55.1607 34.7814C55.1607 33.1113 53.8053 31.7559 52.1352 31.7559C50.8191 31.7559 49.6977 32.598 49.2822 33.7729H46.0842V29.2347C46.0842 28.678 45.6324 28.2262 45.0758 28.2262H37.0078V24.524C38.1827 24.1085 39.0248 22.9871 39.0248 21.671C39.0248 20.0009 37.6694 18.6455 35.9993 18.6455C34.3293 18.6455 32.9738 20.0009 32.9738 21.671C32.9738 22.9871 33.8159 24.1085 34.9908 24.524ZM24.327 42.8493C24.8454 48.7651 29.8798 53.3578 35.9328 53.3578C41.9857 53.3578 46.9576 48.7702 47.4729 42.8564C49.1117 42.8544 52.4327 42.8513 54.1229 42.8503L54.0806 43.407L51.8468 43.757C51.4242 43.8225 51.0894 44.1483 51.0117 44.5688C50.8645 45.3595 50.6567 46.136 50.3885 46.8934C50.2453 47.2968 50.3724 47.7466 50.7062 48.0148L52.464 49.4338C52.0051 50.4231 51.4595 51.3691 50.8312 52.2616L48.7235 51.4477C48.3251 51.2934 47.8713 51.4084 47.594 51.7341C47.0726 52.3443 46.5028 52.9141 45.8926 53.4355C45.5669 53.7128 45.4519 54.1666 45.6062 54.565L46.4201 56.6727C45.5276 57.301 44.5816 57.8466 43.5923 58.3055L42.1733 56.5477C41.9051 56.2139 41.4553 56.0868 41.0519 56.23C40.2945 56.4982 39.518 56.706 38.7273 56.8532C38.3068 56.9309 37.981 57.2657 37.9155 57.6883L37.5655 59.9201C36.4794 60.0179 35.3862 60.0179 34.301 59.9201L33.9511 57.6883C33.8845 57.2657 33.5588 56.9309 33.1382 56.8532C32.3486 56.706 31.571 56.4982 30.8137 56.23C30.4103 56.0868 29.9615 56.2139 29.6922 56.5477L28.2743 58.3055C27.2839 57.8466 26.338 57.301 25.4465 56.6727L26.2593 54.565C26.4136 54.1666 26.2986 53.7128 25.9739 53.4355C25.3628 52.9141 24.794 52.3443 24.2726 51.7341C23.9942 51.4084 23.5414 51.2934 23.1421 51.4477L21.0343 52.2616C20.407 51.3691 19.8604 50.4231 19.4016 49.4338L21.1604 48.0148C21.4932 47.7466 21.6202 47.2968 21.477 46.8934C21.2098 46.136 21.001 45.3595 20.8548 44.5688C20.7771 44.1483 20.4413 43.8225 20.0188 43.757L17.7688 43.404C17.7446 43.2184 17.7224 43.0339 17.7033 42.8493H24.327ZM45.4469 42.8493H26.3531C26.8664 47.6487 30.9942 51.3408 35.9328 51.3408C40.8703 51.3408 44.9416 47.6467 45.4469 42.8493ZM44.0673 34.7834V30.2432H27.9314V40.8323H29.9484V33.2686C29.9484 32.712 30.4002 32.2601 30.9569 32.2601H41.0418C41.5985 32.2601 42.0503 32.712 42.0503 33.2686V40.8323H44.0673V34.7834ZM40.0333 34.2771V40.8323H31.9654V34.2771H40.0333ZM19.8635 33.7729C20.4201 33.7729 20.8719 34.2247 20.8719 34.7814C20.8719 35.3381 20.4201 35.7899 19.8635 35.7899C19.3068 35.7899 18.855 35.3381 18.855 34.7814C18.855 34.2247 19.3068 33.7729 19.8635 33.7729ZM52.1352 33.7729C52.6919 33.7729 53.1437 34.2247 53.1437 34.7814C53.1437 35.3381 52.6919 35.7899 52.1352 35.7899C51.5785 35.7899 51.1267 35.3381 51.1267 34.7814C51.1267 34.2247 51.5785 33.7729 52.1352 33.7729ZM34.9908 21.671C34.9908 21.1143 35.4426 20.6625 35.9993 20.6625C36.556 20.6625 37.0078 21.1143 37.0078 21.671C37.0078 22.2277 36.556 22.6795 35.9993 22.6795C35.4426 22.6795 34.9908 22.2277 34.9908 21.671Z" fill="#3F3F3F" stroke="url(#paint0_linear_104_796)" stroke-width="2.21875" mask="url(#path-1-inside-1_104_796)"/>
<path d="M58.1875 3.46875C58.9379 3.46875 59.5469 4.07768 59.5469 4.82812V16.7168L67.7363 21.3984C68.1605 21.6404 68.4219 22.0902 68.4219 22.5781V66.9531C68.4219 67.7036 67.8129 68.3125 67.0625 68.3125H4.9375C4.18705 68.3125 3.57812 67.7036 3.57812 66.9531V22.5781C3.57812 22.0902 3.83949 21.6404 4.26367 21.3984L35.3252 3.64941V3.64844C35.7428 3.40904 36.2572 3.40904 36.6748 3.64844L47.9531 10.0928V4.82812C47.9531 4.07768 48.5621 3.46875 49.3125 3.46875H58.1875ZM50.6719 11.6455L51.6504 12.2061H51.6514C52.3021 12.5785 52.5288 13.4092 52.1562 14.0605L52.1553 14.0596C51.7827 14.7119 50.9537 14.9382 50.3027 14.5674L35.999 6.39355L6.29688 23.3662V26.8916L17.8926 20.2656H17.8936C18.5445 19.8947 19.3745 20.1202 19.7471 20.7715C20.1194 21.4238 19.8923 22.2545 19.2412 22.627L6.29688 30.0225V65.5938H65.7031V30.0225L35.999 13.0498L22.292 20.8828C21.6813 21.2318 20.9122 21.0542 20.5117 20.4941L20.4365 20.377C20.0655 19.726 20.291 18.8951 20.9434 18.5225L35.3252 10.3047L35.4863 10.2256C35.8701 10.0686 36.3095 10.0953 36.6748 10.3047H36.6738L65.7031 26.8916V23.3662L57.5137 18.6875C57.0894 18.4454 56.8281 17.9935 56.8281 17.5068V6.1875H50.6719V11.6455Z" fill="#3F3F3F" stroke="#3F3F3F" stroke-width="0.5"/>
<defs>
<linearGradient id="paint0_linear_104_796" x1="13.9869" y1="40.328" x2="58.0107" y2="40.328" gradientUnits="userSpaceOnUse">
<stop stop-color="#6C63FF"/>
<stop offset="1" stop-color="#9A6AFF"/>
</linearGradient>
</defs>
</svg>
