<svg width="16" height="16" viewBox="0 0 16 16" fill="none" xmlns="http://www.w3.org/2000/svg">
<g clip-path="url(#clip0_76_96)">
<path fill-rule="evenodd" clip-rule="evenodd" d="M8.55172 6.24535C8.38829 6.25224 8.26441 6.23504 8.1629 6.19028C8.03384 6.13353 7.92031 6.02513 7.81018 5.81867L7.78784 5.77564C7.27342 4.74853 6.45103 3.98291 5.41012 3.48225C5.10043 3.33429 4.76495 3.21042 4.39331 3.19149C3.90469 3.16568 3.4935 3.3102 3.23199 3.61301C2.97047 3.91581 2.88789 4.34422 2.98596 4.82767L3.00488 4.91371C3.10123 5.34552 3.26468 5.77223 3.57092 6.12836C3.58813 6.14901 3.59845 6.16449 3.60533 6.1748C3.59157 6.1817 3.57264 6.19201 3.54684 6.20063C3.46597 6.22814 3.40232 6.28838 3.36446 6.3262C3.35242 6.33654 3.34382 6.34685 3.3335 6.35547L3.32317 6.36578L3.31973 6.37095L3.30941 6.37954C3.29909 6.39161 3.28704 6.40019 3.27672 6.4105H3.275C3.275 6.4105 3.26984 6.41567 3.2664 6.41912C3.26468 6.42084 3.26296 6.42257 3.26124 6.42429H3.25779C3.25091 6.41739 3.24231 6.40881 3.23371 6.39502C2.74337 5.71199 2.38379 5.01004 2.49562 4.18937C2.57132 3.64742 2.8466 3.2259 3.23715 2.97643C3.62942 2.72524 4.15245 2.63577 4.73568 2.78373C6.59898 3.25515 7.76546 4.5025 8.55172 6.24362V6.24535Z" fill="url(#paint0_linear_76_96)"/>
<path fill-rule="evenodd" clip-rule="evenodd" d="M7.65882 13.511C7.64334 13.5541 7.61411 13.5902 7.58483 13.6177C7.5556 13.6469 7.52119 13.6745 7.4885 13.6986C6.45103 14.4607 5.32758 15.0405 3.98215 15.0096C3.28879 14.9924 2.69523 14.8117 2.20317 14.4745C1.71111 14.139 1.32228 13.6521 1.03152 13.0345C0.496446 11.8955 0.718388 10.7789 1.21217 9.72767C2.0208 8.0055 3.35761 6.82181 5.09012 6.07855C5.1366 6.05962 5.18304 6.04759 5.23121 6.03724C5.27769 6.02866 5.31896 6.02176 5.3723 6.00973C5.37402 6.008 5.37919 6.008 5.3826 6.008H5.38605C5.41533 5.99938 5.44457 6.008 5.46522 6.02866C5.48242 6.04586 5.49101 6.0682 5.49101 6.0923C5.4807 6.39337 5.42564 6.63941 5.30175 6.8476C5.17787 7.05578 4.99034 7.21752 4.73227 7.36374C3.28535 8.17582 2.19972 9.3251 1.80918 10.9888C1.59584 11.8869 1.79713 12.6817 2.27198 13.2306C2.74684 13.7794 3.50385 14.0943 4.42259 14.0151C5.15208 13.9532 5.8179 13.69 6.39256 13.2375C6.48544 13.1652 6.58354 13.1153 6.67642 13.0706C6.77107 13.0258 6.85709 12.988 6.93967 12.9381C7.02742 12.8831 7.10999 12.8607 7.18739 12.8779C7.26484 12.8951 7.3199 12.945 7.35772 12.9932C7.39558 13.0396 7.43171 13.0998 7.45926 13.1429C7.49022 13.1893 7.51601 13.222 7.54184 13.2392C7.59345 13.2736 7.633 13.3132 7.65538 13.3614C7.67775 13.413 7.67603 13.4646 7.6571 13.511H7.65882Z" fill="url(#paint1_linear_76_96)"/>
<path fill-rule="evenodd" clip-rule="evenodd" d="M10.4374 7.01267C10.4116 7.08835 10.3583 7.15548 10.2757 7.21223C10.1879 7.27247 10.083 7.33094 9.97459 7.37225C9.86791 7.41183 9.75093 7.43762 9.63907 7.42559C9.56512 7.41696 9.50833 7.38428 9.47047 7.33094C9.43606 7.28277 9.42403 7.2243 9.41886 7.17437C9.41541 7.12276 9.41713 7.06946 9.41713 7.02298C9.41713 6.97653 9.41713 6.93695 9.412 6.90771C9.20037 5.73261 8.50872 4.55925 7.59001 3.64912C6.67125 2.73726 5.53059 2.09552 4.4329 1.9682C2.73478 1.77379 1.44614 3.16738 1.76959 4.8483C1.90207 5.53477 2.16359 6.17135 2.5851 6.71501C2.66941 6.82341 2.71586 6.9232 2.72274 7.01612C2.73134 7.11417 2.70038 7.1933 2.6522 7.25699C2.60575 7.31891 2.54381 7.3688 2.48703 7.41011C2.42854 7.45482 2.37864 7.48923 2.34079 7.52709C2.27197 7.59246 2.20144 7.63377 2.12746 7.63377C2.05003 7.63549 1.99326 7.59074 1.95713 7.54774C1.91928 7.50471 1.89175 7.45137 1.86938 7.40666C1.8453 7.35849 1.82981 7.32581 1.81433 7.30343C1.15538 6.41908 0.76311 5.29045 0.76311 4.33731C0.778594 3.18631 1.25001 2.25208 1.99154 1.6654C2.73478 1.08043 3.73955 0.844727 4.81484 1.07527C7.74826 1.70669 9.43779 3.70073 10.3135 6.45349C10.329 6.49825 10.3514 6.54641 10.3772 6.60665C10.4013 6.6634 10.4288 6.72877 10.4426 6.7959C10.4581 6.863 10.4632 6.93868 10.4374 7.01267Z" fill="url(#paint2_linear_76_96)"/>
<path fill-rule="evenodd" clip-rule="evenodd" d="M13.0697 4.65912C13.1299 4.22728 13.0405 3.85049 12.7996 3.58554C12.5759 3.33607 12.2404 3.20703 11.8447 3.20015H11.7656C11.0774 3.21392 10.4976 3.5064 9.98658 3.88662C9.93497 3.92619 9.89715 3.94684 9.87132 3.95716C9.86446 3.9606 9.85929 3.96233 9.85584 3.96233C9.85067 3.96405 9.84894 3.96405 9.84726 3.96405C9.84381 3.96405 9.84036 3.9606 9.83346 3.95372C9.81798 3.93652 9.79564 3.90555 9.76637 3.85049C9.73885 3.79716 9.70272 3.74554 9.67521 3.70769C9.67348 3.70425 9.67176 3.70081 9.67004 3.69909C9.66831 3.69565 9.66486 3.69221 9.66314 3.68877C9.63045 3.64059 9.61497 3.61307 9.60811 3.59414C9.60466 3.58382 9.60811 3.58382 9.60811 3.5821C9.61325 3.57349 9.63562 3.54081 9.71303 3.49264C10.3823 3.07112 11.0258 2.72186 11.7948 2.72014H11.8568C12.459 2.73218 12.9441 2.98853 13.2383 3.37736C13.5342 3.76619 13.6512 4.29954 13.4929 4.88795L13.4775 4.94471C12.9183 6.82522 11.5712 7.94354 9.77326 8.63001L9.72851 8.64721C9.72851 8.64721 9.71648 8.65239 9.7113 8.65407C9.70962 8.62139 9.70789 8.59043 9.70444 8.55946V8.55257C9.70444 8.54226 9.70272 8.53195 9.70272 8.52333C9.69755 8.44593 9.69582 8.38052 9.701 8.32032C9.70617 8.26181 9.7182 8.22054 9.73541 8.18954C9.75261 8.16203 9.77844 8.13451 9.82833 8.11386C10.4787 7.82824 11.0808 7.48245 11.6314 7.01102C12.3557 6.39165 12.9338 5.66218 13.0714 4.65912H13.0697Z" fill="url(#paint3_linear_76_96)"/>
<path fill-rule="evenodd" clip-rule="evenodd" d="M15.2719 4.30985V4.30641C15.2668 2.53431 13.973 1.12007 12.2542 0.994475C10.8985 0.894687 9.75433 1.41255 8.70828 2.17129C8.68418 2.18677 8.65322 2.20398 8.60506 2.22978C8.56379 2.25387 8.51217 2.28656 8.47086 2.32785C8.42956 2.37086 8.39342 2.43108 8.3986 2.5085C8.40377 2.58248 8.44676 2.65474 8.51558 2.72528C8.55689 2.7683 8.59302 2.81475 8.64119 2.86808C8.68418 2.91798 8.7358 2.97131 8.79776 3.00916C8.86313 3.04873 8.93712 3.0711 9.0266 3.05906C9.11262 3.04701 9.20205 3.004 9.29842 2.93002C9.81798 2.53087 10.3926 2.21946 11.0344 2.05773C11.8774 1.84439 12.6533 1.96139 13.24 2.32097C13.825 2.68227 14.2259 3.2896 14.3154 4.07242C14.3997 4.82083 14.1484 5.51592 13.782 6.14733C12.7583 7.91254 11.2322 9.01882 9.21585 9.39043C9.104 9.41109 9.0128 9.43687 8.9457 9.47301C8.87689 9.50914 8.82355 9.55903 8.79948 9.62785C8.7771 9.69495 8.784 9.76549 8.80293 9.83259C8.82182 9.89972 8.85455 9.97368 8.89237 10.0546C8.97667 10.23 9.09024 10.3143 9.22788 10.3367C9.35349 10.3574 9.4894 10.3247 9.60294 10.3006C11.5127 9.91348 13.0146 8.8657 14.1777 7.35685C14.8521 6.48112 15.3081 5.47289 15.2719 4.30985ZM15.1859 4.30985H15.0999L15.1859 4.30813V4.30985Z" fill="url(#paint4_linear_76_96)"/>
<path fill-rule="evenodd" clip-rule="evenodd" d="M14.188 14.2044C13.462 14.853 12.4349 15.1558 11.2821 14.9579C10.2671 14.7842 9.34832 14.385 8.54831 13.6951C6.89146 12.2654 5.7026 10.5793 5.58044 8.20674L5.63033 8.2033H5.66647L5.75249 8.20502V8.19812H5.66647L5.58044 8.20157C5.59765 7.27423 5.75249 6.28842 6.22392 5.36449C6.25833 5.29739 6.29274 5.24064 6.3306 5.19589C6.36846 5.15117 6.4149 5.11331 6.4751 5.10128C6.53878 5.08921 6.59553 5.10814 6.64714 5.14255C6.69876 5.17523 6.74865 5.22512 6.80199 5.28881C6.9207 5.43331 7.02565 5.57094 7.06696 5.73441C7.10823 5.90301 7.08072 6.08537 6.97059 6.31765C6.48027 7.3534 6.46306 8.48375 6.81061 9.57796C7.40071 11.4447 8.58613 12.8365 10.3617 13.6745C11.3372 14.1355 12.311 14.2577 13.2934 13.6108C13.7252 13.3269 14.0022 12.9897 14.1588 12.6095C14.3171 12.2292 14.3567 11.7957 14.3016 11.3157C14.2156 10.5569 13.9196 9.85842 13.474 9.23559C13.3502 9.06182 13.3072 8.91042 13.3571 8.76761C13.4035 8.63514 13.5222 8.53536 13.6478 8.44244C13.739 8.37534 13.8216 8.33921 13.9007 8.33749C13.985 8.33576 14.0487 8.37362 14.0951 8.42179C14.1399 8.46827 14.1708 8.52674 14.1966 8.57835C14.2224 8.63342 14.2396 8.67472 14.2603 8.70913C14.7507 9.53152 15.222 10.3831 15.2737 11.4C15.3304 12.5664 14.9141 13.5557 14.188 14.2044Z" fill="url(#paint5_linear_76_96)"/>
<path fill-rule="evenodd" clip-rule="evenodd" d="M7.5487 9.76894C7.5246 9.7225 7.50567 9.68292 7.49536 9.64851C7.60204 9.62099 7.7104 9.59862 7.81022 9.60724C7.91172 9.61582 7.99603 9.65368 8.05967 9.75863C8.13711 9.88938 8.20589 10.0253 8.27816 10.1664L8.28851 10.187C8.36246 10.3333 8.44163 10.4881 8.53279 10.6344C9.08166 11.5256 9.85929 12.157 10.7832 12.6026C11.1376 12.7746 11.5247 12.8761 11.9359 12.8469L12.0065 12.84C12.3592 12.8005 12.6482 12.6611 12.8444 12.4254C13.0387 12.1914 13.123 11.88 13.1007 11.5273L13.0938 11.4567C13.0353 10.8993 12.8547 10.3711 12.5157 9.91693C12.4624 9.84293 12.4538 9.8068 12.4521 9.79649H12.4538C12.4538 9.79649 12.4555 9.79304 12.4572 9.79132C12.4727 9.77584 12.5003 9.75691 12.5519 9.72595L12.5622 9.71905C12.6052 9.69326 12.6654 9.6554 12.717 9.61065C12.7824 9.55218 12.8134 9.54355 12.8185 9.54355C12.8254 9.547 12.8547 9.56593 12.8994 9.64506C13.259 10.2662 13.5497 10.8718 13.548 11.5669V11.6271C13.5308 12.2464 13.271 12.7282 12.8719 13.0155C12.459 13.3114 11.8757 13.4147 11.2064 13.2134C9.50143 12.7006 8.3556 11.5204 7.61752 9.90658C7.59859 9.86531 7.56935 9.81025 7.5487 9.76894Z" fill="url(#paint6_linear_76_96)"/>
<path fill-rule="evenodd" clip-rule="evenodd" d="M2.99282 11.1712C2.87583 11.6839 2.94809 12.1313 3.22336 12.4392C3.49692 12.7455 3.93393 12.8694 4.45695 12.816C5.11763 12.7489 5.66302 12.4358 6.13958 12.0452C6.18089 12.0108 6.21012 11.9954 6.22905 11.9885C6.23764 11.9988 6.24971 12.0195 6.26346 12.0556L6.2755 12.0831C6.30991 12.1485 6.3598 12.2018 6.39248 12.2345C6.39765 12.2397 6.4011 12.2448 6.40628 12.25C6.41141 12.2534 6.41486 12.2569 6.41831 12.262C6.44927 12.293 6.46992 12.3137 6.48368 12.3343C6.48368 12.3343 6.48427 12.3355 6.4854 12.3377C6.47851 12.3481 6.45962 12.3687 6.42003 12.3962C5.72666 12.8986 5.03847 13.3012 4.19028 13.2926C3.0668 13.2805 2.30119 12.4048 2.50248 11.3089C2.77604 9.81205 3.70338 8.79183 4.96451 7.97975C4.9903 8.15007 4.98172 8.28944 4.94214 8.40987C4.88535 8.5802 4.75805 8.74021 4.52061 8.90536C3.74295 9.44734 3.2096 10.2232 2.99282 11.1712Z" fill="url(#paint7_linear_76_96)"/>
</g>
<defs>
<linearGradient id="paint0_linear_76_96" x1="3.06735" y1="3.41643" x2="16.0715" y2="16.1752" gradientUnits="userSpaceOnUse">
<stop stop-color="#2F86FC"/>
<stop offset="1" stop-color="#9A6AFF"/>
</linearGradient>
<linearGradient id="paint1_linear_76_96" x1="3.06735" y1="3.41643" x2="16.0715" y2="16.1752" gradientUnits="userSpaceOnUse">
<stop stop-color="#2F86FC"/>
<stop offset="1" stop-color="#9A6AFF"/>
</linearGradient>
<linearGradient id="paint2_linear_76_96" x1="3.06735" y1="3.41643" x2="16.0715" y2="16.1752" gradientUnits="userSpaceOnUse">
<stop stop-color="#2F86FC"/>
<stop offset="1" stop-color="#9A6AFF"/>
</linearGradient>
<linearGradient id="paint3_linear_76_96" x1="3.06735" y1="3.41643" x2="16.0715" y2="16.1752" gradientUnits="userSpaceOnUse">
<stop stop-color="#2F86FC"/>
<stop offset="1" stop-color="#9A6AFF"/>
</linearGradient>
<linearGradient id="paint4_linear_76_96" x1="3.06735" y1="3.41643" x2="16.0715" y2="16.1752" gradientUnits="userSpaceOnUse">
<stop stop-color="#2F86FC"/>
<stop offset="1" stop-color="#9A6AFF"/>
</linearGradient>
<linearGradient id="paint5_linear_76_96" x1="3.06735" y1="3.41643" x2="16.0715" y2="16.1752" gradientUnits="userSpaceOnUse">
<stop stop-color="#2F86FC"/>
<stop offset="1" stop-color="#9A6AFF"/>
</linearGradient>
<linearGradient id="paint6_linear_76_96" x1="3.06735" y1="3.41643" x2="16.0715" y2="16.1752" gradientUnits="userSpaceOnUse">
<stop stop-color="#2F86FC"/>
<stop offset="1" stop-color="#9A6AFF"/>
</linearGradient>
<linearGradient id="paint7_linear_76_96" x1="3.06735" y1="3.41643" x2="16.0715" y2="16.1752" gradientUnits="userSpaceOnUse">
<stop stop-color="#2F86FC"/>
<stop offset="1" stop-color="#9A6AFF"/>
</linearGradient>
<clipPath id="clip0_76_96">
<rect width="16" height="16" fill="white"/>
</clipPath>
</defs>
</svg>
