<svg width="61" height="61" viewBox="0 0 61 61" fill="none" xmlns="http://www.w3.org/2000/svg">
<path d="M58.4552 30.5013C58.4552 31.3384 58.4212 32.1754 58.3463 33.0125C58.2715 33.8632 58.1898 34.4892 58.0469 35.3127C57.7747 36.8711 57.3664 38.4023 56.8423 39.8927C56.3319 41.3286 55.7535 42.6149 54.9913 43.9964C54.3039 45.2349 53.4328 46.562 52.6298 47.6032C51.8812 48.5696 50.8808 49.6857 49.9281 50.6112C49.4517 51.0739 48.9617 51.5163 48.4513 51.945C48.2664 52.1 48.0778 52.2549 47.8882 52.4072C47.7553 52.5139 47.4392 52.7579 47.5734 52.6528C47.519 52.6936 47.4645 52.7345 47.4169 52.7753C47.2604 52.8978 47.097 53.0135 46.9337 53.1292C45.8244 53.9254 44.6607 54.6536 43.4562 55.2865C42.8301 55.6131 42.1972 55.9194 41.5507 56.1984C41.3601 56.2801 41.0947 56.3889 40.768 56.5182C40.421 56.6544 40.0739 56.7837 39.72 56.9062C38.3998 57.3621 37.0387 57.7296 35.664 57.9882C35.3237 58.0495 34.9835 58.1107 34.6432 58.1651C34.5082 58.1921 34.3699 58.206 34.2339 58.2275C34.224 58.229 34.238 58.2273 34.2961 58.2196C34.1056 58.2468 33.915 58.2672 33.7245 58.2876C33.0099 58.3693 32.2885 58.4169 31.5672 58.4442C30.0972 58.4986 28.6273 58.4442 27.1709 58.274C26.5993 58.206 25.9459 58.1107 25.2314 57.9678C24.5236 57.8317 23.8227 57.6684 23.1285 57.4778C22.4548 57.2941 21.7947 57.0899 21.1345 56.8585C20.8351 56.7496 20.5289 56.6407 20.2294 56.5251C19.8211 56.3617 19.6578 56.2937 19.3515 56.1644C18.0993 55.6131 16.8812 54.9734 15.7175 54.2453C15.1254 53.8778 14.5469 53.4831 13.9821 53.0747C13.4308 52.6732 13.0497 52.3806 12.4645 51.8838C11.4301 51.0059 10.4569 50.0531 9.55181 49.0391C8.60585 47.9775 7.95934 47.1336 7.16311 45.9291C6.29883 44.6225 5.55024 43.2478 4.91053 41.8254C4.63151 41.1993 4.35929 40.5188 4.1075 39.7906C3.84209 39.0284 3.6107 38.2594 3.40654 37.4768C3.00503 35.9116 2.75323 34.4416 2.63073 32.9036C2.12033 26.5474 3.70598 20.2932 7.22436 14.9987C7.4081 14.7196 7.59865 14.4474 7.7892 14.1752C7.88448 14.0391 7.98656 13.903 8.08184 13.7737C8.14308 13.692 8.19753 13.6172 8.25877 13.5355C8.27919 13.5083 8.44932 13.2837 8.34044 13.4266C8.75557 12.889 9.19791 12.3718 9.64711 11.8614C10.5658 10.8406 11.5594 9.88104 12.6142 8.99635C12.866 8.78539 13.1246 8.57442 13.39 8.37026C13.4104 8.35665 13.5397 8.25457 13.4172 8.34984C13.4989 8.28859 13.5738 8.22735 13.6554 8.1729C13.7983 8.06402 13.9481 7.95513 14.0978 7.84625C14.649 7.44473 15.2207 7.07043 15.7991 6.70975C16.889 6.03417 18.0265 5.43022 19.2007 4.90908C19.3582 4.83917 19.728 4.68265 19.5693 4.7498C19.6305 4.72258 19.6918 4.69536 19.753 4.67494C19.9096 4.61369 20.0661 4.54564 20.2226 4.48439C20.5697 4.34828 20.9168 4.21898 21.2706 4.09648C21.9444 3.8651 22.6249 3.65413 23.3191 3.47039C23.9792 3.29345 24.6529 3.14373 25.3266 3.01443C25.6669 2.95318 26.0072 2.89193 26.3475 2.83749C26.4495 2.82388 26.5516 2.81027 26.6537 2.78985C26.6809 2.78305 26.8511 2.76263 26.6945 2.78305C26.8987 2.75582 27.1097 2.7286 27.3206 2.70819C28.7634 2.55166 30.2197 2.50403 31.6693 2.55847C32.4042 2.58569 33.146 2.64694 33.8742 2.7286C34.0151 2.74269 34.4311 2.80069 34.2905 2.78437C34.2838 2.7836 34.2647 2.78113 34.2281 2.77624C34.3982 2.79666 34.5752 2.82388 34.7453 2.8511C35.106 2.90554 35.4599 2.96679 35.8205 3.04165C37.2088 3.31386 38.5767 3.68816 39.9174 4.15773C40.2372 4.27342 40.5503 4.38911 40.8633 4.51161C41.0198 4.57286 41.1764 4.63411 41.3329 4.70216C41.3533 4.70897 41.5098 4.77702 41.3669 4.71577C41.4758 4.76341 41.5847 4.81105 41.6936 4.85868C42.3197 5.13771 42.939 5.43714 43.5446 5.75699C44.7628 6.4035 45.9401 7.13849 47.0562 7.95513C47.1066 7.99155 47.1559 8.02797 47.205 8.06439C47.3424 8.16638 47.6605 8.40767 47.5258 8.30221C47.5802 8.34304 47.6279 8.38387 47.6823 8.4247C47.9681 8.64928 48.254 8.88066 48.533 9.11885C49.0638 9.56804 49.581 10.0375 50.0778 10.5275C50.5542 10.9903 51.0101 11.4735 51.4457 11.9703C51.6634 12.2153 51.8812 12.4671 52.0922 12.7257C52.2011 12.855 52.3032 12.9843 52.4052 13.1136C52.4665 13.1884 52.5277 13.2701 52.589 13.3449C52.7183 13.5083 52.5345 13.2701 52.6706 13.4538C53.5485 14.6107 54.3448 15.8289 55.0457 17.1083C56.5429 19.8441 57.5569 22.7772 58.0877 25.9213C58.217 26.6835 58.2919 27.296 58.3599 28.1058C58.428 28.902 58.4552 29.7051 58.4552 30.5013C58.4552 31.0321 58.9248 31.5493 59.476 31.5221C60.0273 31.4949 60.4968 31.0729 60.4968 30.5013C60.4832 23.9409 58.3191 17.469 54.3107 12.2697C50.7379 7.63528 45.8857 4.10329 40.3597 2.16376C34.684 0.17659 28.3823 -0.027572 22.5841 1.55808C16.9969 3.08248 11.8792 6.2674 8.04781 10.6024C3.76042 15.4546 1.14035 21.5931 0.602731 28.0446C0.0446879 34.6866 1.77325 41.4784 5.46857 47.0316C8.65349 51.8362 13.2131 55.7152 18.5077 58.0018C24.1017 60.4177 30.3218 61.0983 36.3105 59.9345C42.0202 58.8253 47.3625 55.9806 51.5137 51.911C55.9917 47.5147 59.0609 41.7029 60.0817 35.5101C60.3539 33.8563 60.4968 32.1822 60.5036 30.5013C60.5036 29.9705 60.0341 29.4533 59.4828 29.4805C58.9248 29.5077 58.4552 29.9296 58.4552 30.5013Z" fill="#5D56F1"/>
<path d="M58.4552 30.5013C58.4552 31.3384 58.4212 32.1754 58.3463 33.0125C58.2715 33.8632 58.1898 34.4892 58.0469 35.3127C57.7747 36.8711 57.3664 38.4023 56.8423 39.8927C56.3319 41.3286 55.7535 42.6149 54.9913 43.9964C54.3039 45.2349 53.4328 46.562 52.6298 47.6032C51.8812 48.5696 50.8808 49.6857 49.9281 50.6112C49.4517 51.0739 48.9617 51.5163 48.4513 51.945C48.2664 52.1 48.0778 52.2549 47.8882 52.4072C47.7553 52.5139 47.4392 52.7579 47.5734 52.6528C47.519 52.6936 47.4645 52.7345 47.4169 52.7753C47.2604 52.8978 47.097 53.0135 46.9337 53.1292C45.8244 53.9254 44.6607 54.6536 43.4562 55.2865C42.8301 55.6131 42.1972 55.9194 41.5507 56.1984C41.3601 56.2801 41.0947 56.3889 40.768 56.5182C40.421 56.6544 40.0739 56.7837 39.72 56.9062C38.3998 57.3621 37.0387 57.7296 35.664 57.9882C35.3237 58.0495 34.9835 58.1107 34.6432 58.1651C34.5082 58.1921 34.3699 58.206 34.2339 58.2275C34.224 58.229 34.238 58.2273 34.2961 58.2196C34.1056 58.2468 33.915 58.2672 33.7245 58.2876C33.0099 58.3693 32.2885 58.4169 31.5672 58.4442C30.0972 58.4986 28.6273 58.4442 27.1709 58.274C26.5993 58.206 25.9459 58.1107 25.2314 57.9678C24.5236 57.8317 23.8227 57.6684 23.1285 57.4778C22.4548 57.2941 21.7947 57.0899 21.1345 56.8585C20.8351 56.7496 20.5289 56.6407 20.2294 56.5251C19.8211 56.3617 19.6578 56.2937 19.3515 56.1644C18.0993 55.6131 16.8812 54.9734 15.7175 54.2453C15.1254 53.8778 14.5469 53.4831 13.9821 53.0747C13.4308 52.6732 13.0497 52.3806 12.4645 51.8838C11.4301 51.0059 10.4569 50.0531 9.55181 49.0391C8.60585 47.9775 7.95934 47.1336 7.16311 45.9291C6.29883 44.6225 5.55024 43.2478 4.91053 41.8254C4.63151 41.1993 4.35929 40.5188 4.1075 39.7906C3.84209 39.0284 3.6107 38.2594 3.40654 37.4768C3.00503 35.9116 2.75323 34.4416 2.63073 32.9036C2.12033 26.5474 3.70598 20.2932 7.22436 14.9987C7.4081 14.7196 7.59865 14.4474 7.7892 14.1752C7.88448 14.0391 7.98656 13.903 8.08184 13.7737C8.14308 13.692 8.19753 13.6172 8.25877 13.5355C8.27919 13.5083 8.44932 13.2837 8.34044 13.4266C8.75557 12.889 9.19791 12.3718 9.64711 11.8614C10.5658 10.8406 11.5594 9.88104 12.6142 8.99635C12.866 8.78539 13.1246 8.57442 13.39 8.37026C13.4104 8.35665 13.5397 8.25457 13.4172 8.34984C13.4989 8.28859 13.5738 8.22735 13.6554 8.1729C13.7983 8.06402 13.9481 7.95513 14.0978 7.84625C14.649 7.44473 15.2207 7.07043 15.7991 6.70975C16.889 6.03417 18.0265 5.43022 19.2007 4.90908C19.3582 4.83917 19.728 4.68265 19.5693 4.7498C19.6305 4.72258 19.6918 4.69536 19.753 4.67494C19.9096 4.61369 20.0661 4.54564 20.2226 4.48439C20.5697 4.34828 20.9168 4.21898 21.2706 4.09648C21.9444 3.8651 22.6249 3.65413 23.3191 3.47039C23.9792 3.29345 24.6529 3.14373 25.3266 3.01443C25.6669 2.95318 26.0072 2.89193 26.3475 2.83749C26.4495 2.82388 26.5516 2.81027 26.6537 2.78985C26.6809 2.78305 26.8511 2.76263 26.6945 2.78305C26.8987 2.75582 27.1097 2.7286 27.3206 2.70819C28.7634 2.55166 30.2197 2.50403 31.6693 2.55847C32.4042 2.58569 33.146 2.64694 33.8742 2.7286C34.0151 2.74269 34.4311 2.80069 34.2905 2.78437C34.2838 2.7836 34.2647 2.78113 34.2281 2.77624C34.3982 2.79666 34.5752 2.82388 34.7453 2.8511C35.106 2.90554 35.4599 2.96679 35.8205 3.04165C37.2088 3.31386 38.5767 3.68816 39.9174 4.15773C40.2372 4.27342 40.5503 4.38911 40.8633 4.51161C41.0198 4.57286 41.1764 4.63411 41.3329 4.70216C41.3533 4.70897 41.5098 4.77702 41.3669 4.71577C41.4758 4.76341 41.5847 4.81105 41.6936 4.85868C42.3197 5.13771 42.939 5.43714 43.5446 5.75699C44.7628 6.4035 45.9401 7.13849 47.0562 7.95513C47.1066 7.99155 47.1559 8.02797 47.205 8.06439C47.3424 8.16638 47.6605 8.40767 47.5258 8.30221C47.5802 8.34304 47.6279 8.38387 47.6823 8.4247C47.9681 8.64928 48.254 8.88066 48.533 9.11885C49.0638 9.56804 49.581 10.0375 50.0778 10.5275C50.5542 10.9903 51.0101 11.4735 51.4457 11.9703C51.6634 12.2153 51.8812 12.4671 52.0922 12.7257C52.2011 12.855 52.3032 12.9843 52.4052 13.1136C52.4665 13.1884 52.5277 13.2701 52.589 13.3449C52.7183 13.5083 52.5345 13.2701 52.6706 13.4538C53.5485 14.6107 54.3448 15.8289 55.0457 17.1083C56.5429 19.8441 57.5569 22.7772 58.0877 25.9213C58.217 26.6835 58.2919 27.296 58.3599 28.1058C58.428 28.902 58.4552 29.7051 58.4552 30.5013C58.4552 31.0321 58.9248 31.5493 59.476 31.5221C60.0273 31.4949 60.4968 31.0729 60.4968 30.5013C60.4832 23.9409 58.3191 17.469 54.3107 12.2697C50.7379 7.63528 45.8857 4.10329 40.3597 2.16376C34.684 0.17659 28.3823 -0.027572 22.5841 1.55808C16.9969 3.08248 11.8792 6.2674 8.04781 10.6024C3.76042 15.4546 1.14035 21.5931 0.602731 28.0446C0.0446879 34.6866 1.77325 41.4784 5.46857 47.0316C8.65349 51.8362 13.2131 55.7152 18.5077 58.0018C24.1017 60.4177 30.3218 61.0983 36.3105 59.9345C42.0202 58.8253 47.3625 55.9806 51.5137 51.911C55.9917 47.5147 59.0609 41.7029 60.0817 35.5101C60.3539 33.8563 60.4968 32.1822 60.5036 30.5013C60.5036 29.9705 60.0341 29.4533 59.4828 29.4805C58.9248 29.5077 58.4552 29.9296 58.4552 30.5013Z" fill="url(#paint0_linear_89_111)"/>
<path d="M58.4552 30.5013C58.4552 31.3384 58.4212 32.1754 58.3463 33.0125C58.2715 33.8632 58.1898 34.4892 58.0469 35.3127C57.7747 36.8711 57.3664 38.4023 56.8423 39.8927C56.3319 41.3286 55.7535 42.6149 54.9913 43.9964C54.3039 45.2349 53.4328 46.562 52.6298 47.6032C51.8812 48.5696 50.8808 49.6857 49.9281 50.6112C49.4517 51.0739 48.9617 51.5163 48.4513 51.945C48.2664 52.1 48.0778 52.2549 47.8882 52.4072C47.7553 52.5139 47.4392 52.7579 47.5734 52.6528C47.519 52.6936 47.4645 52.7345 47.4169 52.7753C47.2604 52.8978 47.097 53.0135 46.9337 53.1292C45.8244 53.9254 44.6607 54.6536 43.4562 55.2865C42.8301 55.6131 42.1972 55.9194 41.5507 56.1984C41.3601 56.2801 41.0947 56.3889 40.768 56.5182C40.421 56.6544 40.0739 56.7837 39.72 56.9062C38.3998 57.3621 37.0387 57.7296 35.664 57.9882C35.3237 58.0495 34.9835 58.1107 34.6432 58.1651C34.5082 58.1921 34.3699 58.206 34.2339 58.2275C34.224 58.229 34.238 58.2273 34.2961 58.2196C34.1056 58.2468 33.915 58.2672 33.7245 58.2876C33.0099 58.3693 32.2885 58.4169 31.5672 58.4442C30.0972 58.4986 28.6273 58.4442 27.1709 58.274C26.5993 58.206 25.9459 58.1107 25.2314 57.9678C24.5236 57.8317 23.8227 57.6684 23.1285 57.4778C22.4548 57.2941 21.7947 57.0899 21.1345 56.8585C20.8351 56.7496 20.5289 56.6407 20.2294 56.5251C19.8211 56.3617 19.6578 56.2937 19.3515 56.1644C18.0993 55.6131 16.8812 54.9734 15.7175 54.2453C15.1254 53.8778 14.5469 53.4831 13.9821 53.0747C13.4308 52.6732 13.0497 52.3806 12.4645 51.8838C11.4301 51.0059 10.4569 50.0531 9.55181 49.0391C8.60585 47.9775 7.95934 47.1336 7.16311 45.9291C6.29883 44.6225 5.55024 43.2478 4.91053 41.8254C4.63151 41.1993 4.35929 40.5188 4.1075 39.7906C3.84209 39.0284 3.6107 38.2594 3.40654 37.4768C3.00503 35.9116 2.75323 34.4416 2.63073 32.9036C2.12033 26.5474 3.70598 20.2932 7.22436 14.9987C7.4081 14.7196 7.59865 14.4474 7.7892 14.1752C7.88448 14.0391 7.98656 13.903 8.08184 13.7737C8.14308 13.692 8.19753 13.6172 8.25877 13.5355C8.27919 13.5083 8.44932 13.2837 8.34044 13.4266C8.75557 12.889 9.19791 12.3718 9.64711 11.8614C10.5658 10.8406 11.5594 9.88104 12.6142 8.99635C12.866 8.78539 13.1246 8.57442 13.39 8.37026C13.4104 8.35665 13.5397 8.25457 13.4172 8.34984C13.4989 8.28859 13.5738 8.22735 13.6554 8.1729C13.7983 8.06402 13.9481 7.95513 14.0978 7.84625C14.649 7.44473 15.2207 7.07043 15.7991 6.70975C16.889 6.03417 18.0265 5.43022 19.2007 4.90908C19.3582 4.83917 19.728 4.68265 19.5693 4.7498C19.6305 4.72258 19.6918 4.69536 19.753 4.67494C19.9096 4.61369 20.0661 4.54564 20.2226 4.48439C20.5697 4.34828 20.9168 4.21898 21.2706 4.09648C21.9444 3.8651 22.6249 3.65413 23.3191 3.47039C23.9792 3.29345 24.6529 3.14373 25.3266 3.01443C25.6669 2.95318 26.0072 2.89193 26.3475 2.83749C26.4495 2.82388 26.5516 2.81027 26.6537 2.78985C26.6809 2.78305 26.8511 2.76263 26.6945 2.78305C26.8987 2.75582 27.1097 2.7286 27.3206 2.70819C28.7634 2.55166 30.2197 2.50403 31.6693 2.55847C32.4042 2.58569 33.146 2.64694 33.8742 2.7286C34.0151 2.74269 34.4311 2.80069 34.2905 2.78437C34.2838 2.7836 34.2647 2.78113 34.2281 2.77624C34.3982 2.79666 34.5752 2.82388 34.7453 2.8511C35.106 2.90554 35.4599 2.96679 35.8205 3.04165C37.2088 3.31386 38.5767 3.68816 39.9174 4.15773C40.2372 4.27342 40.5503 4.38911 40.8633 4.51161C41.0198 4.57286 41.1764 4.63411 41.3329 4.70216C41.3533 4.70897 41.5098 4.77702 41.3669 4.71577C41.4758 4.76341 41.5847 4.81105 41.6936 4.85868C42.3197 5.13771 42.939 5.43714 43.5446 5.75699C44.7628 6.4035 45.9401 7.13849 47.0562 7.95513C47.1066 7.99155 47.1559 8.02797 47.205 8.06439C47.3424 8.16638 47.6605 8.40767 47.5258 8.30221C47.5802 8.34304 47.6279 8.38387 47.6823 8.4247C47.9681 8.64928 48.254 8.88066 48.533 9.11885C49.0638 9.56804 49.581 10.0375 50.0778 10.5275C50.5542 10.9903 51.0101 11.4735 51.4457 11.9703C51.6634 12.2153 51.8812 12.4671 52.0922 12.7257C52.2011 12.855 52.3032 12.9843 52.4052 13.1136C52.4665 13.1884 52.5277 13.2701 52.589 13.3449C52.7183 13.5083 52.5345 13.2701 52.6706 13.4538C53.5485 14.6107 54.3448 15.8289 55.0457 17.1083C56.5429 19.8441 57.5569 22.7772 58.0877 25.9213C58.217 26.6835 58.2919 27.296 58.3599 28.1058C58.428 28.902 58.4552 29.7051 58.4552 30.5013ZM58.4552 30.5013C58.4552 31.0321 58.9248 31.5493 59.476 31.5221C60.0273 31.4949 60.4968 31.0729 60.4968 30.5013C60.4832 23.9409 58.3191 17.469 54.3107 12.2697C50.7379 7.63528 45.8857 4.10329 40.3597 2.16376C34.684 0.17659 28.3823 -0.027572 22.5841 1.55808C16.9969 3.08248 11.8792 6.2674 8.04781 10.6024C3.76042 15.4546 1.14035 21.5931 0.602731 28.0446C0.0446879 34.6866 1.77325 41.4784 5.46857 47.0316C8.65349 51.8362 13.2131 55.7152 18.5077 58.0018C24.1017 60.4177 30.3218 61.0983 36.3105 59.9345C42.0202 58.8253 47.3625 55.9806 51.5137 51.911C55.9917 47.5147 59.0609 41.7029 60.0817 35.5101C60.3539 33.8563 60.4968 32.1822 60.5036 30.5013C60.5036 29.9705 60.0341 29.4533 59.4828 29.4805C58.9248 29.5077 58.4552 29.9296 58.4552 30.5013Z" fill="#5D56F1"/>
<path d="M58.4552 30.5013C58.4552 31.3384 58.4212 32.1754 58.3463 33.0125C58.2715 33.8632 58.1898 34.4892 58.0469 35.3127C57.7747 36.8711 57.3664 38.4023 56.8423 39.8927C56.3319 41.3286 55.7535 42.6149 54.9913 43.9964C54.3039 45.2349 53.4328 46.562 52.6298 47.6032C51.8812 48.5696 50.8808 49.6857 49.9281 50.6112C49.4517 51.0739 48.9617 51.5163 48.4513 51.945C48.2664 52.1 48.0778 52.2549 47.8882 52.4072C47.7553 52.5139 47.4392 52.7579 47.5734 52.6528C47.519 52.6936 47.4645 52.7345 47.4169 52.7753C47.2604 52.8978 47.097 53.0135 46.9337 53.1292C45.8244 53.9254 44.6607 54.6536 43.4562 55.2865C42.8301 55.6131 42.1972 55.9194 41.5507 56.1984C41.3601 56.2801 41.0947 56.3889 40.768 56.5182C40.421 56.6544 40.0739 56.7837 39.72 56.9062C38.3998 57.3621 37.0387 57.7296 35.664 57.9882C35.3237 58.0495 34.9835 58.1107 34.6432 58.1651C34.5082 58.1921 34.3699 58.206 34.2339 58.2275C34.224 58.229 34.238 58.2273 34.2961 58.2196C34.1056 58.2468 33.915 58.2672 33.7245 58.2876C33.0099 58.3693 32.2885 58.4169 31.5672 58.4442C30.0972 58.4986 28.6273 58.4442 27.1709 58.274C26.5993 58.206 25.9459 58.1107 25.2314 57.9678C24.5236 57.8317 23.8227 57.6684 23.1285 57.4778C22.4548 57.2941 21.7947 57.0899 21.1345 56.8585C20.8351 56.7496 20.5289 56.6407 20.2294 56.5251C19.8211 56.3617 19.6578 56.2937 19.3515 56.1644C18.0993 55.6131 16.8812 54.9734 15.7175 54.2453C15.1254 53.8778 14.5469 53.4831 13.9821 53.0747C13.4308 52.6732 13.0497 52.3806 12.4645 51.8838C11.4301 51.0059 10.4569 50.0531 9.55181 49.0391C8.60585 47.9775 7.95934 47.1336 7.16311 45.9291C6.29883 44.6225 5.55024 43.2478 4.91053 41.8254C4.63151 41.1993 4.35929 40.5188 4.1075 39.7906C3.84209 39.0284 3.6107 38.2594 3.40654 37.4768C3.00503 35.9116 2.75323 34.4416 2.63073 32.9036C2.12033 26.5474 3.70598 20.2932 7.22436 14.9987C7.4081 14.7196 7.59865 14.4474 7.7892 14.1752C7.88448 14.0391 7.98656 13.903 8.08184 13.7737C8.14308 13.692 8.19753 13.6172 8.25877 13.5355C8.27919 13.5083 8.44932 13.2837 8.34044 13.4266C8.75557 12.889 9.19791 12.3718 9.64711 11.8614C10.5658 10.8406 11.5594 9.88104 12.6142 8.99635C12.866 8.78539 13.1246 8.57442 13.39 8.37026C13.4104 8.35665 13.5397 8.25457 13.4172 8.34984C13.4989 8.28859 13.5738 8.22735 13.6554 8.1729C13.7983 8.06402 13.9481 7.95513 14.0978 7.84625C14.649 7.44473 15.2207 7.07043 15.7991 6.70975C16.889 6.03417 18.0265 5.43022 19.2007 4.90908C19.3582 4.83917 19.728 4.68265 19.5693 4.7498C19.6305 4.72258 19.6918 4.69536 19.753 4.67494C19.9096 4.61369 20.0661 4.54564 20.2226 4.48439C20.5697 4.34828 20.9168 4.21898 21.2706 4.09648C21.9444 3.8651 22.6249 3.65413 23.3191 3.47039C23.9792 3.29345 24.6529 3.14373 25.3266 3.01443C25.6669 2.95318 26.0072 2.89193 26.3475 2.83749C26.4495 2.82388 26.5516 2.81027 26.6537 2.78985C26.6809 2.78305 26.8511 2.76263 26.6945 2.78305C26.8987 2.75582 27.1097 2.7286 27.3206 2.70819C28.7634 2.55166 30.2197 2.50403 31.6693 2.55847C32.4042 2.58569 33.146 2.64694 33.8742 2.7286C34.0151 2.74269 34.4311 2.80069 34.2905 2.78437C34.2838 2.7836 34.2647 2.78113 34.2281 2.77624C34.3982 2.79666 34.5752 2.82388 34.7453 2.8511C35.106 2.90554 35.4599 2.96679 35.8205 3.04165C37.2088 3.31386 38.5767 3.68816 39.9174 4.15773C40.2372 4.27342 40.5503 4.38911 40.8633 4.51161C41.0198 4.57286 41.1764 4.63411 41.3329 4.70216C41.3533 4.70897 41.5098 4.77702 41.3669 4.71577C41.4758 4.76341 41.5847 4.81105 41.6936 4.85868C42.3197 5.13771 42.939 5.43714 43.5446 5.75699C44.7628 6.4035 45.9401 7.13849 47.0562 7.95513C47.1066 7.99155 47.1559 8.02797 47.205 8.06439C47.3424 8.16638 47.6605 8.40767 47.5258 8.30221C47.5802 8.34304 47.6279 8.38387 47.6823 8.4247C47.9681 8.64928 48.254 8.88066 48.533 9.11885C49.0638 9.56804 49.581 10.0375 50.0778 10.5275C50.5542 10.9903 51.0101 11.4735 51.4457 11.9703C51.6634 12.2153 51.8812 12.4671 52.0922 12.7257C52.2011 12.855 52.3032 12.9843 52.4052 13.1136C52.4665 13.1884 52.5277 13.2701 52.589 13.3449C52.7183 13.5083 52.5345 13.2701 52.6706 13.4538C53.5485 14.6107 54.3448 15.8289 55.0457 17.1083C56.5429 19.8441 57.5569 22.7772 58.0877 25.9213C58.217 26.6835 58.2919 27.296 58.3599 28.1058C58.428 28.902 58.4552 29.7051 58.4552 30.5013ZM58.4552 30.5013C58.4552 31.0321 58.9248 31.5493 59.476 31.5221C60.0273 31.4949 60.4968 31.0729 60.4968 30.5013C60.4832 23.9409 58.3191 17.469 54.3107 12.2697C50.7379 7.63528 45.8857 4.10329 40.3597 2.16376C34.684 0.17659 28.3823 -0.027572 22.5841 1.55808C16.9969 3.08248 11.8792 6.2674 8.04781 10.6024C3.76042 15.4546 1.14035 21.5931 0.602731 28.0446C0.0446879 34.6866 1.77325 41.4784 5.46857 47.0316C8.65349 51.8362 13.2131 55.7152 18.5077 58.0018C24.1017 60.4177 30.3218 61.0983 36.3105 59.9345C42.0202 58.8253 47.3625 55.9806 51.5137 51.911C55.9917 47.5147 59.0609 41.7029 60.0817 35.5101C60.3539 33.8563 60.4968 32.1822 60.5036 30.5013C60.5036 29.9705 60.0341 29.4533 59.4828 29.4805C58.9248 29.5077 58.4552 29.9296 58.4552 30.5013Z" fill="url(#paint1_linear_89_111)"/>
<path d="M44.8587 30.5007C44.8587 32.0319 44.7975 33.5631 44.6682 35.0875C44.6069 35.8088 44.5321 36.5234 44.4436 37.2448C44.4368 37.3196 44.4232 37.3945 44.4164 37.4694C44.3687 37.83 44.43 37.3809 44.4028 37.585C44.3823 37.7484 44.3551 37.9185 44.3279 38.0818C44.2735 38.4493 44.2122 38.81 44.151 39.1775C43.7018 41.8044 43.0349 44.3972 42.1025 46.8948C42.0005 47.167 41.8984 47.4392 41.7895 47.7046C41.7282 47.8544 41.667 47.9973 41.6057 48.147C41.6738 47.9837 41.6125 48.1334 41.5989 48.1674C41.5649 48.2559 41.5241 48.3375 41.4901 48.426C41.2519 48.9704 40.9933 49.5149 40.7279 50.0457C40.2243 51.0325 39.6662 51.992 39.0401 52.9108C38.904 53.1149 38.7611 53.3123 38.6114 53.5096C38.5297 53.6185 38.448 53.7274 38.3664 53.8295C38.4957 53.6593 38.4072 53.775 38.38 53.8091C38.3324 53.8703 38.2847 53.9316 38.2303 53.9928C37.9172 54.3807 37.5838 54.7618 37.2435 55.1225C36.91 55.4696 36.5698 55.803 36.2091 56.1161C36.0458 56.259 35.8824 56.3883 35.7191 56.5244C35.5762 56.6333 35.7395 56.5108 35.7599 56.4972C35.7123 56.5312 35.6647 56.5652 35.6238 56.5993C35.5217 56.6741 35.4197 56.749 35.3176 56.8238C34.9637 57.0688 34.603 57.2934 34.2287 57.4976C34.045 57.5929 33.8612 57.6881 33.6707 57.7766C33.6026 57.8038 33.3032 57.9331 33.589 57.8174C33.4801 57.8583 33.3712 57.9059 33.2624 57.9467C32.8744 58.0896 32.4797 58.2121 32.0714 58.3006C31.8877 58.3414 31.6971 58.3755 31.5134 58.4027C31.4887 58.4074 31.4724 58.4107 31.4626 58.4129C31.4239 58.4213 31.4777 58.4107 31.4385 58.4163C31.3228 58.4299 31.2071 58.4367 31.0914 58.4503C30.6899 58.4775 30.2884 58.4775 29.8869 58.4435C29.7848 58.4367 29.6759 58.4231 29.5738 58.4163C29.533 58.4095 29.4854 58.4095 29.4513 58.4027C29.7236 58.4639 29.6011 58.4231 29.533 58.4095C29.3288 58.3755 29.1179 58.3414 28.9137 58.2938C28.5122 58.1985 28.1107 58.076 27.7296 57.9331C27.6411 57.8991 27.5526 57.8651 27.4574 57.8242C27.7568 57.9467 27.4029 57.797 27.3417 57.7698C27.1443 57.6745 26.947 57.5792 26.7564 57.4704C26.3821 57.2662 26.0146 57.0348 25.6676 56.7898C25.5859 56.7286 25.4974 56.6673 25.4158 56.6061C25.3681 56.572 25.3205 56.538 25.2796 56.504C25.477 56.6469 25.3613 56.5652 25.3205 56.5312C25.1367 56.3815 24.953 56.2318 24.7761 56.0752C24.0411 55.4287 23.3673 54.7074 22.7549 53.9384C22.7072 53.8771 22.5371 53.6593 22.6664 53.8295C22.5847 53.7206 22.5031 53.6185 22.4214 53.5096C22.2581 53.2919 22.1015 53.0673 21.9518 52.8427C21.6524 52.4003 21.3666 51.9444 21.0943 51.4816C20.5091 50.4812 19.9919 49.4468 19.5291 48.3852C19.5087 48.3375 19.3522 47.9769 19.427 48.1538C19.3658 48.0041 19.3045 47.8612 19.2433 47.7114C19.1208 47.412 19.0051 47.1126 18.8962 46.8063C18.6784 46.2143 18.4743 45.6222 18.2837 45.0233C17.8822 43.7507 17.5419 42.4577 17.2629 41.1511C17.1132 40.4637 16.9839 39.7696 16.8614 39.0686C16.807 38.742 16.7525 38.4153 16.7049 38.0818C16.6777 37.9185 16.6572 37.7484 16.63 37.585C16.6028 37.3741 16.664 37.83 16.6164 37.4694C16.6028 37.3605 16.5892 37.2448 16.5756 37.1359C16.3918 35.6659 16.2761 34.1892 16.2149 32.7056C16.0992 29.7248 16.2149 26.7237 16.5892 23.7633C16.63 23.4367 16.6572 23.2665 16.7117 22.8718C16.7661 22.5043 16.8274 22.1437 16.8886 21.783C17.0111 21.0888 17.1472 20.3947 17.2969 19.7073C17.576 18.4211 17.9162 17.1485 18.3178 15.8963C18.5151 15.2838 18.7261 14.6714 18.9507 14.0725C19.0595 13.7867 19.1684 13.5008 19.2841 13.2218C19.3318 13.1061 19.3794 12.9836 19.427 12.8679C19.3454 13.0653 19.4679 12.7795 19.4747 12.7658C19.5087 12.6774 19.5495 12.5957 19.5904 12.5072C20.0531 11.466 20.5635 10.4452 21.142 9.46524C21.421 8.99571 21.7136 8.52614 22.0267 8.07698C22.1764 7.86602 22.3261 7.65505 22.4758 7.44408C22.5371 7.35561 22.6051 7.27395 22.6664 7.18548C22.5303 7.36242 22.646 7.2127 22.68 7.17187C22.7344 7.09701 22.7957 7.02895 22.8501 6.9541C23.449 6.21231 24.1091 5.51816 24.8237 4.89207C24.987 4.74915 25.1503 4.61985 25.3137 4.48375C25.5042 4.32722 25.1299 4.61305 25.3273 4.47013C25.3613 4.44291 25.4021 4.41569 25.4362 4.38847C25.5314 4.32042 25.6199 4.25236 25.7152 4.18431C26.0759 3.93251 26.4502 3.70113 26.8381 3.49697C27.0218 3.40169 27.2056 3.30642 27.3961 3.21795C27.437 3.19753 27.4778 3.18392 27.5118 3.1635C27.7092 3.06823 27.3417 3.23156 27.4778 3.17711C27.5867 3.13628 27.6956 3.08864 27.8044 3.04781C28.1855 2.9049 28.5666 2.79601 28.9614 2.70754C29.1451 2.66671 29.3357 2.63949 29.5194 2.60546C29.7372 2.56463 29.322 2.62588 29.465 2.61227C29.5194 2.60546 29.567 2.59866 29.6215 2.59185C29.7236 2.57824 29.8324 2.57143 29.9345 2.56463C30.3429 2.53741 30.758 2.53741 31.1731 2.57143C31.2684 2.57824 31.3637 2.59185 31.4589 2.59866C31.7516 2.62588 31.2684 2.56463 31.561 2.61227C31.772 2.64629 31.9761 2.68713 32.1803 2.73476C32.575 2.83004 32.9561 2.95254 33.3372 3.09545C33.3849 3.11587 33.6707 3.23156 33.5142 3.1635C33.3576 3.09545 33.6435 3.22475 33.6911 3.24517C33.8885 3.34044 34.0858 3.43572 34.2764 3.5446C34.6507 3.74876 35.0181 3.98015 35.3652 4.22514C35.4605 4.29319 35.5558 4.36125 35.6442 4.4293C35.6783 4.45652 35.7191 4.48375 35.7531 4.51097C35.549 4.36125 35.6919 4.46333 35.7395 4.50416C35.9233 4.65388 36.107 4.8036 36.2839 4.96012C36.6446 5.27997 36.9849 5.61344 37.3184 5.96051C37.6518 6.31439 37.9717 6.68869 38.2779 7.06979C38.3119 7.11062 38.346 7.15145 38.3732 7.19228C38.5433 7.40325 38.2439 7.02215 38.4072 7.23992C38.4685 7.32839 38.5365 7.41006 38.5978 7.49853C38.7611 7.7163 38.9176 7.94088 39.0673 8.16545C39.7002 9.09779 40.2651 10.0777 40.7687 11.0849C41.0341 11.6089 41.2791 12.1329 41.5105 12.6706C41.5377 12.725 41.5581 12.7863 41.5853 12.8407C41.7078 13.1197 41.5445 12.7318 41.6125 12.902C41.667 13.0313 41.7214 13.1674 41.7759 13.2967C41.8984 13.5961 42.0141 13.8955 42.123 14.2018C42.5789 15.4336 42.9668 16.6857 43.3003 17.9583C44.0217 20.7077 44.4436 23.3414 44.6682 26.0908C44.7975 27.5539 44.8519 29.0307 44.8587 30.5007C44.8587 31.0315 45.3283 31.5487 45.8795 31.5215C46.4308 31.4942 46.9003 31.0723 46.9003 30.5007C46.8935 24.6821 46.0565 18.7478 43.9672 13.2967C42.3748 9.14543 40.0269 4.95332 36.2771 2.38088C34.7391 1.32605 32.9629 0.659123 31.1051 0.523023C29.2744 0.386913 27.437 0.863293 25.8241 1.71396C22.0335 3.71474 19.4815 7.64824 17.7937 11.466C15.4663 16.7334 14.3842 22.5043 14.1529 28.2413C13.9147 34.1551 14.5612 40.2051 16.385 45.8468C17.7937 50.1954 19.9647 54.7074 23.5239 57.7017C24.9598 58.9063 26.6271 59.8863 28.4782 60.281C30.2612 60.6621 32.1395 60.5396 33.8476 59.8931C37.8152 58.3823 40.5917 54.789 42.47 51.1141C45.0084 46.1462 46.2606 40.5658 46.7166 35.033C46.8391 33.529 46.9003 32.0182 46.9003 30.5075C46.9003 29.9766 46.4308 29.4594 45.8795 29.4867C45.3215 29.5071 44.8587 29.929 44.8587 30.5007Z" fill="#5D56F1"/>
<path d="M44.8587 30.5007C44.8587 32.0319 44.7975 33.5631 44.6682 35.0875C44.6069 35.8088 44.5321 36.5234 44.4436 37.2448C44.4368 37.3196 44.4232 37.3945 44.4164 37.4694C44.3687 37.83 44.43 37.3809 44.4028 37.585C44.3823 37.7484 44.3551 37.9185 44.3279 38.0818C44.2735 38.4493 44.2122 38.81 44.151 39.1775C43.7018 41.8044 43.0349 44.3972 42.1025 46.8948C42.0005 47.167 41.8984 47.4392 41.7895 47.7046C41.7282 47.8544 41.667 47.9973 41.6057 48.147C41.6738 47.9837 41.6125 48.1334 41.5989 48.1674C41.5649 48.2559 41.5241 48.3375 41.4901 48.426C41.2519 48.9704 40.9933 49.5149 40.7279 50.0457C40.2243 51.0325 39.6662 51.992 39.0401 52.9108C38.904 53.1149 38.7611 53.3123 38.6114 53.5096C38.5297 53.6185 38.448 53.7274 38.3664 53.8295C38.4957 53.6593 38.4072 53.775 38.38 53.8091C38.3324 53.8703 38.2847 53.9316 38.2303 53.9928C37.9172 54.3807 37.5838 54.7618 37.2435 55.1225C36.91 55.4696 36.5698 55.803 36.2091 56.1161C36.0458 56.259 35.8824 56.3883 35.7191 56.5244C35.5762 56.6333 35.7395 56.5108 35.7599 56.4972C35.7123 56.5312 35.6647 56.5652 35.6238 56.5993C35.5217 56.6741 35.4197 56.749 35.3176 56.8238C34.9637 57.0688 34.603 57.2934 34.2287 57.4976C34.045 57.5929 33.8612 57.6881 33.6707 57.7766C33.6026 57.8038 33.3032 57.9331 33.589 57.8174C33.4801 57.8583 33.3712 57.9059 33.2624 57.9467C32.8744 58.0896 32.4797 58.2121 32.0714 58.3006C31.8877 58.3414 31.6971 58.3755 31.5134 58.4027C31.4887 58.4074 31.4724 58.4107 31.4626 58.4129C31.4239 58.4213 31.4777 58.4107 31.4385 58.4163C31.3228 58.4299 31.2071 58.4367 31.0914 58.4503C30.6899 58.4775 30.2884 58.4775 29.8869 58.4435C29.7848 58.4367 29.6759 58.4231 29.5738 58.4163C29.533 58.4095 29.4854 58.4095 29.4513 58.4027C29.7236 58.4639 29.6011 58.4231 29.533 58.4095C29.3288 58.3755 29.1179 58.3414 28.9137 58.2938C28.5122 58.1985 28.1107 58.076 27.7296 57.9331C27.6411 57.8991 27.5526 57.8651 27.4574 57.8242C27.7568 57.9467 27.4029 57.797 27.3417 57.7698C27.1443 57.6745 26.947 57.5792 26.7564 57.4704C26.3821 57.2662 26.0146 57.0348 25.6676 56.7898C25.5859 56.7286 25.4974 56.6673 25.4158 56.6061C25.3681 56.572 25.3205 56.538 25.2796 56.504C25.477 56.6469 25.3613 56.5652 25.3205 56.5312C25.1367 56.3815 24.953 56.2318 24.7761 56.0752C24.0411 55.4287 23.3673 54.7074 22.7549 53.9384C22.7072 53.8771 22.5371 53.6593 22.6664 53.8295C22.5847 53.7206 22.5031 53.6185 22.4214 53.5096C22.2581 53.2919 22.1015 53.0673 21.9518 52.8427C21.6524 52.4003 21.3666 51.9444 21.0943 51.4816C20.5091 50.4812 19.9919 49.4468 19.5291 48.3852C19.5087 48.3375 19.3522 47.9769 19.427 48.1538C19.3658 48.0041 19.3045 47.8612 19.2433 47.7114C19.1208 47.412 19.0051 47.1126 18.8962 46.8063C18.6784 46.2143 18.4743 45.6222 18.2837 45.0233C17.8822 43.7507 17.5419 42.4577 17.2629 41.1511C17.1132 40.4637 16.9839 39.7696 16.8614 39.0686C16.807 38.742 16.7525 38.4153 16.7049 38.0818C16.6777 37.9185 16.6572 37.7484 16.63 37.585C16.6028 37.3741 16.664 37.83 16.6164 37.4694C16.6028 37.3605 16.5892 37.2448 16.5756 37.1359C16.3918 35.6659 16.2761 34.1892 16.2149 32.7056C16.0992 29.7248 16.2149 26.7237 16.5892 23.7633C16.63 23.4367 16.6572 23.2665 16.7117 22.8718C16.7661 22.5043 16.8274 22.1437 16.8886 21.783C17.0111 21.0888 17.1472 20.3947 17.2969 19.7073C17.576 18.4211 17.9162 17.1485 18.3178 15.8963C18.5151 15.2838 18.7261 14.6714 18.9507 14.0725C19.0595 13.7867 19.1684 13.5008 19.2841 13.2218C19.3318 13.1061 19.3794 12.9836 19.427 12.8679C19.3454 13.0653 19.4679 12.7795 19.4747 12.7658C19.5087 12.6774 19.5495 12.5957 19.5904 12.5072C20.0531 11.466 20.5635 10.4452 21.142 9.46524C21.421 8.99571 21.7136 8.52614 22.0267 8.07698C22.1764 7.86602 22.3261 7.65505 22.4758 7.44408C22.5371 7.35561 22.6051 7.27395 22.6664 7.18548C22.5303 7.36242 22.646 7.2127 22.68 7.17187C22.7344 7.09701 22.7957 7.02895 22.8501 6.9541C23.449 6.21231 24.1091 5.51816 24.8237 4.89207C24.987 4.74915 25.1503 4.61985 25.3137 4.48375C25.5042 4.32722 25.1299 4.61305 25.3273 4.47013C25.3613 4.44291 25.4021 4.41569 25.4362 4.38847C25.5314 4.32042 25.6199 4.25236 25.7152 4.18431C26.0759 3.93251 26.4502 3.70113 26.8381 3.49697C27.0218 3.40169 27.2056 3.30642 27.3961 3.21795C27.437 3.19753 27.4778 3.18392 27.5118 3.1635C27.7092 3.06823 27.3417 3.23156 27.4778 3.17711C27.5867 3.13628 27.6956 3.08864 27.8044 3.04781C28.1855 2.9049 28.5666 2.79601 28.9614 2.70754C29.1451 2.66671 29.3357 2.63949 29.5194 2.60546C29.7372 2.56463 29.322 2.62588 29.465 2.61227C29.5194 2.60546 29.567 2.59866 29.6215 2.59185C29.7236 2.57824 29.8324 2.57143 29.9345 2.56463C30.3429 2.53741 30.758 2.53741 31.1731 2.57143C31.2684 2.57824 31.3637 2.59185 31.4589 2.59866C31.7516 2.62588 31.2684 2.56463 31.561 2.61227C31.772 2.64629 31.9761 2.68713 32.1803 2.73476C32.575 2.83004 32.9561 2.95254 33.3372 3.09545C33.3849 3.11587 33.6707 3.23156 33.5142 3.1635C33.3576 3.09545 33.6435 3.22475 33.6911 3.24517C33.8885 3.34044 34.0858 3.43572 34.2764 3.5446C34.6507 3.74876 35.0181 3.98015 35.3652 4.22514C35.4605 4.29319 35.5558 4.36125 35.6442 4.4293C35.6783 4.45652 35.7191 4.48375 35.7531 4.51097C35.549 4.36125 35.6919 4.46333 35.7395 4.50416C35.9233 4.65388 36.107 4.8036 36.2839 4.96012C36.6446 5.27997 36.9849 5.61344 37.3184 5.96051C37.6518 6.31439 37.9717 6.68869 38.2779 7.06979C38.3119 7.11062 38.346 7.15145 38.3732 7.19228C38.5433 7.40325 38.2439 7.02215 38.4072 7.23992C38.4685 7.32839 38.5365 7.41006 38.5978 7.49853C38.7611 7.7163 38.9176 7.94088 39.0673 8.16545C39.7002 9.09779 40.2651 10.0777 40.7687 11.0849C41.0341 11.6089 41.2791 12.1329 41.5105 12.6706C41.5377 12.725 41.5581 12.7863 41.5853 12.8407C41.7078 13.1197 41.5445 12.7318 41.6125 12.902C41.667 13.0313 41.7214 13.1674 41.7759 13.2967C41.8984 13.5961 42.0141 13.8955 42.123 14.2018C42.5789 15.4336 42.9668 16.6857 43.3003 17.9583C44.0217 20.7077 44.4436 23.3414 44.6682 26.0908C44.7975 27.5539 44.8519 29.0307 44.8587 30.5007C44.8587 31.0315 45.3283 31.5487 45.8795 31.5215C46.4308 31.4942 46.9003 31.0723 46.9003 30.5007C46.8935 24.6821 46.0565 18.7478 43.9672 13.2967C42.3748 9.14543 40.0269 4.95332 36.2771 2.38088C34.7391 1.32605 32.9629 0.659123 31.1051 0.523023C29.2744 0.386913 27.437 0.863293 25.8241 1.71396C22.0335 3.71474 19.4815 7.64824 17.7937 11.466C15.4663 16.7334 14.3842 22.5043 14.1529 28.2413C13.9147 34.1551 14.5612 40.2051 16.385 45.8468C17.7937 50.1954 19.9647 54.7074 23.5239 57.7017C24.9598 58.9063 26.6271 59.8863 28.4782 60.281C30.2612 60.6621 32.1395 60.5396 33.8476 59.8931C37.8152 58.3823 40.5917 54.789 42.47 51.1141C45.0084 46.1462 46.2606 40.5658 46.7166 35.033C46.8391 33.529 46.9003 32.0182 46.9003 30.5075C46.9003 29.9766 46.4308 29.4594 45.8795 29.4867C45.3215 29.5071 44.8587 29.929 44.8587 30.5007Z" fill="url(#paint2_linear_89_111)"/>
<path d="M44.8587 30.5007C44.8587 32.0319 44.7975 33.5631 44.6682 35.0875C44.6069 35.8088 44.5321 36.5234 44.4436 37.2448C44.4368 37.3196 44.4232 37.3945 44.4164 37.4694C44.3687 37.83 44.43 37.3809 44.4028 37.585C44.3823 37.7484 44.3551 37.9185 44.3279 38.0818C44.2735 38.4493 44.2122 38.81 44.151 39.1775C43.7018 41.8044 43.0349 44.3972 42.1025 46.8948C42.0005 47.167 41.8984 47.4392 41.7895 47.7046C41.7282 47.8544 41.667 47.9973 41.6057 48.147C41.6738 47.9837 41.6125 48.1334 41.5989 48.1674C41.5649 48.2559 41.5241 48.3375 41.4901 48.426C41.2519 48.9704 40.9933 49.5149 40.7279 50.0457C40.2243 51.0325 39.6662 51.992 39.0401 52.9108C38.904 53.1149 38.7611 53.3123 38.6114 53.5096C38.5297 53.6185 38.448 53.7274 38.3664 53.8295C38.4957 53.6593 38.4072 53.775 38.38 53.8091C38.3324 53.8703 38.2847 53.9316 38.2303 53.9928C37.9172 54.3807 37.5838 54.7618 37.2435 55.1225C36.91 55.4696 36.5698 55.803 36.2091 56.1161C36.0458 56.259 35.8824 56.3883 35.7191 56.5244C35.5762 56.6333 35.7395 56.5108 35.7599 56.4972C35.7123 56.5312 35.6647 56.5652 35.6238 56.5993C35.5217 56.6741 35.4197 56.749 35.3176 56.8238C34.9637 57.0688 34.603 57.2934 34.2287 57.4976C34.045 57.5929 33.8612 57.6881 33.6707 57.7766C33.6026 57.8038 33.3032 57.9331 33.589 57.8174C33.4801 57.8583 33.3712 57.9059 33.2624 57.9467C32.8744 58.0896 32.4797 58.2121 32.0714 58.3006C31.8877 58.3414 31.6971 58.3755 31.5134 58.4027C31.4887 58.4074 31.4724 58.4107 31.4626 58.4129C31.4239 58.4213 31.4777 58.4107 31.4385 58.4163C31.3228 58.4299 31.2071 58.4367 31.0914 58.4503C30.6899 58.4775 30.2884 58.4775 29.8869 58.4435C29.7848 58.4367 29.6759 58.4231 29.5738 58.4163C29.533 58.4095 29.4854 58.4095 29.4513 58.4027C29.7236 58.4639 29.6011 58.4231 29.533 58.4095C29.3288 58.3755 29.1179 58.3414 28.9137 58.2938C28.5122 58.1985 28.1107 58.076 27.7296 57.9331C27.6411 57.8991 27.5526 57.8651 27.4574 57.8242C27.7568 57.9467 27.4029 57.797 27.3417 57.7698C27.1443 57.6745 26.947 57.5792 26.7564 57.4704C26.3821 57.2662 26.0146 57.0348 25.6676 56.7898C25.5859 56.7286 25.4974 56.6673 25.4158 56.6061C25.3681 56.572 25.3205 56.538 25.2796 56.504C25.477 56.6469 25.3613 56.5652 25.3205 56.5312C25.1367 56.3815 24.953 56.2318 24.7761 56.0752C24.0411 55.4287 23.3673 54.7074 22.7549 53.9384C22.7072 53.8771 22.5371 53.6593 22.6664 53.8295C22.5847 53.7206 22.5031 53.6185 22.4214 53.5096C22.2581 53.2919 22.1015 53.0673 21.9518 52.8427C21.6524 52.4003 21.3666 51.9444 21.0943 51.4816C20.5091 50.4812 19.9919 49.4468 19.5291 48.3852C19.5087 48.3375 19.3522 47.9769 19.427 48.1538C19.3658 48.0041 19.3045 47.8612 19.2433 47.7114C19.1208 47.412 19.0051 47.1126 18.8962 46.8063C18.6784 46.2143 18.4743 45.6222 18.2837 45.0233C17.8822 43.7507 17.5419 42.4577 17.2629 41.1511C17.1132 40.4637 16.9839 39.7696 16.8614 39.0686C16.807 38.742 16.7525 38.4153 16.7049 38.0818C16.6777 37.9185 16.6572 37.7484 16.63 37.585C16.6028 37.3741 16.664 37.83 16.6164 37.4694C16.6028 37.3605 16.5892 37.2448 16.5756 37.1359C16.3918 35.6659 16.2761 34.1892 16.2149 32.7056C16.0992 29.7248 16.2149 26.7237 16.5892 23.7633C16.63 23.4367 16.6572 23.2665 16.7117 22.8718C16.7661 22.5043 16.8274 22.1437 16.8886 21.783C17.0111 21.0888 17.1472 20.3947 17.2969 19.7073C17.576 18.4211 17.9162 17.1485 18.3178 15.8963C18.5151 15.2838 18.7261 14.6714 18.9507 14.0725C19.0595 13.7867 19.1684 13.5008 19.2841 13.2218C19.3318 13.1061 19.3794 12.9836 19.427 12.8679C19.3454 13.0653 19.4679 12.7795 19.4747 12.7658C19.5087 12.6774 19.5495 12.5957 19.5904 12.5072C20.0531 11.466 20.5635 10.4452 21.142 9.46524C21.421 8.99571 21.7136 8.52614 22.0267 8.07698C22.1764 7.86602 22.3261 7.65505 22.4758 7.44408C22.5371 7.35561 22.6051 7.27395 22.6664 7.18548C22.5303 7.36242 22.646 7.2127 22.68 7.17187C22.7344 7.09701 22.7957 7.02895 22.8501 6.9541C23.449 6.21231 24.1091 5.51816 24.8237 4.89207C24.987 4.74915 25.1503 4.61985 25.3137 4.48375C25.5042 4.32722 25.1299 4.61305 25.3273 4.47013C25.3613 4.44291 25.4021 4.41569 25.4362 4.38847C25.5314 4.32042 25.6199 4.25236 25.7152 4.18431C26.0759 3.93251 26.4502 3.70113 26.8381 3.49697C27.0218 3.40169 27.2056 3.30642 27.3961 3.21795C27.437 3.19753 27.4778 3.18392 27.5118 3.1635C27.7092 3.06823 27.3417 3.23156 27.4778 3.17711C27.5867 3.13628 27.6956 3.08864 27.8044 3.04781C28.1855 2.9049 28.5666 2.79601 28.9614 2.70754C29.1451 2.66671 29.3357 2.63949 29.5194 2.60546C29.7372 2.56463 29.322 2.62588 29.465 2.61227C29.5194 2.60546 29.567 2.59866 29.6215 2.59185C29.7236 2.57824 29.8324 2.57143 29.9345 2.56463C30.3429 2.53741 30.758 2.53741 31.1731 2.57143C31.2684 2.57824 31.3637 2.59185 31.4589 2.59866C31.7516 2.62588 31.2684 2.56463 31.561 2.61227C31.772 2.64629 31.9761 2.68713 32.1803 2.73476C32.575 2.83004 32.9561 2.95254 33.3372 3.09545C33.3849 3.11587 33.6707 3.23156 33.5142 3.1635C33.3576 3.09545 33.6435 3.22475 33.6911 3.24517C33.8885 3.34044 34.0858 3.43572 34.2764 3.5446C34.6507 3.74876 35.0181 3.98015 35.3652 4.22514C35.4605 4.29319 35.5558 4.36125 35.6442 4.4293C35.6783 4.45652 35.7191 4.48375 35.7531 4.51097C35.549 4.36125 35.6919 4.46333 35.7395 4.50416C35.9233 4.65388 36.107 4.8036 36.2839 4.96012C36.6446 5.27997 36.9849 5.61344 37.3184 5.96051C37.6518 6.31439 37.9717 6.68869 38.2779 7.06979C38.3119 7.11062 38.346 7.15145 38.3732 7.19228C38.5433 7.40325 38.2439 7.02215 38.4072 7.23992C38.4685 7.32839 38.5365 7.41006 38.5978 7.49853C38.7611 7.7163 38.9176 7.94088 39.0673 8.16545C39.7002 9.09779 40.2651 10.0777 40.7687 11.0849C41.0341 11.6089 41.2791 12.1329 41.5105 12.6706C41.5377 12.725 41.5581 12.7863 41.5853 12.8407C41.7078 13.1197 41.5445 12.7318 41.6125 12.902C41.667 13.0313 41.7214 13.1674 41.7759 13.2967C41.8984 13.5961 42.0141 13.8955 42.123 14.2018C42.5789 15.4336 42.9668 16.6857 43.3003 17.9583C44.0217 20.7077 44.4436 23.3414 44.6682 26.0908C44.7975 27.5539 44.8519 29.0307 44.8587 30.5007ZM44.8587 30.5007C44.8587 31.0315 45.3283 31.5487 45.8795 31.5215C46.4308 31.4942 46.9003 31.0723 46.9003 30.5007C46.8935 24.6821 46.0565 18.7478 43.9672 13.2967C42.3748 9.14543 40.0269 4.95332 36.2771 2.38088C34.7391 1.32605 32.9629 0.659123 31.1051 0.523023C29.2744 0.386913 27.437 0.863293 25.8241 1.71396C22.0335 3.71474 19.4815 7.64824 17.7937 11.466C15.4663 16.7334 14.3842 22.5043 14.1529 28.2413C13.9147 34.1551 14.5612 40.2051 16.385 45.8468C17.7937 50.1954 19.9647 54.7074 23.5239 57.7017C24.9598 58.9063 26.6271 59.8863 28.4782 60.281C30.2612 60.6621 32.1395 60.5396 33.8476 59.8931C37.8152 58.3823 40.5917 54.789 42.47 51.1141C45.0084 46.1462 46.2606 40.5658 46.7166 35.033C46.8391 33.529 46.9003 32.0182 46.9003 30.5075C46.9003 29.9766 46.4308 29.4594 45.8795 29.4867C45.3215 29.5071 44.8587 29.929 44.8587 30.5007Z" fill="#5D56F1"/>
<path d="M44.8587 30.5007C44.8587 32.0319 44.7975 33.5631 44.6682 35.0875C44.6069 35.8088 44.5321 36.5234 44.4436 37.2448C44.4368 37.3196 44.4232 37.3945 44.4164 37.4694C44.3687 37.83 44.43 37.3809 44.4028 37.585C44.3823 37.7484 44.3551 37.9185 44.3279 38.0818C44.2735 38.4493 44.2122 38.81 44.151 39.1775C43.7018 41.8044 43.0349 44.3972 42.1025 46.8948C42.0005 47.167 41.8984 47.4392 41.7895 47.7046C41.7282 47.8544 41.667 47.9973 41.6057 48.147C41.6738 47.9837 41.6125 48.1334 41.5989 48.1674C41.5649 48.2559 41.5241 48.3375 41.4901 48.426C41.2519 48.9704 40.9933 49.5149 40.7279 50.0457C40.2243 51.0325 39.6662 51.992 39.0401 52.9108C38.904 53.1149 38.7611 53.3123 38.6114 53.5096C38.5297 53.6185 38.448 53.7274 38.3664 53.8295C38.4957 53.6593 38.4072 53.775 38.38 53.8091C38.3324 53.8703 38.2847 53.9316 38.2303 53.9928C37.9172 54.3807 37.5838 54.7618 37.2435 55.1225C36.91 55.4696 36.5698 55.803 36.2091 56.1161C36.0458 56.259 35.8824 56.3883 35.7191 56.5244C35.5762 56.6333 35.7395 56.5108 35.7599 56.4972C35.7123 56.5312 35.6647 56.5652 35.6238 56.5993C35.5217 56.6741 35.4197 56.749 35.3176 56.8238C34.9637 57.0688 34.603 57.2934 34.2287 57.4976C34.045 57.5929 33.8612 57.6881 33.6707 57.7766C33.6026 57.8038 33.3032 57.9331 33.589 57.8174C33.4801 57.8583 33.3712 57.9059 33.2624 57.9467C32.8744 58.0896 32.4797 58.2121 32.0714 58.3006C31.8877 58.3414 31.6971 58.3755 31.5134 58.4027C31.4887 58.4074 31.4724 58.4107 31.4626 58.4129C31.4239 58.4213 31.4777 58.4107 31.4385 58.4163C31.3228 58.4299 31.2071 58.4367 31.0914 58.4503C30.6899 58.4775 30.2884 58.4775 29.8869 58.4435C29.7848 58.4367 29.6759 58.4231 29.5738 58.4163C29.533 58.4095 29.4854 58.4095 29.4513 58.4027C29.7236 58.4639 29.6011 58.4231 29.533 58.4095C29.3288 58.3755 29.1179 58.3414 28.9137 58.2938C28.5122 58.1985 28.1107 58.076 27.7296 57.9331C27.6411 57.8991 27.5526 57.8651 27.4574 57.8242C27.7568 57.9467 27.4029 57.797 27.3417 57.7698C27.1443 57.6745 26.947 57.5792 26.7564 57.4704C26.3821 57.2662 26.0146 57.0348 25.6676 56.7898C25.5859 56.7286 25.4974 56.6673 25.4158 56.6061C25.3681 56.572 25.3205 56.538 25.2796 56.504C25.477 56.6469 25.3613 56.5652 25.3205 56.5312C25.1367 56.3815 24.953 56.2318 24.7761 56.0752C24.0411 55.4287 23.3673 54.7074 22.7549 53.9384C22.7072 53.8771 22.5371 53.6593 22.6664 53.8295C22.5847 53.7206 22.5031 53.6185 22.4214 53.5096C22.2581 53.2919 22.1015 53.0673 21.9518 52.8427C21.6524 52.4003 21.3666 51.9444 21.0943 51.4816C20.5091 50.4812 19.9919 49.4468 19.5291 48.3852C19.5087 48.3375 19.3522 47.9769 19.427 48.1538C19.3658 48.0041 19.3045 47.8612 19.2433 47.7114C19.1208 47.412 19.0051 47.1126 18.8962 46.8063C18.6784 46.2143 18.4743 45.6222 18.2837 45.0233C17.8822 43.7507 17.5419 42.4577 17.2629 41.1511C17.1132 40.4637 16.9839 39.7696 16.8614 39.0686C16.807 38.742 16.7525 38.4153 16.7049 38.0818C16.6777 37.9185 16.6572 37.7484 16.63 37.585C16.6028 37.3741 16.664 37.83 16.6164 37.4694C16.6028 37.3605 16.5892 37.2448 16.5756 37.1359C16.3918 35.6659 16.2761 34.1892 16.2149 32.7056C16.0992 29.7248 16.2149 26.7237 16.5892 23.7633C16.63 23.4367 16.6572 23.2665 16.7117 22.8718C16.7661 22.5043 16.8274 22.1437 16.8886 21.783C17.0111 21.0888 17.1472 20.3947 17.2969 19.7073C17.576 18.4211 17.9162 17.1485 18.3178 15.8963C18.5151 15.2838 18.7261 14.6714 18.9507 14.0725C19.0595 13.7867 19.1684 13.5008 19.2841 13.2218C19.3318 13.1061 19.3794 12.9836 19.427 12.8679C19.3454 13.0653 19.4679 12.7795 19.4747 12.7658C19.5087 12.6774 19.5495 12.5957 19.5904 12.5072C20.0531 11.466 20.5635 10.4452 21.142 9.46524C21.421 8.99571 21.7136 8.52614 22.0267 8.07698C22.1764 7.86602 22.3261 7.65505 22.4758 7.44408C22.5371 7.35561 22.6051 7.27395 22.6664 7.18548C22.5303 7.36242 22.646 7.2127 22.68 7.17187C22.7344 7.09701 22.7957 7.02895 22.8501 6.9541C23.449 6.21231 24.1091 5.51816 24.8237 4.89207C24.987 4.74915 25.1503 4.61985 25.3137 4.48375C25.5042 4.32722 25.1299 4.61305 25.3273 4.47013C25.3613 4.44291 25.4021 4.41569 25.4362 4.38847C25.5314 4.32042 25.6199 4.25236 25.7152 4.18431C26.0759 3.93251 26.4502 3.70113 26.8381 3.49697C27.0218 3.40169 27.2056 3.30642 27.3961 3.21795C27.437 3.19753 27.4778 3.18392 27.5118 3.1635C27.7092 3.06823 27.3417 3.23156 27.4778 3.17711C27.5867 3.13628 27.6956 3.08864 27.8044 3.04781C28.1855 2.9049 28.5666 2.79601 28.9614 2.70754C29.1451 2.66671 29.3357 2.63949 29.5194 2.60546C29.7372 2.56463 29.322 2.62588 29.465 2.61227C29.5194 2.60546 29.567 2.59866 29.6215 2.59185C29.7236 2.57824 29.8324 2.57143 29.9345 2.56463C30.3429 2.53741 30.758 2.53741 31.1731 2.57143C31.2684 2.57824 31.3637 2.59185 31.4589 2.59866C31.7516 2.62588 31.2684 2.56463 31.561 2.61227C31.772 2.64629 31.9761 2.68713 32.1803 2.73476C32.575 2.83004 32.9561 2.95254 33.3372 3.09545C33.3849 3.11587 33.6707 3.23156 33.5142 3.1635C33.3576 3.09545 33.6435 3.22475 33.6911 3.24517C33.8885 3.34044 34.0858 3.43572 34.2764 3.5446C34.6507 3.74876 35.0181 3.98015 35.3652 4.22514C35.4605 4.29319 35.5558 4.36125 35.6442 4.4293C35.6783 4.45652 35.7191 4.48375 35.7531 4.51097C35.549 4.36125 35.6919 4.46333 35.7395 4.50416C35.9233 4.65388 36.107 4.8036 36.2839 4.96012C36.6446 5.27997 36.9849 5.61344 37.3184 5.96051C37.6518 6.31439 37.9717 6.68869 38.2779 7.06979C38.3119 7.11062 38.346 7.15145 38.3732 7.19228C38.5433 7.40325 38.2439 7.02215 38.4072 7.23992C38.4685 7.32839 38.5365 7.41006 38.5978 7.49853C38.7611 7.7163 38.9176 7.94088 39.0673 8.16545C39.7002 9.09779 40.2651 10.0777 40.7687 11.0849C41.0341 11.6089 41.2791 12.1329 41.5105 12.6706C41.5377 12.725 41.5581 12.7863 41.5853 12.8407C41.7078 13.1197 41.5445 12.7318 41.6125 12.902C41.667 13.0313 41.7214 13.1674 41.7759 13.2967C41.8984 13.5961 42.0141 13.8955 42.123 14.2018C42.5789 15.4336 42.9668 16.6857 43.3003 17.9583C44.0217 20.7077 44.4436 23.3414 44.6682 26.0908C44.7975 27.5539 44.8519 29.0307 44.8587 30.5007ZM44.8587 30.5007C44.8587 31.0315 45.3283 31.5487 45.8795 31.5215C46.4308 31.4942 46.9003 31.0723 46.9003 30.5007C46.8935 24.6821 46.0565 18.7478 43.9672 13.2967C42.3748 9.14543 40.0269 4.95332 36.2771 2.38088C34.7391 1.32605 32.9629 0.659123 31.1051 0.523023C29.2744 0.386913 27.437 0.863293 25.8241 1.71396C22.0335 3.71474 19.4815 7.64824 17.7937 11.466C15.4663 16.7334 14.3842 22.5043 14.1529 28.2413C13.9147 34.1551 14.5612 40.2051 16.385 45.8468C17.7937 50.1954 19.9647 54.7074 23.5239 57.7017C24.9598 58.9063 26.6271 59.8863 28.4782 60.281C30.2612 60.6621 32.1395 60.5396 33.8476 59.8931C37.8152 58.3823 40.5917 54.789 42.47 51.1141C45.0084 46.1462 46.2606 40.5658 46.7166 35.033C46.8391 33.529 46.9003 32.0182 46.9003 30.5075C46.9003 29.9766 46.4308 29.4594 45.8795 29.4867C45.3215 29.5071 44.8587 29.929 44.8587 30.5007Z" fill="url(#paint3_linear_89_111)"/>
<path d="M58.4552 30.5013C58.4484 34.7478 57.4825 39.0141 55.6178 42.7911C55.1647 43.7148 54.6569 44.6088 54.1074 45.4773C54.0369 45.5886 54.1635 45.7229 54.2779 45.6576C54.3901 45.5934 54.3456 45.4179 54.2163 45.4179C53.9467 45.4179 53.6777 45.4179 53.4061 45.4179C52.2356 45.4179 51.065 45.4179 49.8877 45.4179C48.1455 45.4179 46.4033 45.4179 44.668 45.4179C42.5515 45.4179 40.4418 45.4179 38.3254 45.4179C36.0115 45.4179 33.6977 45.4179 31.3771 45.4179C29.0292 45.4179 26.6814 45.4179 24.3335 45.4179C22.1422 45.4179 19.9577 45.4179 17.7663 45.4179C15.9221 45.4179 14.0846 45.4179 12.2404 45.4179C10.9133 45.4179 9.58631 45.4179 8.26603 45.4179C7.63313 45.4179 7.00023 45.3907 6.36733 45.4179C6.34485 45.4179 6.33683 45.4477 6.35627 45.459C6.47366 45.5272 6.59113 45.5953 6.70913 45.6629C6.82833 45.7312 6.95698 45.5934 6.88354 45.4773C6.41532 44.7372 5.98011 43.9743 5.57791 43.1926C5.08112 42.233 4.70682 41.3824 4.34614 40.4228C3.97184 39.4156 3.64518 38.3948 3.38658 37.3536C3.25047 36.8091 3.12798 36.2579 3.01909 35.7067C2.97145 35.4549 2.92381 35.2099 2.88298 34.9581C2.86257 34.822 2.84215 34.6859 2.82173 34.5498C2.80132 34.4137 2.7809 34.2707 2.7741 34.2367C2.20245 29.8473 2.62438 25.5326 4.05351 21.3678C4.7533 19.3314 5.69838 17.3827 6.88335 15.5108C6.95373 15.3996 6.8272 15.2651 6.71296 15.3304C6.60087 15.3945 6.64528 15.5696 6.77438 15.5696H52.7255C53.3584 15.5696 53.9913 15.5968 54.6242 15.5696C54.6467 15.5696 54.6547 15.5398 54.6353 15.5285C54.5179 15.4603 54.4004 15.3922 54.2824 15.3246C54.1632 15.2563 54.0346 15.3941 54.108 15.5102C54.5763 16.2503 55.0115 17.0132 55.4137 17.7949C55.9105 18.7545 56.2848 19.6052 56.6454 20.5647C57.0197 21.5719 57.3464 22.5927 57.605 23.6339C57.7411 24.158 57.8568 24.6888 57.9589 25.2196C58.0133 25.485 58.061 25.7572 58.1018 26.0226C58.1222 26.1383 58.1358 26.254 58.1562 26.3697C58.1615 26.3985 58.1657 26.4283 58.1697 26.4583C58.1823 26.5535 58.2174 26.7778 58.2039 26.6827C58.3808 27.9554 58.4552 29.2287 58.4552 30.5013C58.4552 31.0321 58.9248 31.5493 59.476 31.5221C60.0273 31.4949 60.4968 31.0729 60.4968 30.5013C60.4832 25.2135 59.0886 19.959 56.4209 15.3858C56.2711 15.1272 56.1146 14.8686 55.9513 14.6168C55.7063 14.2289 55.4613 13.6913 54.9781 13.5824C54.8828 13.562 54.774 13.5484 54.6787 13.5484C54.5902 13.5416 54.5017 13.5484 54.4133 13.5484C53.9845 13.5484 53.549 13.5484 53.1203 13.5484C51.4121 13.5484 49.704 13.5484 47.9958 13.5484C45.4778 13.5484 42.953 13.5484 40.435 13.5484C37.4883 13.5484 34.5416 13.5484 31.588 13.5484C28.5937 13.5484 25.5993 13.5484 22.6049 13.5484C19.9509 13.5484 17.29 13.5484 14.6359 13.5484C12.6963 13.5484 10.7636 13.5484 8.82408 13.5484C7.99382 13.5484 7.14995 13.5075 6.3197 13.5484C6.08151 13.562 5.87054 13.6164 5.67319 13.7661C5.39417 13.9839 5.20362 14.365 5.01307 14.6713C4.84293 14.9435 4.6796 15.2157 4.51627 15.4947C3.84935 16.6516 3.27089 17.8562 2.75368 19.088C1.73968 21.5175 1.08636 24.0763 0.746101 26.6964C0.0587527 31.9909 0.834561 37.4148 2.92382 42.3283C3.42061 43.492 3.98545 44.6217 4.63196 45.7106C5.01306 46.3503 5.45541 47.4187 6.28567 47.4596H6.3197C6.58511 47.4664 6.85732 47.4596 7.12954 47.4596H54.6855C55.0258 47.446 55.2912 47.3235 55.5089 47.058C55.9105 46.5749 56.2235 45.9624 56.5366 45.4179C57.8228 43.1722 58.83 40.7427 59.4969 38.2383C60.1638 35.7203 60.4968 33.1077 60.5036 30.5013C60.5036 29.9705 60.0341 29.4533 59.4828 29.4805C58.9248 29.5077 58.4552 29.9296 58.4552 30.5013Z" fill="#5D56F1"/>
<path d="M58.4552 30.5013C58.4484 34.7478 57.4825 39.0141 55.6178 42.7911C55.1647 43.7148 54.6569 44.6088 54.1074 45.4773C54.0369 45.5886 54.1635 45.7229 54.2779 45.6576C54.3901 45.5934 54.3456 45.4179 54.2163 45.4179C53.9467 45.4179 53.6777 45.4179 53.4061 45.4179C52.2356 45.4179 51.065 45.4179 49.8877 45.4179C48.1455 45.4179 46.4033 45.4179 44.668 45.4179C42.5515 45.4179 40.4418 45.4179 38.3254 45.4179C36.0115 45.4179 33.6977 45.4179 31.3771 45.4179C29.0292 45.4179 26.6814 45.4179 24.3335 45.4179C22.1422 45.4179 19.9577 45.4179 17.7663 45.4179C15.9221 45.4179 14.0846 45.4179 12.2404 45.4179C10.9133 45.4179 9.58631 45.4179 8.26603 45.4179C7.63313 45.4179 7.00023 45.3907 6.36733 45.4179C6.34485 45.4179 6.33683 45.4477 6.35627 45.459C6.47366 45.5272 6.59113 45.5953 6.70913 45.6629C6.82833 45.7312 6.95698 45.5934 6.88354 45.4773C6.41532 44.7372 5.98011 43.9743 5.57791 43.1926C5.08112 42.233 4.70682 41.3824 4.34614 40.4228C3.97184 39.4156 3.64518 38.3948 3.38658 37.3536C3.25047 36.8091 3.12798 36.2579 3.01909 35.7067C2.97145 35.4549 2.92381 35.2099 2.88298 34.9581C2.86257 34.822 2.84215 34.6859 2.82173 34.5498C2.80132 34.4137 2.7809 34.2707 2.7741 34.2367C2.20245 29.8473 2.62438 25.5326 4.05351 21.3678C4.7533 19.3314 5.69838 17.3827 6.88335 15.5108C6.95373 15.3996 6.8272 15.2651 6.71296 15.3304C6.60087 15.3945 6.64528 15.5696 6.77438 15.5696H52.7255C53.3584 15.5696 53.9913 15.5968 54.6242 15.5696C54.6467 15.5696 54.6547 15.5398 54.6353 15.5285C54.5179 15.4603 54.4004 15.3922 54.2824 15.3246C54.1632 15.2563 54.0346 15.3941 54.108 15.5102C54.5763 16.2503 55.0115 17.0132 55.4137 17.7949C55.9105 18.7545 56.2848 19.6052 56.6454 20.5647C57.0197 21.5719 57.3464 22.5927 57.605 23.6339C57.7411 24.158 57.8568 24.6888 57.9589 25.2196C58.0133 25.485 58.061 25.7572 58.1018 26.0226C58.1222 26.1383 58.1358 26.254 58.1562 26.3697C58.1615 26.3985 58.1657 26.4283 58.1697 26.4583C58.1823 26.5535 58.2174 26.7778 58.2039 26.6827C58.3808 27.9554 58.4552 29.2287 58.4552 30.5013C58.4552 31.0321 58.9248 31.5493 59.476 31.5221C60.0273 31.4949 60.4968 31.0729 60.4968 30.5013C60.4832 25.2135 59.0886 19.959 56.4209 15.3858C56.2711 15.1272 56.1146 14.8686 55.9513 14.6168C55.7063 14.2289 55.4613 13.6913 54.9781 13.5824C54.8828 13.562 54.774 13.5484 54.6787 13.5484C54.5902 13.5416 54.5017 13.5484 54.4133 13.5484C53.9845 13.5484 53.549 13.5484 53.1203 13.5484C51.4121 13.5484 49.704 13.5484 47.9958 13.5484C45.4778 13.5484 42.953 13.5484 40.435 13.5484C37.4883 13.5484 34.5416 13.5484 31.588 13.5484C28.5937 13.5484 25.5993 13.5484 22.6049 13.5484C19.9509 13.5484 17.29 13.5484 14.6359 13.5484C12.6963 13.5484 10.7636 13.5484 8.82408 13.5484C7.99382 13.5484 7.14995 13.5075 6.3197 13.5484C6.08151 13.562 5.87054 13.6164 5.67319 13.7661C5.39417 13.9839 5.20362 14.365 5.01307 14.6713C4.84293 14.9435 4.6796 15.2157 4.51627 15.4947C3.84935 16.6516 3.27089 17.8562 2.75368 19.088C1.73968 21.5175 1.08636 24.0763 0.746101 26.6964C0.0587527 31.9909 0.834561 37.4148 2.92382 42.3283C3.42061 43.492 3.98545 44.6217 4.63196 45.7106C5.01306 46.3503 5.45541 47.4187 6.28567 47.4596H6.3197C6.58511 47.4664 6.85732 47.4596 7.12954 47.4596H54.6855C55.0258 47.446 55.2912 47.3235 55.5089 47.058C55.9105 46.5749 56.2235 45.9624 56.5366 45.4179C57.8228 43.1722 58.83 40.7427 59.4969 38.2383C60.1638 35.7203 60.4968 33.1077 60.5036 30.5013C60.5036 29.9705 60.0341 29.4533 59.4828 29.4805C58.9248 29.5077 58.4552 29.9296 58.4552 30.5013Z" fill="url(#paint4_linear_89_111)"/>
<path d="M58.4552 30.5013C58.4484 34.7478 57.4825 39.0141 55.6178 42.7911C55.1647 43.7148 54.6569 44.6088 54.1074 45.4773C54.0369 45.5886 54.1635 45.7229 54.2779 45.6576C54.3901 45.5934 54.3456 45.4179 54.2163 45.4179C53.9467 45.4179 53.6777 45.4179 53.4061 45.4179C52.2356 45.4179 51.065 45.4179 49.8877 45.4179C48.1455 45.4179 46.4033 45.4179 44.668 45.4179C42.5515 45.4179 40.4418 45.4179 38.3254 45.4179C36.0115 45.4179 33.6977 45.4179 31.3771 45.4179C29.0292 45.4179 26.6814 45.4179 24.3335 45.4179C22.1422 45.4179 19.9577 45.4179 17.7663 45.4179C15.9221 45.4179 14.0846 45.4179 12.2404 45.4179C10.9133 45.4179 9.58631 45.4179 8.26603 45.4179C7.63313 45.4179 7.00023 45.3907 6.36733 45.4179C6.34485 45.4179 6.33683 45.4477 6.35627 45.459C6.47366 45.5272 6.59113 45.5953 6.70913 45.6629C6.82833 45.7312 6.95698 45.5934 6.88354 45.4773C6.41532 44.7372 5.98011 43.9743 5.57791 43.1926C5.08112 42.233 4.70682 41.3824 4.34614 40.4228C3.97184 39.4156 3.64518 38.3948 3.38658 37.3536C3.25047 36.8091 3.12798 36.2579 3.01909 35.7067C2.97145 35.4549 2.92381 35.2099 2.88298 34.9581C2.86257 34.822 2.84215 34.6859 2.82173 34.5498C2.80132 34.4137 2.7809 34.2707 2.7741 34.2367C2.20245 29.8473 2.62438 25.5326 4.05351 21.3678C4.7533 19.3314 5.69838 17.3827 6.88335 15.5108C6.95373 15.3996 6.8272 15.2651 6.71296 15.3304C6.60087 15.3945 6.64528 15.5696 6.77438 15.5696H52.7255C53.3584 15.5696 53.9913 15.5968 54.6242 15.5696C54.6467 15.5696 54.6547 15.5398 54.6353 15.5285C54.5179 15.4603 54.4004 15.3922 54.2824 15.3246C54.1632 15.2563 54.0346 15.3941 54.108 15.5102C54.5763 16.2503 55.0115 17.0132 55.4137 17.7949C55.9105 18.7545 56.2848 19.6052 56.6454 20.5647C57.0197 21.5719 57.3464 22.5927 57.605 23.6339C57.7411 24.158 57.8568 24.6888 57.9589 25.2196C58.0133 25.485 58.061 25.7572 58.1018 26.0226C58.1222 26.1383 58.1358 26.254 58.1562 26.3697C58.1615 26.3985 58.1657 26.4283 58.1697 26.4583C58.1823 26.5535 58.2174 26.7778 58.2039 26.6827C58.3808 27.9554 58.4552 29.2287 58.4552 30.5013ZM58.4552 30.5013C58.4552 31.0321 58.9248 31.5493 59.476 31.5221C60.0273 31.4949 60.4968 31.0729 60.4968 30.5013C60.4832 25.2135 59.0886 19.959 56.4209 15.3858C56.2711 15.1272 56.1146 14.8686 55.9513 14.6168C55.7063 14.2289 55.4613 13.6913 54.9781 13.5824C54.8828 13.562 54.774 13.5484 54.6787 13.5484C54.5902 13.5416 54.5017 13.5484 54.4133 13.5484C53.9845 13.5484 53.549 13.5484 53.1203 13.5484C51.4121 13.5484 49.704 13.5484 47.9958 13.5484C45.4778 13.5484 42.953 13.5484 40.435 13.5484C37.4883 13.5484 34.5416 13.5484 31.588 13.5484C28.5937 13.5484 25.5993 13.5484 22.6049 13.5484C19.9509 13.5484 17.29 13.5484 14.6359 13.5484C12.6963 13.5484 10.7636 13.5484 8.82408 13.5484C7.99382 13.5484 7.14995 13.5075 6.3197 13.5484C6.08151 13.562 5.87054 13.6164 5.67319 13.7661C5.39417 13.9839 5.20362 14.365 5.01307 14.6713C4.84293 14.9435 4.6796 15.2157 4.51627 15.4947C3.84935 16.6516 3.27089 17.8562 2.75368 19.088C1.73968 21.5175 1.08636 24.0763 0.746101 26.6964C0.0587527 31.9909 0.834561 37.4148 2.92382 42.3283C3.42061 43.492 3.98545 44.6217 4.63196 45.7106C5.01306 46.3503 5.45541 47.4187 6.28567 47.4596H6.3197C6.58511 47.4664 6.85732 47.4596 7.12954 47.4596H54.6855C55.0258 47.446 55.2912 47.3235 55.5089 47.058C55.9105 46.5749 56.2235 45.9624 56.5366 45.4179C57.8228 43.1722 58.83 40.7427 59.4969 38.2383C60.1638 35.7203 60.4968 33.1077 60.5036 30.5013C60.5036 29.9705 60.0341 29.4533 59.4828 29.4805C58.9248 29.5077 58.4552 29.9296 58.4552 30.5013Z" fill="#5D56F1"/>
<path d="M58.4552 30.5013C58.4484 34.7478 57.4825 39.0141 55.6178 42.7911C55.1647 43.7148 54.6569 44.6088 54.1074 45.4773C54.0369 45.5886 54.1635 45.7229 54.2779 45.6576C54.3901 45.5934 54.3456 45.4179 54.2163 45.4179C53.9467 45.4179 53.6777 45.4179 53.4061 45.4179C52.2356 45.4179 51.065 45.4179 49.8877 45.4179C48.1455 45.4179 46.4033 45.4179 44.668 45.4179C42.5515 45.4179 40.4418 45.4179 38.3254 45.4179C36.0115 45.4179 33.6977 45.4179 31.3771 45.4179C29.0292 45.4179 26.6814 45.4179 24.3335 45.4179C22.1422 45.4179 19.9577 45.4179 17.7663 45.4179C15.9221 45.4179 14.0846 45.4179 12.2404 45.4179C10.9133 45.4179 9.58631 45.4179 8.26603 45.4179C7.63313 45.4179 7.00023 45.3907 6.36733 45.4179C6.34485 45.4179 6.33683 45.4477 6.35627 45.459C6.47366 45.5272 6.59113 45.5953 6.70913 45.6629C6.82833 45.7312 6.95698 45.5934 6.88354 45.4773C6.41532 44.7372 5.98011 43.9743 5.57791 43.1926C5.08112 42.233 4.70682 41.3824 4.34614 40.4228C3.97184 39.4156 3.64518 38.3948 3.38658 37.3536C3.25047 36.8091 3.12798 36.2579 3.01909 35.7067C2.97145 35.4549 2.92381 35.2099 2.88298 34.9581C2.86257 34.822 2.84215 34.6859 2.82173 34.5498C2.80132 34.4137 2.7809 34.2707 2.7741 34.2367C2.20245 29.8473 2.62438 25.5326 4.05351 21.3678C4.7533 19.3314 5.69838 17.3827 6.88335 15.5108C6.95373 15.3996 6.8272 15.2651 6.71296 15.3304C6.60087 15.3945 6.64528 15.5696 6.77438 15.5696H52.7255C53.3584 15.5696 53.9913 15.5968 54.6242 15.5696C54.6467 15.5696 54.6547 15.5398 54.6353 15.5285C54.5179 15.4603 54.4004 15.3922 54.2824 15.3246C54.1632 15.2563 54.0346 15.3941 54.108 15.5102C54.5763 16.2503 55.0115 17.0132 55.4137 17.7949C55.9105 18.7545 56.2848 19.6052 56.6454 20.5647C57.0197 21.5719 57.3464 22.5927 57.605 23.6339C57.7411 24.158 57.8568 24.6888 57.9589 25.2196C58.0133 25.485 58.061 25.7572 58.1018 26.0226C58.1222 26.1383 58.1358 26.254 58.1562 26.3697C58.1615 26.3985 58.1657 26.4283 58.1697 26.4583C58.1823 26.5535 58.2174 26.7778 58.2039 26.6827C58.3808 27.9554 58.4552 29.2287 58.4552 30.5013ZM58.4552 30.5013C58.4552 31.0321 58.9248 31.5493 59.476 31.5221C60.0273 31.4949 60.4968 31.0729 60.4968 30.5013C60.4832 25.2135 59.0886 19.959 56.4209 15.3858C56.2711 15.1272 56.1146 14.8686 55.9513 14.6168C55.7063 14.2289 55.4613 13.6913 54.9781 13.5824C54.8828 13.562 54.774 13.5484 54.6787 13.5484C54.5902 13.5416 54.5017 13.5484 54.4133 13.5484C53.9845 13.5484 53.549 13.5484 53.1203 13.5484C51.4121 13.5484 49.704 13.5484 47.9958 13.5484C45.4778 13.5484 42.953 13.5484 40.435 13.5484C37.4883 13.5484 34.5416 13.5484 31.588 13.5484C28.5937 13.5484 25.5993 13.5484 22.6049 13.5484C19.9509 13.5484 17.29 13.5484 14.6359 13.5484C12.6963 13.5484 10.7636 13.5484 8.82408 13.5484C7.99382 13.5484 7.14995 13.5075 6.3197 13.5484C6.08151 13.562 5.87054 13.6164 5.67319 13.7661C5.39417 13.9839 5.20362 14.365 5.01307 14.6713C4.84293 14.9435 4.6796 15.2157 4.51627 15.4947C3.84935 16.6516 3.27089 17.8562 2.75368 19.088C1.73968 21.5175 1.08636 24.0763 0.746101 26.6964C0.0587527 31.9909 0.834561 37.4148 2.92382 42.3283C3.42061 43.492 3.98545 44.6217 4.63196 45.7106C5.01306 46.3503 5.45541 47.4187 6.28567 47.4596H6.3197C6.58511 47.4664 6.85732 47.4596 7.12954 47.4596H54.6855C55.0258 47.446 55.2912 47.3235 55.5089 47.058C55.9105 46.5749 56.2235 45.9624 56.5366 45.4179C57.8228 43.1722 58.83 40.7427 59.4969 38.2383C60.1638 35.7203 60.4968 33.1077 60.5036 30.5013C60.5036 29.9705 60.0341 29.4533 59.4828 29.4805C58.9248 29.5077 58.4552 29.9296 58.4552 30.5013Z" fill="url(#paint5_linear_89_111)"/>
<path d="M1.52183 31.5212H57.1285C57.8771 31.5212 58.6325 31.5349 59.3811 31.5212L59.476 31.5221C60.0068 31.5221 60.524 31.0526 60.4968 30.5013C60.4696 29.9501 60.048 29.4796 59.4764 29.4796C58.9592 29.4796 58.442 29.4796 57.9248 29.4796C56.5229 29.4796 55.121 29.4796 53.7122 29.4796C51.6298 29.4796 49.5474 29.4796 47.4649 29.4796C44.9333 29.4796 42.4017 29.4796 39.8701 29.4796C37.0867 29.4796 34.3033 29.4796 31.5199 29.4796C28.7229 29.4796 25.9191 29.4796 23.1221 29.4796C20.502 29.4796 17.8819 29.4796 15.2619 29.4796C13.0569 29.4796 10.852 29.4796 8.64706 29.4796C7.0546 29.4796 5.46215 29.4796 3.86969 29.4796C3.1211 29.4796 2.3657 29.466 1.61711 29.4796C1.58308 29.4796 1.54905 29.4796 1.52183 29.4796C0.991011 29.4796 0.473811 29.9492 0.501031 30.5004C0.521441 31.0517 0.950181 31.5212 1.52183 31.5212Z" fill="#5D56F1"/>
<path d="M1.52183 31.5212H57.1285C57.8771 31.5212 58.6325 31.5349 59.3811 31.5212L59.476 31.5221C60.0068 31.5221 60.524 31.0526 60.4968 30.5013C60.4696 29.9501 60.048 29.4796 59.4764 29.4796C58.9592 29.4796 58.442 29.4796 57.9248 29.4796C56.5229 29.4796 55.121 29.4796 53.7122 29.4796C51.6298 29.4796 49.5474 29.4796 47.4649 29.4796C44.9333 29.4796 42.4017 29.4796 39.8701 29.4796C37.0867 29.4796 34.3033 29.4796 31.5199 29.4796C28.7229 29.4796 25.9191 29.4796 23.1221 29.4796C20.502 29.4796 17.8819 29.4796 15.2619 29.4796C13.0569 29.4796 10.852 29.4796 8.64706 29.4796C7.0546 29.4796 5.46215 29.4796 3.86969 29.4796C3.1211 29.4796 2.3657 29.466 1.61711 29.4796C1.58308 29.4796 1.54905 29.4796 1.52183 29.4796C0.991011 29.4796 0.473811 29.9492 0.501031 30.5004C0.521441 31.0517 0.950181 31.5212 1.52183 31.5212Z" fill="url(#paint6_linear_89_111)"/>
<path d="M31.5203 59.4783C31.5203 58.9611 31.5203 58.4439 31.5203 57.9267C31.5203 56.5248 31.5203 55.1229 31.5203 53.7142C31.5203 51.6317 31.5203 49.5493 31.5203 47.4668C31.5203 44.9352 31.5203 42.4036 31.5203 39.872C31.5203 37.0886 31.5203 34.3052 31.5203 31.5218C31.5203 28.7248 31.5203 25.921 31.5203 23.124C31.5203 20.5039 31.5203 17.8839 31.5203 15.2638C31.5203 13.0589 31.5203 10.8539 31.5203 8.64901C31.5203 7.05655 31.5203 5.4641 31.5203 3.87164C31.5203 3.12305 31.5339 2.36765 31.5203 1.61906C31.5203 1.58503 31.5203 1.551 31.5203 1.52378C31.5203 0.992963 31.0507 0.475763 30.4995 0.502983C29.9483 0.530203 29.4787 0.952133 29.4787 1.52378V57.1305C29.4787 57.8791 29.4651 58.6345 29.4787 59.383V59.4783C29.4787 60.0091 29.9483 60.5263 30.4995 60.4991C31.0507 60.4787 31.5203 60.05 31.5203 59.4783Z" fill="#5D56F1"/>
<path d="M31.5203 59.4783C31.5203 58.9611 31.5203 58.4439 31.5203 57.9267C31.5203 56.5248 31.5203 55.1229 31.5203 53.7142C31.5203 51.6317 31.5203 49.5493 31.5203 47.4668C31.5203 44.9352 31.5203 42.4036 31.5203 39.872C31.5203 37.0886 31.5203 34.3052 31.5203 31.5218C31.5203 28.7248 31.5203 25.921 31.5203 23.124C31.5203 20.5039 31.5203 17.8839 31.5203 15.2638C31.5203 13.0589 31.5203 10.8539 31.5203 8.64901C31.5203 7.05655 31.5203 5.4641 31.5203 3.87164C31.5203 3.12305 31.5339 2.36765 31.5203 1.61906C31.5203 1.58503 31.5203 1.551 31.5203 1.52378C31.5203 0.992963 31.0507 0.475763 30.4995 0.502983C29.9483 0.530203 29.4787 0.952133 29.4787 1.52378V57.1305C29.4787 57.8791 29.4651 58.6345 29.4787 59.383V59.4783C29.4787 60.0091 29.9483 60.5263 30.4995 60.4991C31.0507 60.4787 31.5203 60.05 31.5203 59.4783Z" fill="url(#paint7_linear_89_111)"/>
<path d="M58.4552 30.5013C58.4552 31.3384 58.4212 32.1754 58.3463 33.0125C58.2715 33.8632 58.1898 34.4892 58.0469 35.3127C57.7747 36.8711 57.3664 38.4023 56.8423 39.8927C56.3319 41.3286 55.7535 42.6149 54.9913 43.9964C54.3039 45.2349 53.4328 46.562 52.6298 47.6032C51.8812 48.5696 50.8808 49.6857 49.9281 50.6112C49.4517 51.0739 48.9617 51.5163 48.4513 51.945C48.2664 52.1 48.0778 52.2549 47.8882 52.4072C47.7553 52.5139 47.4392 52.7579 47.5734 52.6528C47.519 52.6936 47.4645 52.7345 47.4169 52.7753C47.2604 52.8978 47.097 53.0135 46.9337 53.1292C45.8244 53.9254 44.6607 54.6536 43.4562 55.2865C42.8301 55.6131 42.1972 55.9194 41.5507 56.1984C41.3601 56.2801 41.0947 56.3889 40.768 56.5182C40.421 56.6544 40.0739 56.7837 39.72 56.9062C38.3998 57.3621 37.0387 57.7296 35.664 57.9882C35.3237 58.0495 34.9835 58.1107 34.6432 58.1651C34.5082 58.1921 34.3699 58.206 34.2339 58.2275C34.224 58.229 34.238 58.2273 34.2961 58.2196C34.1056 58.2468 33.915 58.2672 33.7245 58.2876C33.0099 58.3693 32.2885 58.4169 31.5672 58.4442C30.0972 58.4986 28.6273 58.4442 27.1709 58.274C26.5993 58.206 25.9459 58.1107 25.2314 57.9678C24.5236 57.8317 23.8227 57.6684 23.1285 57.4778C22.4548 57.2941 21.7947 57.0899 21.1345 56.8585C20.8351 56.7496 20.5289 56.6407 20.2294 56.5251C19.8211 56.3617 19.6578 56.2937 19.3515 56.1644C18.0993 55.6131 16.8812 54.9734 15.7175 54.2453C15.1254 53.8778 14.5469 53.4831 13.9821 53.0747C13.4308 52.6732 13.0497 52.3806 12.4645 51.8838C11.4301 51.0059 10.4569 50.0531 9.55181 49.0391C8.60585 47.9775 7.95934 47.1336 7.16311 45.9291C6.29883 44.6225 5.55024 43.2478 4.91053 41.8254C4.63151 41.1993 4.35929 40.5188 4.1075 39.7906C3.84209 39.0284 3.6107 38.2594 3.40654 37.4768C3.00503 35.9116 2.75323 34.4416 2.63073 32.9036C2.12033 26.5474 3.70598 20.2932 7.22436 14.9987C7.4081 14.7196 7.59865 14.4474 7.7892 14.1752C7.88448 14.0391 7.98656 13.903 8.08184 13.7737C8.14308 13.692 8.19753 13.6172 8.25877 13.5355C8.27919 13.5083 8.44932 13.2837 8.34044 13.4266C8.75557 12.889 9.19791 12.3718 9.64711 11.8614C10.5658 10.8406 11.5594 9.88104 12.6142 8.99635C12.866 8.78539 13.1246 8.57442 13.39 8.37026C13.4104 8.35665 13.5397 8.25457 13.4172 8.34984C13.4989 8.28859 13.5738 8.22735 13.6554 8.1729C13.7983 8.06402 13.9481 7.95513 14.0978 7.84625C14.649 7.44473 15.2207 7.07043 15.7991 6.70975C16.889 6.03417 18.0265 5.43022 19.2007 4.90908C19.3582 4.83917 19.728 4.68265 19.5693 4.7498C19.6305 4.72258 19.6918 4.69536 19.753 4.67494C19.9096 4.61369 20.0661 4.54564 20.2226 4.48439C20.5697 4.34828 20.9168 4.21898 21.2706 4.09648C21.9444 3.8651 22.6249 3.65413 23.3191 3.47039C23.9792 3.29345 24.6529 3.14373 25.3266 3.01443C25.6669 2.95318 26.0072 2.89193 26.3475 2.83749C26.4495 2.82388 26.5516 2.81027 26.6537 2.78985C26.6809 2.78305 26.8511 2.76263 26.6945 2.78305C26.8987 2.75582 27.1097 2.7286 27.3206 2.70819C28.7634 2.55166 30.2197 2.50403 31.6693 2.55847C32.4042 2.58569 33.146 2.64694 33.8742 2.7286C34.0151 2.74269 34.4311 2.80069 34.2905 2.78437C34.2838 2.7836 34.2647 2.78113 34.2281 2.77624C34.3982 2.79666 34.5752 2.82388 34.7453 2.8511C35.106 2.90554 35.4599 2.96679 35.8205 3.04165C37.2088 3.31386 38.5767 3.68816 39.9174 4.15773C40.2372 4.27342 40.5503 4.38911 40.8633 4.51161C41.0198 4.57286 41.1764 4.63411 41.3329 4.70216C41.3533 4.70897 41.5098 4.77702 41.3669 4.71577C41.4758 4.76341 41.5847 4.81105 41.6936 4.85868C42.3197 5.13771 42.939 5.43714 43.5446 5.75699C44.7628 6.4035 45.9401 7.13849 47.0562 7.95513C47.1066 7.99155 47.1559 8.02797 47.205 8.06439C47.3424 8.16638 47.6605 8.40767 47.5258 8.30221C47.5802 8.34304 47.6279 8.38387 47.6823 8.4247C47.9681 8.64928 48.254 8.88066 48.533 9.11885C49.0638 9.56804 49.581 10.0375 50.0778 10.5275C50.5542 10.9903 51.0101 11.4735 51.4457 11.9703C51.6634 12.2153 51.8812 12.4671 52.0922 12.7257C52.2011 12.855 52.3032 12.9843 52.4052 13.1136C52.4665 13.1884 52.5277 13.2701 52.589 13.3449C52.7183 13.5083 52.5345 13.2701 52.6706 13.4538C53.5485 14.6107 54.3448 15.8289 55.0457 17.1083C56.5429 19.8441 57.5569 22.7772 58.0877 25.9213C58.217 26.6835 58.2919 27.296 58.3599 28.1058C58.428 28.902 58.4552 29.7051 58.4552 30.5013ZM58.4552 30.5013C58.4552 31.0321 58.9248 31.5493 59.476 31.5221M58.4552 30.5013C58.4552 29.9296 58.9248 29.5077 59.4828 29.4805C60.0341 29.4533 60.5036 29.9705 60.5036 30.5013M58.4552 30.5013C58.4484 34.7478 57.4825 39.0141 55.6178 42.7911C55.1647 43.7148 54.6569 44.6088 54.1074 45.4773C54.0369 45.5886 54.1635 45.7229 54.2779 45.6576C54.3901 45.5934 54.3456 45.4179 54.2163 45.4179C53.9467 45.4179 53.6777 45.4179 53.4061 45.4179C52.2356 45.4179 51.065 45.4179 49.8877 45.4179C48.1455 45.4179 46.4033 45.4179 44.668 45.4179C42.5515 45.4179 40.4418 45.4179 38.3254 45.4179C36.0115 45.4179 33.6977 45.4179 31.3771 45.4179C29.0292 45.4179 26.6814 45.4179 24.3335 45.4179C22.1422 45.4179 19.9577 45.4179 17.7663 45.4179C15.9221 45.4179 14.0846 45.4179 12.2404 45.4179C10.9133 45.4179 9.58631 45.4179 8.26603 45.4179C7.63313 45.4179 7.00023 45.3907 6.36733 45.4179C6.34485 45.4179 6.33683 45.4477 6.35627 45.459C6.47366 45.5272 6.59113 45.5953 6.70913 45.6629C6.82833 45.7312 6.95698 45.5934 6.88354 45.4773C6.41532 44.7372 5.98011 43.9743 5.57791 43.1926C5.08112 42.233 4.70682 41.3824 4.34614 40.4228C3.97184 39.4156 3.64518 38.3948 3.38658 37.3536C3.25047 36.8091 3.12798 36.2579 3.01909 35.7067C2.97145 35.4549 2.92381 35.2099 2.88298 34.9581C2.86257 34.822 2.84215 34.6859 2.82173 34.5498C2.80132 34.4137 2.7809 34.2707 2.7741 34.2367C2.20245 29.8473 2.62438 25.5326 4.05351 21.3678C4.7533 19.3314 5.69838 17.3827 6.88335 15.5108C6.95373 15.3996 6.8272 15.2651 6.71296 15.3304C6.60087 15.3945 6.64528 15.5696 6.77438 15.5696H52.7255C53.3584 15.5696 53.9913 15.5968 54.6242 15.5696C54.6467 15.5696 54.6547 15.5398 54.6353 15.5285C54.5179 15.4603 54.4004 15.3922 54.2824 15.3246C54.1632 15.2563 54.0346 15.3941 54.108 15.5102C54.5763 16.2503 55.0115 17.0132 55.4137 17.7949C55.9105 18.7545 56.2848 19.6052 56.6454 20.5647C57.0197 21.5719 57.3464 22.5927 57.605 23.6339C57.7411 24.158 57.8568 24.6888 57.9589 25.2196C58.0133 25.485 58.061 25.7572 58.1018 26.0226C58.1222 26.1383 58.1358 26.254 58.1562 26.3697C58.1615 26.3985 58.1657 26.4283 58.1697 26.4583C58.1823 26.5535 58.2174 26.7778 58.2039 26.6827C58.3808 27.9554 58.4552 29.2287 58.4552 30.5013ZM59.476 31.5221C60.0273 31.4949 60.4968 31.0729 60.4968 30.5013M59.476 31.5221L59.3811 31.5212C58.6325 31.5349 57.8771 31.5212 57.1285 31.5212H1.52183C0.950181 31.5212 0.521441 31.0517 0.501031 30.5004C0.473811 29.9492 0.991011 29.4796 1.52183 29.4796C1.54905 29.4796 1.58308 29.4796 1.61711 29.4796C2.3657 29.466 3.1211 29.4796 3.86969 29.4796C5.46215 29.4796 7.0546 29.4796 8.64706 29.4796C10.852 29.4796 13.0569 29.4796 15.2619 29.4796C17.8819 29.4796 20.502 29.4796 23.1221 29.4796C25.9191 29.4796 28.7229 29.4796 31.5199 29.4796C34.3033 29.4796 37.0867 29.4796 39.8701 29.4796C42.4017 29.4796 44.9333 29.4796 47.4649 29.4796C49.5474 29.4796 51.6298 29.4796 53.7122 29.4796C55.121 29.4796 56.5229 29.4796 57.9248 29.4796C58.442 29.4796 58.9592 29.4796 59.4764 29.4796C60.048 29.4796 60.4696 29.9501 60.4968 30.5013M59.476 31.5221C60.0068 31.5221 60.524 31.0526 60.4968 30.5013M60.4968 30.5013C60.4832 23.9409 58.3191 17.469 54.3107 12.2697C50.7379 7.63528 45.8857 4.10329 40.3597 2.16376C34.684 0.17659 28.3823 -0.027572 22.5841 1.55808C16.9969 3.08248 11.8792 6.2674 8.04781 10.6024C3.76042 15.4546 1.14035 21.5931 0.602731 28.0446C0.0446879 34.6866 1.77325 41.4784 5.46857 47.0316C8.65349 51.8362 13.2131 55.7152 18.5077 58.0018C24.1017 60.4177 30.3218 61.0983 36.3105 59.9345C42.0202 58.8253 47.3625 55.9806 51.5137 51.911C55.9917 47.5147 59.0609 41.7029 60.0817 35.5101C60.3539 33.8563 60.4968 32.1822 60.5036 30.5013M60.4968 30.5013C60.4832 25.2135 59.0886 19.959 56.4209 15.3858C56.2711 15.1272 56.1146 14.8686 55.9513 14.6168C55.7063 14.2289 55.4613 13.6913 54.9781 13.5824C54.8828 13.562 54.774 13.5484 54.6787 13.5484C54.5902 13.5416 54.5017 13.5484 54.4133 13.5484C53.9845 13.5484 53.549 13.5484 53.1203 13.5484C51.4121 13.5484 49.704 13.5484 47.9958 13.5484C45.4778 13.5484 42.953 13.5484 40.435 13.5484C37.4883 13.5484 34.5416 13.5484 31.588 13.5484C28.5937 13.5484 25.5993 13.5484 22.6049 13.5484C19.9509 13.5484 17.29 13.5484 14.6359 13.5484C12.6963 13.5484 10.7636 13.5484 8.82408 13.5484C7.99382 13.5484 7.14995 13.5075 6.3197 13.5484C6.08151 13.562 5.87054 13.6164 5.67319 13.7661C5.39417 13.9839 5.20362 14.365 5.01307 14.6713C4.84293 14.9435 4.6796 15.2157 4.51627 15.4947C3.84935 16.6516 3.27089 17.8562 2.75368 19.088C1.73968 21.5175 1.08636 24.0763 0.746101 26.6964C0.0587527 31.9909 0.834561 37.4148 2.92382 42.3283C3.42061 43.492 3.98545 44.6217 4.63196 45.7106C5.01306 46.3503 5.45541 47.4187 6.28567 47.4596H6.3197C6.58511 47.4664 6.85732 47.4596 7.12954 47.4596H54.6855C55.0258 47.446 55.2912 47.3235 55.5089 47.058C55.9105 46.5749 56.2235 45.9624 56.5366 45.4179C57.8228 43.1722 58.83 40.7427 59.4969 38.2383C60.1638 35.7203 60.4968 33.1077 60.5036 30.5013M44.8587 30.5007C44.8587 32.0319 44.7975 33.5631 44.6682 35.0875C44.6069 35.8088 44.5321 36.5234 44.4436 37.2448C44.4368 37.3196 44.4232 37.3945 44.4164 37.4694C44.3687 37.83 44.43 37.3809 44.4028 37.585C44.3823 37.7484 44.3551 37.9185 44.3279 38.0818C44.2735 38.4493 44.2122 38.81 44.151 39.1775C43.7018 41.8044 43.0349 44.3972 42.1025 46.8948C42.0005 47.167 41.8984 47.4392 41.7895 47.7046C41.7282 47.8544 41.667 47.9973 41.6057 48.147C41.6738 47.9837 41.6125 48.1334 41.5989 48.1674C41.5649 48.2559 41.5241 48.3375 41.4901 48.426C41.2519 48.9704 40.9933 49.5149 40.7279 50.0457C40.2243 51.0325 39.6662 51.992 39.0401 52.9108C38.904 53.1149 38.7611 53.3123 38.6114 53.5096C38.5297 53.6185 38.448 53.7274 38.3664 53.8295C38.4957 53.6593 38.4072 53.775 38.38 53.8091C38.3324 53.8703 38.2847 53.9316 38.2303 53.9928C37.9172 54.3807 37.5838 54.7618 37.2435 55.1225C36.91 55.4696 36.5698 55.803 36.2091 56.1161C36.0458 56.259 35.8824 56.3883 35.7191 56.5244C35.5762 56.6333 35.7395 56.5108 35.7599 56.4972C35.7123 56.5312 35.6647 56.5652 35.6238 56.5993C35.5217 56.6741 35.4197 56.749 35.3176 56.8238C34.9637 57.0688 34.603 57.2934 34.2287 57.4976C34.045 57.5929 33.8612 57.6881 33.6707 57.7766C33.6026 57.8038 33.3032 57.9331 33.589 57.8174C33.4801 57.8583 33.3712 57.9059 33.2624 57.9467C32.8744 58.0896 32.4797 58.2121 32.0714 58.3006C31.8877 58.3414 31.6971 58.3755 31.5134 58.4027C31.4887 58.4074 31.4724 58.4107 31.4626 58.4129C31.4239 58.4213 31.4777 58.4107 31.4385 58.4163C31.3228 58.4299 31.2071 58.4367 31.0914 58.4503C30.6899 58.4775 30.2884 58.4775 29.8869 58.4435C29.7848 58.4367 29.6759 58.4231 29.5738 58.4163C29.533 58.4095 29.4854 58.4095 29.4513 58.4027C29.7236 58.4639 29.6011 58.4231 29.533 58.4095C29.3288 58.3755 29.1179 58.3414 28.9137 58.2938C28.5122 58.1985 28.1107 58.076 27.7296 57.9331C27.6411 57.8991 27.5526 57.8651 27.4574 57.8242C27.7568 57.9467 27.4029 57.797 27.3417 57.7698C27.1443 57.6745 26.947 57.5792 26.7564 57.4704C26.3821 57.2662 26.0146 57.0348 25.6676 56.7898C25.5859 56.7286 25.4974 56.6673 25.4158 56.6061C25.3681 56.572 25.3205 56.538 25.2796 56.504C25.477 56.6469 25.3613 56.5652 25.3205 56.5312C25.1367 56.3815 24.953 56.2318 24.7761 56.0752C24.0411 55.4287 23.3673 54.7074 22.7549 53.9384C22.7072 53.8771 22.5371 53.6593 22.6664 53.8295C22.5847 53.7206 22.5031 53.6185 22.4214 53.5096C22.2581 53.2919 22.1015 53.0673 21.9518 52.8427C21.6524 52.4003 21.3666 51.9444 21.0943 51.4816C20.5091 50.4812 19.9919 49.4468 19.5291 48.3852C19.5087 48.3375 19.3522 47.9769 19.427 48.1538C19.3658 48.0041 19.3045 47.8612 19.2433 47.7114C19.1208 47.412 19.0051 47.1126 18.8962 46.8063C18.6784 46.2143 18.4743 45.6222 18.2837 45.0233C17.8822 43.7507 17.5419 42.4577 17.2629 41.1511C17.1132 40.4637 16.9839 39.7696 16.8614 39.0686C16.807 38.742 16.7525 38.4153 16.7049 38.0818C16.6777 37.9185 16.6572 37.7484 16.63 37.585C16.6028 37.3741 16.664 37.83 16.6164 37.4694C16.6028 37.3605 16.5892 37.2448 16.5756 37.1359C16.3918 35.6659 16.2761 34.1892 16.2149 32.7056C16.0992 29.7248 16.2149 26.7237 16.5892 23.7633C16.63 23.4367 16.6572 23.2665 16.7117 22.8718C16.7661 22.5043 16.8274 22.1437 16.8886 21.783C17.0111 21.0888 17.1472 20.3947 17.2969 19.7073C17.576 18.4211 17.9162 17.1485 18.3178 15.8963C18.5151 15.2838 18.7261 14.6714 18.9507 14.0725C19.0595 13.7867 19.1684 13.5008 19.2841 13.2218C19.3318 13.1061 19.3794 12.9836 19.427 12.8679C19.3454 13.0653 19.4679 12.7795 19.4747 12.7658C19.5087 12.6774 19.5495 12.5957 19.5904 12.5072C20.0531 11.466 20.5635 10.4452 21.142 9.46524C21.421 8.99571 21.7136 8.52614 22.0267 8.07698C22.1764 7.86602 22.3261 7.65505 22.4758 7.44408C22.5371 7.35561 22.6051 7.27395 22.6664 7.18548C22.5303 7.36242 22.646 7.2127 22.68 7.17187C22.7344 7.09701 22.7957 7.02895 22.8501 6.9541C23.449 6.21231 24.1091 5.51816 24.8237 4.89207C24.987 4.74915 25.1503 4.61985 25.3137 4.48375C25.5042 4.32722 25.1299 4.61305 25.3273 4.47013C25.3613 4.44291 25.4021 4.41569 25.4362 4.38847C25.5314 4.32042 25.6199 4.25236 25.7152 4.18431C26.0759 3.93251 26.4502 3.70113 26.8381 3.49697C27.0218 3.40169 27.2056 3.30642 27.3961 3.21795C27.437 3.19753 27.4778 3.18392 27.5118 3.1635C27.7092 3.06823 27.3417 3.23156 27.4778 3.17711C27.5867 3.13628 27.6956 3.08864 27.8044 3.04781C28.1855 2.9049 28.5666 2.79601 28.9614 2.70754C29.1451 2.66671 29.3357 2.63949 29.5194 2.60546C29.7372 2.56463 29.322 2.62588 29.465 2.61227C29.5194 2.60546 29.567 2.59866 29.6215 2.59185C29.7236 2.57824 29.8324 2.57143 29.9345 2.56463C30.3429 2.53741 30.758 2.53741 31.1731 2.57143C31.2684 2.57824 31.3637 2.59185 31.4589 2.59866C31.7516 2.62588 31.2684 2.56463 31.561 2.61227C31.772 2.64629 31.9761 2.68713 32.1803 2.73476C32.575 2.83004 32.9561 2.95254 33.3372 3.09545C33.3849 3.11587 33.6707 3.23156 33.5142 3.1635C33.3576 3.09545 33.6435 3.22475 33.6911 3.24517C33.8885 3.34044 34.0858 3.43572 34.2764 3.5446C34.6507 3.74876 35.0181 3.98015 35.3652 4.22514C35.4605 4.29319 35.5558 4.36125 35.6442 4.4293C35.6783 4.45652 35.7191 4.48375 35.7531 4.51097C35.549 4.36125 35.6919 4.46333 35.7395 4.50416C35.9233 4.65388 36.107 4.8036 36.2839 4.96012C36.6446 5.27997 36.9849 5.61344 37.3184 5.96051C37.6518 6.31439 37.9717 6.68869 38.2779 7.06979C38.3119 7.11062 38.346 7.15145 38.3732 7.19228C38.5433 7.40325 38.2439 7.02215 38.4072 7.23992C38.4685 7.32839 38.5365 7.41006 38.5978 7.49853C38.7611 7.7163 38.9176 7.94088 39.0673 8.16545C39.7002 9.09779 40.2651 10.0777 40.7687 11.0849C41.0341 11.6089 41.2791 12.1329 41.5105 12.6706C41.5377 12.725 41.5581 12.7863 41.5853 12.8407C41.7078 13.1197 41.5445 12.7318 41.6125 12.902C41.667 13.0313 41.7214 13.1674 41.7759 13.2967C41.8984 13.5961 42.0141 13.8955 42.123 14.2018C42.5789 15.4336 42.9668 16.6857 43.3003 17.9583C44.0217 20.7077 44.4436 23.3414 44.6682 26.0908C44.7975 27.5539 44.8519 29.0307 44.8587 30.5007ZM44.8587 30.5007C44.8587 31.0315 45.3283 31.5487 45.8795 31.5215C46.4308 31.4942 46.9003 31.0723 46.9003 30.5007C46.8935 24.6821 46.0565 18.7478 43.9672 13.2967C42.3748 9.14543 40.0269 4.95332 36.2771 2.38088C34.7391 1.32605 32.9629 0.659123 31.1051 0.523023C29.2744 0.386913 27.437 0.863293 25.8241 1.71396C22.0335 3.71474 19.4815 7.64824 17.7937 11.466C15.4663 16.7334 14.3842 22.5043 14.1529 28.2413C13.9147 34.1551 14.5612 40.2051 16.385 45.8468C17.7937 50.1954 19.9647 54.7074 23.5239 57.7017C24.9598 58.9063 26.6271 59.8863 28.4782 60.281C30.2612 60.6621 32.1395 60.5396 33.8476 59.8931C37.8152 58.3823 40.5917 54.789 42.47 51.1141C45.0084 46.1462 46.2606 40.5658 46.7166 35.033C46.8391 33.529 46.9003 32.0182 46.9003 30.5075C46.9003 29.9766 46.4308 29.4594 45.8795 29.4867C45.3215 29.5071 44.8587 29.929 44.8587 30.5007ZM31.5203 59.4783C31.5203 58.9611 31.5203 58.4439 31.5203 57.9267C31.5203 56.5248 31.5203 55.1229 31.5203 53.7142C31.5203 51.6317 31.5203 49.5493 31.5203 47.4668C31.5203 44.9352 31.5203 42.4036 31.5203 39.872C31.5203 37.0886 31.5203 34.3052 31.5203 31.5218C31.5203 28.7248 31.5203 25.921 31.5203 23.124C31.5203 20.5039 31.5203 17.8839 31.5203 15.2638C31.5203 13.0589 31.5203 10.8539 31.5203 8.64901C31.5203 7.05655 31.5203 5.4641 31.5203 3.87164C31.5203 3.12305 31.5339 2.36765 31.5203 1.61906C31.5203 1.58503 31.5203 1.551 31.5203 1.52378C31.5203 0.992963 31.0507 0.475763 30.4995 0.502983C29.9483 0.530203 29.4787 0.952133 29.4787 1.52378V57.1305C29.4787 57.8791 29.4651 58.6345 29.4787 59.383V59.4783C29.4787 60.0091 29.9483 60.5263 30.4995 60.4991C31.0507 60.4787 31.5203 60.05 31.5203 59.4783Z" stroke="#5D56F1"/>
<path d="M58.4552 30.5013C58.4552 31.3384 58.4212 32.1754 58.3463 33.0125C58.2715 33.8632 58.1898 34.4892 58.0469 35.3127C57.7747 36.8711 57.3664 38.4023 56.8423 39.8927C56.3319 41.3286 55.7535 42.6149 54.9913 43.9964C54.3039 45.2349 53.4328 46.562 52.6298 47.6032C51.8812 48.5696 50.8808 49.6857 49.9281 50.6112C49.4517 51.0739 48.9617 51.5163 48.4513 51.945C48.2664 52.1 48.0778 52.2549 47.8882 52.4072C47.7553 52.5139 47.4392 52.7579 47.5734 52.6528C47.519 52.6936 47.4645 52.7345 47.4169 52.7753C47.2604 52.8978 47.097 53.0135 46.9337 53.1292C45.8244 53.9254 44.6607 54.6536 43.4562 55.2865C42.8301 55.6131 42.1972 55.9194 41.5507 56.1984C41.3601 56.2801 41.0947 56.3889 40.768 56.5182C40.421 56.6544 40.0739 56.7837 39.72 56.9062C38.3998 57.3621 37.0387 57.7296 35.664 57.9882C35.3237 58.0495 34.9835 58.1107 34.6432 58.1651C34.5082 58.1921 34.3699 58.206 34.2339 58.2275C34.224 58.229 34.238 58.2273 34.2961 58.2196C34.1056 58.2468 33.915 58.2672 33.7245 58.2876C33.0099 58.3693 32.2885 58.4169 31.5672 58.4442C30.0972 58.4986 28.6273 58.4442 27.1709 58.274C26.5993 58.206 25.9459 58.1107 25.2314 57.9678C24.5236 57.8317 23.8227 57.6684 23.1285 57.4778C22.4548 57.2941 21.7947 57.0899 21.1345 56.8585C20.8351 56.7496 20.5289 56.6407 20.2294 56.5251C19.8211 56.3617 19.6578 56.2937 19.3515 56.1644C18.0993 55.6131 16.8812 54.9734 15.7175 54.2453C15.1254 53.8778 14.5469 53.4831 13.9821 53.0747C13.4308 52.6732 13.0497 52.3806 12.4645 51.8838C11.4301 51.0059 10.4569 50.0531 9.55181 49.0391C8.60585 47.9775 7.95934 47.1336 7.16311 45.9291C6.29883 44.6225 5.55024 43.2478 4.91053 41.8254C4.63151 41.1993 4.35929 40.5188 4.1075 39.7906C3.84209 39.0284 3.6107 38.2594 3.40654 37.4768C3.00503 35.9116 2.75323 34.4416 2.63073 32.9036C2.12033 26.5474 3.70598 20.2932 7.22436 14.9987C7.4081 14.7196 7.59865 14.4474 7.7892 14.1752C7.88448 14.0391 7.98656 13.903 8.08184 13.7737C8.14308 13.692 8.19753 13.6172 8.25877 13.5355C8.27919 13.5083 8.44932 13.2837 8.34044 13.4266C8.75557 12.889 9.19791 12.3718 9.64711 11.8614C10.5658 10.8406 11.5594 9.88104 12.6142 8.99635C12.866 8.78539 13.1246 8.57442 13.39 8.37026C13.4104 8.35665 13.5397 8.25457 13.4172 8.34984C13.4989 8.28859 13.5738 8.22735 13.6554 8.1729C13.7983 8.06402 13.9481 7.95513 14.0978 7.84625C14.649 7.44473 15.2207 7.07043 15.7991 6.70975C16.889 6.03417 18.0265 5.43022 19.2007 4.90908C19.3582 4.83917 19.728 4.68265 19.5693 4.7498C19.6305 4.72258 19.6918 4.69536 19.753 4.67494C19.9096 4.61369 20.0661 4.54564 20.2226 4.48439C20.5697 4.34828 20.9168 4.21898 21.2706 4.09648C21.9444 3.8651 22.6249 3.65413 23.3191 3.47039C23.9792 3.29345 24.6529 3.14373 25.3266 3.01443C25.6669 2.95318 26.0072 2.89193 26.3475 2.83749C26.4495 2.82388 26.5516 2.81027 26.6537 2.78985C26.6809 2.78305 26.8511 2.76263 26.6945 2.78305C26.8987 2.75582 27.1097 2.7286 27.3206 2.70819C28.7634 2.55166 30.2197 2.50403 31.6693 2.55847C32.4042 2.58569 33.146 2.64694 33.8742 2.7286C34.0151 2.74269 34.4311 2.80069 34.2905 2.78437C34.2838 2.7836 34.2647 2.78113 34.2281 2.77624C34.3982 2.79666 34.5752 2.82388 34.7453 2.8511C35.106 2.90554 35.4599 2.96679 35.8205 3.04165C37.2088 3.31386 38.5767 3.68816 39.9174 4.15773C40.2372 4.27342 40.5503 4.38911 40.8633 4.51161C41.0198 4.57286 41.1764 4.63411 41.3329 4.70216C41.3533 4.70897 41.5098 4.77702 41.3669 4.71577C41.4758 4.76341 41.5847 4.81105 41.6936 4.85868C42.3197 5.13771 42.939 5.43714 43.5446 5.75699C44.7628 6.4035 45.9401 7.13849 47.0562 7.95513C47.1066 7.99155 47.1559 8.02797 47.205 8.06439C47.3424 8.16638 47.6605 8.40767 47.5258 8.30221C47.5802 8.34304 47.6279 8.38387 47.6823 8.4247C47.9681 8.64928 48.254 8.88066 48.533 9.11885C49.0638 9.56804 49.581 10.0375 50.0778 10.5275C50.5542 10.9903 51.0101 11.4735 51.4457 11.9703C51.6634 12.2153 51.8812 12.4671 52.0922 12.7257C52.2011 12.855 52.3032 12.9843 52.4052 13.1136C52.4665 13.1884 52.5277 13.2701 52.589 13.3449C52.7183 13.5083 52.5345 13.2701 52.6706 13.4538C53.5485 14.6107 54.3448 15.8289 55.0457 17.1083C56.5429 19.8441 57.5569 22.7772 58.0877 25.9213C58.217 26.6835 58.2919 27.296 58.3599 28.1058C58.428 28.902 58.4552 29.7051 58.4552 30.5013ZM58.4552 30.5013C58.4552 31.0321 58.9248 31.5493 59.476 31.5221M58.4552 30.5013C58.4552 29.9296 58.9248 29.5077 59.4828 29.4805C60.0341 29.4533 60.5036 29.9705 60.5036 30.5013M58.4552 30.5013C58.4484 34.7478 57.4825 39.0141 55.6178 42.7911C55.1647 43.7148 54.6569 44.6088 54.1074 45.4773C54.0369 45.5886 54.1635 45.7229 54.2779 45.6576C54.3901 45.5934 54.3456 45.4179 54.2163 45.4179C53.9467 45.4179 53.6777 45.4179 53.4061 45.4179C52.2356 45.4179 51.065 45.4179 49.8877 45.4179C48.1455 45.4179 46.4033 45.4179 44.668 45.4179C42.5515 45.4179 40.4418 45.4179 38.3254 45.4179C36.0115 45.4179 33.6977 45.4179 31.3771 45.4179C29.0292 45.4179 26.6814 45.4179 24.3335 45.4179C22.1422 45.4179 19.9577 45.4179 17.7663 45.4179C15.9221 45.4179 14.0846 45.4179 12.2404 45.4179C10.9133 45.4179 9.58631 45.4179 8.26603 45.4179C7.63313 45.4179 7.00023 45.3907 6.36733 45.4179C6.34485 45.4179 6.33683 45.4477 6.35627 45.459C6.47366 45.5272 6.59113 45.5953 6.70913 45.6629C6.82833 45.7312 6.95698 45.5934 6.88354 45.4773C6.41532 44.7372 5.98011 43.9743 5.57791 43.1926C5.08112 42.233 4.70682 41.3824 4.34614 40.4228C3.97184 39.4156 3.64518 38.3948 3.38658 37.3536C3.25047 36.8091 3.12798 36.2579 3.01909 35.7067C2.97145 35.4549 2.92381 35.2099 2.88298 34.9581C2.86257 34.822 2.84215 34.6859 2.82173 34.5498C2.80132 34.4137 2.7809 34.2707 2.7741 34.2367C2.20245 29.8473 2.62438 25.5326 4.05351 21.3678C4.7533 19.3314 5.69838 17.3827 6.88335 15.5108C6.95373 15.3996 6.8272 15.2651 6.71296 15.3304C6.60087 15.3945 6.64528 15.5696 6.77438 15.5696H52.7255C53.3584 15.5696 53.9913 15.5968 54.6242 15.5696C54.6467 15.5696 54.6547 15.5398 54.6353 15.5285C54.5179 15.4603 54.4004 15.3922 54.2824 15.3246C54.1632 15.2563 54.0346 15.3941 54.108 15.5102C54.5763 16.2503 55.0115 17.0132 55.4137 17.7949C55.9105 18.7545 56.2848 19.6052 56.6454 20.5647C57.0197 21.5719 57.3464 22.5927 57.605 23.6339C57.7411 24.158 57.8568 24.6888 57.9589 25.2196C58.0133 25.485 58.061 25.7572 58.1018 26.0226C58.1222 26.1383 58.1358 26.254 58.1562 26.3697C58.1615 26.3985 58.1657 26.4283 58.1697 26.4583C58.1823 26.5535 58.2174 26.7778 58.2039 26.6827C58.3808 27.9554 58.4552 29.2287 58.4552 30.5013ZM59.476 31.5221C60.0273 31.4949 60.4968 31.0729 60.4968 30.5013M59.476 31.5221L59.3811 31.5212C58.6325 31.5349 57.8771 31.5212 57.1285 31.5212H1.52183C0.950181 31.5212 0.521441 31.0517 0.501031 30.5004C0.473811 29.9492 0.991011 29.4796 1.52183 29.4796C1.54905 29.4796 1.58308 29.4796 1.61711 29.4796C2.3657 29.466 3.1211 29.4796 3.86969 29.4796C5.46215 29.4796 7.0546 29.4796 8.64706 29.4796C10.852 29.4796 13.0569 29.4796 15.2619 29.4796C17.8819 29.4796 20.502 29.4796 23.1221 29.4796C25.9191 29.4796 28.7229 29.4796 31.5199 29.4796C34.3033 29.4796 37.0867 29.4796 39.8701 29.4796C42.4017 29.4796 44.9333 29.4796 47.4649 29.4796C49.5474 29.4796 51.6298 29.4796 53.7122 29.4796C55.121 29.4796 56.5229 29.4796 57.9248 29.4796C58.442 29.4796 58.9592 29.4796 59.4764 29.4796C60.048 29.4796 60.4696 29.9501 60.4968 30.5013M59.476 31.5221C60.0068 31.5221 60.524 31.0526 60.4968 30.5013M60.4968 30.5013C60.4832 23.9409 58.3191 17.469 54.3107 12.2697C50.7379 7.63528 45.8857 4.10329 40.3597 2.16376C34.684 0.17659 28.3823 -0.027572 22.5841 1.55808C16.9969 3.08248 11.8792 6.2674 8.04781 10.6024C3.76042 15.4546 1.14035 21.5931 0.602731 28.0446C0.0446879 34.6866 1.77325 41.4784 5.46857 47.0316C8.65349 51.8362 13.2131 55.7152 18.5077 58.0018C24.1017 60.4177 30.3218 61.0983 36.3105 59.9345C42.0202 58.8253 47.3625 55.9806 51.5137 51.911C55.9917 47.5147 59.0609 41.7029 60.0817 35.5101C60.3539 33.8563 60.4968 32.1822 60.5036 30.5013M60.4968 30.5013C60.4832 25.2135 59.0886 19.959 56.4209 15.3858C56.2711 15.1272 56.1146 14.8686 55.9513 14.6168C55.7063 14.2289 55.4613 13.6913 54.9781 13.5824C54.8828 13.562 54.774 13.5484 54.6787 13.5484C54.5902 13.5416 54.5017 13.5484 54.4133 13.5484C53.9845 13.5484 53.549 13.5484 53.1203 13.5484C51.4121 13.5484 49.704 13.5484 47.9958 13.5484C45.4778 13.5484 42.953 13.5484 40.435 13.5484C37.4883 13.5484 34.5416 13.5484 31.588 13.5484C28.5937 13.5484 25.5993 13.5484 22.6049 13.5484C19.9509 13.5484 17.29 13.5484 14.6359 13.5484C12.6963 13.5484 10.7636 13.5484 8.82408 13.5484C7.99382 13.5484 7.14995 13.5075 6.3197 13.5484C6.08151 13.562 5.87054 13.6164 5.67319 13.7661C5.39417 13.9839 5.20362 14.365 5.01307 14.6713C4.84293 14.9435 4.6796 15.2157 4.51627 15.4947C3.84935 16.6516 3.27089 17.8562 2.75368 19.088C1.73968 21.5175 1.08636 24.0763 0.746101 26.6964C0.0587527 31.9909 0.834561 37.4148 2.92382 42.3283C3.42061 43.492 3.98545 44.6217 4.63196 45.7106C5.01306 46.3503 5.45541 47.4187 6.28567 47.4596H6.3197C6.58511 47.4664 6.85732 47.4596 7.12954 47.4596H54.6855C55.0258 47.446 55.2912 47.3235 55.5089 47.058C55.9105 46.5749 56.2235 45.9624 56.5366 45.4179C57.8228 43.1722 58.83 40.7427 59.4969 38.2383C60.1638 35.7203 60.4968 33.1077 60.5036 30.5013M44.8587 30.5007C44.8587 32.0319 44.7975 33.5631 44.6682 35.0875C44.6069 35.8088 44.5321 36.5234 44.4436 37.2448C44.4368 37.3196 44.4232 37.3945 44.4164 37.4694C44.3687 37.83 44.43 37.3809 44.4028 37.585C44.3823 37.7484 44.3551 37.9185 44.3279 38.0818C44.2735 38.4493 44.2122 38.81 44.151 39.1775C43.7018 41.8044 43.0349 44.3972 42.1025 46.8948C42.0005 47.167 41.8984 47.4392 41.7895 47.7046C41.7282 47.8544 41.667 47.9973 41.6057 48.147C41.6738 47.9837 41.6125 48.1334 41.5989 48.1674C41.5649 48.2559 41.5241 48.3375 41.4901 48.426C41.2519 48.9704 40.9933 49.5149 40.7279 50.0457C40.2243 51.0325 39.6662 51.992 39.0401 52.9108C38.904 53.1149 38.7611 53.3123 38.6114 53.5096C38.5297 53.6185 38.448 53.7274 38.3664 53.8295C38.4957 53.6593 38.4072 53.775 38.38 53.8091C38.3324 53.8703 38.2847 53.9316 38.2303 53.9928C37.9172 54.3807 37.5838 54.7618 37.2435 55.1225C36.91 55.4696 36.5698 55.803 36.2091 56.1161C36.0458 56.259 35.8824 56.3883 35.7191 56.5244C35.5762 56.6333 35.7395 56.5108 35.7599 56.4972C35.7123 56.5312 35.6647 56.5652 35.6238 56.5993C35.5217 56.6741 35.4197 56.749 35.3176 56.8238C34.9637 57.0688 34.603 57.2934 34.2287 57.4976C34.045 57.5929 33.8612 57.6881 33.6707 57.7766C33.6026 57.8038 33.3032 57.9331 33.589 57.8174C33.4801 57.8583 33.3712 57.9059 33.2624 57.9467C32.8744 58.0896 32.4797 58.2121 32.0714 58.3006C31.8877 58.3414 31.6971 58.3755 31.5134 58.4027C31.4887 58.4074 31.4724 58.4107 31.4626 58.4129C31.4239 58.4213 31.4777 58.4107 31.4385 58.4163C31.3228 58.4299 31.2071 58.4367 31.0914 58.4503C30.6899 58.4775 30.2884 58.4775 29.8869 58.4435C29.7848 58.4367 29.6759 58.4231 29.5738 58.4163C29.533 58.4095 29.4854 58.4095 29.4513 58.4027C29.7236 58.4639 29.6011 58.4231 29.533 58.4095C29.3288 58.3755 29.1179 58.3414 28.9137 58.2938C28.5122 58.1985 28.1107 58.076 27.7296 57.9331C27.6411 57.8991 27.5526 57.8651 27.4574 57.8242C27.7568 57.9467 27.4029 57.797 27.3417 57.7698C27.1443 57.6745 26.947 57.5792 26.7564 57.4704C26.3821 57.2662 26.0146 57.0348 25.6676 56.7898C25.5859 56.7286 25.4974 56.6673 25.4158 56.6061C25.3681 56.572 25.3205 56.538 25.2796 56.504C25.477 56.6469 25.3613 56.5652 25.3205 56.5312C25.1367 56.3815 24.953 56.2318 24.7761 56.0752C24.0411 55.4287 23.3673 54.7074 22.7549 53.9384C22.7072 53.8771 22.5371 53.6593 22.6664 53.8295C22.5847 53.7206 22.5031 53.6185 22.4214 53.5096C22.2581 53.2919 22.1015 53.0673 21.9518 52.8427C21.6524 52.4003 21.3666 51.9444 21.0943 51.4816C20.5091 50.4812 19.9919 49.4468 19.5291 48.3852C19.5087 48.3375 19.3522 47.9769 19.427 48.1538C19.3658 48.0041 19.3045 47.8612 19.2433 47.7114C19.1208 47.412 19.0051 47.1126 18.8962 46.8063C18.6784 46.2143 18.4743 45.6222 18.2837 45.0233C17.8822 43.7507 17.5419 42.4577 17.2629 41.1511C17.1132 40.4637 16.9839 39.7696 16.8614 39.0686C16.807 38.742 16.7525 38.4153 16.7049 38.0818C16.6777 37.9185 16.6572 37.7484 16.63 37.585C16.6028 37.3741 16.664 37.83 16.6164 37.4694C16.6028 37.3605 16.5892 37.2448 16.5756 37.1359C16.3918 35.6659 16.2761 34.1892 16.2149 32.7056C16.0992 29.7248 16.2149 26.7237 16.5892 23.7633C16.63 23.4367 16.6572 23.2665 16.7117 22.8718C16.7661 22.5043 16.8274 22.1437 16.8886 21.783C17.0111 21.0888 17.1472 20.3947 17.2969 19.7073C17.576 18.4211 17.9162 17.1485 18.3178 15.8963C18.5151 15.2838 18.7261 14.6714 18.9507 14.0725C19.0595 13.7867 19.1684 13.5008 19.2841 13.2218C19.3318 13.1061 19.3794 12.9836 19.427 12.8679C19.3454 13.0653 19.4679 12.7795 19.4747 12.7658C19.5087 12.6774 19.5495 12.5957 19.5904 12.5072C20.0531 11.466 20.5635 10.4452 21.142 9.46524C21.421 8.99571 21.7136 8.52614 22.0267 8.07698C22.1764 7.86602 22.3261 7.65505 22.4758 7.44408C22.5371 7.35561 22.6051 7.27395 22.6664 7.18548C22.5303 7.36242 22.646 7.2127 22.68 7.17187C22.7344 7.09701 22.7957 7.02895 22.8501 6.9541C23.449 6.21231 24.1091 5.51816 24.8237 4.89207C24.987 4.74915 25.1503 4.61985 25.3137 4.48375C25.5042 4.32722 25.1299 4.61305 25.3273 4.47013C25.3613 4.44291 25.4021 4.41569 25.4362 4.38847C25.5314 4.32042 25.6199 4.25236 25.7152 4.18431C26.0759 3.93251 26.4502 3.70113 26.8381 3.49697C27.0218 3.40169 27.2056 3.30642 27.3961 3.21795C27.437 3.19753 27.4778 3.18392 27.5118 3.1635C27.7092 3.06823 27.3417 3.23156 27.4778 3.17711C27.5867 3.13628 27.6956 3.08864 27.8044 3.04781C28.1855 2.9049 28.5666 2.79601 28.9614 2.70754C29.1451 2.66671 29.3357 2.63949 29.5194 2.60546C29.7372 2.56463 29.322 2.62588 29.465 2.61227C29.5194 2.60546 29.567 2.59866 29.6215 2.59185C29.7236 2.57824 29.8324 2.57143 29.9345 2.56463C30.3429 2.53741 30.758 2.53741 31.1731 2.57143C31.2684 2.57824 31.3637 2.59185 31.4589 2.59866C31.7516 2.62588 31.2684 2.56463 31.561 2.61227C31.772 2.64629 31.9761 2.68713 32.1803 2.73476C32.575 2.83004 32.9561 2.95254 33.3372 3.09545C33.3849 3.11587 33.6707 3.23156 33.5142 3.1635C33.3576 3.09545 33.6435 3.22475 33.6911 3.24517C33.8885 3.34044 34.0858 3.43572 34.2764 3.5446C34.6507 3.74876 35.0181 3.98015 35.3652 4.22514C35.4605 4.29319 35.5558 4.36125 35.6442 4.4293C35.6783 4.45652 35.7191 4.48375 35.7531 4.51097C35.549 4.36125 35.6919 4.46333 35.7395 4.50416C35.9233 4.65388 36.107 4.8036 36.2839 4.96012C36.6446 5.27997 36.9849 5.61344 37.3184 5.96051C37.6518 6.31439 37.9717 6.68869 38.2779 7.06979C38.3119 7.11062 38.346 7.15145 38.3732 7.19228C38.5433 7.40325 38.2439 7.02215 38.4072 7.23992C38.4685 7.32839 38.5365 7.41006 38.5978 7.49853C38.7611 7.7163 38.9176 7.94088 39.0673 8.16545C39.7002 9.09779 40.2651 10.0777 40.7687 11.0849C41.0341 11.6089 41.2791 12.1329 41.5105 12.6706C41.5377 12.725 41.5581 12.7863 41.5853 12.8407C41.7078 13.1197 41.5445 12.7318 41.6125 12.902C41.667 13.0313 41.7214 13.1674 41.7759 13.2967C41.8984 13.5961 42.0141 13.8955 42.123 14.2018C42.5789 15.4336 42.9668 16.6857 43.3003 17.9583C44.0217 20.7077 44.4436 23.3414 44.6682 26.0908C44.7975 27.5539 44.8519 29.0307 44.8587 30.5007ZM44.8587 30.5007C44.8587 31.0315 45.3283 31.5487 45.8795 31.5215C46.4308 31.4942 46.9003 31.0723 46.9003 30.5007C46.8935 24.6821 46.0565 18.7478 43.9672 13.2967C42.3748 9.14543 40.0269 4.95332 36.2771 2.38088C34.7391 1.32605 32.9629 0.659123 31.1051 0.523023C29.2744 0.386913 27.437 0.863293 25.8241 1.71396C22.0335 3.71474 19.4815 7.64824 17.7937 11.466C15.4663 16.7334 14.3842 22.5043 14.1529 28.2413C13.9147 34.1551 14.5612 40.2051 16.385 45.8468C17.7937 50.1954 19.9647 54.7074 23.5239 57.7017C24.9598 58.9063 26.6271 59.8863 28.4782 60.281C30.2612 60.6621 32.1395 60.5396 33.8476 59.8931C37.8152 58.3823 40.5917 54.789 42.47 51.1141C45.0084 46.1462 46.2606 40.5658 46.7166 35.033C46.8391 33.529 46.9003 32.0182 46.9003 30.5075C46.9003 29.9766 46.4308 29.4594 45.8795 29.4867C45.3215 29.5071 44.8587 29.929 44.8587 30.5007ZM31.5203 59.4783C31.5203 58.9611 31.5203 58.4439 31.5203 57.9267C31.5203 56.5248 31.5203 55.1229 31.5203 53.7142C31.5203 51.6317 31.5203 49.5493 31.5203 47.4668C31.5203 44.9352 31.5203 42.4036 31.5203 39.872C31.5203 37.0886 31.5203 34.3052 31.5203 31.5218C31.5203 28.7248 31.5203 25.921 31.5203 23.124C31.5203 20.5039 31.5203 17.8839 31.5203 15.2638C31.5203 13.0589 31.5203 10.8539 31.5203 8.64901C31.5203 7.05655 31.5203 5.4641 31.5203 3.87164C31.5203 3.12305 31.5339 2.36765 31.5203 1.61906C31.5203 1.58503 31.5203 1.551 31.5203 1.52378C31.5203 0.992963 31.0507 0.475763 30.4995 0.502983C29.9483 0.530203 29.4787 0.952133 29.4787 1.52378V57.1305C29.4787 57.8791 29.4651 58.6345 29.4787 59.383V59.4783C29.4787 60.0091 29.9483 60.5263 30.4995 60.4991C31.0507 60.4787 31.5203 60.05 31.5203 59.4783Z" stroke="url(#paint8_linear_89_111)"/>
<defs>
<linearGradient id="paint0_linear_89_111" x1="8.08351" y1="-4.99378" x2="71.8274" y2="12.2432" gradientUnits="userSpaceOnUse">
<stop stop-color="#0C93FF"/>
<stop offset="1" stop-color="#B153F0"/>
</linearGradient>
<linearGradient id="paint1_linear_89_111" x1="8.08351" y1="-4.99378" x2="71.8274" y2="12.2432" gradientUnits="userSpaceOnUse">
<stop stop-color="#0C93FF"/>
<stop offset="1" stop-color="#B153F0"/>
</linearGradient>
<linearGradient id="paint2_linear_89_111" x1="8.08351" y1="-4.99378" x2="71.8274" y2="12.2432" gradientUnits="userSpaceOnUse">
<stop stop-color="#0C93FF"/>
<stop offset="1" stop-color="#B153F0"/>
</linearGradient>
<linearGradient id="paint3_linear_89_111" x1="8.08351" y1="-4.99378" x2="71.8274" y2="12.2432" gradientUnits="userSpaceOnUse">
<stop stop-color="#0C93FF"/>
<stop offset="1" stop-color="#B153F0"/>
</linearGradient>
<linearGradient id="paint4_linear_89_111" x1="8.08351" y1="-4.99378" x2="71.8274" y2="12.2432" gradientUnits="userSpaceOnUse">
<stop stop-color="#0C93FF"/>
<stop offset="1" stop-color="#B153F0"/>
</linearGradient>
<linearGradient id="paint5_linear_89_111" x1="8.08351" y1="-4.99378" x2="71.8274" y2="12.2432" gradientUnits="userSpaceOnUse">
<stop stop-color="#0C93FF"/>
<stop offset="1" stop-color="#B153F0"/>
</linearGradient>
<linearGradient id="paint6_linear_89_111" x1="8.08351" y1="-4.99378" x2="71.8274" y2="12.2432" gradientUnits="userSpaceOnUse">
<stop stop-color="#0C93FF"/>
<stop offset="1" stop-color="#B153F0"/>
</linearGradient>
<linearGradient id="paint7_linear_89_111" x1="8.08351" y1="-4.99378" x2="71.8274" y2="12.2432" gradientUnits="userSpaceOnUse">
<stop stop-color="#0C93FF"/>
<stop offset="1" stop-color="#B153F0"/>
</linearGradient>
<linearGradient id="paint8_linear_89_111" x1="8.08351" y1="-4.99378" x2="71.8274" y2="12.2432" gradientUnits="userSpaceOnUse">
<stop stop-color="#0C93FF"/>
<stop offset="1" stop-color="#B153F0"/>
</linearGradient>
</defs>
</svg>
