<svg width="101" height="24" viewBox="0 0 101 24" fill="none" xmlns="http://www.w3.org/2000/svg">
<path d="M5.83249 6.12968C6.35358 6.07498 6.39102 6.42908 6.57812 6.71985C8.07226 9.04887 9.5405 11.398 11.0145 13.7386C11.0922 13.8595 11.1728 13.9747 11.2535 14.0927C11.4953 13.9747 11.3772 13.7875 11.3772 13.635C11.3715 11.3088 11.3715 8.98263 11.3456 6.65651C11.3399 6.23908 11.4723 6.13544 11.8782 6.1268C13.7869 6.08362 13.7725 6.06922 13.7725 7.952C13.7725 11.2225 13.7783 14.4958 13.8185 17.7662C13.8243 18.3275 13.6689 18.4888 13.1305 18.437C12.6497 18.3909 12.1603 18.4254 11.6767 18.4225C11.2045 18.4225 10.8907 18.4139 10.669 17.7776C10.4503 17.1415 10.0098 16.5254 9.63553 15.9208C8.5761 14.2136 7.50514 12.5122 6.43418 10.8108C6.36224 10.6956 6.26721 10.5948 6.07723 10.353C6.07723 11.4009 6.07435 12.2819 6.07723 13.1628C6.08582 14.7145 6.07723 16.2663 6.12327 17.8151C6.13769 18.3103 5.97644 18.46 5.51293 18.4197C4.91413 18.3679 4.12246 18.673 3.77122 18.3016C3.48045 17.9936 3.69063 17.2048 3.69063 16.629C3.69063 13.4536 3.68774 10.281 3.7021 7.10562C3.70787 6.00013 3.59272 6.16423 4.6867 6.14695C4.92567 6.14408 5.82672 6.14695 5.82672 6.1268L5.83249 6.12968Z" fill="white"/>
<path d="M49.2113 14.6975C49.3497 14.116 49.0618 14.0872 48.5523 14.2628C48.0486 14.4356 47.5187 14.5219 47.0118 14.6802C46.4164 14.8645 46.0419 15.2589 46.1226 15.9153C46.2058 16.5919 46.7213 16.8193 47.3174 16.8682C48.4801 16.9689 49.1772 16.183 49.2172 14.6947L49.2113 14.6975ZM51.5925 14.3924C51.7079 15.6101 51.4167 16.8941 52.001 18.086C52.1512 18.394 51.9348 18.3998 51.7249 18.3998C51.1695 18.4027 50.6108 18.3883 50.052 18.4142C49.612 18.4343 49.6172 18.1407 49.5772 17.847C49.5169 17.4065 49.3871 17.3173 49.0074 17.6599C47.827 18.7222 46.4249 18.8172 44.9913 18.3681C44.3605 18.1695 43.9867 17.6023 43.8024 16.9258C43.3591 15.2906 43.788 14.2571 45.3999 13.5863C46.3705 13.1832 47.4269 13.1429 48.4198 12.8377C48.728 12.7427 49.111 12.6737 49.1857 12.2879C49.2546 11.928 49.0618 11.6401 48.7654 11.43C47.9306 10.8341 46.7383 11.0673 46.238 11.9453C46.1455 12.1037 46.0963 12.2476 45.8806 12.2159C45.354 12.141 44.8267 12.0662 44.3001 11.9942C43.9919 11.9511 43.9834 11.7697 44.0555 11.5221C44.3519 10.5317 44.8877 9.77175 45.9698 9.53566C47.2105 9.26791 48.4572 9.23053 49.6868 9.57311C50.9531 9.92717 51.5092 10.598 51.5807 11.8906C51.624 12.7111 51.5899 13.5373 51.5899 14.3866L51.5925 14.3924Z" fill="white"/>
<path d="M62.8635 13.2003C63.2983 13.2003 63.7357 13.1889 64.1731 13.2032C64.5069 13.2148 64.6479 13.1197 64.6079 12.7426C64.5069 11.8501 63.8912 11.2168 63.0013 11.1477C62.0661 11.0757 61.3349 11.6112 61.1132 12.4922C60.9808 13.019 61.1073 13.2723 61.7002 13.209C62.0831 13.1687 62.4747 13.2003 62.8635 13.2003ZM63.9456 14.657C63.0996 14.657 62.2504 14.6686 61.4011 14.6513C61.0234 14.6427 60.9545 14.7953 61.0063 15.135C61.1414 16.0072 61.6713 16.6003 62.5238 16.7788C63.2747 16.9371 63.8793 16.6666 64.3345 15.9123C64.4696 15.6906 64.5791 15.6071 64.8414 15.6503C65.3418 15.7367 65.8487 15.8057 66.3556 15.8403C66.8074 15.8691 66.816 16.0792 66.6632 16.4132C66.4159 16.9487 66.0821 17.4179 65.6185 17.7865C63.2347 19.6808 59.4521 18.4572 58.7321 15.515C58.3491 13.9517 58.395 12.4087 59.3426 10.9692C60.3617 9.4175 61.8785 9.18719 63.4996 9.3455C65.2126 9.51535 66.269 10.5805 66.776 12.1927C66.9714 12.8174 66.9858 13.4796 67.0409 14.1302C67.0783 14.5793 66.8763 14.6599 66.4933 14.6484C65.6473 14.6311 64.7981 14.6427 63.9489 14.6427V14.6542L63.9456 14.657Z" fill="white"/>
<path d="M93.2414 13.2033V13.1975C93.7017 13.1975 94.1595 13.1889 94.6205 13.1975C94.9457 13.2033 95.029 13.0594 94.9943 12.7513C94.8992 11.8848 94.3122 11.2485 93.4801 11.1449C92.5705 11.0298 91.8681 11.4702 91.5717 12.3425C91.3297 13.0536 91.4275 13.1946 92.156 13.2004C92.5187 13.2033 92.8813 13.2004 93.244 13.2004L93.2414 13.2033ZM94.2893 14.6543C93.4919 14.6543 92.6885 14.6888 91.8911 14.6427C91.3671 14.6111 91.3383 14.8155 91.4307 15.2329C91.6406 16.1772 92.1068 16.7587 93.04 16.7962C93.6991 16.8221 94.4185 16.635 94.7641 15.8979C94.8218 15.7742 94.8421 15.5957 95.0408 15.6187C95.7143 15.6993 96.3878 15.7742 97.0587 15.8749C97.283 15.9095 97.1971 16.0909 97.1394 16.2175C96.8685 16.7904 96.5721 17.3575 96.0481 17.7375C94.6113 18.7826 93.0223 18.8661 91.4189 18.2673C89.9651 17.7232 89.2542 16.5083 89.0351 15.04C88.7905 13.3876 89.0351 11.8272 90.1552 10.477C90.4431 10.1286 90.7828 9.9041 91.1625 9.73425C93.9581 8.48478 97.0902 9.84364 97.3348 13.1544C97.4443 14.6399 97.4902 14.637 96.0278 14.6399C95.4468 14.6399 94.8651 14.6399 94.2834 14.6399V14.6571L94.2893 14.6543Z" fill="white"/>
<path d="M20.1926 13.1978C20.6273 13.1978 21.0649 13.1719 21.4967 13.2035C21.9516 13.2381 22.0149 13.0452 21.9574 12.6479C21.8249 11.7785 21.2433 11.2229 20.3509 11.1653C19.2829 11.099 18.6927 11.5395 18.4451 12.5299C18.3271 13.0078 18.3616 13.2755 18.9633 13.2035C19.3692 13.1546 19.7838 13.1949 20.1955 13.192L20.1926 13.1978ZM21.3729 14.6516C20.5496 14.6516 19.7233 14.6804 18.9 14.6401C18.3559 14.6142 18.3012 14.8244 18.4192 15.2792C18.6581 16.1976 19.28 16.854 20.1696 16.8108C20.6935 16.7877 21.3038 16.6064 21.5716 16.0162C21.7155 15.6966 21.9026 15.6046 22.2424 15.6678C22.7174 15.7571 23.201 15.8032 23.6818 15.8665C24.1885 15.9356 24.3036 16.2206 23.9956 16.6582C22.2855 19.0765 19.4959 19.3874 17.3137 17.6601C16.0556 16.664 15.7821 15.0604 15.8944 13.4885C15.998 12.0347 16.4989 10.7363 17.7887 9.8842C20.1983 8.29215 23.7336 9.78052 24.272 12.6018C24.5311 13.9665 23.9783 14.6488 22.6109 14.6459H21.3729V14.6516Z" fill="white"/>
<path d="M68.9551 13.9144C68.9551 12.6073 68.9669 11.3003 68.9492 9.99329C68.9433 9.59025 69.0672 9.41751 69.4876 9.44919C69.8732 9.47797 70.2621 9.45784 70.6509 9.45784C71.0392 9.45784 71.3559 9.44059 71.293 10.0135C71.2667 10.2639 71.5113 10.4309 71.7881 10.1689C72.8098 9.20451 74.0505 9.1872 75.2946 9.48663C76.4284 9.76009 77.016 10.6209 77.1314 11.7494C77.3209 13.5833 77.1944 15.4258 77.2403 17.2654C77.2691 18.4314 77.2521 18.4314 76.0546 18.4314C74.8021 18.4314 74.8047 18.4314 74.8047 17.1675C74.8021 15.7396 74.8047 14.3116 74.7765 12.8837C74.7562 11.8128 74.3614 11.2888 73.5613 11.1823C72.5304 11.047 71.834 11.499 71.5146 12.4979C71.411 12.8262 71.3874 13.1601 71.3874 13.5027C71.3874 14.9306 71.3703 16.3586 71.4018 17.7865C71.4136 18.2701 71.3159 18.4573 70.7801 18.4601C68.9695 18.4659 68.9695 18.4889 68.9695 16.681V13.9201H68.9525L68.9551 13.9144Z" fill="white"/>
<path d="M32.2175 17.133C31.7943 17.5821 31.4316 17.8873 31.0314 18.1464C29.8712 18.9007 27.9539 18.7279 27.0182 17.7405C26.5144 17.2079 26.3475 16.5141 26.3359 15.8058C26.3043 13.8453 26.3187 11.8848 26.2928 9.92138C26.287 9.55867 26.4223 9.48666 26.7534 9.46653C28.6736 9.35714 28.6707 9.34849 28.688 11.2341C28.6995 12.5671 28.6765 13.8972 28.7513 15.2272C28.8031 16.1599 29.2868 16.635 30.0555 16.7127C30.9451 16.8048 31.6849 16.324 31.9527 15.4719C32.0764 15.0775 32.1139 14.6687 32.111 14.2541C32.1052 12.8982 32.134 11.5422 32.0966 10.1863C32.0822 9.65362 32.2261 9.42908 32.7789 9.47807C33.3058 9.52411 33.9794 9.32835 34.3249 9.58745C34.6991 9.86957 34.4141 10.5778 34.4601 11.1017C34.656 13.3473 34.4918 15.5986 34.5753 17.847C34.5926 18.3421 34.4228 18.5005 33.9593 18.4372C33.8153 18.417 33.6685 18.4343 33.5245 18.4343C32.7242 18.4343 32.2866 18.0024 32.2147 17.1359L32.2175 17.133Z" fill="white"/>
<path d="M79.2184 13.3156C79.2361 12.3454 79.5411 10.8513 81.0264 9.96172C82.8462 8.87055 86.4531 8.83895 87.4839 11.6343C87.6335 12.0402 87.6623 12.2648 87.141 12.2763C86.8996 12.2821 86.6518 12.3109 86.4242 12.377C85.7737 12.5642 85.3389 12.5555 84.9447 11.8013C84.4293 10.8138 82.6442 10.9923 82.0717 12.0661C81.4153 13.2926 81.4782 14.6053 82.0803 15.8375C82.4055 16.5054 83.0967 16.73 83.8135 16.6637C84.5185 16.6004 85.0687 16.2233 85.2471 15.5122C85.3822 14.9709 85.6215 14.8903 86.1107 15.0544C86.4734 15.1753 86.8708 15.2013 87.2564 15.2329C87.6741 15.2675 87.7168 15.4575 87.6046 15.8174C87.1587 17.2568 86.2576 18.1895 84.7434 18.4861C81.4527 19.131 79.1843 17.2654 79.2184 13.3127V13.3156Z" fill="white"/>
<path d="M54.1317 12.1928C54.1317 10.379 54.1488 8.56245 54.1199 6.74878C54.1147 6.2824 54.2268 6.06936 54.716 6.13845C54.8832 6.16148 55.0557 6.14133 55.2229 6.13845C56.5096 6.12981 56.5181 6.12981 56.524 7.3994C56.5411 10.8829 56.5411 14.3692 56.5673 17.8526C56.5699 18.2874 56.4637 18.4284 56.0086 18.4371C54.1429 18.4688 54.1429 18.486 54.1402 16.6176C54.1402 15.1436 54.1402 13.6668 54.1402 12.1899H54.1291L54.1317 12.1928Z" fill="white"/>
<path d="M39.4666 10.6612C39.7864 10.5432 39.829 10.2754 39.9759 10.097C40.6501 9.27068 41.862 9.03466 42.7775 9.55286C42.9329 9.64211 43.0995 9.72271 43.0424 9.92423C42.8752 10.5 42.7112 11.0758 42.4955 11.6343C42.3971 11.8905 42.1696 11.7149 41.9945 11.6631C40.6698 11.2715 39.8579 11.7351 39.6566 13.1054C39.4292 14.6427 39.5731 16.2002 39.5789 17.749C39.5789 18.2759 39.4753 18.4573 38.9081 18.4544C37.149 18.4428 37.1433 18.4687 37.1376 16.704C37.1289 14.4988 37.1376 12.2964 37.1146 10.0912C37.1088 9.63346 37.2211 9.39737 37.7162 9.46361C37.8602 9.48374 38.007 9.46649 38.151 9.46649C38.9484 9.46649 39.386 9.86665 39.4666 10.667V10.6612Z" fill="white"/>
</svg>
