<svg width="73" height="71" viewBox="0 0 73 71" fill="none" xmlns="http://www.w3.org/2000/svg">
<g clip-path="url(#clip0_41_111)">
<path d="M36.2637 24.0376C37.0548 23.2412 38.026 22.8656 39.1621 23.0649H39.1631C40.2886 23.2638 41.0705 23.9492 41.4941 24.8237C41.8809 24.8213 42.2459 24.7974 42.6094 24.7866C42.988 24.7753 43.3579 24.7808 43.7188 24.8472C46.3659 25.3306 47.9694 27.9096 47.3604 30.4858L47.2949 30.7349C47.2802 30.7855 47.2757 30.8619 47.2861 30.936C47.2972 31.0141 47.3208 31.0634 47.3389 31.0806C49.5154 33.1167 49.7176 37.2309 47.1855 39.564C47.2387 39.8634 47.3051 40.1511 47.3633 40.4458C47.4241 40.754 47.4744 41.0641 47.4805 41.3765C47.5341 44.4125 44.7954 46.6054 41.8496 45.9175C41.7339 45.8904 41.6692 45.8771 41.6152 45.8882C41.5732 45.8969 41.5214 45.9253 41.4551 46.0386C40.8619 47.0545 40.0149 47.6516 39.0889 47.7896C38.1632 47.9273 37.1745 47.6039 36.3008 46.814L36.2988 46.813C36.2901 46.8048 36.2784 46.7961 36.2578 46.7837C36.2559 46.7826 36.2541 46.7811 36.252 46.7798C35.7012 47.3231 35.0564 47.7237 34.252 47.7905L34.2529 47.7915C33.5558 47.8504 32.9372 47.7392 32.4053 47.4575C31.8735 47.1759 31.4342 46.7274 31.0889 46.1235C31.0182 46.0004 30.9672 45.9446 30.9141 45.9194C30.8629 45.8951 30.7892 45.8898 30.6484 45.9233C28.973 46.3253 27.5344 45.8729 26.3711 44.7134L26.1416 44.4722C24.9593 43.1541 24.7315 41.6008 25.2881 39.9448C25.3331 39.8108 25.3455 39.7207 25.3311 39.644C25.3169 39.5692 25.2737 39.4919 25.1748 39.3911C22.9236 37.0943 22.8906 33.5611 25.0654 31.1958C25.1116 31.1456 25.1592 31.0645 25.1904 30.98C25.2231 30.8914 25.2286 30.8213 25.2168 30.7847V30.7837C24.0574 27.3124 27.4929 23.8759 30.8203 24.9478H30.8213C30.8385 24.9534 30.8596 24.9565 30.8877 24.9585C30.8946 24.959 30.904 24.959 30.9141 24.9595C32.0389 22.6937 34.7888 22.4967 36.2637 24.0376ZM34.3701 24.8345C33.8119 24.6473 33.3045 24.7585 32.877 25.1714C32.4331 25.6006 32.3368 26.1451 32.4658 26.6245C32.5958 27.1073 32.953 27.5194 33.4121 27.6772L33.5117 27.7163C33.7341 27.816 33.8904 27.9706 33.9717 28.1577C34.0644 28.3712 34.0548 28.6153 33.9512 28.8452C33.849 29.0733 33.6758 29.2348 33.458 29.3091C33.2413 29.3829 32.9891 29.367 32.7305 29.2612C31.7412 28.8558 31.0697 28.1314 30.8057 27.0913C30.7631 26.9246 30.7015 26.819 30.6221 26.7466C30.5419 26.6735 30.4336 26.6254 30.2822 26.5903V26.5894C29.1274 26.3231 28.1674 26.6633 27.4121 27.5435C27.0191 28 26.8064 28.4858 26.749 28.9907C26.6916 29.4966 26.7896 30.0288 27.0264 30.5776L27.123 30.8169C27.2053 31.0414 27.2404 31.2239 27.2021 31.396C27.1508 31.6263 26.9725 31.8148 26.6885 32.0562C24.6253 33.8127 24.7081 36.9301 26.8662 38.562C27.6673 39.1678 28.5565 39.4754 29.5049 39.4058C29.5524 38.8432 29.5683 38.3021 29.666 37.7817L29.6904 37.6772C29.7556 37.4434 29.8799 37.2649 30.0488 37.1538C30.2176 37.0428 30.4218 37.005 30.6357 37.0366L30.7285 37.0552L30.8184 37.0806C31.0212 37.1495 31.1773 37.2771 31.2725 37.4536C31.38 37.6532 31.4036 37.9047 31.3477 38.1831C31.2081 38.8782 31.3182 39.426 31.6221 39.8013C31.9261 40.1767 32.4407 40.4002 33.1523 40.4116C33.6672 40.42 34.0636 40.7056 34.1113 41.1646L34.1162 41.2573C34.1199 41.7187 33.7921 42.1494 33.2568 42.1392H33.2559C32.9767 42.1333 32.6693 42.1236 32.375 42.0786C32.1544 42.0449 31.9369 41.9913 31.7412 41.9028L31.5537 41.8022C30.8263 41.3441 30.1081 41.1279 29.2832 41.104L28.9229 41.105C28.5638 41.1172 28.2053 41.0469 27.8389 40.9536C27.5031 40.8681 27.1671 40.7662 26.8018 40.6812C26.7964 40.8923 26.7817 41.1122 26.7744 41.3188C26.7655 41.5719 26.7702 41.8175 26.8193 42.0503L26.8613 42.2241C27.3376 43.987 29.2666 44.8316 30.8291 44.0278C31.0712 43.9033 31.2795 43.8182 31.459 43.7808C31.6395 43.7431 31.7996 43.7518 31.9375 43.8257C32.0745 43.8992 32.1737 44.0287 32.25 44.1987C32.3072 44.3262 32.3539 44.482 32.3945 44.6646L32.4336 44.856L32.4629 44.9849C32.6395 45.6169 33.2298 46.0738 33.8945 46.0757C34.3337 46.0757 34.7044 45.9102 34.9658 45.6284C35.2276 45.3462 35.3856 44.9411 35.3857 44.4526C35.3896 38.4428 35.3857 32.4323 35.3857 26.4204C35.3858 26.3027 35.3911 26.2017 35.377 26.1001L35.3311 25.8745C35.1997 25.3699 34.8907 25.0095 34.3701 24.8354V24.8345ZM38.5879 24.7603C38.1508 24.7639 37.7857 24.931 37.5293 25.2153C37.2724 25.5003 37.1192 25.9094 37.1182 26.4048C37.1162 32.4146 37.1182 38.4252 37.1182 44.437C37.1182 44.5352 37.1158 44.6264 37.123 44.7144L37.1426 44.8511C37.2674 45.5274 37.8284 46.0379 38.501 46.0737C39.2682 46.1159 39.9183 45.618 40.0664 44.8755L40.0879 44.6968C40.0934 44.6338 40.0999 44.5635 40.1152 44.4946V44.4937C40.1817 44.2087 40.3317 43.9939 40.5459 43.8794C40.76 43.7649 41.0228 43.7597 41.2979 43.8608C41.4654 43.9227 41.6297 43.9988 41.7871 44.0679C43.3967 44.7736 45.1595 43.9487 45.6426 42.2524C45.7974 41.7087 45.8168 41.1717 45.6035 40.6255C44.5771 41.0561 43.5481 41.2455 42.4688 41.1206L42.2451 41.0903C42.2106 41.0848 42.1555 41.0975 42.083 41.1353C42.0142 41.1711 41.9435 41.2207 41.8828 41.2681C41.159 41.8447 40.3427 42.2023 39.3984 42.1821C39.0794 42.1748 38.8148 42.0696 38.6348 41.8901C38.4542 41.71 38.3662 41.4627 38.3877 41.189C38.4075 40.9401 38.5206 40.7399 38.7148 40.6069C38.9055 40.4765 39.1658 40.4163 39.4746 40.4214C40.6324 40.4435 41.4457 39.4346 41.1885 38.2964V38.2954C41.1169 37.9799 41.1234 37.703 41.2178 37.4858C41.3144 37.2636 41.4985 37.1164 41.752 37.0571C42.0192 36.9949 42.2729 37.0371 42.4756 37.188C42.6766 37.3378 42.8152 37.5851 42.874 37.9106C42.9603 38.3853 42.9494 38.8884 42.9736 39.3931C43.0418 39.4025 43.1181 39.4125 43.1982 39.4126C44.8791 39.4012 46.4233 38.3347 47.002 36.7896C47.6286 35.1122 47.1873 33.2362 45.9092 32.1177C45.7313 31.962 45.5933 31.8406 45.4951 31.7349C45.3962 31.6282 45.3284 31.5268 45.3018 31.4097C45.2753 31.2929 45.2922 31.1736 45.333 31.0366C45.3735 30.9006 45.4415 30.7336 45.5264 30.52C45.9655 29.4147 45.7905 28.3861 45.0312 27.4829V27.4819C44.6635 27.0432 44.2433 26.7591 43.7793 26.6147C43.3148 26.4702 42.8001 26.4638 42.2402 26.5923H42.2393C42.08 26.6284 41.9673 26.678 41.8828 26.7544C41.799 26.8303 41.7331 26.9416 41.6855 27.1196C41.3997 28.1885 40.704 28.9343 39.6484 29.3042C39.4122 29.3868 39.1806 29.3792 38.9834 29.2905C38.7864 29.202 38.6308 29.0363 38.541 28.8169V28.8159C38.4554 28.6044 38.4506 28.3912 38.5273 28.1987C38.6039 28.0071 38.7578 27.8452 38.9717 27.7271L38.9727 27.7261C39.0521 27.6828 39.1358 27.6442 39.2119 27.6069C39.2899 27.5688 39.3631 27.5309 39.4297 27.4868L39.5283 27.4155C40.0025 27.0425 40.2014 26.4141 40.0234 25.8354C39.8173 25.1674 39.2641 24.7548 38.5879 24.7603Z" fill="black"/>
<path d="M36.2637 24.0376C37.0548 23.2412 38.026 22.8656 39.1621 23.0649H39.1631C40.2886 23.2638 41.0705 23.9492 41.4941 24.8237C41.8809 24.8213 42.2459 24.7974 42.6094 24.7866C42.988 24.7753 43.3579 24.7808 43.7188 24.8472C46.3659 25.3306 47.9694 27.9096 47.3604 30.4858L47.2949 30.7349C47.2802 30.7855 47.2757 30.8619 47.2861 30.936C47.2972 31.0141 47.3208 31.0634 47.3389 31.0806C49.5154 33.1167 49.7176 37.2309 47.1855 39.564C47.2387 39.8634 47.3051 40.1511 47.3633 40.4458C47.4241 40.754 47.4744 41.0641 47.4805 41.3765C47.5341 44.4125 44.7954 46.6054 41.8496 45.9175C41.7339 45.8904 41.6692 45.8771 41.6152 45.8882C41.5732 45.8969 41.5214 45.9253 41.4551 46.0386C40.8619 47.0545 40.0149 47.6516 39.0889 47.7896C38.1632 47.9273 37.1745 47.6039 36.3008 46.814L36.2988 46.813C36.2901 46.8048 36.2784 46.7961 36.2578 46.7837C36.2559 46.7826 36.2541 46.7811 36.252 46.7798C35.7012 47.3231 35.0564 47.7237 34.252 47.7905L34.2529 47.7915C33.5558 47.8504 32.9372 47.7392 32.4053 47.4575C31.8735 47.1759 31.4342 46.7274 31.0889 46.1235C31.0182 46.0004 30.9672 45.9446 30.9141 45.9194C30.8629 45.8951 30.7892 45.8898 30.6484 45.9233C28.973 46.3253 27.5344 45.8729 26.3711 44.7134L26.1416 44.4722C24.9593 43.1541 24.7315 41.6008 25.2881 39.9448C25.3331 39.8108 25.3455 39.7207 25.3311 39.644C25.3169 39.5692 25.2737 39.4919 25.1748 39.3911C22.9236 37.0943 22.8906 33.5611 25.0654 31.1958C25.1116 31.1456 25.1592 31.0645 25.1904 30.98C25.2231 30.8914 25.2286 30.8213 25.2168 30.7847V30.7837C24.0574 27.3124 27.4929 23.8759 30.8203 24.9478H30.8213C30.8385 24.9534 30.8596 24.9565 30.8877 24.9585C30.8946 24.959 30.904 24.959 30.9141 24.9595C32.0389 22.6937 34.7888 22.4967 36.2637 24.0376ZM34.3701 24.8345C33.8119 24.6473 33.3045 24.7585 32.877 25.1714C32.4331 25.6006 32.3368 26.1451 32.4658 26.6245C32.5958 27.1073 32.953 27.5194 33.4121 27.6772L33.5117 27.7163C33.7341 27.816 33.8904 27.9706 33.9717 28.1577C34.0644 28.3712 34.0548 28.6153 33.9512 28.8452C33.849 29.0733 33.6758 29.2348 33.458 29.3091C33.2413 29.3829 32.9891 29.367 32.7305 29.2612C31.7412 28.8558 31.0697 28.1314 30.8057 27.0913C30.7631 26.9246 30.7015 26.819 30.6221 26.7466C30.5419 26.6735 30.4336 26.6254 30.2822 26.5903V26.5894C29.1274 26.3231 28.1674 26.6633 27.4121 27.5435C27.0191 28 26.8064 28.4858 26.749 28.9907C26.6916 29.4966 26.7896 30.0288 27.0264 30.5776L27.123 30.8169C27.2053 31.0414 27.2404 31.2239 27.2021 31.396C27.1508 31.6263 26.9725 31.8148 26.6885 32.0562C24.6253 33.8127 24.7081 36.9301 26.8662 38.562C27.6673 39.1678 28.5565 39.4754 29.5049 39.4058C29.5524 38.8432 29.5683 38.3021 29.666 37.7817L29.6904 37.6772C29.7556 37.4434 29.8799 37.2649 30.0488 37.1538C30.2176 37.0428 30.4218 37.005 30.6357 37.0366L30.7285 37.0552L30.8184 37.0806C31.0212 37.1495 31.1773 37.2771 31.2725 37.4536C31.38 37.6532 31.4036 37.9047 31.3477 38.1831C31.2081 38.8782 31.3182 39.426 31.6221 39.8013C31.9261 40.1767 32.4407 40.4002 33.1523 40.4116C33.6672 40.42 34.0636 40.7056 34.1113 41.1646L34.1162 41.2573C34.1199 41.7187 33.7921 42.1494 33.2568 42.1392H33.2559C32.9767 42.1333 32.6693 42.1236 32.375 42.0786C32.1544 42.0449 31.9369 41.9913 31.7412 41.9028L31.5537 41.8022C30.8263 41.3441 30.1081 41.1279 29.2832 41.104L28.9229 41.105C28.5638 41.1172 28.2053 41.0469 27.8389 40.9536C27.5031 40.8681 27.1671 40.7662 26.8018 40.6812C26.7964 40.8923 26.7817 41.1122 26.7744 41.3188C26.7655 41.5719 26.7702 41.8175 26.8193 42.0503L26.8613 42.2241C27.3376 43.987 29.2666 44.8316 30.8291 44.0278C31.0712 43.9033 31.2795 43.8182 31.459 43.7808C31.6395 43.7431 31.7996 43.7518 31.9375 43.8257C32.0745 43.8992 32.1737 44.0287 32.25 44.1987C32.3072 44.3262 32.3539 44.482 32.3945 44.6646L32.4336 44.856L32.4629 44.9849C32.6395 45.6169 33.2298 46.0738 33.8945 46.0757C34.3337 46.0757 34.7044 45.9102 34.9658 45.6284C35.2276 45.3462 35.3856 44.9411 35.3857 44.4526C35.3896 38.4428 35.3857 32.4323 35.3857 26.4204C35.3858 26.3027 35.3911 26.2017 35.377 26.1001L35.3311 25.8745C35.1997 25.3699 34.8907 25.0095 34.3701 24.8354V24.8345ZM38.5879 24.7603C38.1508 24.7639 37.7857 24.931 37.5293 25.2153C37.2724 25.5003 37.1192 25.9094 37.1182 26.4048C37.1162 32.4146 37.1182 38.4252 37.1182 44.437C37.1182 44.5352 37.1158 44.6264 37.123 44.7144L37.1426 44.8511C37.2674 45.5274 37.8284 46.0379 38.501 46.0737C39.2682 46.1159 39.9183 45.618 40.0664 44.8755L40.0879 44.6968C40.0934 44.6338 40.0999 44.5635 40.1152 44.4946V44.4937C40.1817 44.2087 40.3317 43.9939 40.5459 43.8794C40.76 43.7649 41.0228 43.7597 41.2979 43.8608C41.4654 43.9227 41.6297 43.9988 41.7871 44.0679C43.3967 44.7736 45.1595 43.9487 45.6426 42.2524C45.7974 41.7087 45.8168 41.1717 45.6035 40.6255C44.5771 41.0561 43.5481 41.2455 42.4688 41.1206L42.2451 41.0903C42.2106 41.0848 42.1555 41.0975 42.083 41.1353C42.0142 41.1711 41.9435 41.2207 41.8828 41.2681C41.159 41.8447 40.3427 42.2023 39.3984 42.1821C39.0794 42.1748 38.8148 42.0696 38.6348 41.8901C38.4542 41.71 38.3662 41.4627 38.3877 41.189C38.4075 40.9401 38.5206 40.7399 38.7148 40.6069C38.9055 40.4765 39.1658 40.4163 39.4746 40.4214C40.6324 40.4435 41.4457 39.4346 41.1885 38.2964V38.2954C41.1169 37.9799 41.1234 37.703 41.2178 37.4858C41.3144 37.2636 41.4985 37.1164 41.752 37.0571C42.0192 36.9949 42.2729 37.0371 42.4756 37.188C42.6766 37.3378 42.8152 37.5851 42.874 37.9106C42.9603 38.3853 42.9494 38.8884 42.9736 39.3931C43.0418 39.4025 43.1181 39.4125 43.1982 39.4126C44.8791 39.4012 46.4233 38.3347 47.002 36.7896C47.6286 35.1122 47.1873 33.2362 45.9092 32.1177C45.7313 31.962 45.5933 31.8406 45.4951 31.7349C45.3962 31.6282 45.3284 31.5268 45.3018 31.4097C45.2753 31.2929 45.2922 31.1736 45.333 31.0366C45.3735 30.9006 45.4415 30.7336 45.5264 30.52C45.9655 29.4147 45.7905 28.3861 45.0312 27.4829V27.4819C44.6635 27.0432 44.2433 26.7591 43.7793 26.6147C43.3148 26.4702 42.8001 26.4638 42.2402 26.5923H42.2393C42.08 26.6284 41.9673 26.678 41.8828 26.7544C41.799 26.8303 41.7331 26.9416 41.6855 27.1196C41.3997 28.1885 40.704 28.9343 39.6484 29.3042C39.4122 29.3868 39.1806 29.3792 38.9834 29.2905C38.7864 29.202 38.6308 29.0363 38.541 28.8169V28.8159C38.4554 28.6044 38.4506 28.3912 38.5273 28.1987C38.6039 28.0071 38.7578 27.8452 38.9717 27.7271L38.9727 27.7261C39.0521 27.6828 39.1358 27.6442 39.2119 27.6069C39.2899 27.5688 39.3631 27.5309 39.4297 27.4868L39.5283 27.4155C40.0025 27.0425 40.2014 26.4141 40.0234 25.8354C39.8173 25.1674 39.2641 24.7548 38.5879 24.7603Z" fill="url(#paint0_linear_41_111)"/>
<path d="M36.2637 24.0376C37.0548 23.2412 38.026 22.8656 39.1621 23.0649H39.1631C40.2886 23.2638 41.0705 23.9492 41.4941 24.8237C41.8809 24.8213 42.2459 24.7974 42.6094 24.7866C42.988 24.7753 43.3579 24.7808 43.7188 24.8472C46.3659 25.3306 47.9694 27.9096 47.3604 30.4858L47.2949 30.7349C47.2802 30.7855 47.2757 30.8619 47.2861 30.936C47.2972 31.0141 47.3208 31.0634 47.3389 31.0806C49.5154 33.1167 49.7176 37.2309 47.1855 39.564C47.2387 39.8634 47.3051 40.1511 47.3633 40.4458C47.4241 40.754 47.4744 41.0641 47.4805 41.3765C47.5341 44.4125 44.7954 46.6054 41.8496 45.9175C41.7339 45.8904 41.6692 45.8771 41.6152 45.8882C41.5732 45.8969 41.5214 45.9253 41.4551 46.0386C40.8619 47.0545 40.0149 47.6516 39.0889 47.7896C38.1632 47.9273 37.1745 47.6039 36.3008 46.814L36.2988 46.813C36.2901 46.8048 36.2784 46.7961 36.2578 46.7837C36.2559 46.7826 36.2541 46.7811 36.252 46.7798C35.7012 47.3231 35.0564 47.7237 34.252 47.7905L34.2529 47.7915C33.5558 47.8504 32.9372 47.7392 32.4053 47.4575C31.8735 47.1759 31.4342 46.7274 31.0889 46.1235C31.0182 46.0004 30.9672 45.9446 30.9141 45.9194C30.8629 45.8951 30.7892 45.8898 30.6484 45.9233C28.973 46.3253 27.5344 45.8729 26.3711 44.7134L26.1416 44.4722C24.9593 43.1541 24.7315 41.6008 25.2881 39.9448C25.3331 39.8108 25.3455 39.7207 25.3311 39.644C25.3169 39.5692 25.2737 39.4919 25.1748 39.3911C22.9236 37.0943 22.8906 33.5611 25.0654 31.1958C25.1116 31.1456 25.1592 31.0645 25.1904 30.98C25.2231 30.8914 25.2286 30.8213 25.2168 30.7847V30.7837C24.0574 27.3124 27.4929 23.8759 30.8203 24.9478H30.8213C30.8385 24.9534 30.8596 24.9565 30.8877 24.9585C30.8946 24.959 30.904 24.959 30.9141 24.9595C32.0389 22.6937 34.7888 22.4967 36.2637 24.0376ZM34.3701 24.8345C33.8119 24.6473 33.3045 24.7585 32.877 25.1714C32.4331 25.6006 32.3368 26.1451 32.4658 26.6245C32.5958 27.1073 32.953 27.5194 33.4121 27.6772L33.5117 27.7163C33.7341 27.816 33.8904 27.9706 33.9717 28.1577C34.0644 28.3712 34.0548 28.6153 33.9512 28.8452C33.849 29.0733 33.6758 29.2348 33.458 29.3091C33.2413 29.3829 32.9891 29.367 32.7305 29.2612C31.7412 28.8558 31.0697 28.1314 30.8057 27.0913C30.7631 26.9246 30.7015 26.819 30.6221 26.7466C30.5419 26.6735 30.4336 26.6254 30.2822 26.5903V26.5894C29.1274 26.3231 28.1674 26.6633 27.4121 27.5435C27.0191 28 26.8064 28.4858 26.749 28.9907C26.6916 29.4966 26.7896 30.0288 27.0264 30.5776L27.123 30.8169C27.2053 31.0414 27.2404 31.2239 27.2021 31.396C27.1508 31.6263 26.9725 31.8148 26.6885 32.0562C24.6253 33.8127 24.7081 36.9301 26.8662 38.562C27.6673 39.1678 28.5565 39.4754 29.5049 39.4058C29.5524 38.8432 29.5683 38.3021 29.666 37.7817L29.6904 37.6772C29.7556 37.4434 29.8799 37.2649 30.0488 37.1538C30.2176 37.0428 30.4218 37.005 30.6357 37.0366L30.7285 37.0552L30.8184 37.0806C31.0212 37.1495 31.1773 37.2771 31.2725 37.4536C31.38 37.6532 31.4036 37.9047 31.3477 38.1831C31.2081 38.8782 31.3182 39.426 31.6221 39.8013C31.9261 40.1767 32.4407 40.4002 33.1523 40.4116C33.6672 40.42 34.0636 40.7056 34.1113 41.1646L34.1162 41.2573C34.1199 41.7187 33.7921 42.1494 33.2568 42.1392H33.2559C32.9767 42.1333 32.6693 42.1236 32.375 42.0786C32.1544 42.0449 31.9369 41.9913 31.7412 41.9028L31.5537 41.8022C30.8263 41.3441 30.1081 41.1279 29.2832 41.104L28.9229 41.105C28.5638 41.1172 28.2053 41.0469 27.8389 40.9536C27.5031 40.8681 27.1671 40.7662 26.8018 40.6812C26.7964 40.8923 26.7817 41.1122 26.7744 41.3188C26.7655 41.5719 26.7702 41.8175 26.8193 42.0503L26.8613 42.2241C27.3376 43.987 29.2666 44.8316 30.8291 44.0278C31.0712 43.9033 31.2795 43.8182 31.459 43.7808C31.6395 43.7431 31.7996 43.7518 31.9375 43.8257C32.0745 43.8992 32.1737 44.0287 32.25 44.1987C32.3072 44.3262 32.3539 44.482 32.3945 44.6646L32.4336 44.856L32.4629 44.9849C32.6395 45.6169 33.2298 46.0738 33.8945 46.0757C34.3337 46.0757 34.7044 45.9102 34.9658 45.6284C35.2276 45.3462 35.3856 44.9411 35.3857 44.4526C35.3896 38.4428 35.3857 32.4323 35.3857 26.4204C35.3858 26.3027 35.3911 26.2017 35.377 26.1001L35.3311 25.8745C35.1997 25.3699 34.8907 25.0095 34.3701 24.8354V24.8345ZM38.5879 24.7603C38.1508 24.7639 37.7857 24.931 37.5293 25.2153C37.2724 25.5003 37.1192 25.9094 37.1182 26.4048C37.1162 32.4146 37.1182 38.4252 37.1182 44.437C37.1182 44.5352 37.1158 44.6264 37.123 44.7144L37.1426 44.8511C37.2674 45.5274 37.8284 46.0379 38.501 46.0737C39.2682 46.1159 39.9183 45.618 40.0664 44.8755L40.0879 44.6968C40.0934 44.6338 40.0999 44.5635 40.1152 44.4946V44.4937C40.1817 44.2087 40.3317 43.9939 40.5459 43.8794C40.76 43.7649 41.0228 43.7597 41.2979 43.8608C41.4654 43.9227 41.6297 43.9988 41.7871 44.0679C43.3967 44.7736 45.1595 43.9487 45.6426 42.2524C45.7974 41.7087 45.8168 41.1717 45.6035 40.6255C44.5771 41.0561 43.5481 41.2455 42.4688 41.1206L42.2451 41.0903C42.2106 41.0848 42.1555 41.0975 42.083 41.1353C42.0142 41.1711 41.9435 41.2207 41.8828 41.2681C41.159 41.8447 40.3427 42.2023 39.3984 42.1821C39.0794 42.1748 38.8148 42.0696 38.6348 41.8901C38.4542 41.71 38.3662 41.4627 38.3877 41.189C38.4075 40.9401 38.5206 40.7399 38.7148 40.6069C38.9055 40.4765 39.1658 40.4163 39.4746 40.4214C40.6324 40.4435 41.4457 39.4346 41.1885 38.2964V38.2954C41.1169 37.9799 41.1234 37.703 41.2178 37.4858C41.3144 37.2636 41.4985 37.1164 41.752 37.0571C42.0192 36.9949 42.2729 37.0371 42.4756 37.188C42.6766 37.3378 42.8152 37.5851 42.874 37.9106C42.9603 38.3853 42.9494 38.8884 42.9736 39.3931C43.0418 39.4025 43.1181 39.4125 43.1982 39.4126C44.8791 39.4012 46.4233 38.3347 47.002 36.7896C47.6286 35.1122 47.1873 33.2362 45.9092 32.1177C45.7313 31.962 45.5933 31.8406 45.4951 31.7349C45.3962 31.6282 45.3284 31.5268 45.3018 31.4097C45.2753 31.2929 45.2922 31.1736 45.333 31.0366C45.3735 30.9006 45.4415 30.7336 45.5264 30.52C45.9655 29.4147 45.7905 28.3861 45.0312 27.4829V27.4819C44.6635 27.0432 44.2433 26.7591 43.7793 26.6147C43.3148 26.4702 42.8001 26.4638 42.2402 26.5923H42.2393C42.08 26.6284 41.9673 26.678 41.8828 26.7544C41.799 26.8303 41.7331 26.9416 41.6855 27.1196C41.3997 28.1885 40.704 28.9343 39.6484 29.3042C39.4122 29.3868 39.1806 29.3792 38.9834 29.2905C38.7864 29.202 38.6308 29.0363 38.541 28.8169V28.8159C38.4554 28.6044 38.4506 28.3912 38.5273 28.1987C38.6039 28.0071 38.7578 27.8452 38.9717 27.7271L38.9727 27.7261C39.0521 27.6828 39.1358 27.6442 39.2119 27.6069C39.2899 27.5688 39.3631 27.5309 39.4297 27.4868L39.5283 27.4155C40.0025 27.0425 40.2014 26.4141 40.0234 25.8354C39.8173 25.1674 39.2641 24.7548 38.5879 24.7603Z" stroke="black" stroke-width="0.2"/>
<path d="M36.2637 24.0376C37.0548 23.2412 38.026 22.8656 39.1621 23.0649H39.1631C40.2886 23.2638 41.0705 23.9492 41.4941 24.8237C41.8809 24.8213 42.2459 24.7974 42.6094 24.7866C42.988 24.7753 43.3579 24.7808 43.7188 24.8472C46.3659 25.3306 47.9694 27.9096 47.3604 30.4858L47.2949 30.7349C47.2802 30.7855 47.2757 30.8619 47.2861 30.936C47.2972 31.0141 47.3208 31.0634 47.3389 31.0806C49.5154 33.1167 49.7176 37.2309 47.1855 39.564C47.2387 39.8634 47.3051 40.1511 47.3633 40.4458C47.4241 40.754 47.4744 41.0641 47.4805 41.3765C47.5341 44.4125 44.7954 46.6054 41.8496 45.9175C41.7339 45.8904 41.6692 45.8771 41.6152 45.8882C41.5732 45.8969 41.5214 45.9253 41.4551 46.0386C40.8619 47.0545 40.0149 47.6516 39.0889 47.7896C38.1632 47.9273 37.1745 47.6039 36.3008 46.814L36.2988 46.813C36.2901 46.8048 36.2784 46.7961 36.2578 46.7837C36.2559 46.7826 36.2541 46.7811 36.252 46.7798C35.7012 47.3231 35.0564 47.7237 34.252 47.7905L34.2529 47.7915C33.5558 47.8504 32.9372 47.7392 32.4053 47.4575C31.8735 47.1759 31.4342 46.7274 31.0889 46.1235C31.0182 46.0004 30.9672 45.9446 30.9141 45.9194C30.8629 45.8951 30.7892 45.8898 30.6484 45.9233C28.973 46.3253 27.5344 45.8729 26.3711 44.7134L26.1416 44.4722C24.9593 43.1541 24.7315 41.6008 25.2881 39.9448C25.3331 39.8108 25.3455 39.7207 25.3311 39.644C25.3169 39.5692 25.2737 39.4919 25.1748 39.3911C22.9236 37.0943 22.8906 33.5611 25.0654 31.1958C25.1116 31.1456 25.1592 31.0645 25.1904 30.98C25.2231 30.8914 25.2286 30.8213 25.2168 30.7847V30.7837C24.0574 27.3124 27.4929 23.8759 30.8203 24.9478H30.8213C30.8385 24.9534 30.8596 24.9565 30.8877 24.9585C30.8946 24.959 30.904 24.959 30.9141 24.9595C32.0389 22.6937 34.7888 22.4967 36.2637 24.0376ZM34.3701 24.8345C33.8119 24.6473 33.3045 24.7585 32.877 25.1714C32.4331 25.6006 32.3368 26.1451 32.4658 26.6245C32.5958 27.1073 32.953 27.5194 33.4121 27.6772L33.5117 27.7163C33.7341 27.816 33.8904 27.9706 33.9717 28.1577C34.0644 28.3712 34.0548 28.6153 33.9512 28.8452C33.849 29.0733 33.6758 29.2348 33.458 29.3091C33.2413 29.3829 32.9891 29.367 32.7305 29.2612C31.7412 28.8558 31.0697 28.1314 30.8057 27.0913C30.7631 26.9246 30.7015 26.819 30.6221 26.7466C30.5419 26.6735 30.4336 26.6254 30.2822 26.5903V26.5894C29.1274 26.3231 28.1674 26.6633 27.4121 27.5435C27.0191 28 26.8064 28.4858 26.749 28.9907C26.6916 29.4966 26.7896 30.0288 27.0264 30.5776L27.123 30.8169C27.2053 31.0414 27.2404 31.2239 27.2021 31.396C27.1508 31.6263 26.9725 31.8148 26.6885 32.0562C24.6253 33.8127 24.7081 36.9301 26.8662 38.562C27.6673 39.1678 28.5565 39.4754 29.5049 39.4058C29.5524 38.8432 29.5683 38.3021 29.666 37.7817L29.6904 37.6772C29.7556 37.4434 29.8799 37.2649 30.0488 37.1538C30.2176 37.0428 30.4218 37.005 30.6357 37.0366L30.7285 37.0552L30.8184 37.0806C31.0212 37.1495 31.1773 37.2771 31.2725 37.4536C31.38 37.6532 31.4036 37.9047 31.3477 38.1831C31.2081 38.8782 31.3182 39.426 31.6221 39.8013C31.9261 40.1767 32.4407 40.4002 33.1523 40.4116C33.6672 40.42 34.0636 40.7056 34.1113 41.1646L34.1162 41.2573C34.1199 41.7187 33.7921 42.1494 33.2568 42.1392H33.2559C32.9767 42.1333 32.6693 42.1236 32.375 42.0786C32.1544 42.0449 31.9369 41.9913 31.7412 41.9028L31.5537 41.8022C30.8263 41.3441 30.1081 41.1279 29.2832 41.104L28.9229 41.105C28.5638 41.1172 28.2053 41.0469 27.8389 40.9536C27.5031 40.8681 27.1671 40.7662 26.8018 40.6812C26.7964 40.8923 26.7817 41.1122 26.7744 41.3188C26.7655 41.5719 26.7702 41.8175 26.8193 42.0503L26.8613 42.2241C27.3376 43.987 29.2666 44.8316 30.8291 44.0278C31.0712 43.9033 31.2795 43.8182 31.459 43.7808C31.6395 43.7431 31.7996 43.7518 31.9375 43.8257C32.0745 43.8992 32.1737 44.0287 32.25 44.1987C32.3072 44.3262 32.3539 44.482 32.3945 44.6646L32.4336 44.856L32.4629 44.9849C32.6395 45.6169 33.2298 46.0738 33.8945 46.0757C34.3337 46.0757 34.7044 45.9102 34.9658 45.6284C35.2276 45.3462 35.3856 44.9411 35.3857 44.4526C35.3896 38.4428 35.3857 32.4323 35.3857 26.4204C35.3858 26.3027 35.3911 26.2017 35.377 26.1001L35.3311 25.8745C35.1997 25.3699 34.8907 25.0095 34.3701 24.8354V24.8345ZM38.5879 24.7603C38.1508 24.7639 37.7857 24.931 37.5293 25.2153C37.2724 25.5003 37.1192 25.9094 37.1182 26.4048C37.1162 32.4146 37.1182 38.4252 37.1182 44.437C37.1182 44.5352 37.1158 44.6264 37.123 44.7144L37.1426 44.8511C37.2674 45.5274 37.8284 46.0379 38.501 46.0737C39.2682 46.1159 39.9183 45.618 40.0664 44.8755L40.0879 44.6968C40.0934 44.6338 40.0999 44.5635 40.1152 44.4946V44.4937C40.1817 44.2087 40.3317 43.9939 40.5459 43.8794C40.76 43.7649 41.0228 43.7597 41.2979 43.8608C41.4654 43.9227 41.6297 43.9988 41.7871 44.0679C43.3967 44.7736 45.1595 43.9487 45.6426 42.2524C45.7974 41.7087 45.8168 41.1717 45.6035 40.6255C44.5771 41.0561 43.5481 41.2455 42.4688 41.1206L42.2451 41.0903C42.2106 41.0848 42.1555 41.0975 42.083 41.1353C42.0142 41.1711 41.9435 41.2207 41.8828 41.2681C41.159 41.8447 40.3427 42.2023 39.3984 42.1821C39.0794 42.1748 38.8148 42.0696 38.6348 41.8901C38.4542 41.71 38.3662 41.4627 38.3877 41.189C38.4075 40.9401 38.5206 40.7399 38.7148 40.6069C38.9055 40.4765 39.1658 40.4163 39.4746 40.4214C40.6324 40.4435 41.4457 39.4346 41.1885 38.2964V38.2954C41.1169 37.9799 41.1234 37.703 41.2178 37.4858C41.3144 37.2636 41.4985 37.1164 41.752 37.0571C42.0192 36.9949 42.2729 37.0371 42.4756 37.188C42.6766 37.3378 42.8152 37.5851 42.874 37.9106C42.9603 38.3853 42.9494 38.8884 42.9736 39.3931C43.0418 39.4025 43.1181 39.4125 43.1982 39.4126C44.8791 39.4012 46.4233 38.3347 47.002 36.7896C47.6286 35.1122 47.1873 33.2362 45.9092 32.1177C45.7313 31.962 45.5933 31.8406 45.4951 31.7349C45.3962 31.6282 45.3284 31.5268 45.3018 31.4097C45.2753 31.2929 45.2922 31.1736 45.333 31.0366C45.3735 30.9006 45.4415 30.7336 45.5264 30.52C45.9655 29.4147 45.7905 28.3861 45.0312 27.4829V27.4819C44.6635 27.0432 44.2433 26.7591 43.7793 26.6147C43.3148 26.4702 42.8001 26.4638 42.2402 26.5923H42.2393C42.08 26.6284 41.9673 26.678 41.8828 26.7544C41.799 26.8303 41.7331 26.9416 41.6855 27.1196C41.3997 28.1885 40.704 28.9343 39.6484 29.3042C39.4122 29.3868 39.1806 29.3792 38.9834 29.2905C38.7864 29.202 38.6308 29.0363 38.541 28.8169V28.8159C38.4554 28.6044 38.4506 28.3912 38.5273 28.1987C38.6039 28.0071 38.7578 27.8452 38.9717 27.7271L38.9727 27.7261C39.0521 27.6828 39.1358 27.6442 39.2119 27.6069C39.2899 27.5688 39.3631 27.5309 39.4297 27.4868L39.5283 27.4155C40.0025 27.0425 40.2014 26.4141 40.0234 25.8354C39.8173 25.1674 39.2641 24.7548 38.5879 24.7603Z" stroke="url(#paint1_linear_41_111)" stroke-width="0.2"/>
<path d="M72.4532 35.2663C72.4532 37.6419 72.4598 40.0176 72.4532 42.39C72.4499 43.6487 72.2061 43.9584 70.9968 44.2385C68.7694 44.7591 66.5322 45.2467 64.3113 45.8036C63.9884 45.886 63.6062 46.2023 63.4777 46.5054C62.4233 48.9437 61.1086 51.2205 59.5172 53.3491C59.3195 53.6127 59.2536 54.1036 59.3458 54.4265C59.9719 56.6012 60.6605 58.7561 61.3228 60.9209C61.6721 62.0643 61.5271 62.4629 60.5057 63.056C56.3112 65.4943 52.1167 67.9326 47.9189 70.361C46.9534 70.9211 46.502 70.8388 45.731 70.0018C44.1923 68.3379 42.6766 66.6542 41.1049 65.0198C40.8577 64.7628 40.3569 64.575 40.0076 64.6211C37.3717 64.9803 34.7423 64.9902 32.103 64.6343C31.8262 64.5981 31.4275 64.7793 31.2266 64.9935C29.6285 66.6739 28.0634 68.3906 26.4851 70.0875C25.6613 70.9706 25.2725 71.0299 24.228 70.4302C20.0665 68.0446 15.9082 65.6558 11.7467 63.2636C10.7747 62.7035 10.6132 62.2817 10.9526 61.1944C11.6347 59.0065 12.3068 56.8187 13.0186 54.644C13.1701 54.1761 13.1141 53.8565 12.8143 53.4677C11.2327 51.4347 9.95752 49.2205 9.01187 46.8217C8.82076 46.3341 8.54728 46.1166 8.03985 46.0145C5.90471 45.5729 3.77616 45.0853 1.64432 44.624C0.240659 44.3241 -0.00646348 44.0309 0.000126463 42.6075C0.0198963 37.9649 0.0396661 33.3222 0.0594359 28.6829C0.0660259 27.1046 0.257134 26.8707 1.75305 26.528C3.90467 26.0371 6.06287 25.5626 8.2046 25.0288C8.52751 24.9497 8.90643 24.6301 9.03823 24.3237C10.0893 21.8821 11.4073 19.6086 12.9988 17.48C13.1965 17.2164 13.2624 16.7255 13.1701 16.4026C12.554 14.2543 11.8752 12.1224 11.2162 9.98727C10.834 8.74506 10.9757 8.37603 12.0828 7.7368C16.2081 5.34465 20.3334 2.94921 24.462 0.553769C25.6053 -0.111815 25.9843 -0.0492105 26.9003 0.94587C28.3962 2.57359 29.8822 4.21777 31.4144 5.80924C31.6615 6.06625 32.1623 6.25736 32.5083 6.20794C35.1179 5.84549 37.7209 5.85537 40.3306 6.18158C40.637 6.22112 41.0719 6.05637 41.2861 5.8356C42.9072 4.1387 44.4888 2.40225 46.0869 0.685568C46.8414 -0.124995 47.2566 -0.194189 48.2121 0.356071C52.4 2.75151 56.5813 5.15355 60.7627 7.55887C61.7314 8.11572 61.8961 8.54736 61.56 9.63141C60.8813 11.8193 60.2058 14.0071 59.4941 16.1818C59.3425 16.6464 59.3919 16.9693 59.6951 17.3581C61.2767 19.3911 62.5518 21.6053 63.4975 24.0008C63.6886 24.4851 63.9555 24.696 64.4662 24.8014C66.7331 25.2726 68.9902 25.7932 71.2505 26.3105C72.2094 26.5313 72.5026 26.9135 72.5026 27.8954C72.5092 30.3502 72.5026 32.8082 72.5026 35.263H72.44L72.4532 35.2663ZM25.322 3.05136C21.5986 5.21286 17.9445 7.3447 14.2772 9.45019C13.8522 9.69401 13.928 9.95102 14.04 10.3168C14.6825 12.3728 15.2789 14.4454 15.9445 16.4948C16.1949 17.2724 16.073 17.882 15.5491 18.5048C13.8884 20.4752 12.4551 22.6301 11.6149 25.0585C11.0416 26.7191 10.063 27.4242 8.4023 27.6878C6.47474 27.9943 4.58672 28.5478 2.64928 29.0025V42.1791C4.93599 42.6832 7.19304 43.2039 9.45998 43.675C10.2738 43.8431 10.7912 44.2154 11.0844 45.0326C12.0795 47.7937 13.5194 50.3144 15.4041 52.5714C15.9049 53.1744 16.017 53.7675 15.7699 54.5122C15.0911 56.5584 14.4848 58.6243 13.8028 60.6672C13.6182 61.2174 13.7402 61.4613 14.2344 61.7315C15.9577 62.6771 17.6513 63.6788 19.3581 64.6574C21.223 65.725 23.0913 66.7925 24.9925 67.8799C26.6597 66.0775 28.2973 64.3246 29.9119 62.5519C30.3896 62.028 30.9036 61.8073 31.6285 61.9325C34.5512 62.4333 37.4837 62.4629 40.3997 61.9127C41.2894 61.7446 41.8825 61.9852 42.4624 62.631C44.0077 64.3576 45.5992 66.0413 47.1544 67.725C47.2599 67.6954 47.3159 67.6921 47.362 67.6657C50.9997 65.5602 54.6406 63.4613 58.2618 61.3262C58.4298 61.2273 58.5287 60.7825 58.4628 60.5552C57.8664 58.4859 57.2535 56.4167 56.5846 54.3705C56.321 53.5599 56.4495 52.9405 56.9932 52.2914C58.789 50.1464 60.219 47.7641 61.1811 45.138C61.5699 44.0737 62.1828 43.5465 63.2866 43.3291C65.4745 42.9007 67.6393 42.3505 69.8601 41.8397V28.6368C67.6426 28.1458 65.4217 27.6088 63.1812 27.1738C62.219 26.986 61.682 26.528 61.3558 25.6087C60.4562 23.0749 59.1646 20.7322 57.4314 18.6794C56.6275 17.7271 56.5023 16.8836 56.9141 15.737C57.6489 13.6908 58.2387 11.5919 58.9043 9.46666C55.092 7.2788 51.3193 5.11071 47.5334 2.93933C45.8529 4.75485 44.2318 6.48471 42.637 8.24093C42.1395 8.7879 41.609 9.01855 40.8512 8.89004C37.9582 8.3958 35.0487 8.35955 32.1623 8.90652C31.243 9.08115 30.6302 8.84062 30.0305 8.16844C28.5049 6.45835 26.9332 4.7911 25.3253 3.04806L25.322 3.05136Z" fill="black"/>
<path d="M72.4532 35.2663C72.4532 37.6419 72.4598 40.0176 72.4532 42.39C72.4499 43.6487 72.2061 43.9584 70.9968 44.2385C68.7694 44.7591 66.5322 45.2467 64.3113 45.8036C63.9884 45.886 63.6062 46.2023 63.4777 46.5054C62.4233 48.9437 61.1086 51.2205 59.5172 53.3491C59.3195 53.6127 59.2536 54.1036 59.3458 54.4265C59.9719 56.6012 60.6605 58.7561 61.3228 60.9209C61.6721 62.0643 61.5271 62.4629 60.5057 63.056C56.3112 65.4943 52.1167 67.9326 47.9189 70.361C46.9534 70.9211 46.502 70.8388 45.731 70.0018C44.1923 68.3379 42.6766 66.6542 41.1049 65.0198C40.8577 64.7628 40.3569 64.575 40.0076 64.6211C37.3717 64.9803 34.7423 64.9902 32.103 64.6343C31.8262 64.5981 31.4275 64.7793 31.2266 64.9935C29.6285 66.6739 28.0634 68.3906 26.4851 70.0875C25.6613 70.9706 25.2725 71.0299 24.228 70.4302C20.0665 68.0446 15.9082 65.6558 11.7467 63.2636C10.7747 62.7035 10.6132 62.2817 10.9526 61.1944C11.6347 59.0065 12.3068 56.8187 13.0186 54.644C13.1701 54.1761 13.1141 53.8565 12.8143 53.4677C11.2327 51.4347 9.95752 49.2205 9.01187 46.8217C8.82076 46.3341 8.54728 46.1166 8.03985 46.0145C5.90471 45.5729 3.77616 45.0853 1.64432 44.624C0.240659 44.3241 -0.00646348 44.0309 0.000126463 42.6075C0.0198963 37.9649 0.0396661 33.3222 0.0594359 28.6829C0.0660259 27.1046 0.257134 26.8707 1.75305 26.528C3.90467 26.0371 6.06287 25.5626 8.2046 25.0288C8.52751 24.9497 8.90643 24.6301 9.03823 24.3237C10.0893 21.8821 11.4073 19.6086 12.9988 17.48C13.1965 17.2164 13.2624 16.7255 13.1701 16.4026C12.554 14.2543 11.8752 12.1224 11.2162 9.98727C10.834 8.74506 10.9757 8.37603 12.0828 7.7368C16.2081 5.34465 20.3334 2.94921 24.462 0.553769C25.6053 -0.111815 25.9843 -0.0492105 26.9003 0.94587C28.3962 2.57359 29.8822 4.21777 31.4144 5.80924C31.6615 6.06625 32.1623 6.25736 32.5083 6.20794C35.1179 5.84549 37.7209 5.85537 40.3306 6.18158C40.637 6.22112 41.0719 6.05637 41.2861 5.8356C42.9072 4.1387 44.4888 2.40225 46.0869 0.685568C46.8414 -0.124995 47.2566 -0.194189 48.2121 0.356071C52.4 2.75151 56.5813 5.15355 60.7627 7.55887C61.7314 8.11572 61.8961 8.54736 61.56 9.63141C60.8813 11.8193 60.2058 14.0071 59.4941 16.1818C59.3425 16.6464 59.3919 16.9693 59.6951 17.3581C61.2767 19.3911 62.5518 21.6053 63.4975 24.0008C63.6886 24.4851 63.9555 24.696 64.4662 24.8014C66.7331 25.2726 68.9902 25.7932 71.2505 26.3105C72.2094 26.5313 72.5026 26.9135 72.5026 27.8954C72.5092 30.3502 72.5026 32.8082 72.5026 35.263H72.44L72.4532 35.2663ZM25.322 3.05136C21.5986 5.21286 17.9445 7.3447 14.2772 9.45019C13.8522 9.69401 13.928 9.95102 14.04 10.3168C14.6825 12.3728 15.2789 14.4454 15.9445 16.4948C16.1949 17.2724 16.073 17.882 15.5491 18.5048C13.8884 20.4752 12.4551 22.6301 11.6149 25.0585C11.0416 26.7191 10.063 27.4242 8.4023 27.6878C6.47474 27.9943 4.58672 28.5478 2.64928 29.0025V42.1791C4.93599 42.6832 7.19304 43.2039 9.45998 43.675C10.2738 43.8431 10.7912 44.2154 11.0844 45.0326C12.0795 47.7937 13.5194 50.3144 15.4041 52.5714C15.9049 53.1744 16.017 53.7675 15.7699 54.5122C15.0911 56.5584 14.4848 58.6243 13.8028 60.6672C13.6182 61.2174 13.7402 61.4613 14.2344 61.7315C15.9577 62.6771 17.6513 63.6788 19.3581 64.6574C21.223 65.725 23.0913 66.7925 24.9925 67.8799C26.6597 66.0775 28.2973 64.3246 29.9119 62.5519C30.3896 62.028 30.9036 61.8073 31.6285 61.9325C34.5512 62.4333 37.4837 62.4629 40.3997 61.9127C41.2894 61.7446 41.8825 61.9852 42.4624 62.631C44.0077 64.3576 45.5992 66.0413 47.1544 67.725C47.2599 67.6954 47.3159 67.6921 47.362 67.6657C50.9997 65.5602 54.6406 63.4613 58.2618 61.3262C58.4298 61.2273 58.5287 60.7825 58.4628 60.5552C57.8664 58.4859 57.2535 56.4167 56.5846 54.3705C56.321 53.5599 56.4495 52.9405 56.9932 52.2914C58.789 50.1464 60.219 47.7641 61.1811 45.138C61.5699 44.0737 62.1828 43.5465 63.2866 43.3291C65.4745 42.9007 67.6393 42.3505 69.8601 41.8397V28.6368C67.6426 28.1458 65.4217 27.6088 63.1812 27.1738C62.219 26.986 61.682 26.528 61.3558 25.6087C60.4562 23.0749 59.1646 20.7322 57.4314 18.6794C56.6275 17.7271 56.5023 16.8836 56.9141 15.737C57.6489 13.6908 58.2387 11.5919 58.9043 9.46666C55.092 7.2788 51.3193 5.11071 47.5334 2.93933C45.8529 4.75485 44.2318 6.48471 42.637 8.24093C42.1395 8.7879 41.609 9.01855 40.8512 8.89004C37.9582 8.3958 35.0487 8.35955 32.1623 8.90652C31.243 9.08115 30.6302 8.84062 30.0305 8.16844C28.5049 6.45835 26.9332 4.7911 25.3253 3.04806L25.322 3.05136Z" fill="#3F3F3F"/>
<path d="M54.2043 41.2186C53.5396 43.5637 52.4195 45.7549 50.908 47.6671C49.3965 49.5793 47.5231 51.1751 45.3949 52.3634C43.2666 53.5516 40.9252 54.309 38.5042 54.5923C36.0833 54.8757 33.6302 54.6794 31.2851 54.0147" stroke="#3F3F3F" stroke-width="2.43396"/>
<path d="M19.0708 29.3721C19.9618 27.1033 21.291 25.0323 22.9824 23.2772C24.6738 21.5221 26.6944 20.1173 28.9287 19.1431C31.1631 18.1689 33.5674 17.6443 36.0044 17.5993C38.4415 17.5543 40.8636 17.9897 43.1324 18.8808" stroke="#3F3F3F" stroke-width="2.43396"/>
</g>
<defs>
<linearGradient id="paint0_linear_41_111" x1="23.5596" y1="35.416" x2="48.9288" y2="35.416" gradientUnits="userSpaceOnUse">
<stop stop-color="#6C63FF"/>
<stop offset="1" stop-color="#9A6AFF"/>
</linearGradient>
<linearGradient id="paint1_linear_41_111" x1="23.5596" y1="35.416" x2="48.9288" y2="35.416" gradientUnits="userSpaceOnUse">
<stop stop-color="#6C63FF"/>
<stop offset="1" stop-color="#9A6AFF"/>
</linearGradient>
<clipPath id="clip0_41_111">
<rect width="72.519" height="70.832" fill="white"/>
</clipPath>
</defs>
</svg>
